<mxfile host="Electron" modified="2024-04-13T08:35:42.676Z" agent="Mozilla/5.0 (Windows NT 10.0; Win64; x64) AppleWebKit/537.36 (KHTML, like Gecko) draw.io/21.2.8 Chrome/112.0.5615.165 Electron/24.2.0 Safari/537.36" etag="VfYEU7Pyy9NgiqhRL9BA" version="21.2.8" type="device">
  <diagram name="Page-1" id="2XWkQP5S-hDbL94sL5Vg">
    <mxGraphModel dx="2058" dy="1180" grid="1" gridSize="10" guides="1" tooltips="1" connect="1" arrows="1" fold="1" page="1" pageScale="1" pageWidth="3300" pageHeight="4681" background="#999999" math="0" shadow="0">
      <root>
        <mxCell id="0" />
        <mxCell id="1" parent="0" />
        <mxCell id="HT3JYzme7oOu0LbbBRVU-1" value="C++" style="rounded=0;whiteSpace=wrap;html=1;fillColor=#dae8fc;strokeColor=#6c8ebf;fontSize=52;" parent="1" vertex="1">
          <mxGeometry x="1250" y="270" width="370" height="400" as="geometry" />
        </mxCell>
        <mxCell id="HT3JYzme7oOu0LbbBRVU-2" value="QML" style="rounded=0;whiteSpace=wrap;html=1;fillColor=#f8cecc;strokeColor=#b85450;fontSize=52;" parent="1" vertex="1">
          <mxGeometry x="1640" y="270" width="370" height="400" as="geometry" />
        </mxCell>
        <mxCell id="S9IRetqxCuwVArKSv5vH-1" value="QNetworkAccessFactory and QRestAccessManager" style="rounded=0;whiteSpace=wrap;html=1;fontSize=30;fillColor=#dae8fc;strokeColor=#6c8ebf;" parent="1" vertex="1">
          <mxGeometry x="1080" y="60" width="1200" height="140" as="geometry" />
        </mxCell>
        <mxCell id="2kqwf_G8itHwDUa_p3W8-1" value="" style="shape=image;verticalLabelPosition=bottom;labelBackgroundColor=default;verticalAlign=top;aspect=fixed;imageAspect=0;image=data:image/png,iVBORw0KGgoAAAANSUhEUgAAA8EAAAJuCAYAAACQdQCPAAAAAXNSR0IArs4c6QAAAARnQU1BAACxjwv8YQUAAAAJcEhZcwAADsMAAA7DAcdvqGQAAPNxSURBVHhe7P0PcBTXnS98/3zDVthrZFmg2J7hj0Y2EQbv2oskjLxcC4PFdWFsS8l9RKTcqrfg3VBltO+CFy8JdrkeTL2+RlnWxGZrheshW1D11LUUdO9aMiZcLwJelCUWRgOxN4ag2JH4N2O8IFmW2ZCnuOX3/E6fnunu6e7p6enRv/l+qgZ6WtPT/3v61+ec37ntseU1X1NABq9fU0MAAAAAAAAA489/UP8DAAAAAAAATHoIggEAAAAAACBvIAgGAAAAAACAvIEgGAAAAAAAAPIGgmAAAAAAAADIGwiCAQAAAAAAIG8gCAYAAAAAAIC8gSAYAAAAAAAA8gaCYAAAAAAAAMgbCIIBAAAAAAAgbyAIBgAAAAAAgLyBIBgAAAAAAADyBoJgAAAAAAAAyBsIggEAAAAAACBvIAgGAAAAAACAvIEgGAAAAAAAAPIGgmAAAAAAAADIGwiCAQAAAAAAIG8gCAYAAAAAAIC8gSAYAAAAAAAA8gaCYAAAAAAAAMgbCIIBAAAAAAAgbyAIBgAAAAAAgLyBIBgAAAAAAADyBoJgAAAAAAAAyBsIggEAAAAAACBvIAgGAAAAAACAvIEgGAAAAAAAAPIGgmAAAAAAAADIGwiCAQAAAAAAIG8gCAYAAAAAAIC8gSAYAAAAAAAA8gaCYAAAAAAAAMgbCIIBAAAAAAAgbyAIBgAAAAAAgLyBIBgAAAAAAADyBoJgAAAAAAAAyBu3Pba85ms1nLXB69fUUIAWP093r6lQb5Ju7vs+DZ9UbwAAfInQtJdfpdvvjtLw+tfophqbVkDXpalinoUPhujWR7vp+u5fqLH5pJCeq1lGawtGaO/RI/T6sBrti/5dRAPne6n27GU1HgAAAMBs3JcETwmF1ZBRlP6AAFiYRbu+U0cfGl6dCwrV38YK34galqlmAc1Xf0lRuIA6E8v+OD031osOeWg2feNu8d/VK3RLG+FJINel2Q10uwiA2ZS7Z9IUOTR+zJ+9gHbVPJ48l8U5umvBLOfzWfE7XdYKZ9IyEQCzyLyZ9LQ2OI6oa6PbNREAAABGxbgPgm91PE9X139fvV6kG1fFyAxvWCet2TNpqRrURcIzx/gGa5g+/UoNAox34hySwWeG15RArkuXeugPPB3F6eavesbVNe3pqseprbKMlhaoqFIqoKXzKqmtZrFjgOl3ukAMX6FjI9rgwPkrdEAbBAAAAEgxwdoE+yu1mayenqmVIpmIm8+5anCsfPKluhNN544CiqhBoq/o06yqQgJkbkrFIhkE3zydTVVkv9elAfrqZQ6in6fhjgE1buzNX/A4vRLiIHaEjp8/Rg1vd9BD/DraS8f51C4I0Ss2pZl+pwvOML3epc0TVaEBAADAzcQKghc/TFPFf9ndsE4Ws2iFHgOP9NHeuBqmEK2YrQbHA69B+cgIfaIGYRwqqaLN25uobV8T7awvViMnvikhPoni9L9j2ntfJtV1aRatn6eV4h7vPUIbzg7TOflOGL5MG7pEQMvDBWW03nSd8TtdPimge40F5AAAADBmRj0x1pTZj9LUp+romw+GEm3gbn30Dg3vbktbijKl7jWa8QTRjVefp68uqZGuIjR1/V/JdnfGed14t41uhjmxTdj2u6YsbqDbVy6iqXfrUWZcTHdKm85lvn6n82X2YvqwUs0n3ksPXZlpft9jKQmxfr5nhJ6uqqQfhPTS2BEaiJ+nLWK6xM0r8zOdcRqxDV56+yQdMCStSSyf8XMikG/oOqt9B7cVXl6mfX9iXQrp6QX30w/mhZKlxyPiu0+J7zaVIKvPhadRxFAlc0B89tj539DrlyzFzaO5XSzmF4rAYdE8U9VRx+VkWW2X7FRvbKKmheoNDVHn1lZqvaDeBkYlqbq6m67u/oU6n54R55P211tXo3TjH19LPZdmN9CMF5+hKR9p06VySn5lHn/L6/wsPF+XHJJp0dV36PrL6a9/LJvrpyf6cW08H630zySOQcM4L9OZPmNOjPUeB9PGc2KES5V7aUPK+WC4ntgYOH+MakUg7kqcf8/Nn0fLEuesdv79NO25U0jzZ99PzfOM1xjn60Qnn5sOy2li3J4AAACQU//hwT/9U7J73X777eojQeGAVNwsvrjeFJSyKQ8+QzN2v0bT0pQQaKU2MbrlJaDkG+Pdr8rMq9Z5Fb74GhWW882ozXeJG9UZa/hGmOelE9+hT7c4EWqY+Z3Op/kF09QQ0fEr4sbpS3ETpt5TKE1SmNA86vzOMll1MblUYjiUpt2e1+mMy6IzJK2haXekVon86kv7G2f+rLhZ3SVueF8xBnrSCH2SuFkVwWAVJ+NRnzMElixSEKK1lcuos2qWGmMj19slQVvWtuWVlraTHpeTed4uE8jsKvqmCEBv0UyaxtcKeT6pvwlT7q6Q51LKdSKsteu9FXe6MDhVV1bjP7pCU15+y/v8LLxel+yTaYnl9tQeOPvrpxf6dWUgdsX+fGT6+W24zuhNMzxNJ455u9oh9863OSfE8FJxPnyY7nzIEFfd/lDMa63pnNXOv1eWuyQYVOdcmwjmzdcYdb7bJPjzFAADAADAqPoPf/qnD5D1xW7cuCH/D4ZW4sIBKXESmH0v0nVDUpnh96LiJjBEt/9Fg+nmzuxR+uaD4r+PPvDQjcmj4ub1Ge27rr5Dw6/q8/o+Xd+nzWsqf1fKTbFYzpUcHGvLaEx8k5huzV/Z3Gz6nc6vQnoirN9ZjdDvvhT/GZLCiLvTNFWizTd+JuIm8AeOGaY9Tjf8JSULCafRfTza2P5X3QQbA/kBp3bE4nubF/GNsXpvZAqcOepLf7fJN6q7HLdNjreL8nSVFjC7cV9OwfN2CUZ3x2mKqir3sYOHc1AKLKhgloO628X5abpOvLqbbsokUuI68dSjPJCgB5e34g7tap2SX+njeX53W65LLvMz835dMifTEi9xbZDjnZY7IYjrpzdzxXnKLoy4PEVJnN/q3BbXo/vUqew+nX6N0qczEsGuOCcG4n300lHVlvjtY/TSeXVdSDkfku1/ja8G/fNuZi+mNll1WytlTrRd5ul74zJQj8yrtMlWLwJgGaSLwZE47e09Zpg3LytPW0D33qF9Wrp00vAZVSWcS8IT4wwvlAIDAACMmv/wr//6sRrU8PuP/vVf1btgTKn7K3GTKQa42h8ngTk5YLgZHaCbHa/RdXHTOfyPLlX61A2rc2lP0tT162UbPeLqkS+bqyLfOinmpW4+HRPZXD1FN8QyJonl5en4htOtyqPf6TJlLFUVN2PvyftOc1bmpTPTlZyMJG/ijvbJGz9dZN79zqWePqczBrx2QbrzzbMIMOW6ihtWMd/kzaMYPme+aTxwjpdH3dgmbqR5OdXNp+K+bXK8XQoX0A8MlQXM66TdhOuWznNLIuR9uwTiQg/teKGFGta00Kb2HPQHLiRKSu2uE5d+Ia4P72jvLd0JpW3X61BSrCfFynR+Jhlcl6y09U3fHjmQ66cnejCrHqw5En+3jTXTTedOVmHuOWuoijxMB84eSQS26a9pXhTSc/O0E1Bru2yuvnxOBK218hwsoGUzzVHw/AXztGz8sjr3SUuTBV5WMe3RY7QhqOs8AAAA5Mx/4IBXD4RzEQBzScntT/BNR5SG3dq9iZtO17Z3iRtZY3hhQ/a9Kf7nG0bb9oFJqYlsxM0ll/7c/QwVrn+UpqSUxIkbTttl9DudP/NnGqq/Gkr9DlxJBlC2VY4N+AYwcRM3fJa2mEpQ7EpqNN6ms94k6yXXIzSgxpcUOMzAVpxeOipuWMV8jSW/56xxs1ie2rfF564QzZ25WPZV2sn9cnLpjfqI5LJtcrtdLPtO4KqebYn+VOtkNcsEh2qjSR63ywShB7M3nIK5S3YPrSI0RQaIpxzPsamy6UPqtcPf/Cy8XpdSRGjqn4n5uyy3JqDr57g3Qseu2B+458R1TW7dNNc0T/QHiCKQ3e20vcR+54dm5u7mktewvacc2jyz4Ql68gEAAOQZmR2aA9+uI0dzEAALepVDT9WYnWk3slH6w0ntvRO9dMetnZ1bCczN3S/S8EdxmvLgeprx4lt09+7XqLBOBLbq7078Tpc5Y1VoIVSZCKASiZpYQYieyCDOPDdi7NzXUqXPhf10xlJpHqdnRf2KLqjxETFOr3opg2aXEqTjvR6TPMn2elrQy+1kuW1htu3xgt0uyeqm3jgH3czzdpkQVDDrtc2/TrUjdu6eSP9e6/nuc34WXq9LqTx2qxTQ9dMb/bxNd5zr57OV9/PDl7QPhTwQ5598CFVQZnr4ZH5ZHppJ+jqjKzcAAIDJINFF0tWrn6uhgDlURcyMXtqTvmRGL935Q9SpZEaVwDje/A6IgPZ5uvpqsq3d1CdEYCuDWseWn4Lf6TJkrArtKrU6n3d+qzUmpzP1FVxwB5Xw/yMjdFgfP+0Ouk8bEoK4sTS018uZ7LdLZvLphltPUuUS7OkBofE6kPb6ogeb1hJXn/Mz8X5dSuG1W6VArp/e6eeta02NQnU+J47P5EMv9+n0axcCSQAAABhbE6SfYI+lJp54/K5Lqq0dJ5+RSXI4qPWQ3MrvdF7pJRkemKvzudOzu2bKaTpTSai+zF99Katsy8cTBQV0L/8fkER7PWXgfC+9dDTZVvYlQ03xTAS9XUwPB4i7j0q2B059naQD6pOTngoK3YK9qU9pye6MgWO6pFhT1PemnO8e2vLazc/M/3XJa3vg0aaft27XjkSV/viVxPGpN8XwNF2mfYLr148g+hIX5588Urg7IttzzvCy7erJvXaGJ0GUaAMAAEBWch8Ex7QbxClP/BftZtTO7DTVhj3cIJuF6Bsqx44ZdzOikmal3Lg+qrXnVe9MOEnOIU6mZfe9fqfzxxRc2d3IGRIruVWJXjpvMT2t/jZ/9mJTsqZksq1UfqYrmaa6XeEA0JBZtkTPlRXEza0R9/V59jIdGOa2stynpzkZlZtcb5dE+0YpRK9wF0qFxp2kLe+uBcF2CZO1kiravL2J2vY10c76YjUyOOmCWe6CrJDb+luqHrslxZL996p+ea3XjkRSLAdTHOZnkvF1KUlbbg9VsYO4fmZCtYfl6sLrbR/czaL1MrMyaV2z6TKZ7rxdcOlUlTqZyMq1+yWv9AzVoXk22Z/dXKbD8tJaQGsXuSSsE+dy+gePAQTSAAAAkJXcB8GXeugPsquRCip8+XmaOttQjimGue/Lu19c76nK8JQ/qxLTqzc8rU3fu7fiWhA4dQ3PSw5KUxY3iPlzNyPa+5Sb4ro6msrteV/W+vQ13VSKm8xC2QVSKr/T+TOLVhiCK9tuhfSSDsmlSrQIkLk/TG4DJ/u8VKOZ/U2q4nU6w3Lo/WlqGaBHVNIsQ3vdALr0MZU88zIm2vdxn55lpuV0levtMnyWfmoslZbTLVPLmlzepfMyvUnPreq6cqpQx1541Qpq1OrDBkYLCvm8fYtmmNrSq2uECmZv7nvNpvqy1o1RYho+77jf3ydCdPMjbWPbJ8US/z/xqu389ODZfn5mXq5LZnp75Aq63XDdm7L4UdM1Swrw+unNZdqtZ2OufJx2LTAEdbLNvWovm5JY6jJtUA/gMpsuaWkl9887yzTdczXLaK28TvCDLYcnUBkZptfP83KKYHY5L6eYn+k8K6SnFyymzu8sTskEr2WfF7g9cc1iem62cUJ+eCWmE+dym2OfxuZAWn9oJong+WnT9wEAAEAu3fbY8pqv1XDWBq87dJ0yu4Fm6P322rj10Ts0vNutew9xU7tbleAacQbolIypDp9lV6M0/KswFT5BdMOmyyJZciQzsTr4aLfMOG1dTr/TZUzcZCWTX43Q3qNH6PWU+8JCw42jwKXF3P+kaVpnspsS482m3+m4ja4pwUxyeZ+uqqNXDF+ZMm3hAnEzmQxcj/d2eOh2xLLeJiN0XNx8cj+k2lvu4kQFpqO+XZi44a2qTNtXcDDbJRjVG5uoaaF6Q0PUubU1wL6CtX5wbxeBDrel1wLEVLfee5Gud1hKihc/nwiQzeLyHL9Zweem9XzX5xcVAW4FTbWdH/fH+/eyOyJnmVyXzJyuGTf3fV/MU73RZX39zNzTVY87H58jcXqpy76qfubT6ectZ443PBgzcbrWpZq/4HHZB7D9eZekf86RWNa9p06mztNyDqZKs6yu03PziDxqAgEAADCGRqdN8KU2kn3lfsQ3uQYiKL2xT9zYpr2B+wUNv/oO3ZQlIppbPO0huwzQ/NnddEOVAElX+YZWzOfl19Tn7ash3urgxFbatMbvvaVP7xDI+p0uU+Z2pk7JZcz9BVNopk3ftnyjdoz2xg0lyXzT1+t+45jZdHqJry65vOZ2sUEZpte7jtFLxmUTyzAQ5z6Dj9CGc8ZqyE5GY7uwYTrQc0QsV6+cxrRcI8l+jt3nObq6O05TVJ1SsYOHAwyAmd62tkOco6nXCRnkvfr91ACYnXxNfj5JnHPv7Zb96XLQa1/tWJvfrV/9TxpOmZ8YlvPT+uN1l8l1yexWhwiwbZb7hl3V66yvn5mTx2evOGdMp6o6nxwCYKZN10fHxXGcpI5pl+n4fNnSpfWTbZznQLxPdgPmJQDOxLmzR2T/4Y7nH/cDbHvqcjds4jpz3mHbvJ1mWXl67rfctH3EesrrxW8QAAMAAIyS0SkJhrHnqRTZht/pJgpsl7GnSjrJrqQXxlyi1FSvVTKOeS0JBgAAgPw2QbJDQ7D89ueZ435Axxy2y1hI9O3tlBQLxtS5s+e1pFehSuqsMrTZHYcy64cbAAAA8hWCYAAYU24ZnmE80JJe8SOKiAiE2xJJ3B4fu+RtnDRrtjkTMyem0nINjNCxKygFBgAAAGcIggFgDOmZkj10FwRj59JJ2ZbV1O59DM2fOY/WVi4zBORaVnY2ED+PpgkAAADgCkEwAIwhPSmWtd9uGHeGL9PrPUcM/ZKPXTv4c1d6ZRK8lKRWnIxunLdbBgAAgLGHxFgAAAAAAACQN1ASDAAAAAAAAHkDQTAAAAAAAADkDQTBAAAAAAAAkDcQBAMAAAAAAEDeQBAMAAAAAAAAeQNBMAAAAAAAAOQNBMEAAAAAAACQNxAEAwAAAAAAQN647bHlNV+r4awNXr+mhtIppur6RVRXXkrhkBpF/dSy5hB1q3cAAAAAAAAAQRuTkuDqjaupaZUxAAYAAAAAAADIvTEoCS6mxu2rqVYEwNE9+2nHCa+lxwAAAAAAAADZGbs2wfHT1I4AGAAAAAAAAEYREmMBAAAAAABA3hiDIPgaXflMDQIAAAAAAACMorErCQ4V0Rw1CAAAAAAAADAaUB0aAAAAAAAA8sYoB8HFFKlfSXULxWB8iC5qIwEAAAAAAABGxeh0kVRSRTu3lVNYvaV4P3W+eYhaL6j3AAAAAAAAAKNgTKpDx8TrijYIAAAAAAAAMGpGpyQ4oZiq61dQ06oi2U/wlhd6aED9BQAAAAAAACDXRrkk+Bp1t7dSyxkxiOzQAAAAAAAAMMqQHRoAAAAAAADyBoJgAAAAAAAAyBtjEAQX08x7xH/oIgkAAAAAAABGGUqCAQAAAAAAIG8gCAYAAAAAAIC8MXZBcKic6pcUqzcAAAAAAAAAuTfK/QRrIvWN1Mx9BZv0U8uaQ9St3gEAAAAAAAAEbUxKggfaW2nLwX6KxdUIAAAAAAAAgFEwJiXBAAAAAAAAAGMBibEAAAAAAAAgbyAIBgAAAAAAgLyR8yB4zpyIGgIAAAAAAAAYWygJBgAAAAAAgLyBIBgAAAAAAADyBoJgAAAAAAAAyBsIggEAAAAAACBvIAgGAAAAAACAvIEgGAAAAAAAAPIGgmAAAAAAAADIG7c9trzmazWctcHr19RQEvcTfPHigHo3uUWWVFH9U6VUESpSY4YoejBK7e19lIstkOn8qjc2UdNC9cZkiGLxL6jjzVPUfSF1HxIVU+P21VQbUm/txE/Tlhd6zPNdspLa1pWqN85iB/fTpna7+dqto/j8mdPU0dEjllWNoDLavK+GKtQ7L6J7WmjHCfUGAAAAAADyBkqCA1K9sZGa15WbgjWiIqpYVUPN21dStRoTlGDnV0ThUCk1bVtNO+uL1bixJgJv23UkCi8sF8vaSJuXqBEAAAAAAAAeoSQ4AJF6Eayt4kCNS2IPU3v7Na1EtKSMNj9bI4I4MWxXUuqT3/npJcEppaAlxVT98ApqUt/ZubWVWhOlrGmUVNHObeUUdisJznjdjSXPYh33iHU8odZR/K26fhHVrSql8JkuanijT45NpX9HhusDAAAAAACTGkqCs1ZG9TJ45OCylXboASm70Ec7XuiiKA+Hyqk+kJLLHMzvwjXqbj9MnXH1fqwtWaQC4H5qEQHsjkQAzHhZD9GmrftdAmAAAAAAAAB7CIKzteQ+rS1q/DS127YxFYHpnn45VFFZJv/PSibze6qKInJoIimmxqe0dsTRPYcM7X4tbNsuAwAAAAAAuEMQnKVI+E75f+z0J87VfS8PUYz/X3hf1m2Dqyu1ANHT/EJFNEeOSIOrQ29cIUtfY2eiY1t1uGQuLVKlwCeRuAoAAAAAAAKGIDhLc8Ja1eR4zKVk8sIgaTWN76SZJXLAp2KaeY825D6/T+iUnKH9/CrWNVHbPsNr22pqEt/buWc/bcpFFeNQOTUb52d4pSS3mlVEYf7/zKfULUcAAAAAAAAEB0FwVvSgdIguX5YjHAzS5UDb26abnw+hIqpdt0IEpWObHVovWQcAAAAAAMgFBMF5iLNDN6wxvvbTlj2nKcZdLK3LQTdJnB3aNL/kC331AgAAAADAaEIQnJVrdOUz/r+IZs2SIxxMp1mynWtQ0s0vU9do4EQPbdrKgTBReNWiwPs19mog9oU2cM/0CZjUCwAAAAAAxjsEwVm6GBuS/4fCLqWnJdNJi4G/oCtZJZ3Sg+5089OTS2U4vzRtiUdFpkm9AAAAAAAAMoAgOEt6yWW4fK5jyWXk4dLAkj1192rdH3maX3yILsoxE0giEC+luqCrZQMAAAAAQN5DEJytE59SlP8PlVO9NdOxVEb1q7QM0tHeADIvZzK/d3ucu1Gy41CCHFmyknZutO/jOBFwfzaY2bwcXaP3T2ul6+FVK6jRqUS6pIwaxziJFwAAAAAATDwIgrPWR+0HtaCtYl0jba4vTpbQikBt8/YaquDh+GlqDyQJVB/t2KOVBgc3P/EdHOhuK5cBbezgKUOJdTE98pQIdBfWiEC4iqoNQSlPsyHIAF8ZaD9MnbI0uIhqt/E6lhlKvfVlrZHZrB2DZAAAAAAAABu3Pba85ms1nLXB66l9186ZE6GLF4MpIxzPqjc2UtNCLSBMEe+nlhcOBdrvrZ/5VW9sEtOoN044k/ML1hJkFVw7JPeKnemy719YBKtt60rVGxdi+oaU6YupcftqqnVMKDZE0T2tLtml9emHqHNrK7Vm1RYbAAAAAAAmi29ESu99WQ1n7fe//3c1lFRYeCcND6uMv5PYhZO/pt5/K6YF4SIqKFAjRaAWO3OC/tt/O0kfqjFB0eb3DSoKT6VwwR+rsSIwPHiCdu2yn19J1SJV3TlVTATOR9sO08t7+yh1b12nXx7pp8//6D/SzDKxfmostzmOth2gre2X1AiLOd+m/6PCIVA3+ux39D9OXldvdP9Ovz5yynYdY2fO0f/95v+i1n9Vo2z9R/rTmgfo/oKbdP7/92v69bAaDQAAAAAAeQ0lwTkQqW+kZq4mbFvCCQAAAAAAAGMFbYJzYKA9qiWvku1oje1ZAQAAAAAAYCyhJDhXOHnTOpU5OSHZPjVRWuxJP7WsCbZNMQAAAAAAQD5CSXCunDhEm7Z2UecZLXM0AAAAAAAAjD2UBAMAAAAAAEDeQEkwAAAAAAAA5A0EwQAAAAAAAJA3EAQDAAAAAABA3sh5EIz2wAAAAAAAADBeoCQYAAAAAAAA8gaCYAAAAAAAAMgbCIIBAAAAAAAgbyAIBgAAAAAAgLyBIBgAAAAAAADyxm2PLa/5Wg1nbfD6NTU0HkRo2suv0u13R2l4/Wt0U41Na/HzdPeaCvUm6ea+79PwSfXGg6linoUPhujWR7vp+u5fqLEAAAAAAAAwliZxSfBs+sbd4r+rV+iWNsKTKaGwGjKK0h8yCIBpdgPdLgJgNuXumTRFDgEAAAAAAMBYm7xB8GwVfGYYBN/qeJ6urv++er1IN66KkRl+B13qoT/wdBSnm7/qyWxaAAAAAAAAyJlJGwRPqVgkg+Cbp7OpiuyvNJlogL56mYPo52m4Y0CNAwAAAAAAgLE2eYPgEFdHjtP/jmnvfVn8ME0V/2UXSOdYSRVt3t5EbfuaaGd9sRoJAAAAAAAAdkYpMZZKUnV1N13d/QuasriBbl/5DE3lUlbh1tUo3fjH1+jmJe19wuwGmvHiMzTlI226VE7Jr8zjb3mdn8WUutdoxhNEN159nr5y+6xDMi26+g5df7nNUynylNmP0tSn6uibD4YSbYhvffQODe92n756YxM1LVRvaIg6t7ZS6wX1FgAAAAAAAExGpyR4dhV9UwSgt2gmTRNB6Yw1yYCUTbm7ggpffI2mzVYjdGGtXe+tuFME6lRdWY3/6ApNefkt7/Oz0EqTY3QrXbBsm0xLLLen9sARmUl6xovrZTItYxKtKQ8+QzN2p19OAAAAAAAA8GZ0gmAVzHJQd/uD3N3Qi3RdTz716m66KZNIhej2px7lgQQ9uLwVd2hX65T8Sh/P87s77nl+Zo/SN8Wy0kcfpO1eyZxMS7z2RbXxTsudoJVYc1dKMomWcTnXv0jD70XFeonl/IsGU3Bs1N1xmqJxbTh28DBKgQEAAAAAAFyMShCcKCnl6sGcLOrkQDJovfQLGv7Hd7T3lu6E0rbrdSgp1pNiZTo/ExVIO5dCO9PWN3175Cl1fyWCdDFgt5w0QDc7XqPrImgf/keXKtEXemjHCy3UsKaFNrWPp36aAQAAAAAAxp9RCoK1YPaGUzB3yS77coSmyADxlGPb3anlWjtca4mrv/lZJALsTLM7R2jqn4n5uyy35lG6/QlezigNu7UbFkF7urbLAAAAAAAA4M0oBMEqmPXQttZEtSN27p5I/15riavP+VloAXaU/nBSe++dx26V9CrbHqpbAwAAAAAAQDBGIQjWk1S5BHt2bXs9J8Wylrj6nJ+JXgrtocTYymu3SmnXDwAAAAAAAIKW+yBYBYVuwd7Up56RAaExcEyXFGuK+t6UQNVDW167+Zl5LM214bU9MAAAAAAAAIy+nAfBaTM8L36eCjkLs6XqsVtSLNl/r+qX1xrsJpJiOZjiMD8TD4G7E6/dKlFMC7CnPPFftGDezuxHXddFKqmizdubqG1fE+2sL1YjAQAAAAAAwM4oBMEcFBJNXfMWzagzBnVa/7h3q2D25r7XbKova90YJaYRQWEh9/v7RIhufqT1C2SfFIuDy1dt56cHz/bzM5vyZ1U0Ve+jd7aYfnFEvXGit0euoNvrkp+dsvjR5PfoLvXQH2RXTRVinZ4Xfzd8N8+Lt82L66nQ8D12quvKqUJbZQqvWkGNJdowAAAAAAAApLrtseU1X6vhrA1et3bRo/WDezvFifu71QLEVLfee5Gud1hKihc/nwiQzeJ049Xn6WaFCGifIDn8VaLUVZ9fVAS4FTTVdn7cH+/fy+6InIlge/f61BJa7srILZOzIEupZdZns5v7vi/mqd7oZjfQjBe1qtl2bn30Dg3vdp9f9cYmalqo3tAQdW5tRV/BAAAAAAAADnJcEqy3re0QweOLNPwRB8NJMsh79fupATA7+Zr8fJIIXt/bLfvT5aDXvtqxNr9bv/qfNJwyPzEs56f1x+vuF+Jz79BNWVKruXU1SjcO9bgGpOxWhwiwbZb7hl3V60ttYn1StwvxvPa9SNfTBMCsu+M0RdXsYgcPIwAGAAAAAABwkduSYFXSSXYlvQAAAAAAAACjLKclwXqSKsekWAAAAAAAAACjKLdBsEuGZwAAAAAAAIDRlsMgWM+U7KG7IAAAAAAAAIBRkMMgWE+KpfWHCwAAAAAAADDWctxFEgAAAAAAAMD4keMukgAAAAAAAADGj5wHwXPmRNQQAAAAAAAAwNhCSTAAAAAAAADkDQTBAAAAAAAAkDcQBAMAAAAAAEDeQBAMAAAAAAAAeQNBMAAAAAAAAOQNBMEAAGOtpIp2bl9J1eotAACMrUh9I+3cWKbeAcBkc9tjy2u+VsNZG7x+TQ0lcRdJFy8OqHcw5hY/T3evqVBvkm7u+z4Nn1RvPJi6/jUqfDBEtz7aTdd3/0KNzZ3Rnh/AqFmyknauK6VwvJ9a3jxE3RfU+DFRSM/VLKO1BSO09+gRen1YjfZF/y6igfO9VHv2shoPAOOK3/uCgO4nxisOgptXFRGd6aKGN/rUWACYLFASnGemhMJqyChKf8jkB2t2A90uAlI25e6ZNEUO5ZDP+U2pe43u3v08TVXvc6eMNu9rojbDa2d9sfrbWCmmxu2GZdpeRY49dnMpZGLZG6mxRI2H3ONtzwEwiQD4BfcAeP7sBbSr5nH68Dt16vU47Vowi+arvzvxO13WCmfSMhEAs8i8mfS0NjiOcJAutkfNgtxvCwhexUpq+ztxzeLXWpTWZcPvfUEg9xM+jcbv+0B7K205OES0sGYc/KYDQNAQBOeZWx3P09X131evF+nGVTHy6hW6pf3Zm0s99AeejuJ081c9mU3rh6/5RWjqn4nAOdN182PJfWR9Fh4un+scdI6Ka3TlMzUI41QxNT5bLgLgIercKgJgNdbO01WPU1tlGS0tUFGlVEBL51VSW81ixwDT73SBGL5Cx0a0wYHzV+iANggA44zf+4JA7id8Gb3fdw6EW86I3/RVK/CAGGCSQRCc12bTN+4W/2X8QzJAX73MP3rP03DHaFR19zM/v+uWuerKUjVkECqiOWpwrFyMDamhNGYViUBM9wVdGdPquPkjUr+CasV9XOzgYWp1KwFe8Di9EuIgdoSOnz9GDW930EP8OtpLxznILAjRKzalmX6nC84wvd6lzRNVoQ24BPOHLjUzwJPI3XeqIQiW39/O0fvNHd15EXW/0UVRKqLaZ3HeAkwmCILz2eKHZVWim6cnYRvbUVu3Mlq8UA3GT1PnGTVMpbR4iRocD7wG5fEhuqgGIZfKqJ7bmoljZld7ai6FpFm0fp5Winu89whtODtM5+Q7YfgybegSAS0PF5TR+tlyrOJ3unxSQPcaC8hHCYK3YMy5W5w/EDy/v52jeT8x6vcufdTO1aJD5VSfye96SRVtVs2SUJ0aYPxBYqyATVn8PBWurKAp/JRSitPN9zroRscvbJ5YRmjay6/S7XdHaXj9a3RTjU3Qk05cfYeuv9xmmF5Nd3U3Xd39CzHPBrp95TM0Vc3z1tUo3fhH8X2XtPdOuE3NjCeIbrz6PH3l9lmH5Bepy+VsyuxHaepTdfTNB0OJNr23PnqHhnfbTO9rfo9S4ct1YhtobYfdOWxvP5aspLZ1qiSYk2f03md+b02mYf38G4NUvXEF1S3US2OHKHYmSrvEdKazxs90xmm4zekarnLLbYVXyxLIxPIZPyeCsi0v9Gjfwe1Vt3F1XSGxLsVUXb+I6lZxO1bFNqGT+lz5nRQWAbguJj576t1T1HrCcq0Yze1iESkRAemzFVThZTlZVttFUcsdO7ifNrkFwbMX04eVYmeN9FFD19lkIGukfybeSw/1qBLXTKYzfcacGOs9DqYXzUtWpx7hUuVe2nDJmjErmQTLzsD5Y1QrAnFXhbPoufnzaFmoIFHaMjASp5+eOkkHXCctpPmz76fmedMokqj2PUID8fO0RWwP07qLde6cFxKfU+/dGLdngCJPNlLzn/TTlr9V55kdLi1uVMf1x+IY2yuO67XiuH7AcFx/LI7rvU7HtTgenxTH45+I8+8uw3H9uTiuj4jjOmpzzM0Ux/Vfq+NazlMd1/w9yw3HtfiOlv8ujusr6r0SmSnOo/8qziMv80tZvz6KVFRR/ePlYnptNM+nU8ynNTEfce0S26BWbANPPhfXMrdt7EkZbf67mpTmLnairS20I6reZMX8+87vp9b9F7r9CXFfoX1AJogcFn8z/RbObqAZLz5DU8TftOms0txvKJ7vCyy8T+fn/iX73/eU5RP3JIV/YfhOMd9ht/sm/bqfuOanV72xiZr0h+TinO3c2upa6wcARhdKggPDF+m3aIYI3pIBMAvR1CfW04yXG2wSOg3QV4f4V7OCbq+zVLLhHzQZAIsLszXwm11F3xTzuEUzaZq42M9Yk/wBYVPurqDCF1+jaWlKeKaE+OIfo1tpfujsk1+I+Xtqnyt+wHkZX1wvk1sZt8GUB5+hGbtTl9PX/GbPFOvt5QdSCLAKVSScLNWJ9oofxsvi5lS9p4X3uXd5s7CCdu5bLX4k9RtbJoYX1lCzW3c5XqczLouuZC4t0jfTPdPF3rH4bND+ppE/K4LFzSKAbjIGetIQXUz8sIub5o2N1MbLx58zBJYsHCql2nWr3budyPV2SdCWtXmbuMn1s5zM83Yx06rQD9GpD1wCYGF+wTT5/0Dsin0gy74UAR//H0omn3p6praTPU0nAse5coTZvfMfp7blleb2xGJ4aeUy+rBqlhoRDK66/aGY11pDAMwiXGV7eR11LihUYyxE4LxLBN9tIphPBsBMfE+oktq+8zg9Z5nUUwAcoOq1jbT5yTLzuSYCRb1mBgd/m3+4khpnqhFWD4jj+u/E8ZUIgJkYfkAc12I683Etjmkxvzb+PAeuhoCUhe8Sx3WjOK7TJZL6ljiuRVC7+Yfqe9RojTiuTQGwNs/mvxbnkZ/5fes+EdyK6RsNATDjaf+60bxdvuUxAJ7I9N/3uPhh5vuA3a9SoSEAZlMeXE+F1nuGsJY0Uk5ny1sVYq/3BVaep/Nz/xLA77tx+WRSLXFPYgqqeRnclv3CJ3QqLv5P97sOABMGguBAiAB4N19QudR3N11/VU8UIV6v7taSRdz9DN2+WPu0ycn/Kf8+5Yn/Iqv3aMT38RNdfqL5ss0TW/Vjx0Hk7Q8S3dz3Il03zO+mTCIVotufepQHHDxK3xTT0kcfpC0RNSe/EK992uPuW/F0z9i1J77ctRFxibhxOde/SMPvRcWPlVjOvzA/IPA1v0tthu8W24DHccmx8Xv0l8fS6/SK6ZFy/aZsiC5zoZH+QymlqxJtvKm1EEFYnWP1KY/TXRgUW113J83kpB7G9r+qirQxkI/FBtWQhfjeDc9ysKjeG5kCZw7q0t+ocmC62XHb5Hi7KNUbtYDZjftyCp63i1ExzbyH/0/f/nruHVrEdmHEpSh0+EvSvmYa3ScDvkK6T4ud00ynJ67SpzMSwa4ISAfiffTSUdWW+O1j9NJ5lelKBJi7TA+vku1/ja8G/fNuZi+mNll1WytlTrRd5ul743IbRuZVpgSzXOV7lwzSxeBInPb2HjPMm5eVpy2ge+/QPi1dOmn4jKoSziXhiXGGV0ClwBevfkGh5SJg5SzGP2ykDX/Cx9ydVCeGObOxDP7EGEvBqoHLcS0Cxbonjce1x/NPBNCb3Yo3xfdu+K8c1Kr3Rv9mPq6r12oBuhvX+XGw6zh9EdX+57HM/NxHO/6mhRo8vIIpBRbU7zv92V9pJbv8IPzVF9Xvl/jd/Eh+SgR15qfH+sNjx99JDiT5f9cg2Pt9gVkG0/m5f8n69z2iFU7wui9+nmY8obpbTNyrie2673+mWfZr9P5pzrOhfks96O44TVH1I5wu9wMAjD4EwQGYul4EwBywvsqJm35hfhJ66Rf01T++Iy/KU0Ip5W6CtTSYA0f+vjjdeNW+ylKipFT+CIh5nhxIXvTF/IbV/MitOyH1g+j81NiZNv84/e+UYkazKXV/RbfLHx6b5RTrfbPjNfEjtFssr3tQ6nV+CZ5+7ANgLFWN99P78gfOnJW5ojLdDdwQde7ZTw1rxI3U1tOmktvwqkUuT5z9TWcMeO2C9HjMqWRS3IjLdR2iqJjvFp6vfInhDnPVMP7hj/HnDnbRlq3653g5OblIkvu2yfF2KamiukQ1NbKsUwtt2dOv/iKW8ym3ZCjet0vSdJrF06Rtf60HsyP0uy/lCAfi77axZrrp3MkqzD1nDVWRh+nA2SOJwHbpzCBKgwvpuXnaSaS1XTZXXz4ngtZaEQhzUL5spjkKnr9gHi3lAVmd+yS9bqqizcsqpj16jDZkfokL1MDPD9Gmn3RR58fiBvoucbzIwJL/F4EfV/ltFcfr36ZWLzYTxzV/jgOun1iO6+Xm86H7n9X5d1Scfz8Rn9cDNbEMpvPvQbfzT19O8T1ivlv07/gbMfzPhuN6pjiPHlDDgvmz4jxqNZxHj7snFeJp7ZZTlkrLgWvU+rfJ5ej8XI7UcJVqw3zlK+uq0GND/32XJZ/vieCXH4Rf0tdE/G6+q37fLbSSTpffybQlxYLf+4IMpsv6/sXX77sqBadFVLgmrAXeXJ08sbhiu4rl8KaIZnm99F3ooR0viGNR/Ca4NnsBgDGBIDhr6gmoCGILX3yL7t5t85Klui4MpcHT1nObHQ6AndvV6D92N5yCx0sefhwSP4iZ3iboXROcStPm+FG6/QleTpvq3EbiR8/9e7zOz0CtW66TZkQeNlQTNJT6dfcmb/xsqxwbRPe0Jtudih/MXZx8I8H5ibO36QbpcrIoWNBLrocopsaHwk6lqnb6qWVrK+0Q800eNWLY+nRbLM+mNeJzHxDNeXglbd7eSDs5OQhXO1YfkVy2TW63i2XfCRXrVlNzoq/kJmpOtKUWVIm5M4/bZUIZoWNX7EuRz13RSmdp2h3ZZ5bW+xIWgexup/NbXM+4xDYizuvk/ArpibBWerz3lEObZzbsUhI+mq70UeveVmowBIUcuG0Rwa9t+1yLaKs4rvXPXRHH9VHLcW2sMiz+vulvxPH4oTj/HhLn3w/F+fdDcVxzdWX1ESkRXDoRx/VPxPeI+ZqOa0OwHnnIch41ivNI77tXlnIbziNDFXCr2NH9cj6S2FYnP9YGJZfpJiPt912VkLr0hmAOOPWSTuffyanl2t53/c33e1+QwXRZ37/4+X3XA+e7Q3RrnxZ4+zEQ+0INAcBkgCA4WypLYXYMpcGyepBbYgn1Y0eZt9kx0n4Q/XRq77FrAv1HJ+NqVVaZd4WgrVsGJce+GKtCCwtrEgFUMhmVECqlRzxWnWLmH1nvT5ztpzOWSvM4VQJJX1BcjQ+Hp9OcsL4eqkq3g+gehyRPVrKNrNgOIujldrLc3lYrLfUv2O0igoPEOnvhHHQzz9slY8P06Vf8v6VKbwqnLMfppsuSQ1vijNyh2gAXlFHbd+roQ9tXpVbia6Kv81f06TiJc9MrpsbH+drQT50cxD5QQY84tQNOY+Cq5biW1esV2ZZXnH8i6OX2vNxOVyvVzUy0NV3pdKYZmi3BukH8qvlBwMWrxiA/n+i/7/zbbB+oTalYlBpwqna2zr+T+ve6/y76vS/wPl329y++ft/1IP29F0UArI0CAEAQnCW9as/NfYY2KQ4v56e6EZq2ki/sXqig0C24TFtdSH9q7D2wTPDaNUHiyXAWkTrLuCuEYB4SpGWsCu2qiBY9nElpq5F7UOosOZ2pr2AR8MpFjg/RSX38PdMpeV8aRB/B4gZcJppSb3Mi++2SmbHrO/mTL7WqxyUFKQ1ikwrvIC1G1wNCPXhON50qhZ1QgeTEFXlyBdXeNUSdPzlErT8/TJ2fF1Htfw2i31FxXCcedonzTyaoUm/HFXEepQmqxx+xPQ0l224v1zbWnqV/6Gtb7Tnt763+vW41qvzeF2QyXbb3L/5+3/XA+Q9RfyXAOnNzIgCY6BAEB8S+va83U/Uq0Pu0hA9TV9plklZUUOgWXE59Sqt+7Rw4Zl66qsu4fW6WMp+fhx/ZIBgTTKURLp/r+UZXyxqcOafpTCWhYbXMnw1S9wf94jZCCBWR1+ZNXkTqK0xVLmMHu6hla7KtbEuiH+XMBL1dTA8HZPdR2vLZvw5Rt/pkMFQ19bTVrInOjWjRrLkqsNn8mSHt+IpfoQNyDNGBK1p9d0/TjYzQJ3KMR3rpbabT2dEzVHN3RHbJqYwv266e7JJ6ZSiIEu10ZlbRhuVFFDt6WHX5w+1buyh6VzltMCW28qb6QfvjOvKk5fw7Ks6/nyTb6bYYqxkHwFxiK84jY5vclFfQ55FB2qrdE4Res8zxt9k+CNQfxjtVR56S9nuZ3/uCDKbL+v7Fz+970A/G/T5MBYDxBkFwlm7Ftehsyp9VOQauUxaLi7Aatpq6/i0q1KtAn/wF3XhP3Lw6ZZIW0v3YcR+7/H2uVZM8/BA50Z5Ce/gxiWk/iOas1xazH3UO9hXP89PpT5FzzBRccb+B1sDJkFjJrUp0xVMrqVpvp7pkpSlZUzLZVio/04Xu0Z5iywzQiczRd4rxckBMly5RU4bEcnS091H3BW5TWCyW05yMyk2ut8uA/hBAKqUm7kKpxBiMaMu7uT4XmWn1auru1awl1R6Wqwuvt+3ybBatl5mViY5fMdyZZTLdebvg0qkqdTKRlWv3S17pGapD82yyP7u5TIflAVxAaxctcG6bXFjood1yAIF0GpF7imQb4E0/N1b77aMd3Eb47vQPySoeF8enqrIRqRDHtSEZFSfXet+uhFWM7/i5OP+uqPOvwpzEKggDH1rOI+6yaablPOIuoJ4M+jwS59C/qUF2VznVV1jma1oOv0Y3O3SiZlmGD7BtS4cV2T+u6nff9Tff731BBtNlff/i6/fdb3BvpTeByqRmkGoatK8pfXd7ADDqEARn66R6IikCV+4LeKrhhnOKCPK0fvBetQ1q+ceJL/jGdiq3OjpcS4O1Hzvx9zVv0Yw6YxCp9cd7t/qxu7nPPrO0EQfuieWdLaYXwbo7/YmquV/jKYsfNa23dKmH/iC7OqigwpefF383fDfPi5f1RZu+Dk0ymJ/Vg3U0zbA+2r4Q+0e9z04ZLTYEV7bdCpn66HWpEi0C5KZt2o8kJ2PSbhE00Xddspt6nc6wHOGQ1n5PywCtJ80ytNd17NLHO1PJMy+j3k5632qxnOWeS89zvl0u9FCHsVRaTrdaLWtyeStWVVBjukDVBy15mpeq8pdpt56NufJx2rXAENTJPnJVe9mUxFKXaYPMqpzpdElLK7l/3lmm6Z6rWUZrZewcp5+eDaIO9TC9fp6XUwSzy3k5xfxMAWkhPb1gMXV+Z3GiD2TdgXN92v7k9sQ1i+m52cYJxfrOFtMtX0Ztjn0amwPpp02Ti/mavi87A9FDtGmvTbZwOd5DFuO7xPH51+K4/Dst2ZTpuD6SnN7UVpinSVTXFcdzYwbnn1dXxHlkSmLFyynOI8t8K5aL88hn+2cn3R8ZHjQKnJTLNN//6r0GznjhFsxKesBp22e+1q1Q4p5A/OYVvizuE54I0c2PtGuBp8RVGd8XaLxMF9j9Sya/72mbh3mkN4E686nnGg2yZpT6fQ0vzM1vCQD4hyA4a7+gYdWPLQfCxgzRM0SQd/uDWn90NyxPNaeovuqI+6oztRVOlganBogqKLwap1sym/R6mpHIQq33x2sOqm0ZAvfE8r4opl/pXJqtGaCbv9J+TKc88WpyPdesp2+m3F0NJLqGItn5ffLzcl5yu7xDwy7ZLzObn5IIvsUNwRrDNHJfPEPfdChhz8iS+wxVDofo1AfmpC6Sqb9g8QMYnq6GvIkd3E87Tqg3GUiZztRXMNOrcpm7cmKOfQRn4sQp6jTP0GCIomeyS3gT2HYRut/YTy1plyebNt0uTnxKfNXwUlX+3Nkj9FKcA+ECWjpPBHV6wihDH7kv2VUVvnTS33TSCA2ISbl/XuN0WgA8QnuPnkxUvc6aWE6t2yVeTjG/5Wp+8rWMXpkXooj4c0pp7fBZqj2qB8IhWlu5zDRdWyVX9xbLes657qIxkH7FOF8RPL9SeX9K4D3eaFmV1RsWFeefsesgE3H+cTdNAeveK86jtN8rzqOHAj6PXNdVmHBZpdNX23UqSb15Wh0EDxruCcRv3lTZ08T36Ya8JqdpVuT3vsDzdAHcv/j5fQ8oP4neo0C016nru3Ry9FsCAL4hCA7CyddUJ+/mu38Z5IkfINkfnRrHZADMTzy5nzzxNyu9NDi1KrFeraeDrr8sfig+Ej8m2h+kxPxcA0smAvdX31Gd0mtuXY3SjUN2T5fNbnX8vZxvUpxuvpca5Euyg/vU5SSel+ynz71/YJbR/CQRfIttc8M0jbZ+vG2CyAxpbmfqVDXKEmQuvM+mb9sh6ty6nzqNgVi8X/Zz696nYCbTWbtJSi6vuV1sUK5R6wvW4HKIYme4z+BW2tFhrD7pZDS2C7smAuFWsVxdchrTcsVFwKD6Oc5N/4591M7dN4XKaUN9+hujAz1HqKE3LgPTJBGoxntlH7lOAak2XR8dHzFOOELHz7tPxwHylq6OlHkOxPvopaNH6PWAE2lxoP/Q0V7aK4J209VLLLe+rLbz5ED47WP00nmHbfN2mmWVgXSvZfuI9RTrv7f3N8EF+lnhZFriuDYGmqp/YXP1asZtja1BqTi2uTsm7u7on72cf5kS59FecR6pvpBN3/95sr/i1GXNlrau3BdxzBIMx+R8Pw22eUfOpa+261hSLO5B7H4nr6/XeprQpkvXrMjvfYHX6YK4f8n89z1tFWxPyqh+VZHYrKepPYOHsAPtUYqaFxUAxpHbHlte87Uaztrg9dQfuTlzInTxYjYXH0iY3UAzXnxGdqCfPtCFcWnJSkMXShy0tVKrl/ZFfqebKPJyuxRT4/bVVBvKbLnnL3ic2rg9LyeT6hnfGVr0ZR04f4xqA6k+nScqxHGd6GNXHB8igNUSagFMUBP4/qV6YxM1Lczi90X9TnGNpNw8VAUAP1ASPIHY9g8IE5j3/m7N/E43UeTLdrlGrW+epphY7tptK21qCtg7d/a8lvQqVEmdVYY2u+PQ3Dtk/WnIijiujf0AA0xAE/X+JVLfKAJgEgHsYd8PWLWulRyaTgHAmEEQPIGkTZoBABPLhR7atIerqJZqGarVaHda0iu+lYyIQDjRZvc7j2eYYTlAnDRrtjkTMyemekU28xuhY1dQCgyQzybi/QsHwM1cDfpMl/8S3JIq2iC/IzqBaikB5AcEwRNG+qQZADABnThEm7ZyibDgNXvopZOyLSu3oR0P5s+cJxNTJQPyOpmYig3EzwfehhgAJpKJe//C+Swa3vCTDKtYBNEraee2cgrH+6nF13cAQC4hCJ4wgurrDgDGHS4RfuEQdWdSUjB8mV7vOUIPvd2hXsEnrPLq3JVemYnaVNGRk1r1HqPacd5uGQBybWLevwy0t9Im38HrdKpfVSpLkbfwtV2NBYDxA4mxAAAAAAAAIG+gJBgAAAAAAADyBoJgAAAAAAAAyBsIggEAAAAAACBvIAgGAAAAAACAvIEgGAAAAAAAAPIGgmAAAAAAAADIGwiCAQAAAAAAIG8gCAaYDEqqaOf2lVSt3lpF6htp58Yy9Q4AAAAAIH8hCAaY6JaspJ3byinMwyVyjK3wwhpqQyAMAAAAAHnutseW13ythrM2eP2aGkqaMydCFy8OqHdgr4w276uhCvWOxQ7up03tqdtz9BRT4/bVVBtSb+OnacsLPWS7J7kUUg/CaIg6t7ZS6wX5BnItse37qWXNIepWo+1waXDzqqJxcGwBAAAAAIwdlASPB0vuMwXALFw+lyJqeGxcoyufqUEYp4qp8VkOgPnBg3sAzAbaW6nljDi2Vq2gRpcSYwAAAACAyQxB8DhQXVmqhgxCRTRHDY6Vi7EhNZTGrCJVCsy+oCsoBR4VkfoVsqQ+dvCw55L37je6KEpFVPts1Rg/ZAEAAAAAGBsIgsdcGS1eqAbjp6nzjBqmUlq8RA2OB16D8vgQXVSDkEtlVL+qSB4zuzKq2txH7QeHxP4sp/pMjq+SKtq8vYna9jXRzvpiNRIAAAAAYOJBm+CxtmQlta1TJcFnuqih9z7z+zf6tGGd9fNvDFL1xhVUt1AvjR2i2Jko7RLTmba6n+mM0yTanBraCuvLZ/ycse2wsa1wYl2Kqbp+EdWtKk2WHsfFd78pvttUmqk+V34nhUUArouJz5569xS1nrAca6O5XSwiJSIgfbaCKrwsJ8tquyhquX2179Xnn5h3etUbm6hJf1gjq1+j3TcAAAAATEwoCR5jkfCdaogo2isCkssi6FLvaeF9jl3eSAsraOe+1SI4MVZHFsMLa6jZpbscz9MZl0VXMpcW6cmy7pmeWqX2s0H7YJE/K4LFzSKAbjIGetIQXUwEVCIY3NhIbbx8/DlDYMnCoVKqXbfavbufXG+XBG1Zm7fVmAJg5mk5meftYqZVoR+iUx9kGACzC5/Qqbj4P93xBQAAAAAwCSEIDkikYiXt/LsmahOvnWvLLMFhMTX+sJEardmvxPhHyvXgaYguXxb/6QGKlK5KtDFYsxBBWJ1jtVWP010YpMSi0J00k5MpGdv/qirSxkA+FhtUQxbiezc8y8Giem9kCpw5qDMHlHY4MN3suG1yvF2U6o1awOzGfTkFz9vFqJhm3sP/+21/fY3eP83tvdU+9aC74zRF1cGQSRtkAAAAAIDxBkFwEEQA3NyYLMULP1BDzT9cSY0ztfeRJ1dQ7V1iwJpt2ViqGu+n92VgYc7KXFGZrl/XIercs58a1rRQw9bTppLb8KpFLiV9/qYzBrx2QXo85lQyKQJMua5DFBXz3cLzlS8x3GGukssBV4w/d7CLtmzVP8fLyUmdkty3TY63S0kV1SWqB5NlnVpoy55+9RexnE+5JaHyvl2SptMsnibr9tdFNGuWGkznQg/teEFbNnSvBAAAAAATGYLgrBVT4+OlRJ+fppafiCDhb/ZTy8dDRHeVUu1fayXDzcuLiD6OUusVNYkSedhQ/dVQ6tfdmwygbKscG0T3tCbbnYpAZRcnPUpwLunzNt0gXU4WBQt6yfUQxdT4UDiTJEn91LK1lXaI+RpLfgespYpieTatEZ/7gGjOwytp8/ZG2slJmbjasfqI5LJtcrtdLPtOqFi3mpr3aYmj+NWcaEstqBJzZx63S4AGYl+oIQAAAACA/IIgOGvTxWuIokd6qFsGudeoe28rbWntT5Qixj4+TVv2Wkv1jFWhhYU1iQAqmYxKCJXSIx6rrDJzcOO9pM9+OmOpNI9TJZD0BcXV+HB4Os0J6+uhqnQ7iO5xSPJkJdvIakEvt5Pl9rZaaal/wW4XEZwn1tkL92rHnrcLAAAAAABkDUFw1vqo9W9baYexnq4wED1Em/6GS4ZbaNNelS3ZyFgV2lURLXo4k9JWI/eg1FlyOlNfwSLglYscH6KT+vh7ppOq9S0E0UewCIBloin1Niey3y6ZGX99J5urtQMAAAAA5A8EwWPFmGAqjXD5XNcq0UZa1uDMOU1nKgkNq2X+bJC6P1Al3aEi8tqs1ItIfYWpynPsYBe1bE22lW1J9KOcmaC3i+nhgOw+Sls++xd3LRUkVU09bTXrdPwG9QAAAAAAExeC4DFiCq64v1Zr4GRIrORWJbriqZVUrbdTXbLSlKwpmWwrlZ/pQvdopYcyA3Qic/SdYrwcCCBRk4VYjo72Puq+wG1li8VympNRucn1dhnQHwJIpdTEXSiVGEvsteXdXJ8usZkfejV192rWzvSq+JmUUKsq6vua0nf7BAAAAAAwjiEIHhNltNgQXNl2K2Tqo9elSrQIkJu2JZMxGUuXo+/aVMPWeZ3OsBx6n71aBmg9aZahva5jlz7emUqeeRn1dtL7VovlLPdcep7z7XKhhzqMpdJyutVqWZPLW7Gqghp9BarutORpPqvK61Xxz3zquYRaltCr/RxemJt1AgAAAAAYDQiCx8KS+wxVfofo1AcqG7GRqb9gEXiEOQGXd7GD+2nHCfUmAynTmfoKZnoVWnNXTsyxj+BMnDhFneYZGgxR9IyxGnLmAtsuQvcb+6kl7fJk06bbxYlPZXdRmVSV1+mZraO9Tl0wpZOjdQIAAAAAGAUIgseAuZ2pU5VUS5C58D6bvm2HqHPrfuo0BmLxftnPrXtfrplMZ+0mKbm85naxQblGrS9Yg8ship3hPoNbaUeHsRqyk9HYLuyaCIRbxXJ1yWlMyxVP9nOcm351+6idu28KldOG+kwC0jKqX1Uklu80tWfwMGCgPUpRx4cTAAAAAAATx22PLa/5Wg1nbfB66s3+nDkRungx20qykLBkpaELJQ7aWqnVS7tOv9NNFHm5XYqpcftqqg15X+7qjU3UtDCL9VTbi0vGcxPcAwAAAADkFkqCJzTv/d2a+Z1uosiX7XKNWt88TTGx3LXbVtrUFDCL1DeKAJirdh/2HehrXSs5VOEHAAAAAJgAEAQDTGQXemjTHq4iXqplqFajrTgAbuZq0Ge6/JfgllTRBvkd0QlUWg4AAAAAYIYgGGCiO3GINm3lEmHBJWszt6tueMNPMqxiEUSvpJ3byikc76cWX98BAAAAADA+IAgGmAy4RPiFQ9TtUEI70N5Km3wHr9OpflWpLEXewvNQYwEAAAAAJiIkxgIAAAAAAIC8gZJgAAAAAAAAyBsIggEAAAAAACBvIAgGAAAAAACAvIEgGAAAAAAAAPIGgmAAAAAAAADIGwiCAQAAAAAAIG8gCAYAAAAAAIC8gSAYAAAgGyVVtHP7SqpWb60i9Y20c2OZegcAAABj7bbHltd8rYazNnj9mhpKmjMnQhcvDqh3AJB/7qLG76+l2iKiWPRd2tTzsRqfCf07BqnzZ3uoNfVSE4jIkpW04ak7KRwSC6vE4kMUPx2l9vY+mjBXMrEebetK1Rui6J4W2nFCvYFgiW29U2zrcLyfWt48RN0X1HgDDoKbV4lj6kwXNbzRp8YCAADAWEEQHKDIkiqqf6qUKhI30EMUPRj8zXP1xiZqWqjeOBqizq2t1Jq4ISujzftqqEIMxQ7up03tqftKv1FL/r2YGrevptpQupto/XPWeWoy3S76+jnOM3GDL24614ibTm2sGZfMbCunsBh0Wl+d8/YcEgHQF9Tx5ilxY2s3vft6O7IEKE7SLfeEUbyUdn6vSu4Lot9Syz/8k/0+c5XrILhYHAernc+r+Gna8kJPMOexcf/nKijyGwQbzhs74/KBwGhsTyeJ7eVyLVJSr68AAAAwVlAdOiDVG8UNzrpyQ6DHiqhiVQ01u1STGwvhVYs8Ls81ev/0kBwKhYvl/7ZK5tIiEShTvJ/etwSCgW8XvumUN7wceDrfdEYeLk3cyIfL51JEDWemiMKhUmratpp21rusP7i7do5OaYcRxaLnfQTAuRepX+H+YOmzwYlTCpxDXEIuz9194twtUSPzVjE1PssBsPu1SDfQ3kotZ/j6u4Ia837bAQAAjC0EwQHgJ/xNCznI4xLO/bRlTQs18GtrF0XjYjQHUturfAZiqbrfUN8vX/upk+chb8SM491KJkupzmNQN/BBP8XE/66B5CwRLPL/lkAh+O1SRptVKVV0j9v6FdMj5WK+8dPUeVBEX2I+j3i46eTSsuT24+XcTy08vZCTG1cuXTTOz/KaPKVFn1PrWz+mhn/4sc+q0LmmjpeEfvO5JI6DLR3BlS5GwneqoYlMnLvPBndNy8ZYbU9+cMK1ZGIHD3uuBdL9hrj2URHVjpNtBwAAkK8QBGetjOq5rZfAgdkOEbgkAsELfbTjBb7pEULlVL9Ejh1bZ/rl8nguDb7wCZ1SAatTIFldqVVFjPYaA4WgtwtXPU5W53at2qlKpmOnP6FWGcQX0aKHfZTkXrhG3e2H1UMGyBtnPjUHNeI4GPAY5HgxJ2wMuEfDEF2+rAYzZHowtLXLfC54fLiUa6O/PZm6vsVP066MHlb1Ubt8MJfh70FJFW3e3kRt+5pQKwUAACAACIKzteQ+GZjxzVC7bWAmAr49/XKoonI8ZAf9VLsJ81warFeJdgoky2ixrEbaTyeN65/JdnkqfakIt9fkUhdu85e2hFSVTMdj4nMXBonv2/1XiZ7YIlXrqO0vf0SbXQ89bm/7I/G579o+GImULaXN8u/6ax3tfPIBh+2pf5f9a2fVXepzTu4S8/su7TR8x84nl1J18ed05Qv1kUCUiaCiUQYVbfvUsaVbWKPGq5dDbYVIifE7tBdnCG5cYj1PiqlxY/JzpmrX1nnxy7F2RLFM3LXT0zxTcdt8PZDS5iOmyySIvdBHrW+eljVDNPbXBG0ZDfPZp2VGjrjOq5iq663T5XJ7ZjI/G+r6xg/aMq0mr9euyeT3oLqOm5Row6hODQAAkD0EwVnSq+K53gxdHtJuHBfeN/Ztg++ZTtQezag02LVKtB7snvnU1CZOLx32tF1CRTRHjrCnVasWA1x92EPSG23eelDeRyfPiP/8lFqVcLIkVeXxTNR74qtxZOCTPnXDvdQhsBLK/pPK3PwvlnaNWkDbvKKKKkyFbdMpXPoUNYtguNFDvOCdlvyqecW3yVi4Fy6toqbvraO6oGu9mtqpZ4KPi0Zq3lZjaesullUcZ7XrVqd2h3OP33kp3BZeBOvN60pNmauZcZ5O+3hWnd42X41gPN22xgwDYe2hkj1+KNCkllGNkoooLILTZjGvzXYBplq3plXW6ZLrlhKwZ7M9/czPQrvGDNGpD3w0WdBr14yH3wMAAIA8hSA4S3pVPFnq6CRx43gnzRwXT/BVlTyvpcH68tsEq/pDAHNV6GKaeY825L5d1M2g23ZZslLrWoR5Sk6kSqYNQXl3L5c4p68SXbHOXCrUtk3cKIv16NyznzblIuNsqJyajfMzvDYHVXVeT0pVVEaPOKx+9dxvi38H6dQnn2sjlEhVrQyO+W/Rw3tlm175+tm71MnfKYLh2u9ZS4+T7X+Nry3RQfV3Z9VPat0oWee3RcwvOiQC7yziniBpWaTdF4aDvsD2IQdtLhmbdXFxDtqfH0VU4bi8RVRbl0ENlZLpZIwbk+e3aq5gCSrNxHKss5Zi6sml0ggF9QQkiPnp17cv6IqvB2N67RrvvwfdHae1PApCJm2QAQAAwB6C4KzoN0Pp2twN0mV1AzNeDGRUGqxKU0XQvNh0Y68nFLJUhU7w3xZRCuuZoJWFFelLrVTJtCkoP/Gptq5+qkSLwL9W3LjblmBNCCIo7f2t+F8ErA8/oI0yKl5KdbJQq4/eNz6vEOM3VEwXA1qXRDv6DAHytY9FoLtXBcLfprq0VZw90JfDZn4DYn47EvMLSh/t0Nu6JpLLKdzNTuJv4mXsGkkEpHWG6rfRPYaEb+K1RVXxZ8lq/teo9QX9M2nmxS9TV0ypQVtMTJOcp5i/mCePS9cFEi+rnIYT06lx0j3TvZ0XXP3btCyG83vJInOVcsMyyuVTo2XQbUoKNZ1mGabj9UhsB7luWvBnDvyy2Z5+5melviM+RBe1ET4V0axZajCdCz20Q60zulcCAADIHoLgvJVZabBWmmppx6Z3jWSpCh2UilXaDTcn59kilzV9qZW5KrTOW5XolOzQ6qaYE2tVcHXToBPSuGSH9tSnq1d957Wgp3ReygOPyNwybRv3HjeXIk6foQU7/b906JNXD66JwvfOz/zhglXa+Y0Pxq63GB8XxtJ8rgqcYFNzImP6OaYTQRvXSkjuq2s0cOJQ2poKWjI5tWEv6A+1FJflNNWOkNW/1R+YoYmA3vxB008thmXk5eswzc94HpofEHIJOrfL3VxfJrtgGjihBX/BBX6jPT97A7FAG7gDAABAhhAEZ+UaXfmM/0/3RN9c+jBeZFQarEpTje3Y9IDAXBXaKIOSDgd6JugBPUuzazVTPUlXKTUZAhN+aclzMs0SzQFGD23aqiUD8t6/8njzMbXL6sjfpsWmZwh30SP3cmnvb+mkZRdGRFDKYoP/Jv+3NXhdK+ErmpF1sOdpfuNAZpmIA2j+oHc/pjifa+6szRIuxrIsVje1z082f5BsSkj1h2iprlmSbYnzTATJ3Bcx988tz18RpFaXBPUAarTnBwAAAOMRguAs6TeTobDLTVOiHZ3fNmS5Yi4Ndi+d0EuPkjf2WkBgV+VZfziQbrvopVwO24VLvRIlMuLm9d002aT1JF0ufFWJ9tJ2eZyzTZDlmBALgjHezvfsxeL9so28uYpxli7wg6b91HJGJcqzEkEqB6iBNUkY7fnZmBx9RQMAAExcCIKzpAeObsFVogpljqoNZyNRGuwhODQnmFKlruKm+H2bG3295MfTdnFoW5dS6nXilFYa7NDHpp6xtXOrXRVj1XbQVBUzj1w7Th1y9yUTZDklxDIKT/+WGrKhV2Eeup5l28gk1/mNA+YS1H5qSTnOjK9D6c/3dO1x9Qzqymh3s2ZtIrDphUPUqlerTkg+9JJsqlebq0tblBRThPvkfqOVNsn5cDOELmo5aGxLzA+/PDzA8tK+Oev5qSrVWVd3zzJnAgAAAPiGIDhbejVhh8CMg8V6ld3Yb1XG3FKlwbz8lWqUE7WuMrBN109mJtvlXa+lSobS4HUrLVWT3YNynta9v2MX6UqsJ4juT7QEWYvmciKrB2ixfGZgSYil6CXHVPrnDt0g3UWNlRxEi2Pgd+eyLhVMzi+13bJU/C2uGTzm9O7CNKXUlFJ1lvvyrZJtTO1ZA0Y+PyzTG78vUQtB4Taspq6QVN/B+zLs6ihg5urOYrsYlpGXz5hMzHyOcuIvblfNfQlXqW3JzRD6qLv9lKUtsV3QmeH2zHp+TJ+n35ohekLBTK4nWvdTXF07pfstAAAAyBiC4KzpVYo5MGsUN7/ipku+EzibKncbwsPx09QeZLKjAOmlwRULXUprJD3BVJEImLk6n1s/mX20Q2XKDXS7nDhELfJG1ZLQK11QLrj2d2xLBRiqe5rYwVMTu9pw37/IDMucyKq6bJ7cXikJsXR6ybEImmu/t442lxkyQBc/IPvz1boz+i119DiXJHumd+VE36am73+Xqg27NlL2Xdr5vae042WsXehJSfKUaEsqX9yXbzlVrHLOZG5tH8vJtUzTP2s8PpMPfnSyz13T/LhGRYZdHQVNr6WhMyyjtny6Iep8M/nQK1Kv9cPND6fCC8tTtqXWll9xqEmTyfYMYn7MXCsmQz4SCkbqKxJJycJesuQDAACAKwTBARhob5Xty/imqGIVlzKomyo9m2q8n1oCbENXvVG/adNu3PSbutptxvGZlAwlA/l0tOqgpVq/o46lrooMWIPfLtxnpgxmDYmq9OqWnvprdqgSndJPcCLAEESwvssxY6x121tf1lJrJeTcT7B8BV7i8zm9/7tBsbhV1LSCS3FTE2IZdf9c75ZoOlWsWEttf/kj7SUCUr0/386f/VNADwY+p9Z/7tFKWYtEIPw9NS/xahbLGh76LUXNsc6Y6X5Da0/qziVAsgaMVtYSSHEembsZssd/9/ZwJxdEsP5CV6IvW3tDFN1j7npo4IModabdlgJfK5wyYGewPQOZHzPWitHGeJY+oWA6PoNvAAAASEAQHBBuXyZvVE03Y0Nan54veGgbOMb00uB0jNVB3Updddp24b43jTee4mb4YBbbJVEap1W7TFSFduyvWKcn9/J+E5mTREBjaKDnl4n9nD4hlghM3/oxbTncQ1FT3DBIsf53acs/7Am2O6Nrx2nTz96lzn7OZK0bpGhUzOutf6L2QeP4saS1J92ytUsGVKbgVBzn8tje6tbNDgeM3A7Ver3g442n/zSljbXsBomTOXG71ZRrzGlq4fkZuiUaG32yeyHH6+DW1mQ3TboLfdQqtiX3XSy3Zcr20M4/92tFBtszkPmxZDOSDRl1naaagWRYA0Zeny3LCgAAAP7d9tjymq/VcNYGr6fe9M2ZE6GLFydD+OBdpL6RmvlGR9z4NbiVJgAAwARVTI3buSYOJ+NrNZVwO+FaPE0LvX8+xZKV1LauVHYdl+u+jAEAACYzlATnQKJUNSWJDQAATA7XVJ/D3BzCocmDAT8c5TbHsYPmKuGZ0LpWcsvFAAAAAF6gJDhXOKGSKSEMS5YAJEqLPeGuWMZ/lWoAgLyjX+u5HbFDNepAageVVGlJ+lDDCAAAIGsoCc4V2YZPa3cGAACTlLzWa8n6yCUZIbeL9he8FosgWmWpT5ewCwAAADxBSTAAAMC4VUab99VQSATRu0QAjF9TAACA7CEIBgAAAAAAgLyB6tAAAAAAAACQNxAEAwAAAAAAQN5AEAwAAAAAAAB5A0EwAAAAAAAA5A0EwQAAAAAAAJA3EAQDAAAAAABA3kAQDAAAAAAAAHkDQTAAAEA2Sqpo5/aVVK3eWkXqG2nnxjL1DgAAAMYagmAAyLG7qPH7P6K2v/wR7ax6QI3LlP4d66ixWI0CGA+WrKSd28opzMMlcoyt8MIaakMgDAAAMC7c9tjymq/VcNYGr19TQ0lz5kTo4sUB9W5yiyypovqnSqkiVKTGDFH0YJTa2/soyC1QvbGJmhaqN46GqHNrK7VeUG+pjDbvq6EKMRQ7uJ82tafuKy6taF5VZPh7MTVuX021IaLonhbacUL7XCr9c9Z5ajLdLvr6Oc5T3HS2rSsVA/3UsuYQdWtjzbhkRt2YOq2vznl7DlEs/gV1vHmKui/YTe++3o4Sy+8u3XJPGMVLaef3qrQggX5LLf/wT/b7zBUHwWuptmiQOn+2h1onwWaZbPTrhybDc2IsGM/DM13U8EafNpyJxHXG5VqkpF5fAQAAYKygJDgg1RvFDc66ckOgx4qoYlUNNbtUkxsL4VWLPC7PNXr/9JAcCoVdit9K5tIiEShTvJ/et9z0Br5d+KZT3rjyTbbzTWfk4VIVdIn1LZ9LETWcmSIKh0qpadtq2lmP4kffrp2jU9phRLHoeR8BMMB4VEyNz3IA7H4t0g20t1LLGb7+rqBGlxJjAAAAyD0EwQHgJ/xNCznI4xLO/bRlTQs18GtrF0XjYjQHUturfAZiqbrfUN8vX/upk+chb8SM491KYUqpzmNQN/BBP8XE/66B5CwRLPL/nw2aSnaD3y5ltFmV7kb3uK1fMT1SLuYbP02dB0X0JebziIebTi55Tm4/Xs791MLTCzm5cRXLl9gmNq/JU1r0ObW+9WNq+Icf06aej9U4gLEVCd+phvyJ1K+QtWRiBw97LvHufkNc+6iIap8N7vcAAAAAMocgOGtlVK+qAHJgtkMELolA8EIf7XiBb3qEUDnVL5Fjx9aZfrk8nkuDL3xCp1TA6hRIVldqVQqjvcbqhEFvF656nKzO7Vw1W1Al07HTn1CrDOKLaNHDPkpyL1yj7vbD6iEDAEwmc8La9ckfdX2Ln6ZdGT2s6qN2+WAuw9+DkiravL2J2vY1oVYKAABAABAEZ2vJfTIw45uhdtvATAR8e/rlUEXleEiK8ql2E+a5NFivEu0USJbRYtmetp9OGtc/k+3yVPpSkeqNWttkbruXtoRUlUzHY+JzFwaJY1j/VaIntkjVOpmQarProacnnfqu7YORSNlS2qwSW2mvdbTzyQcctmcyCZbda2fVXepzTu4S8/su7TR8x84nl1J18ed05Qv1kaBw1XoRVHBgkUxYVEzV9SuT4/nF1fZtHgBFSspEYNKY/Jx4cYbgxiWW88QwHxnAGN+L+fJ2jBjm6ZRFOMIJmFQgpL20jMORlGXj9v/Jz9kHTfxQyf0zntcvEGq7Zzw/fbrkNM7TiXXemPx+Ux4ATlplmF6+3GqpqOsbP2jLNN+DXrsmk9+D6jpuUqINozo1AABA9hAEZ0mvUud6M3R5SN700ML7xr5t8D3TidqjGZUGu1aJ1oPdM5+a2sTppcOetkuoiObIEfa0atVigKsPe0heo81bD8r76OQZ8Z/HKtEmJeIGe6Oq8ngmOr6T/DgY+KRP3XAvdb6hL/tPVFsk1jH6L5Z2jVpA27yiiipMhWbTKVz6FDUHnqlZS37VvOLbZCykC5dWUdP31lFddrVX3YnzQgv6VlPTqmR7cs0QXTTtez4uGql5W42lrbtYVnGc1a5b7RjIhsOLElX65XsRfNVvXEnNhnnyuM2mUkJeriZqXic+owIhTZH8bPO2RvF5445Qx7xie97q7filITr1gfHBkv/1y5w2r7Z9artnMj/5MEGfTo1T9On4AYYpYLzH/P1+adcY63bzSK9dMx5+DwAAAPIUguAs6VXqZKmjE1UaSXQnzRwXT/BVlTyvpcH68tsEq/pDAHNV6GKaeY825L5d1M2g23ZZwgGCunG1tDm2p0qmDUF5dy+XOKevEl2xzlIStE3cYIv16Nyznzb5yRybTqicmo3zM7zMQVAW9KRURWX0iMPqV8/9tvh3kE598rk2QolU1crgmP8WPbxXtumVr5+9S538nSIYrv2etfQ42f7X+NoSHVR/d1b9JGd/5iHz/LaI+UWHROAdTPxiTwRNG57loE+9N7Icd1wrQWvr7iw1kFUWlmoPjQwqxDirZCmhagZgt1wJReLYNZcOase8ItbN+gDImDiOLA94slq/jPH1If2OTZ2fnpQqjVAunpzo17cv6IqvB2N67RrvvwfdHae1PApCJm2QAQAAwB6C4KzoN0NDdPmyHOFgkC6rG5jxYiCj0mC9ZKmUFltuRGUCKmtV6IR02yWNsJ4JWllYkb4aoCqZNgXlJz7V1tVPlWgR+NeKAMNc0jaRiKC097fifxGwPmzTR2/xUqqThVp99L6pMHApbaiYLga0Lol29BkC5Gsfi0B3rwqEv011aas4e6Avh838BsT8diTmlyucCZz/H6LoHkMStzViuMNwLJVUUZ2hGq35sy20RVXxZ47V/Lk7nq2ntVoQkpbUjjMHJ3DJNP+/ZJHWDEAnptXnx/NKfocl2ZI65jXWB0D6easxnStBrF+GOMCL8XY/KNbNmNyPE+ipzzBz9eHpNMuwXWK8TRPLKZZ5jxY0mgPGa9T6QvIzprb+punV64Ueh4duat7xIbqojfCpiGbNUoPpXOihHWrZ0b0SAABA9hAE563MSoP1kiXTjahepdJSFTooFav0TNDi5lsuq7jRr3OvhmmuCq3zViU6JTu0upnmxFoVXCXTS6l5JlyyQ7sm/spU33ktmCidl/LAIzK3TNvGvcfNN/zTZ2ilbP2/dOiTVw+uicL3zs8+GEo7v9HQTy1bW8W2NyRxE4HTgKHUzVSCKvBxYSzN5yrLCTY1J5gMOhO1QwTVtdjFWGqUrzcr0IjleyPZt/bAiUPUYQycTce3fn5rTA+ATFWhzedKEOuXMRHgbVojtvsHRHMeXinbIcs2vlwdW31E0h8MSOYHi1xSzO2AN9eXyfbbAye0oHG8BowDsaAbuAMAAEAmEARn5Rpd+Yz/T/dE31xqMV5kVBqslywZ2rHpN8zmqtBGGZR0ONAzQQ/oWZpdq2HqSbpKqclw484vLQlOplmiRQAkbqY3qVI77/0rjzcfU7usjvxtWmx6hnAXPXIvl/b+lk5admFEBKUsNvhv8n9bg9e1ksiiGVkHQ57ml2PRPYeoO00108wyCttVd7WpHeFYzT/ZrECyKXk0VXu20NvyS4YA2VwV2vwAK/v180G2xdaCXm7fy+2QrW18U12j1jeNpeni/BTryP2Pc7/e8rwXQXF1yUStwQEAAAC5hCA4S3rpTSjscrNVMp20ezq/bchyxVwa7F46oVeJTt74ajfMdlWe9YcD6baLXiLlsF1MmaDFTe+7qjTaqRqmnqTLha8q0V7aLo9ztgmyHBNiQTDG+HxPHLdMfwDkUhU6Y0GsnwiAZQIu9TYTXILMfXmfUQn2rERQzAHxeGzKkG0fxQAAAJAdBMFZ0gNHt+AqUfKSo2rD2UiUBnsIDs0JplSpq6rKaaWXUHnaLg5t61Ju0E+c0kqDHfrY1DO2cvvK1CrGqg1gmirRk9a149Qhd18yQZZTQiyj8PRvqSEbehXmoetZto1Mcp3fOGCustxPLSnHmfF1KMvzPfkwSbKpfmyuLm2lJ2DShMPTXatCs9FdP3ENqK8wPbiKHeyiFhHY6s0ETO2krUqKKcJ9eb/RSpvk57n5gpj+oLGtND808/Dgy1TVOh1VFTvr6uBZ5kwAAAAA3xAEZ0uvJuwQmHGwWK+yG2dX6pIrqjSYl79SjXKi1lUGtun6ycxku7zrlIDGylAavG6lpWqye1CeDAgyrRItpCuxniC6P9ESZC2ay4msHqDF8pmBJSGWopccU+mfO3SDdBc1VnIQLY6B353zuP+cJeeX2m5ZKv4Wd/885kxVjLnafUqVWxGYLamSbVODYK7uLObH/QKrd9xvsDGJld2xrz/kkrgpg+pDm8UOnkoJYkd7/UzE8ne091G3CGwH1HxM62fC2aG5vTL3lVyllpGbL4jp209Z2krbBavWBwx8nbKsp2NVan1avzVD9NL4TK4nqsr4vqYAu6cCAADIXwiCs5ZMQFOxrlHcHIqbJ/lOkG3dVHKX+GlqDzLZUYD0G2W7rlrM9ARTRSJg5up8bv1k9tEOlUk20O1y4pAqHbIk9EoXlAuu/R3b4hvxlbRT9etqFzRMKH3/IjMscyKr6rJ5cnulJMTS6SXHnFX6e+toc5khA3TxA7I/X607o99SR49zSbJneldO9G1q+v53qdqwayNl36Wd33tKO17G2oWelGRUiTao8iUCs3XlVLHKQyZzL/TaD7qFNYlEVbLfYDVa1oB40+5hkrHPYLGsicRWDuduYOtXRLXb9Gmsr+QDLFMTDJ5X4jPafJLrZxap1/rv5vmEF5anLKOWA0BxqIFjbU/NScCM39H8rPN1wlwrJkM+EgrKEnNVgh/2kiUfAAAAXCEIDsBAe6tsl8Y3RRWruHRC3Ujpbd3i/dTi2N1G5qo36jdq2s2afjNovulszOBGyZxJ1o1WXbJUBMwiAnIsdVVkwBr8dtG6VBE3g4ZEVXq1UE/9NTtUiU7pJ1jeiOtVtk/TLsdMs243/PyyllorIed+guUr8BKfz+n93w2Kxa2iphVcipuaEMuo++d6t0TTqWLFWmr7yx9pLxGQ6v35dv7snwJ6MPA5tf5zj1YKWSQC4e+peYlXs1jW8NBvKWqOWcZM9xtaO1R3PgOkFNytT1eij1h73K2Tc9+x1mBPcjl3R3X9rEG+iVgvh+UY+CBKnWmXUeBrjFMf367zFtyqOxtrxWhjPEufUDCdoI4tAACA/IUgOCDcLk3222m6qRqS/VdueSH7tnO5Zqo26cJYXdKt1FWnbRfus9N4w6r6BPW7XRKlVaWyemiiKrRNG0czvVTM+01kTNxEd+7Z79Jn6MQy0PPLxH5OnxBLBKZv/Zi2HO6hqCneGKRY/7u05R/2BNud0bXjtOln71JnP2ey1g1SNCrm9dY/UfugcfxY0tqhbtnaJQOxZPVhQRznen+3wXXP0ye7+3G8vqhunRzpTRMM3M/d0Vw/DvKtQbdhvTqM1bMNLvRRq1hG7ktYLqMlmNXPW/drjDbv1O3K0/N6furS1j3ZjGRDRl2nqWYgGdaAkddnt4AdAAAAMnLbY8trvlbDWRu8nnpTNGdOhC5enAzhg3eR+kZq5hsdcSPX4FQKAQAAE1gxNW7nmjicjK/VsSTeiGvxNC30/vkUS1ZS27pS2XXceO0DGQAAYCJASXAOJEpVF9bIJCaZVpcDAIDx7prqq5ibQzg0eTDgh6PcVjl20Lnqejpa10puuRgAAADAC5QE5wonVDIlrmHJEoBEabEn3FXJ+K9SDQCQd/RrvcxxYH+dDqR2UEmVlqQPNYwAAACyhpLgXDlxiDap9moAADBJyWu9lqyPXJIRcjtnf8FrsQiiVZZ6t0RfAAAA4BlKggEAAMatMtq8r4ZCIojeJQJg/JoCAABkD0EwAAAAAAAA5A1UhwYAAAAAAIC8gSAYAAAAAAAA8gaCYAAAAAAAAMgbCIIBAAAAAAAgbyAIBgAAAAAAgLyBIBgAAAAAAADyBoJgAAAAAAAAyBvfiJTe+7Iaztrvf//vaiipsPBOGh7+Qr2DvLZkJe38//5nWlu3iP685Bt0/uRlyumRMdnn59dEWU6jkiraueVP6fdHPqELahQAwGQUqW+k/3PF/0PvnbyuxgAAQNBue2x5zddqOGuD16+poaQ5cyJ08eKAejcZ3UWN319LtUWD1PmzPdSaugnGh+KltPN7VRRWbxOGemjLW8cp93uojDbvq6EK9Y7FDu6nTe252mCTaX7F1Lh9NdWG1FuLzOYz2tslABy0ryulcLyfWt48RN15HwUX0nM1y2htAdHA+V6qPXtZjZ+AChdQ5/Iyiqi3CSN91NB1ls6pt95Mou1ia7KvH+g4CG5eVUR0posa3uhTYwEAIEioDg2gE8FW274m7bWxTI2EMcUlwBwAkwiAX8hNADx/9gLaVfM4ffidOvV6nHYtmEXz1d+dFdLTCxZTZ40+XSbTZqFwJi0TgRCLzJtJT2uD7jjYVMvYuaBQjZxk/GyXUcVBrNgHNQv8HR/jfv0gKAPtrbTl4BDRwhraWV+sxgIAQJAQBOeLa8dp0z/8mBoSr3cpqv40OvqofU8/xdQ7ip+mXTktfZzs8/NroiwnK6bGZ8tFADxEnVtFAKzGBunpqseprbKMlhao6EIqoKXzKqmtZrFzoCGCyl01y+iVeSGKGCf1Mm22hq/QsRFtcOD8FTqgDbqaP1MspxqOhGfmNkjPxPBZqn27gx5KvHrpuPpTxnxslwllsq8fmHAg3HKGKLxqBTWWqJEAABAYVIfO2gSpDp3iAdr8l09RxahVhx7/ElXQ2Liuhmau0jzuqzP7pO+PXK3f/AUiAJ7HEewIHT/fS7vPDmvVbwtn0a5FlSIw5j/ZVcsVf/+O+DsPjsTppVO/oQPDw/IvXNr3dFUlvRIqoOO9x2jDJX38WFLVaKmP9sZCtHYe0d6jR+j18bBoKdS29VUderxL7ofJt24BqFhJbY8P0Za/7cHvUYK61sdP05YXsF0AAIKEkmAAZU5YBcAwDpRRPT+QyFlJ9SxaLwNgEsHqEdqgB8Bs+DJt6FIlkgVltH62HJvAQa4WAHMwc9IQALNhOtBzhBqOjpcAWFDVaAdiV+j1K3FxI11Ay2ZO0irR41oB3WuqNQBGkbvvVEOQ1EftXC06VE71S9QoL0qqaPN2rWkPqlMDANhDSXDWzCXB79MDVP+f/5wqiqZrfx4apGhvJ+3o+1x7byNStpTqK6vENGoEDVKs/5e06+cfuz759TudJsclwdyWcxtXZXXCVVxbqdXaxpPb5a4r1YZVaWxkSRXVP1VOFXpiqHg/db55yDytr/kVU+PGFVS70GPwa3wa73f9Eoqpun4R1ZXfSeFQcv4xsW6n3j1FrSfcAr8MSoKzWE5Tybgbh1KKSIkIZJ+tEPst0/UT1HGQs1Lu2Yvpw0pxQLmVOOqfiffSQz0qCVEikdNIZqWp+nSO89OTHlm/N5kMyc7A+WNUKwJ4V2o9jvd2iMA8XUmrubSSS8XXL5qXrC4+opWapwb4fqez8loSHMB2Ed8xf/b91DxvGkUS1eFHaCB+nraI/e04b7Fuz82fR8tCBYkq5gMjcTp2/jf0unX9xLbvTKky78B4nAWwftzWff08ruqvRrium3n/nRPv+WHPD4zrGO8T07rtk+xEnhTXmz/pz3FJsLjuPimuu38irrt3Ga5Ln4vr0hFxXYparjVcOt2ofo8+Fr9Hewepeu0KqnugSF1Thyj2cZR27e0zL7Pf6ezo1/AMaidVb2yipoXqTdrfIgCA/ISS4ADNengdNX9PBJZ6AMzEcMWKtdT25ANqhBEH0D+i5hXGQJZNp3DpU9T8l+uo0fYhrt/pJph77hNBqrgxWmcIgFmolGq3NQbTTuoeD0FeoMRNmFintn2rqWlVqSkAZmFet3WraeeETsylrWPzNhGo+1y/6kq+gRyiUx/kIAAW5hdMk/9z6ajjTf2XImjg/0PJJESJtrUimBif1YlTPS2WWSwwHb7E7y7T4bj4ryBET7gVBougcD23l14uAlJje2kxvLRyGX1YNUuNsPA73WjjKu8i6Gur5ADVGGmKoC9USW3feZyeS9k+IlAU6/ahWLe1huCQRcT2XCvWb5el1gDzFAAHigPaOtXWXY2S3NZNEdtirto2XKXftI6hMmrzm9TLRvXaRtr8pCUzuAhM56jBSEUVbf7hSmqcqUZkRVyTxPza/k5cd5eL664hAGbhu8R1qVFcl9a6XJceqKCdPH0ikGVi+IEaahbLWa3GpPA7ne7CJ3SKz9mF96X/LAAAeIYgODAi2C2dTrH+Hmr5mZ58ai+1RAe1P4vgdLPl9zVSVUu18rd4kKKH9yaTVv3sXeoc4vHTqfZ730354fM73YTDAZNjKW0R1dZNxECRgzqndUoKL6yhzZlUfxtDsdOfmEozqjeKG740pevu61dMM+/h/7+gKzkqvZh7hxYdXBhxiWSHv1R9Ek+j+1TQoE83IALk0TFMr3cZE0dpr4bzXuc/i1bIGDiZSOnAFRkFp6kSHaKlIgji0r+XjurzPUYv6fMVwZRdwOd/ukxls11EkCeDdDE4Eqe9vccM38HLqlUZv/cO7dMJs++XwS+X+r501DqNNt+llZaEaJdOGj6nqthzKXdinOGVKAVm/tdv/gIRpMvDdES2S09Mf7SX9srJC2jtcqfEbSF6RW6bEdN2aejlY0awaR7g18WrX1BouQgE/66J2n7YSBv+hK8Zd1KdGG4T45oby2Vtlyvy09nyeN0VgelmY/9xJsYg1kIE0XVPOj159jud7hq9f5p/2O+kmR4f/HZ3nKao2mWxg4dRCgwAYANBcIBi0b206efHqTtRePU5dffsoS0qEK6YaygNLl5KGyq4xFirRm2qLn3tY2p9a68KaL9NdVV3ydGS3+lG24Ue2rSmhRqMrz396o+Zie7Zr02/tcuc0fqe6clSBF/zu0atL+if30+d6qZB4qpn1u8zVvnNYv34BiVGQxQ92EVbthqmt6xfRWUAQX4Wy8nZSU3TiZfstsMgpbpySRXVJarhaftui3F6w7wrnqoylwIlTKdZMnAboovaiIAV0n2yIHiEfvelHOFA/N0h5kgJng1dECVeAZaa+TZ7pmy/fPyKIcC6dEUGY+myRMsqtz1n6UBiVYfpwNkjiUBs6Uz7Ul2/042W+Qvmmdp0m6sw87KepFrZpluN0omAtkEE9rV27cDF+r0krx/JByZjQhyHzSrZG1erN1U/H74sAutjKhAO0Q+cusriIP/tI6btck6su7Z+4hQvCGYFB35+iDb9pIs6PxbXlLtEoCh/rvh/Eax+3k+dreK6/7eHqDuYKJi6/1ldd4+K6+5PxPXob9RLLIPpuvug23V3SFsuOR1/X1J4+SKXB89+pzMqolleTx1x3d+hftsmY9JEAIAgIAgOzCCd+sS+3e/AJ33aj96dxcmb/ukztKfD/b90yCj9ObX2/lYOhe+dn/10ExQHWTv09qMX+ujkGW1QCiWrzk0oMjBtpR0fEM15eCVt3t5IOzmJCVcfVh+RjEH+OJDSRvhMV8oNVuRh7tM3qWLdamrW+14Wr2a9vTebqPtvAjFXhdZ5qRI9QseuGAO9pHMyuZYw7Q6bINrvdKOlkJ4IqyDxlEv7VlOQm3ROH11YSE9z/9JVj1On6mP6Fdlkw6YEeTTdoaowO1bXH6bXz2vRrP1DEN4uIshX74w+yUXthyt91Lq3lRpaDQ/mPhZBqgh+U9rnZuuKuO7+jbjufiiuuw+J6+4PxXX3h+K69NeW6+63nK+70dbW5HKJ79t11PhQ8E6a6VB12+90uoHYF2oIAACCgiB4NBXNSLZ3EsEsiw3+m/zf1uB1LXgOYLqJKh4z3whdjJlLIiekkjItc6cIerldMLebDcsb6HFsycqUAHiLTZKWzDJse6/eF6xh+vQr/j9dwOKczTelNMzU320Wfd0GSlWF5iqullJqPWDLKks0tx9VgxnxO10g9H36FX1qH+e64mRTu2rENly+jF7hNrfcbtbUpnhsJdq6uwWselv3Md0PRsXU+Dg/HOunTg4OH6igRwJpB2wxU1x3VdDL7YIrEqXP/g1cNQanRTRLNuNIz+90AAAQHATBAKNK3IjJhFHq7UQgAuCdxhJczgYtAmBjO2B/ctfmNx29VMu1amfhHaTF6MmASZ8uotoGj2uqKrSbdFWiwWD24mSyqZG4zHbNbYO5Oyx++KFXF4bMRJ5cQbV3DVHnTw5R688PU+fnRVT7X52aSvglrrtc4pvTFkJDdPkzNZiR9NNFwug+CgAgaAiCR4NehXnoekobx/D0b6khGzmYDjzKUVXkSH2Fqepd7GAXtWxNtpttMVb3Hg+4ew4RACeqODt0h6Qzl9T3U4taL/vXIepWnzQbpMscUOSwuvS5EVkU7BoEJjNBJ5NKJar0huY5Z9gdJ7Sq0Nw2VC+hNr5U29B0WaLt6FVuR0boEznCI7/T5USmbXdn0S7uLou3JyeM6jpJG85elm2DzzlUnXY0CiWwrg9pxtN+mFlFG5YXUezoYWqVbX+vUevfdlH0rnLakDZhlHeRJy3X3aPiuvsTcd1V7YJbPlZ/yFD1g4aHgxnwN50Ilo250wAAICsIggMznWYZekZKuosaK78th2K/O5cIHhLthEv/3LkbpACnczQJqkwH4xpdMT6ND5VT/RLjBi6mSElwN2VSvJ862vuo+8I1sZ/E9y8xJ5XyKrxqEVUnqhXzcqrBbHG1bVMfwyKodQmA2cAH/drxKZVS0/aVYtks21Gs5+Z6t+Qz+r7IYXVplRzKOdvtLFovEwxZkkoNX6FjsjC4gNbOn+W9FFXPNO0QACUz+gZFVYUeidN7Dm1D34vJKNixSrR9VfFCem6eVo3BqXspv9OZ5CxQVO2hef8tcklcVlho/zfenrZ9HRfSfWoovdwlz0r/kCbD/ZBjEe6i7uMu2vRzY7OXPtrBbYTvnpuTB5GcdKvj5+K6e0VddyvEddeuB0MbFY+L65mqqh2pWGmeTnzv+w5JvPxOpymmR8q5mUkmNWdUk5t9TRO8uz0AgNxBEBygihU/op1VDyR/uIsfoMbvr1XdGf2WOnqMmZyPU4fMBcLdGa2jzWXGDNA5mC7Fv9FlWWjHWaTNy1wdcKw3UXT3GpKzCJzUSU/oxP36Nj+b/U2ZKcFJSASJxu9fZww43VgShHGwuS35PRseDmIHqmrb6p3GuLzGl6Gvyws91GFKXsbLZtmO3O/zqgrXfp61fVFEiwJZFzuXaXeiW5vHadcCQ9Aj+0mtTGQQ3m1KKjVMr59SVcG5z9WaxfS0CJgSOGFSlco+bKJnmg7RK1WG4Fl8nvuebVMBd2BUVWi3QEcPmOxLw7lfX94uxmWdRc/VLFPBepx+etYuGPQ7nS65nX5g+Y6nAwocD5xT+6+A+71dTM/NNn6xOA5mL6bO5cuoza5PYzFNs3G59M/z+mmxpQtzAG5aH5loK4AVHD5LP9XnsVzsB+N3ZrQfRsdA9BBt2puaW4DkePcHbpkwtcG9S1yTuFsm+RLXo0av112Bp/1rbdrmRnMSwOgRl+X1Ox0rmUuL+Ng686lDzZlUssaROh7DC92vtQAA+QpBcGAGiWuChiueoua//BG18et7TyX68+382T+l/IB1/1zvzmi6CKDXatPkcDqzz+n932ldN1mXuelhj4/FJ5sTp8zdJFkFUT3XdR5DFD1jrE7srPsNS3dRBuHyAEpQltxnCYC9635jP7WkXY80Ae6JT+X6BbIuDs7Jbm200tCl80TQoyeOMvQh+1KXTQZhToJ1VA+kuF/VZcmkU5wwKSQnpuPnjQFoMiuvDJ4Nn5d9z54/FmibUq0qtE1XTkaJ0mn7KtEDI7xdjMua7H9271H7DMLM73QavYRa3MhbvuOV+QF1rWTZf2srDfvvO+I4qORq8GJZzxnrniYfmpiWK/F5cazo+9eFMQB/Zbn+HeIlE23d79B3b2YO9OjdIPEDCeOxmcl+mGSi4rrr+ExYXHe5m6YsxI7upx1OF2QXXqbTM+5He20eFniSy4eJAAATF4LgoAz10a63fkxbDv9WBsO6WH8Ptfxsj3N3RnKaHoqafoNFQN3/Lm35h6CnMxuQfRiL5VXvpaHfUucnLpmnJzXuN3i/7Ms2ZrmfjcW5X99PA2hjrc3DHCQOUYyzLW9tpR0dxurEbvpox9Yu6rQEm3I5T2sPN8bONREIt4r10ZbPtD5yO2r9I7v3X9lH7dwncaicNtTn7gbuQM8RauiNi8BNjZBGaCDeK/uQdQwUZDZoEbiKwMd2WmsfrYz7mbXOiwNt7nv27HCAXdDoWaGtXSNZJUsmU6tEj9CxUx0pyzsQ7xPLe8Sh+x3md7okfjjRwNtVvZfEdtp7JajtI6Tbf9xPrmVZ5XLZ7D+9jfABL4snA/BeOj5i/vCA/J7fBBSYDtPrXbwP+sR81CjJed0mP25rLK67pmBXXJu4O6afiOvuP3u57nLyrv1av8Y61Z+xuTq3ld/pWBnVc1b++GlqP6FGeTDQHqVogA/VAAAmo9seW17ztRrO2uD11Av6nDkRunjRtbIPAICNYmrcvppqQ+ImcmsrteY4k/T8BapasggUHurJ1ww0harKLJcWZhIs+Z0OYByrWEltjXoSKw5mxXXItf2u4nc6i+qNTdS0MIvr3xKxHOtKZX/77g8dAQDyD0qCAWCcukatb56mGBVR7TZDu+McOXf2vJYsK1RJncZ2uwAAvvvz9TddpL5RBMAkAtjDvh8Aal0rDdGpDxAAAwBYIQgGgPHrQg9t4urpeqZpNTo3LtMGru4qhiLGdrvfeXzcd4cEAJMHB8DNXA36TJf/EtySKtogvyOa81o0AAATEYJgABjfThyiTVu5RFjIdZbTSydlm829MmEWAMDY4DwRDW/4SYZVLILolbSTu7eL91OLr+8AAJj8EAQDwPjHJcIvHKLu0SjRGL5Mr/ccoYfe7lAvtHEFgNEz0N5Km3wHr9OpflWpLEXewtdMNRYAAMyQGAsAAAAAAADyBkqCAQAAAAAAIG8gCAYAAAAAAIC8kfMgGFWhAQAAAAAAYLxASTAAAAAAAADkDQTBAAAAAAAAkDcQBAMAAAAAAEDeQBAMAAAAAAAAeQNBMAAAAAAAAOQNBMEAAAAAAACQNxAEAwAAAAAAQN5AEAwAAAAAAAB5A0EwAAAAAAAA5A0EwQAAAAAAAJA3EAQDAAAAAABA3kAQDAAAAAAAAHkDQTAAAAAAAADkDQTBAAAAAAAAkDcQBAMAAAAAAEDeQBAMAAAAAAAAeQNBMAAAAAAAAOQNBMEAAAAAAACQNxAEAwAAAAAAQN5AEAwAAAAAAAB5A0EwAAAAAAAA5A0EwQAAAAAAAJA3EAQDAAAAAABA3kAQDAAAAAAAAHkDQTAAAAAAAADkDQTBAAAAAAAAkDcQBAMAAAAAAEDeQBAMAAAAAAAAeQNBMAAAAAAAAOQNBMEAAAAAAACQNxAEAwAAAAAAQN5AEAwAAAAAAAB5A0EwAAAAAAAA5A0EwQAAAAAAAJA3EAQDAAAAAABA3kAQDAAAAAAAAHkjb4Lgqetfo7t3v0Uz1j+qxgAAAAAAAEC+yY8geHYD3f5gSA5OuXsmTZFD48+UOg7Un6ep6j0AAAAAAAAEKz+C4Es99IerPBCnm7/qoVty5HgToal/JgL1q1fG6fIBAAAAAABMfHlSHXqAvnr5+3R1/fM03DGgxo03s+kbd4v/EAQDAAAAAADkDBJjjReLH5bVoG+e/oX2PtdKqmjz9iZq29dEO+uL1UgAAAAAAIDJ7bbHltd8rYazNnj9mhqyitC0l1+l26/upqu7f0FTFjfQ7Sufoalc8incuhqlG//4Gt28pL234rayM54guvHq8/QVf2b2o1T4F3Vieq2dL4nph43TL36e7l5Tod4YXH2Hrr/c5lDSqpbxbvFd68V3qbEpZjfQjBefoSkfaetiFqGp6/9Ktj/W2x3f+ugduvFuG90M8zKFk+tAYh1eNqyDK+dlmiLWtXBlBU1R21JW+X6vg250/MK1RLl6YxM1LVRvaIg6t7ZS6wX1FgAAAAAAYJIanZLg2VX0TRGk3aKZNE0EczPWJANgNuXuCip88TWaNluNsJgS4kAxRrdE8CiTR7243hw88ncZAugpobAaMrvl2h54gG7+Ki7+D9MUh+WQgfJfiABYBJo33rUEwBwc736VCg0BMJvy4DNy3QrLOSjX1kGaPVOst5cAWLCtIs1B9FtiWxoDYBaiqU+spxkvN4zbBGAAAAAAAABjZXRKgk0ls3G6ue/v6cbJAS2wk6W6HNSKYYfSVVlCS+/Q9UMzZdB3S3xuWAShWkAZoamLiW6K73Ok5n9z3/dp+KQaZ0d97tZ7L9J1u7bDjn8X67BbrAMPXn2Hhv+xLVEqLUtqxTQyIHUsiVbTu5ZUG+nzU6W+UX1bCGJ7ThPb83axPV3Xl6tDP1tOFSIOjx3cT5vanUrxAQAAAAAAJo9RKQlOlMxykMfJqfQAmF36hQga39He23ZfpBJG0SIRTIZFYCcCUBEoJ4I+LsF1C4AFbf5x+t8x7b2jmFbiOiVkVxQsgvGVIpDnINcSIE9drwJgDuJFEGus1n3r5Gt0fV9Ue+OU9IpLhfl/j0mxtPlFafhVTvRl3BaC2J5fqe05JRTRxtm50EM7XmihhjUtCIABAAAAACBvjFIQzNV+43TjHx1KOS+5BH96gHh3iG7t0wLozOhdD51ybHOcoHelZBOMT6n7K6109ZBlHWQfxOJ/DvBTSrHNHJNehbX5eUuK9Sh9k+dHXIX8Lbp7t82L2yzLzwIAAAAAAIDRKATBEdVm1dAeNhMqQOQqyK5VmR1l0vXQAN2yDYIfpdufEIE0V8O2LMOUikXa8rm0N05XEj1Vthf2UFLNVBZpAAAAAAAAyNwoBMEqCP3oA5eMyyrotAlU9QDxD9FMS4CVDLseuhXn5FgV9M3F2numVT+2SYYl6KXczsunSqIdHwJk9pBAr1rO7X2vrnd/2bZrBgAAAAAAyGO5D4JVEHor7hzhTX1Kq76bGqhmWYoseG4PrNyKax9MtKdV1Z1vvff3qmujTKUrifbwkMCGa3tfAAAAAAAAsJXzIFgvubwVdyiV5OzJso1rlP6QUt05k6rM9ozdK3lyUgtGteRYepdIUbrhWqoaom9oq2nB/QarpFlO66CXgnuUCNL/rMpxuimLI+m/k7NDb2+itn1NtLO+WI0EAAAAAACY3EYhCOYglGjqmrdoRt2jhuCMA8TXEl0n3dz3WmpJaIZZk1PpJckVdHtdsuR0yuJHaapjX8CX6H/r7YIX/xfV1ZDNsila9Wlev+dN3zllcQMVvsz9Bmvv3UrCpQfraJoIXnVTuKuj9Q2p7X9VkE53PyP7AjbNU07D/TC/SrcbqnPbqa7Tukdi4VUrqLFEGwYAAAAAAJjMctxPsN7Hb1wEsSEVkKbKvF9e76bUiaCQk1pZuPWhO3X9WyJ4Fct8VSwz90/s2nevoY9gq6tRGv5VmAqfILrx6vMO1anVNnLYNrbLqbaLE9mPMncjpd7bqd7YRE0L1Rsaos6trdR6Qb0FAAAAAACYpHJcEqxXZ+4QgeSLNPwRB8NJtz56h4ZfdU7glLYqtQe3Ov5ezjcpTjff2003XDJN3zzN/fpy0O7SrVPCL8Q6iO8zzuOqmAf3Z/zya2pat+rYA/SV2Dam6YVbHECLbWMbqJ98ja6Ked4U8zFKbM80ATDr7jhNUTV57OBhBMAAAAAAAJAXclsSPLuBZrz4DFEWJbkAAAAAAAAAQclpSXCiD90sSnIBAAAAAAAAgpLbIFj1oeu1eyIAAAAAAACAXMphEJx9H78AAAAAAAAAQcphEJx9H78AAAAAAAAAQcpxF0kAAAAAAAAA40eOu0gCAAAAAAAAGD9yHgTPmRNRQwAAAAAAAABjCyXBAAAAAAAAkDcQBAMAAAAAAEDeQBAMAAAAAAAAeQNBMAAAAAAAAOQNBMEAAAAAAACQNxAEA8DkVVJFO7evpGr11ipS30g7N5apdwAAAACQD257bHnN12o4a4PXr6mhJO4i6eLFAfUOcuMuavz+WqotIopF36VNPR+r8ZnQv2OQOn+2h1pTdyVMOsXUuH011YbU2zNd1PBGn3rjh+X7LGIH99Om9lE8sJaspJ3rSikc76eWNw9R9wU13oCD4OZV4sTJet0BAAAAYKJASfBkUDyfFon7eBaumOdY6gU5IoKttn1N2itNqWL1RvU5+WqkxhL1B4mDSOPfnUswIQ0uAeYAmEQA/IJ9AMwG2ltpy8EhooU1tLO+WI0FAAAAgMkMQfBkcO0cnRL38SwWPU/d2iCMe0W06GFD4FUylxY5lKJCJoqp8dlyEQAPUedWEQCrsU44EG45QxRetcLyUAIAAAAAJiMEwZPC59T61o+p4R9+7LMqNGQjEr5TDWUuXD6XImqYZhWJwG0iu0atL7RQwxr91UVR9ZfRFKlfIatkxw4eplaHEmCr7jd4WYuo9tmq5P4AAAAAgEkJQTBAluaEVV10P0JFNEcNVleWqiHwr4zquY1v/DTtyqj9cR+1c7XoUDnVL1Gjcqmkijarqu+ohg0AAAAwupAYK0uRqnXUXDGdood/TDsc8+roSad+Sy3/8E8p1TMjZUupvrKKKhKx1CDF+n9Ju37+MaVuuWQSLDux6F7a1PO5emfnLjG//0QbKr9NeuwW6++hjg+OEz38I2oqDTAxFrfL3MbVUoVE4qFiqq5fRHWruL2m4pC4KFIiAppnK6hCBIq6mPjsqXdPUesJpwVU318uvt9QtTj9dJnMr5gaN66g2oUOO8FKBGRbXuiR+5LbBDct5JFD4ruL5DJG97TQjhN6UqnkeOL2rGtSq/NGlqykDU8Z109McyZKuzr6aMCp5FOsW2NdRXKZ40MUffcwXX4qfWIsf/uBldHmfTVUod6NSmIsbp+9rtTfvPTjdRSSZCWPA8bVtls9l1oDAAAAQHZQEpylgU/6KCb+r6hc6lyNUgSdWubmf7EENBzQ/oiaVxgDYDadwqVPUfNfrqPGQAuJtAC6eUUyAGbh0ipq+t46qvNfqze9e6bLYGqzCPSajAGwNEQXTQGACGQ3NlLzNhFAGQIvFg6VUu261fbd2nAQs099vyEAZvp0bdtX2rT79DG/e8yfy9wXdOq01pA7FBY7WW8PzMHlZ3K0Dd5+TdTMCZ9M6yeC5oU1YvkbafMSmwNGBnc15qBdrGeFWC+nTM4an/thDGml6UN06gMfwfaFT+hUXPy/8D4kJAMAAACYxBAEZ0tPSlVURo84BKzVc78t/h2kU5+YS2gjVbWqRHeQoof3yja98vWzd6lTxkfTqfZ737XckCfb/xpfW6KD6u/Oqp/US5DN89si5hcdEoF3tnGdGxE0bXiWgyn13uizQVOJd/VGEcimKWXloG+zqdqqngwpjVBqpO9vftni5fhCDnG74OqH1YMBsS2uyLFWXFLssP0SOLC1JncSgbNeGp+hsdku2Simmffw/1/QFV+lqtfofflg4k6ameMEWd0dpynKAbeQSdtlAAAAAMgeguCsiaC097fifxGwPvyANsqoeCnVycKpPnrfVKN2KW2omC4GtOrHO/oMAfK1j0Wgu1cFwt+muqq75Ois6MthM78BMb8difnlil7Fd4iie/bTlkTyJDHcYah6WlJFdYlqolxV2PjZFtqyp1/9hajiKWMSo+k0yxAgxrhKq3Eee7SgIyXg8DU/YwKo/dSpghnJNF/1UlWhU3zwqZY4KlREi9UTiGjvoArkLJYsMpfaivnoy8nLyLURNObkTpH6ikR1ZCkx3X5q4TawTnzvh7GkjoH4EF3URvhURLNmqcFcudBDO9QxNKp9JwMAAAAAguBA9J3XgpnS1D56I3PLZClctPe4ORCaPkMrnev/pUP7Wz24JgrfOz/7ICPt/EZDP7VsbaUdJ64ZtoUYNgSlEb1EVOEqu82JfnO1qsAJInjUk0pxcH/ZEIxyCeXO7Stpc30ZVZeIQP+EFnRYAw7/8wtCH508w/+XUoUMOPvp5An+P5U5aZbYjm/0JbbhwIlD1CG/RwmV0iOqJNOctMs43TXqbj9sDuANxna7jJ2BmFY6DwAAAACTF4LgQHxM7bI68rdpsamJ5F30yL1c2vtbOmnJsxMRQSmLDf6b/N/W4HWthK9oRtZBhqf55Vh0T2ryK6vMMi0bq61eo9Y3TxtKREUgLILBilU11LRttRa8iaC4usRcZ93//LKllTZejBlKY898St2WEm2NXs1XsSnp7O5NlswmpZ/OydhtFwAAAACA3EIQHBDbBFmOCbEgGJa2nxd6aNPW/dRyZsgUDCeIoJgDYtvkUZ74bWvqbOCDZFXmaG9uMxLnTvDbZaxk0+czAAAAAEwMCIKDcu04dXBhnCFBllNCLKPw9G+pIRt6Feah61m2cUxynd84YCoZlV0EJduhpr4s3QeVFFPkwjXqfqOVNsm/c1vgLmo5aGwzy21Y5yYeVGQ1PzucBVsNesIZiTloj/fTyctqXIprdMWYMdqm+rGnPoYzqLYc+HYZFapKfNbVs4fosuO+AAAAAICJDkFwgLo/0RJkLZrLiaweoMUcl1gTYil6yTGV/rlDN0h3UWMlB9FEsd+ds0+slIHk/FLbLUvF36JZmdSAzRFjySi3lW1KqcIsAt0lVbKtrxlnh+Z2q420c2OVmuYaDZzoo+72U5Y2s8kgyf/8dNYAtZzqTSXNYnpLFWyza9TKQfsL7lXFzdWdxXJuLEsE29xvsDGJFXez9L78Lj3bsa6U6sR6aNNx90crHLtIyn67pAqvWiS+Q72R20UNBkbfF36rZxfTI+V8EoxGybbW3RVX0x9v3UwBAAAATHbfiJTe+7Iaztrvf//vaiipsPBOGh7Ok2Qz16/TH317IS0q+gN9/ofZVHvfDIr+y3+nn19Xfzf69wv0+2/9J/HZP6b7/2QBlQ5fpl9ev6H9rfgBaqz7nurO6Lf0f7/dS+nuye+cVUE14T+mkfiv6L3L6nuM/v33NF0s2/1/PIMWfftu+jx+ji6o3RUp+y79n888QvPku9/T+Y9P069Td2Xm7pxFTywLUYF6Gz99in55Sb1xIrbD70sWaX3msoIiWrTsAfo/6hap1wNUUxGicFkR/dGZX9Ovh7WPRepr6f9T/sdi6I+pIBRKmSbxfexMlF47qXaKz/kZXZhSTP+HoaPncIVl+vv/QL1HLovQipMuJ+dlvz1m0JK6e1VSqi/oVMcn2r6/9AX90eIH6H59Y4bupRo1jxoxb300l2J2/t3/on9Ry/nFjWn054Z9UFCmT8fbhLeXwWe/o/8R4HYRJwRNMX4H8Xckp1/w7/303tkgDrQkbV+E6A4/313yIP2/nxbbynh85Eik/j/T/0ser2LThty2IQAAAAAEDSXBgfqc3v/doLjXr6KmFVyKm5oQy6j753q3RNOpYsVaavvLH2mv7z2V6M+382f/FFBV08+p9Z97tNK9om9T0/fUvMSrWSxreOi3FLXLrTQGut/Q2vW6EwHVw8mSyYEPotSZdhohrmVINvIzP5MTpxyzLEtZV89l3C1TV6JvWXvc/ZSlCyhuJ23ozsgq5vJ9WW8XofsNscxq2Ir7R86o6rgXJ7Rup/x8t54Re/TbZrtvQwAAAAAIFkqCA/bF5T9Q6cNat0ix6Dv0f9mVyibcoF//6wnqHZ5CRdNnUThRMDdIsf4j9N/e+l/0Lx4Ls9KWBLN/v0Dv9X9Bf3R7Md1fpM9skKLRI7TrUDednbFAfAeNbUmw9O904eSvqffMMN24s4juCP1xsqQzLgK97hO067//L/rZLw0LOXydfi2m+R9imj/iabhEOFk8KtvcHm07TPv2fkQfqnFJPuZn8u/06yP91Ptv/5EWhIss8x2ivu6P6f2z17MrCZau0y+PnBLzKbbMZ4hiZ07Qf3vzOP38X22W8dInYrt8g0rvn0rhArXfxfboFNvjtb7/mCzFNpYES9luFyaWWe2T+w0lz3K7nP4dnVXbJTjXKfZHc6mm/F5a8EeZlAaX0bofPkDh+GnatVcrtc+lL87+P1S6WOxntUFHfvtx4KXiAAAAAGDvtseW13ythrM2eD218eucORG6eDHbFq0AAF4VU+P21VQbGqLOra3mknEH1RubqGmh988HZslKaltXSrGD+1P6sAYAAACA3EB1aACYZPQ+o4uodttK+0RwBpH6RhEAkwhELVXJR4HWJdMQnfoAATAAAADAaEEQDACTj2oLHdMzW6vRVhwAN68qIjrTNfolsSVVtEHOOzrqwTcAAABAPkMQDACT04lDtGkrlwgLLl0mxUQA3GBJlpZbxSL4Xkk7t5VT2CZRGwAAAADkFtoEAwCMqjLavK+GQiL43iUCYFwdAQAAAEYXgmAAAAAAAADIG6gODQAAAAAAAHkDQTAAAAAAAADkDQTBAAAAAAAAkDcQBAMAAAAAAEDeQBAMAAAAAAAAeQNBMAAAAAAAAOQNBMEAAAAAAACQNxAEAwAAAAAAQN5AEAyTxvwFj9OH36mjzgWFagwAAAAAAIAZguAAzZ+9gHbVaIGY9nqcdi2YRfPV381m0S71OaegLXdBXSE9VyPmXbPAYdnyWOEC6kyzX8DF7MXq2K+jXbPVOJPkcf9h1Sw1DkBYspLa9jVpr41laiQAAABA8BAEB+TpqseprbKMlhYUqDGsgJbOq6S2msX0tBpjJzLvfte/w+iZPzNEETUcCc/EQ4IsLJ1pE+TOnklL1SAAAAAAwFhAEBwALrF9JcTB7wgdP3+MGt7uoIf4dbSXjo+I0QUhesW11DVEP0Cp4zhQSE+ExX4c6aO958WOE/vtCewW/0IzUx7uPD0zpIYAzCLhO9UQAAAAQG4hCM7aLFo/Tyv9Pd57hDacHaZz8p0wfJk2dIlAmIcLymi9XfXQeFz+fXRLgwvoXmOBNWgKZ9IysV0GYlfo9StxGhDbadlMRMF+HBfHNT/cWWE65mfRCo6B1TEPYDQnXKSGIO+UVNHm7VpV+J31xWokAABA7tz22PKar9Vw1gavX1NDSXPmROjixQH1bhLiNpCV4s5+pI8aus4mA2Aj/TPxXnqo57IayW0jK2mpGNfw5TxqE4H0wPljVCuCaB2XMNuNTyicRc/Nn0fLQgWJKrwDI3H66amTdMD6cbEMnfNCFPES/KrlfLqqjl4Ri328t4M2XFJ/Y4WFslT73LB5JtrnR2jv0SP0uuFP3FZ6/TyuKq5G0AgNxM/TFjEP2+0laOtOye+yW1exnMbvSLe9uMq6LLHnbW43b7WftPVV+8dtvyaI7TH7fmqeN01sX30l06+j7+ky2e8JhfT0gvvpB2HjMaDmdU7MK6jp1DYcON9HF3ifG495ffuKv5H1b0YO63fs/G/o9UvWGXL79mW0lvT9JJa3qpJ+YDpO+sT2dNmHGc0vab5Yn+Y055Ttsehj//k5H3zhdrnrSrXhM13U8EYfRZZUUf1T5VShF+LH+6nzzUPUekG9t4iUlFH9sxXi88mgNiamOfXuKWo9YfyNKKbGjSuodqHH4Dd+mra80EO+f01EoLVzWzmFxWDs4H7a9MHc5HuxrrvEulL9StqwqjQxbhOPMymm6vpFVFd+J4XTrp+Q9fbMcH66EjFd3QqqE9uW18WRWiYj7/tPMWzX5Pep5VbbUhLf0SLWs9tmPas3NlHTQvWGhqhza6vj8QUAABAElARnaX7BNPk/lx463nx+KYIG/t+meihNu4Po7PmMS4P5pvjD5ZW01nATzCJc9Xq5fVInTwGwwSdiuVlJgfG7RNCxaBm1LV9mmUch3cebQtzMv5e4kdcScGltpdUoSSxzqJLavvM4PeehoNVxXcXL6w0/f4drACxoVXXjdFgG/JfpMBdmpqsSLYKRXSIIaxPBXTKQZWnW0ed0fva7fOAi5vVKSsCm5rWcE7gFOR37kn7Hh4/hmNfOlRE5vkQbZSGOlyrn9Vtbucwh2ZYgtuFctU15P5umDZVRm21zBP/z03IAuAfAdvztP7MgzgdP7rlPBKmN1LyuPBmwsVAp1W5rpMaUnSgCH/78thpTAMXCPM261bTTmvDqHo8BcMDC4UW0WQ/c+P3CGqrfuJKaDUEbj9u8RL1R69a2bzU18We8rp9RRtszi/nJoFRMly4ATuFj/1ndM10G0Zu3q+VWozVDdBGBLQAAjBMIgrM09w7tLvjCiHOJEQ1/Sdpv/zS6z/Ye9zLt5jaoXtsGz14sSzw5oDh+XgR1ehtk8Wro5Wq84oZ4XqU5iLp0MvGZh95WVbS5lNMwbeKlSufOjXwl/4+odZRUlWFmO/6rLxM34vMXiBt1+RGxnL3Hkt9/tJf2yvi6gNYud0saVkD3zlfrKoLrl44avuPtY9RwzqYU0QYHDdp3iPV1LCnTq+peoQPaCDpwRUbBLlWiRdAlghEZ4Ivl22tcR7F8L53XqlTfe4f26SSf0/nZ78L8BfMS83rpaHIauQ15upEC26DU73SaEXovph3TWpVovb11nN77kt/bmH2/DOy4VNS6r1+S5wfR0kqn44WDSN6mI6btycsp2TVH8Ds/sR/0HADmefVpD7tIfJ8aZyoF9rn/koI5HzzjwMexlLaIauvMAVH1Ri3wcmMOLMfQwlKqUIO6CjHOqqJSX0cuAXVfN+a6fhltT7/zK6bGZ5PBfSYC2X9iHTc8y0G0em/02aA6P1J1d5ymqDpVYwcPoxQYAAByDkFwVlTpp7ip/Z3Tjb2klX65Oee5NLiQnpun3WFobZDNQd05EezWyhv/ANqzXrqiBcvT7kiWoonANyJu8o/zLFLGEw2o0mPuaqhZ3fBzFc4Nxmqlw5fp9a5jKhB2D/yXhrhqrbjZ7+KqosYHDcMuVXiTTAGwW7VmlbX4+BVDIKHW3ylLtAwSeUB+90lL1dlhOnBW7AsRqJiqkgv+pst+vw/EfmOpbiu2IU/XZQnWLPxMxw9I9GNaZolWD0mOn3fZB+I7G0SwXWuzrw+cPUIvyZtkpwdJAgeGbx8xbU9eTm06a40Gwef89NofvB/M8zqr9oG1LTQL5rzN9nzwI7pnPzWsaaGGrV0UVeMkLvVTg1z6WJeozqpNs4WnUa8te/rVX0Rg+VSVmu4atb6gf2Y/dar9JHG1WsP08pVNVWg7PI+tpymm3mrVcFuo5Yx6ywzryIFaTHwmerCLtojPJZbLsl2SgbM9T9tT8DW/krm0yBCAJuYltq9xvbg6uByvV4X2tf/sFFFYzl8st+k7xHCHtWq5wYUe2qGOhU3tDlW8AQAAAoQgeNzwWBqsl7iKAGq3JbhKSBO8eaeCd65qqo3QqgyPjNBhDnYNVYX1wCBRIq6CYoqfN7UPThqm189rd72uyxnvdQ3Q3CQDYBEcpWnXa64KrXOrEq1KNjnIP+Xy3ZZ2076ny2K/n5NJvsT4eZVav9Uuh5eR3+mS1PabdofcvvzwRG5f/diwkQjkCgvpae53u+px6lR9b3P7dA4SU0vWGW9PERiqd0Z6tX47/ufnLiXgDuq8zeJ88IODpR16O9ALfXTSGCCGimiOGow8bK76WrFuNTXrff6KV7PeLpYZphtL0V4RlF0YFEelEu+n9y8QXYwNqREWIlDbtKaVdnxANOfhlbR5eyPt5GROXH1YfUSyBLNGXrenlPX8hujyZT2gvGZar3D5XNM0we6/fmrZKpZbrGfyoYUYRukuAACMIwiCszJMn8oaw+lulMXf+QY4DU+lwXoAUVBGbeJGnW/WU1+VAfXFqq9fskqrLPn+6ks6IKtKJ9dbqxaeDCITbaVdApBEW2lDkG3lOr0LTlqkVT1lI/SJGrKnqkJzlVrLttQDodTSOX2ffkWfZhST+Jwum/0+fJZqj/bR8RHVb/Vy9XkR7LkGt36nM5BVysUyv8L7wlDV3AknUdtVI+axfBm9wm3Jud2rqc10sPzMT28mIKtKG7cBt0mulAdMavOIgM5bv+eDX/GYuVTOKUDMLLPznTTTuR79KOEAUQ3qXKrrSrKtqxaEcntXbjerlXp653V7Sn7mZwzquYr1tiYROGvBc/Mqwz6yrGuQ+y+6xz75FQAAwHiCIDhL9smjLArvUG0n0wU+5tJg/WZ7LJnXTwvg5I24ePFNlDZeBZEj6YLNURIWARsHIyN9WttODjyqZqk/2lBVod1kX6o+xkRAu6Grgx46qrU5Pi721YAI9vTgtlNsH9v18zudTq9SL5iqmtvhBxcciHIMOiLmdb5XtnttEC9u96pXaw6M3/klqlhryawSQSy3SebR8V7n0l4QvqArEy5IEgGpTBil3uac3/n1UftBc2DNSbXMwfMQdbpVTU5rIu4/AAAAMwTBWUokj3IJkubLqqCCh5KwRGmw0/ep4JNvtJNJcRxe6br2cSmB1SWqxHJJrwoWZSnX8BU6JuJLuZx6kG9IiqUzJc+y0kvHAg6eZUmebG97Ntm2M1TpnOlXVoXmtss22/Bt1XbZtko0c2mj6irD6YLa78Nam+MNXUeolj97tFcEtmKbie3T7FYN3+90XCX6vFh2sT/MVc2t9FJUsR842VSXmNfZy7Ldq7UrrmBkOz8+KMhUmsbjZMIru+RrQZ6345C5RLOfWhJtQe1eh6hbfdKRS5XisRCprzBVQY4d7KKWrck2r6Z2xAHIZn4D7dFEkqkU3B2TTfdDge8/AACAcQ5BcLb0kq4Cm+yz0ixar6rlpi0Jk1RpMH/fTDXKSAWfFJrnkkXWKw+BmJ7Zmtt1yirOepVnVVWaA2kVzBqraurBs/NyJhMFuXYv5YcKgPXvPNCjZcNeWmnX7ZBeim3s2sloWGU5tlaJVu1dxfi1i+y631FUn8pJPqfLYr/Pn+1SWjt8mTbobbMtDyz8TmfFDyJq+YGEeu+K94MpUZiukO5TQ4HyMz+ZHZr77O3QHggkXqkJrxICPW/Hn4EP+g0JpkqpaftKqi4pVu9Zsewfd3O9U9Koa3TlMzXIQuVUv8Qyven7xpAIJDva+6j7Ard51dbLmFQqcBnNr5gat6sSZO5XmQNn/cUB7Av2/RFnv/+ypap+72tK3w0TAABAABAEZ02vwqwFWdxvaiJwkP2WqiqSbglxLBJZdUNakGimJ5Ti7oXs2mYW0tMLFlPnd9y6HjIHYuZ2jZwgyDgimRxrBQc7hlJbrQuhabRCBusjdOyKIZgYPks/1efBy2n8TrFdnqtZprpPitNPA070kxpUi4BNZd5NCTxV6bZbIJ4oDbeUzh84p7rE4erWNYvpOdN2E8eBCJY6ly9LqYrtbzqf+52zdFdWyn6HZdVlsX+N5hvasZram/qdLltimzTzuqm3ie3Bx4vd6ZAtH/PT2rsX0L0ZZV8P4rwdxy70UIcpyZMIpLatTiRW4v5uZf+4qyps+hfWdPcmMxAzTs5kmv5ZczKn0TQQ+0INCbxulvXy0yWRG9/zM2aHDpVTs9gHiVfiOxpFoFklglz1ORbA/suGLPlWyx1emJt5AAAAGCEIDsA5WeVWRoq0dJ4IXoxtBDnQG0mfndgsGVjb4q5d5N8tCYvkaxm9Mi9EEfFnt1JeYyBmbtfICYKMibmSybGW8k2KscqzrOIplkEG66ntnQ/06N0gic9ULjPMI9l/8N6j9hl9A6dvMw48DcGlVhXaJpGRkV4abq0SrRJHadsxRGuN6yj2A7dLjvA6Wvtv9Tudn/0u5rWlV0tuxVWX28T+TU5TJ94nH9JsMT6M8Dudb8ljnrNRJ5NH6dtDnEOq5DkY/uenPxThc924TYyvzpSHG0IA5+141v0Gd8PjkuhJKqJFDzuU6J44Ze4mySptVuIccl22IYqmXe8M+Z2fKTGWkyIRaJaLILfJ1Odv1vsvMKMxDwAAyHcIggNyoOcINfSKm2PtvloRQWK8V/YFm2mgp5cGO+HAm9tl7hXBtwymdCOqXaKYp33XRIoMxLhdp2mBxfLHaW/vb0zLq5X4akxVuvXgkNm26x2m17s6xHbhYEqNktR24T5dg4ifPDp3VmwvXg7ZPpgjDT0rtLVrJKtkyXlKlmjejm9rSaNs973TOvqczs9+5/5rObmVth/s9vcxU/Vxnd/p/OJ1SzmH1Hxkv7jmRcia7/kNX6GfyodeziLq4Ya1HXrW5+24dk0EUq20ZWsXdYpgKlm9Vogn+7t17geW+w3eL/ukjVkiuZic/lO6qN6PPm3ZzEGiWMczvE6ttKPDWJ04CH7n10c7TH0fuzP3aZzt/vPPtR0zAABADtz22PKar9Vw1gavp/44zpkToYsXTbd7k16if1pOgtPjpR0wAEwMhVpVfhFsOD8AKKSnq5bJdsMD54+Nar++kOdKqmjnNq4uPWSbAEu2Gd64mmr1NsUiqG54I5tM0QFbspLa1pXK/pRzEWwDAADoUBKcA4lS3FBl+i5kAGDiKJxJywpEcOuazG040bUY5EakvtHQXjXdayVVq+kmu+o6vb0wVykus7Sh5uRWc2mRIalWLDaohsaHSPhO8e8QnfoAATAAAOQWguCc0BIxcfm3bE+ZaPdnl50YACYabkfMVeqtD7g4YdhzVaomSA6SvgF4FV5VY0iGxS9rUi3OOj2Ogs2SKtqwqojoTNQ2gzUAAECQEATnyqWTss0tt/0DgEliOJn1nJO9JR9waS9OGLY2JAJgbls8WknfAJTuDo/tgeP91LJ1vPT3W0yR+pVaNW5ervFUPRsAACYttAkGAMjQ/NkLaP28EJUUaH1k6zhh2LHzv5F9DweVMAwgIyXFVP3wIqorL6Wwlvxe4cRa/XSq9xNqPTGeqhuX0eZ9NRQ600W7RACMuwUAABgNCIIBAAAAAAAgb6A6NAAAAAAAAOQNBMEAAAAAAACQNxAEAwAAAAAAQN5AEAwAAAAAAAB5A0EwAAAAAAAA5A0EwQAAAAAAAJA3EAQDAAAAAABA3kAQDAAAAAAAAHnjtseW13ythrM2eP2aGkqaMydCFy8OqHeQe4X0XM0yWlswQnuPHqHXh9XovKRvC6KB871Ue/ayGg8AQZu/4HFqm1cgzrVj4lzL6wsPAGQgsmQlbXjqTgqHitQYolh8iOKno9Te3ke4gwSAXEAQPC6oYI36qKHrLJ1TY/1BEJxQuIA6l5dRRL6J00tvn6QDchgyE+TxmTvzZy+g9fNCtLSgQI0ZoePnz9Pus5dtlnkW7fpOJS0VQ05BW+6CuomxPTPld3s9XVVHr4TUG4uBkRG6cL6Xdl8anjTbafRkepzpvx3qrZOR8XLcTs7zKL8UU/XG1dS0UL21ip+mLS/0jG0QLAL0tnWl2vCZLmp4o08bBoAJD9WhYfIavkLHRrTBgfNXEABPdCVltHljlXqoYfZ0lQjAKssMATAroKXzKqmtZjE9rcbYicy73/XvMHYiYn8urVwm9uECmq/GAUxmkfqVtHlJsXo3uUXqVzgHwOyzQZQCA0DOIAiGSWyYXu/qoIfe7kBV6AmOq8vt3FZDFfeoEQZcAvlKiINfLvk9Rg1if/M+f+hoLx3nhyAFIXrFNYgK0Q8WFKphGCvHe9V+S7zEvuxVVSELyqgZ+2iUcC0i674wvFDqmmN3UsW61bTT4YHf5FFMj5Qnqz8T9VPn1hZqWKNeW/fTlo6xL3WNhO9UQwAw2SAIHhcK6N50VdCCVlJFm7c3Udu+JtpZn8FTZ7/TwQQ2BsenrqSMGsXx1ryulMJxcZP0prVq3CxaP09buOO9R2jDWUO12eHLtKFLBMI8LIKo9bPlWLN4XP59dEuDx3B7TihiX146S7W9cfkucgc2WmYm+3E2OddvoP0wtZwZovDCcmre15g3pcJ05lNqvaCG2YVrNGB8P0bmhI2B+iSF+zrIU2gTHJhCenrB/fSDcIgiiR/mERqIn6ct5y7TOWsTudmLqXOe8bMu4r30UI+1JLOQ5s++n5oN3zEQ76OfnjtLNJ/b2Lm3Ca7e2GSohjREnVtbzT9ADjxPp7fHdWw/prc/sy6ntZ2X2K5VlfSDUEHiqTiv55Ye63e6t2dL307ReXt+MpPbOpJ5OX2vn0HhLHpu/jxaZly3kTj99NRJOuC2qBkxb0+e5/pF85LVhke49LSXNlyyzDDL41NrH2rYZnbrKqbbIqZzKlWSyVI4+BXDsTNdtOsNmwQpYjk/rAy5t1PUP2NaTtUmWIxr+HKebVvWtG1cM9l/Pran3laWS0g3XFJ/Y4XiWBX/nRs2z0T7fOrxprWV5qriaoR+XXLZ9n72X7rtxVXWZYk9b3PDdI7rqUt3rvk6jybK+T6avyse1sGNw/odO/8bet16fTHR98U0sdz6gjsco1lel9honA9pj2lJ3972+SoiS6rE9a9cXf9Oi+tfwG1jReCzc5v6/oP7adMHc5Pv1fWW6sU1eFXyGrwp6/awZSLYqqAKQwIsR7btgYupun4R1ZVbk2j106l3T1HridR70KRisU0X2STgsk5bTI0bV1DtQo/Br0O7ZS3Zl9h24jjQDIltGKVdHeJ3zO6eybA/km2P1fqqfSCJ5W158xB1XxDbcl8NVajRch+2W9dfrMv21VSrlsH+M/7vBwEmOpQEB0LcUIsfs1dSfpzFD2SoktqWP067bKryefoht6X9eLaJG3vjd0RCZfSKmNcPpqkRE5m4GZorbjTkdjXcaDBez2DbCLpvz+bEr09w+Kbqw+WVtNa6blx1d3kddQZd9VNsz/XcblbM09RuVgxzm8sPq2apEUn+j08zx3UVL9ubTmPpL/8g7xE/3HYBsDC/QDvYB2JXHG9g6Utxk8v/h2amlvZOu4Po7PmMS4P97L9Mt+cnYrlZSYHxu8Sxukgcq8uXWeZRSPfxphBBx3uJeIOP6zrVVlqNktR16TuP03MeDrOM958N/g67ANiL+TPFeckDX32ZMp2/82iinO+j/bvil9ie4tritH5rxfVll10tDKau8dq+MC64WkebY9T/+o3e+XDgnHa9WjrP5XeqcCYt4+WI2+erGDjRQ5vW7KfOUSgVDocX0WY9AOP3C2uofuNKajYEXzxu8xL1JhteAuAUnECrkdr2raYmXibLd4RDpVQrq5CXqTEWHGCKaeVvisu0if15j59l1HGgr36/EgEwK5LbsHmbh/14z3SKcA4MEcDK9VWjNUN0UQaofXTyjBwhhcvnmo5HqWQuLTIE4ac+cHtIAJB/EAQHYP4CLlkTA+IG9CVTWypu0xangZECKtE+mnTppOFzqsomlzIkxhlelqfZT1fx02MeGqHjvccSn2uQbSDFD7OHm4TujtMU1WoZUuzgYc9P/fxOlzm+OeSAbYT2GtdRVY1Mrd6abP9rfDWcV5mxXDhvzz61PT1s0EzMXixLzOT8zougwLi8fLyIv0TmVXq6IfMuREvFTRuXdiWP0WP0kr59xE2g6UY1i+MzqYDuna/WVZ4byW0rz41zqdPpbX/5yTWXPGxZ0+r6dH+uqiJ7YcSlpGn4S9IO02l0n+02vUy75Xbw2DbYz/7zsT3PjXwl/zdVA9ZvnAXb8YZAcf4CcaMuP2I+rrmt9F652wto7XK3pGGZ7z87HDRo3yHWN6MAmEtBF1Oz3NZEx69Y5ufzPJoo5/to/674Nvt+GRByqa/1GNGvL0sr7Y4zEQDLa7wYFNMar/PatLxtxDF4h/ZpKYv1G9XzYfgs/ZR/qpyaYQhPz+egS/y+uZ5H16j1jVbasqefYiKIyllb4YWliRJFXYUYZ1VR6RBk5hz/BqQPTG0DdWMJq4u4nn8gK1zyWkMVpuDXivfjCmpMOXkNRGC+4VmH7zEkC+P7sZga5mkesXxn5GFDAB3vp/cd7tdG774OYHxBEByggdhvLNXauE3bSaoVwVkmXYa4KlxAP5AXRq3KmrEa6znZBvKY+kFP40IP7XhBS0BhVz3Gkd/p/OAbjbePmKrS8fZ8SV2szSVkPrluz7Nam1Iv29OzQnpunvbLprVhNQcF8ngRN7h8w7VsZgDrZyCrqfacNRyjw3Tg7JHEg4KlM1NLg7O1NBSS832oi6t8Gs8BcW4Y3zJxs6JVfx6iqEvpb5Iq/RT77ndfyhEOxN/T7MNznkuDR3H/Xbqi3eRPuyNZmiQC3wjF6TjPImW82Meq9JiPay14TD2uua3064nrhHvgn9H+s2EKgJ2qqytLK+vow+8YX6oUVPyNq5qaq5X63A8T8Hwfld8VEw4GrftCvWxqjHBg2iCC9FqbY4SvL9r1OvUBlAzyeUAeGyctVaZ5WrGOItB0rk6cgTE4HxKlwbbX1Vm0gg8L8RuXrLnhbODEIdq0tYs6xbbkUuENuWi3yVVwtxqCKlkttoVaDKWNsoRSDfrTRzv0xFdcyi2PDYXnn/ibeFmqGGsBn/htONhFW0wJtLooqj7DzIG6CEqfNQfA2sNVffr92gMGMW7HCfUBfvCg7nHSLiO/jMu5ZFGi6rFkmJf2IENXRLXPuj3MKFKlyNpvoWl5jcnCxP1YR2L/FNGih43HhTnxWPRdl+r0o3lfBzCOIAgOwLkryaf5uxbMovnOv6HZUze7FD+feZutCUXcrHBbOfXOSK8mGoi021MEUGooEHqJnbjx2+10c6eCn0h4ZoBVvkfo2BX7A0Y/fk1BVVBE8OLnRj2gMqoMeCwNHtX9p4L3ggKaq42gp2eKO6ORETrM50BBiJ5Qi6pXC0+UiKc9rofp9fPa3Z3rcvrcfywZAMfppTQBsJMBsZ25xK3WWmrpdz9MoPN9VH9XspQIAAsL6enZC2hX1ePUWfO4DJy5bSwH1qYSXSqkJ8Jyw4jrvMuxYWn37ttYnA96F32heam1embP1Pood2vGMcqivSK4ujBIiZhPlRxejA2pEWNMBGqb1rTSjg+I5jy8kjZvb6SdnMyJew1QH5GMgbqpOrAgglLzw9Vr2gOGrNs6a6orjaXn/dRimBfPJxmwCjYlt2Zi+q1ifU+IZVRj5PJaSmm7e/vVEFF41SKqVsPmde+nk4kgHwB0CIKDMHyWalVVOtkvqf4UXdwEBH3zkmgDGWQgmMdGfXvqN2MFZdRmLGExvSq1EpLRZgi2gpLRdhU3ObtUtb+UNlq2hulTWWPYeoNtJf7O99tpeCoNHtX9p69fiFbIKpWq5PurL+mArCqdXG+tWnicDqtAy9NxLf4mb65c9rvf82J+ogowG6FP1JAbYxdJeu2ECK+rXSDkcz9MqPN9FH9XzLi0NLkvTC+HKtScbGpXjVi25cvoFW5zy+1lXauV6+fkV/RpQHGum7E5H/TA2lrKr9cOiNNPPQbU5mYip2lX4KV1Q3TZumvHWx+9so2sFvRyO1lOrmVuc2tjlviMGmQy0M+ZYppp7MIvPkQX1aDOGLCmE93Dya/UGzcnThlKq0tpsaoObqoKfeZT6laDAJCEIDgosiqduEk4qrVlOj4iflDFj6l+89JZJW5a1EcBwJ652l+NTAbT6JJExD55lEXhHartZLobbnNpsN4mdyyZ108LHOSNuLph18brVSu9BZs5FxbXPM7GzaW4vD05ALSrRutCfyBhW4qWTybC7wo/8NCTTY2IZTzfK0vvG8SLA2e9+UpeuvQbWc3a9GBNrx3gkBDLjDMVNyaSBGrNRFyqtU5aIgDmEt90QW9eukbvn06W1mvVwY1VoYeocxz0twwwHiEIDtqw1pZpQ9cRquUn5zJZlfgRDFVSc7qkOy5PoK3QZ2awRm17quCFq9WllLJYXz6rkGZML61KF0RlcHxm5UKfbJOlJ4NxKxVOJI9yqcKYyC7s4aYzURrs9H1B7j8P2zNRJZaPT1WFUlZ5VlUt5XLqQb5N9mTX49rrfs+QLAEUATC3AU60CbUmXktLfyBRQGsX2WTYzXI/TLjzfZR+VzI3i3bxAw8uPeZkU11iGc9elqX31i687Dklq8tAUL+bOTkfhum9GB/Hem0O/XoktleaxHKy9HffatlVD5f+cpJArhqbjyL1FaYqz7GDXdSyNdlW1tRu2ejykKEdbgCJvVzbRF+jK5+pQRYqojlqUGeuLh2cgfZosl30wvuomqbTLP2BgUtCLIB8hyA4APNnuzyN52RVelujtDde6W8IEu037bp7YYXeqn5yEiJfnaN7nU7PyOtwg5LM1Dm2fG9Pv+vn1k4sx+yrDCcT96RvnxbADWsGUkqFt69MzaipJ48qcMrCOovWq2q5KdmFbangi79vphplFOj+87A99eNs2h30tKzSqVd5VlWl+fhTN+/GqprJ49ppOTPZ7xlSAbD+nQd6tCy+Syu9dUGjO3dWZe2127c+98NEOt9H83cla5zgyZTYSldI96khs8t0WC6+w0MOneoT210mv5ujfz7oD9a07pJUW2jXhFhad0Ao/XUggrqO9j7qvsBtZbnv3yqqS/Rxa3HhEzqlnSYa8TtifqDK0/PDhkaHbM3WwLac6k01k8T0Jcn35urOpdRkmBfPx7ScgQanfdR+UC8NLqXFG+9L9h98+hMPx46qas73dWKZAfIFguBscdbJykrZx6CsmiZ+tI3mcz+I8km5+SbVzHxD8LTxK2SiEcMI/aaKQvRKzWLTZ7kdXid3OaHeu6muK09ULQqvSpOu38D7dHpGXrGcxip7Yn24T8lke8Ex5nt7+l2/ZDuxtbKfTz5mtL9otG5hOr/j1lWHH9wfsJqfGsN9dHJ/qdrNu1v7tAyOz6AZS4W5P8eUjJp6iaEWZHG/qcb121Wj9p9bYiKLxE1rSB3oJkHsv0y2ZzI51goOdgylVAfEjT0HACtksG5JfDasumjRl9P4nZ73uz+pQYQI2FQGZNeAJ0UyWVFqf6s+98NEOd9H+3clWwVl1Gy8toj1ktuTjzO700jQsyfL6vJiXzxnWh41/fJlLlXpM/ndHLvzIXGN4kR2C7Sq0G6BdqR+BTWh9NdkIPaFGhLE70CTCNY4YON+g5vXuXV/dI1a3zW3w9Wa2Rin54cNRVRbZx/8WdvxcjdV2rRq+mcN/fOa2ucKhnlp89ENUeebwT7YGPggmX062b2Vt76BZUm7fl+3sMLz/SDARIcgOFvix3VLr+pfkjvcFz/axqQnbfpNlbgJ3+Ly42q8IXjF2D2FTDRiTNQjbqpO6Z8VN2SGz3I7vAi3yTJehMdM8gaWq0ImksKI9ZF9Sp4/Nk7aivndnlmsH3cpoqp6mhLeyJfqFkb8OejSG+5XVM4vsazJfjP3HrXPxK3zfnzmhl4qHDU+lVfOySq3+vYUN82G9Uv0s5quarJJMrC2FcD+y+R815NjLeWbFGOVZ1nVViyDDNZT2zsf6NG7ffn/t3d3oVFd6+PHn943TT140YkvGVtJmtwUTWzzR9CjphzEI7EXKfF3VaFC9UJFECwURBAUCtJ6kRZasHeGelGDPymHRoNCOVoTpTdJE9pjfEnmXHhM05zrX//r2Xvtmb337HnbszOTZL4fmHbPzqzZL2tm3M9eaz3LvKbb97tUQb0nxjtnGvAUDGoi2DGVWi6v22+selgh3/ea/7sSV+67olmss+fFHJdzPk1QqWOZI5lj1MRfXl0c8n9Gs+WLdxuu5Pjq+X1wb6yZALxdWwZLBdq/0/obFg4uA+Zl/GGRDNbm347g9ETR9O/BG6xW0W0bgW7POr2S+Xeq2Oud1v0lmIs3MF2S9XA8xnbCUy0BqxdBcAImn7rJSwacixb3gsAzYy6qdKxUqTky3QsCHecVVf6X4D/M9rWXnQt/z6KTkETnW/yiYMtATtzJ0Ssqpxd/YxlzDPa50oBE55Q0FwGJTnVUjaLn8xf5l5tYNF8Vx6eBm47r020GLnRM/Xv1mOwUWIsyel8/o8H9ncnoFDQ3S2+rks/nUnk8LZ8WuDC8fvdmfl2YY9b5ZfVcVrp/2cRMBVRdfxWcT7fF1xXo0u110VXmffLHMZrALfu7ZFc57HnRObgT/YwVl+3ebIK6QEtcUbngMyprd6x6WCHf95r/uxKTHlvUefHGCF8vfFrc/fvOTfoV+d0t9Rmt6Pjq+X3wWq2NErkJZq5+T+tvHg0uv5XBQLA778zve1qnEbpWPMh1b6Ka8jfM63I/p4a+xwMZPDMYmjrJz922E0gHypproIwJaG/8FsoCbf6d8nov5W3L7u8S1W+41brcbNjOmOLQsQGN4KW/7u790y5X7cV/8r/YGzem5cmT6J8WYPlrtl3ltJWgtkFDMlb6/lcuOz+tJiMqMKULEK3xvi+ojf09Omcynyssoe17Zeiw1xX6kQx+8H1lUyPZ8nM3vpWTiU/DBSw/tAQDWFWyrbipbqYmA1B/zZ3yoY5aWCyWEGvlSPcf9I2LLfXYKztsOSyh1h65mA2Atafe/YrnBk63vGr+W944YmA1IAgGVgBt3cyOYSv5SDqp1krjJmLS/ifOeMrseaksOzEAVKtjQ6cM73azBN+eqiQ3AVDKWjloszoPnfUnCNMM2hUGsiaIPrZvTcxxxMDKRBAMYPV5ei9i3CcA1ECzCXztzbehbjcA1nHHx8rMUA+UpXWzbMvLvj4vw2cq6Qa9VtL9e+WiBtGZRzL4eXnjiIHVgDHBQFGMCQYaB98XJGDDO/Jzt41ObPKzY5HzKANVCIwBFifJ17Vrd+VORS25bXLqm15JPRyRSwWTgwGrE0EwAAAAAKBh0B0aAAAAANAwaAkGAAAAgFVIk6dV4s8/3dDwfw59YSJFZzEkcmVisu9e5WbsYRRESzAAAAAAoGEQBAMAAAAAGgZBMAAAAACgYRAEAwAAAAAaBkEwAAAAAKBhEAQDAAAAABoGQfCq0ywneg/Iz+/tkRPNdlXD8s7FARnuXG/XAQAAAGhkBMHLgg3Wejulw65BAprXya4mdzHdvk72u4uo2Mr4fHZs6JRLvXucmx7uY49c6lxfcJ/393ivy38Mm/e5tKF5mR1vFfXQ3CnD3rF1NvzdscpteCf72bi0wa4LWC+X7N9/7uGGGxrI9r3OHKTO43ibXQkAyx9BMFavhVkZXXQXZ6Zm5bq7iJWqtU1OHe+RtH3qt79njwx1t8nOJnvXw9EkO9u7Zaj3nYpvgKTN++zs3mXKro4bUx3rUtnzlm5ZtyqOqV52rosIcjesk512EUsr3b9XTm1fa58BABAPQTBWsQX5bOSavPXdNembeGbXYSVKb98rF8/2StdrdoVPR+ceOZfS4HdRbk+NyoCpb63zt26NyW29CdKUknNFgtnbY/b12Yd5j7FpmdE/NrXJhRXfctosf2sx52dxWi5PmRNizsffaAyOL5Xfq2T/upRdwtJ7VboOvy8XC9wQQ22lW161SwCwshAELwtN8rq/AasWWnvk1Hm3C9PF/gruqscthxWsDp9PT2ubHDSftwuHN0lL5pEMf3nXDU6z1suRdnfnbo/dlGMTCzLpPDMWnsmxERMI67IJZo9EdmONYt7j6YT0jWWcZ+lX6nXwYTHrwQ4LmJmblc9mM+b8NcmudUTBcdzO6GciJe8GPkvr5V2Ngc3fnM8altTM1R9k8OG8tGzZKhe+OUircJ1tbFljlwDUBdflsb301929f9rlqr34z3O7lLNxY1qePAletq5OzbK/8035sCUl6eyF6qLMZKbk9OQzmVywqzwb3pHhdv9ri8iMyVt3wy2ZzdKx4U254HuPmcy0fD05IdJxQM6lFuXyrZvyWXi71o7jR+XoFvtE5mX4zBW58tg+LaLscjoGcXebpBenZWBkIheYZOn4xl1yqCm8n3a9eOXMee3plg9TTdm7/nqcp++G39N7P/s0ZGZqVPpMgFRY4fP567o9MtQuwf2MfXw+zevlREe77PIf22JGvr5/T64X29WKBM+nbvPItvZct+FFbT0dk2NPQxus8vOprbOBcxZ1rKbcaVMu/9y5tPX3mAa/Znnu4Yhc+ty2zvrpWM1uE4EUrAfDe01oP3VM8DmzWluCjz21K/1K1XGs+qv174Rhj989Th272i07i52vLO878bLZvrcDdl+L1FvscrU4n1mV14Oew5mpaXnc3iY7/efaO7/mbxL+m1+B4xud+kU+C3//zP7F+x30qWh7OR3mePy/g1Eif09j1F81vxPp7T3m92Gr/X14YH4fwjfIqmQuLC+ete9/41s5+dPm3HP7eyT95jdqX+436qSuq5Zvu2Lec8B5z7Wyo3+bHLDbcmQeyeCX38ud0L+/6dY26f+oS7pSueB0zrz2/v/elys/5l+juez7bzXv7+vUEF1urRw8/q70bSkz+M08kNMfJ1U33n6+avazkuNTa81nZpsc+3ulZeOVW/p68ItbrgKJfB8qrD8db26uARz2u6Df+/6/bzXn1V2t34Nh8z2Ivn6N+XlpNeUOvCsHzGc8+32Lkv1+5lRc71V+31U51+UaIFfizz/d0PB/Dn1hIkVnMSRyZWKy717lZuxhFERLcCLMhaW5YDmXd+Fg/iFPdcvQbk3Qk9/yUtaFbST3AmnIXHj53yOdapNzZlsfvmxXrGTm4nmzuSByzqvvgkjpcSY7VrP4+bxQ9FcwHr34+3l3txwKH5t23d29BMmLzPk8ouNmzTYD42bNso59jUrmE//zGVTwWM0j8gLe3/qrP+hfmX9wzT8MURdRHU3uh11bOQsGA3+Y4Eb/H9GNtZjsONr//pH33vHqr9a/Ey63q25GfnAC/WfygzZmluoSbb977nfCvwN2Xwtln49ZrpbnM3459Yf8S7vY+z5L7mdw0Vnf6q4KMb8v5rtX6PgOme9fdLItw5zDyn8H42/PHVsfPi+lJfF7VunvxMyPd+XkB9/KcA1ahVtatskp70JVn2/plf7je+WC7yJV153abp8k5bW/OBfVp86/L0f9F8SOeXkSuNA1F87HD8oFHTbiuwBXLalN0ud0IY9IXKUX4d/Y9/cFUMorN3R+rxz0f7hfC77/0nOPbSi7nxUcn7LH6PybUqSs/3PniFWuhvWg4parQuXfhyrrT732hhzU83p4ay4AVlr27MHQ8VWxPT2fZ025UgFwnpj17lfR9x1JIAhOQEentqyZhcWMfHIrPLYwIzOLTfkXR0/v+V5nu2xq60x2ne8RalXY3+O1eC7K7bHR7OsGnDGQ5gKijAuYO9ceyLjb21PmbvxQViuwiluucnrxpAHbolz2H6PtoprfvTU3/tf/GNAxkCUUPp/T9nxWeEVYyoZ3ZMjpwuu2wvrr3Pm8mL+k27sTnuIqJTvNxaW2HuU+o6PyiXd+zMV/4MK4is9nTpO83mGP1flu5M6t892YzC/njf3tM//I6Z3k0x9cKXoXe7Ptqvx4sXDLliz8Ie7H9GV5o6xzqq2E2hrmvvft2dB+xqy/Wv9OuLyuurnEcNdnnSi4SJdoE3Q53z2zaPbV//1zPzNul+rXX3FfnROzXC3PpxG3nGtR/jHnRMG2S7Q33joj//hDn0fY8KYT2GmraPg74H3/dnYXSt5W6e+gEXd7ph68sfXBbXk3oMz72XWBVuCqf88q/53IeS5XPr8ip796JHOyZunGCm/ZJF120dNl1oV1dZe4yK2UuXg+9pFeVNvnfv9+YevFteO4e+FeTH6gvlYOfpQLZgpK1Xvcr/4bUPzYVOSNCCeoKX2Mmezn3IpZrrb1UKf6q/j7UEX9eTSQLHhe10jfAf93L+72yjyfEeLVe0gF33e/2l2Xrz4EwQmamfsl1O1Lxxbekz4TnBXviluB5k750PmCuN1s/d1YJ50xkKNyuXTcZ6KGu/Lpx4My8MGgnLxaOMjIE7dcHHpB9N3NQNc9PZ+f2C97a1NZEU1xRc/nhDumtJzzWbZmOdHu/sK5Y1iD3fycz4tzgZv8uE2nC+PdCd9ndEGuT9zM3iiIzHpbpZ0p7UJqLmpHtEuk/ztgvhv+p8pcdLjdn+dlvEjrb06zvOE0BC/KvwoFIA63la6Qnd12apvsw7YSmr9pV8xgV+nq668mvxMem7U4EMg/nXWC6UJZop0gURecLtP3Ql1n9TNj9tUEKuEu5PHK1e98ximn48MnJ6ac8+d8X+x469tTRbolm/ccMMF2X8R3QL9/7u9ZkRs0lf4Oxtye16tC6yG4LW98fHgstErm96yi34kIMz9+LyfPjMiw2ZS2Ch9binFx2lXxzAMTbHu02+GgDD60T5W25NjFZKwRt3XP/U08bf7d1X97Bz4wy9d83TDNb+eBbHdICb120LlJ4On6u/8mwV9kvVt9Dr3x6JVxtvGVe3EdvLB+LlfsNYC+Rs95VqC8fSTUFVov9Of0PNwYkdPmvGff39T7uH2NCt6IyA9q3JurXnk9xkfOuk9/tC9wxCxX03pQccslQLdVwfchXv3l03MaVS783Yu1vdbNss13PrPbMufSf1zaHdxZ73WFjl3vYWV+38NqeV2+yhAEJ2DSSTbj3u125iUt/G999cxFmPMFykxFjzNdNUxQqmPJ7DO/X/9IMCoteT5NAGWXEuHNXWwChS+ixqGqEkFKPIsyOhv9gfE+v/LyKwluzzJBZJzArljbTy3MmPrRFqm+cOtqFfVX098JK9gV2lOsS7Rt2XS+f0UCu0CgomKWq8P5rL4e7Pkz3xc9v2nv/Hq/JRGygVxzs+zX+ax79jhzUetNFx2XrkFifsu6ivc7GH97xeUF3En9nsX8nail8TFzEfr4haltK/NI/mkCiydz83bFUnkkg2eumGDrufs77TDLvqAm/bbePMzRFvELOm+vfWh33qzUGtloF0VeyLPsAbktVRfP75VT/W2yo1VvLrgX18viwtpc6J/8wJyHn0Q2vm328fxBs6/m+LT7qX2Jwx8MhYIaDdyCN1fNedQbKF4w44lZrvb1UL/6q/j7EKf+QjT41O+B4/G03PMH3IHzaVS9vXl59sw7b88Dx9WydXOgTPx6j1L6+47kEAQnYWFC+mzXWWde0t22RclcdCR9sZsdA5lkINjAan4+vQvlpjYZyrY8hh/d9ZlzVMcf2sWkVHRezT9al/TuunZtsuNnCv1j6FqQ3/6r/y91QW/+rhfqBfinSPJaxdP//SPUImVVU381/J1w2a7Q2qU2tI9eIJTfOuedq//KbxXFJDHL1eN8JlAPTpdys8/ntAuvr6t5IR0aiPaabezeJee625yhCYkPs/CJs73JRefL5HaV9p8DHZPc7UYEecMOEvo9q/b3NziM4oFcSvyiXy+I7aKnSPfEJI1/FZ0Mx6+yDM2vyrpsf//ncuVLf2ueucBPbZKufb1y9Oz77kW8Cap2tC6DjLPOWEk3iNHxkjruMjwGNs/64LhOJ3ArR8xyta+HetVfjO9DnPoLycwFv9dFb0DF2Z4/qNfrkLNHTeDsBs8X9vnqNnSs8es9XznfdySHIDgpTtdZcyF9yx37dntxUWbMRYd3kTXcYy6u7EsBRAt2a+x1kt0cLJLsxmsNK9o1vvkVO8azdIDmdXWVVHvCY7KtWv5O2K7QxSTb26AO4p7PauvBtm6qvDHjYTpmVgNRjUEXzbamxpxeBgPmoTdevG7NiYm7vWwXazeZVTaI1THJujozVri1t27W2mQ52hLjdiE8mXSW6FXnd5n1X2Rri9kZ7e45HwimskxQpQFVfaeiMgGNtuBVGDQtbwnVA/UXIe72puXqjWBgrUm1gsHzvAwX65pcUqjeUVcEwUlbcMe+HRu5KX3auuQkqzIXm6luuVAqQ6a5CCu3JW75zF26OtTsfJqgzblAMxeUXutjwUfJKWwS4rXmmEDgV2dFARV8PqvyeNoZc+aMuSrRKuy1XhUL5rJZnstosdOurl84rcFNcmhbRObdpOqvBr8TbldoHese2i/nYXMHRHaJVuUmEQursFy9z2fsengmP5jPiXabD3Y1D/NaUU09aLKpEbOtiWdOL4NJ80hetdvTD4WEgkib8CpimqJ6/p45rb/fvO8ky9HWX02il+0q2WCCLWKPZDA7ljDq8b3csa90tK6V9OPncufzK3LS+buOJR2RwRv6+5vT9fdgF9BIRbqyViPd3xXowjp3w+yfCfy8MZOBcah+z4KBYdmJy2KWq0s9JFl/SyR2/cVUzfZmro5nk0zlyTyKnH6oqnpHXREEJ6BjQ5FWA01WNeV+o0oHWqUvILPjNwtN99JcvOtnVmvMybXLLedl5C1wwd7R2V1wTt9ain0+4x7fwqyM6nXmUrU0FhHdZTiX2KboNEOOuIFRPHmtwucjpnnwWuSaIrLkOtbLESdzbRktdtbkxJgNECPes4r6q+XvhB630xV6MSP/iIx9FmyW43CXaDvetdBNAE9zc+hvMcvV4XwmVQ+aZKrPBHalb6wYWg+BRGGeZnnDLiUqzvac7NA6Z+8194ZA9pGf8CqrLr9ndioSWn+zZn7yBzyb5GheF1id69b8290fDuY0AZSOXzzoZNV2y+h412m5c/W+XCs25tLxXGb/bRdVaqv0B1oczXYD+5EAE4hcu2r2zwR+M/a4/EmJAh7/Kvfdr7NLx8wGbqhqeb2ZEppiJ2a52tdDtfVXB5XUXxIq2p45n+dtC7LOb62Bs/fQAPbj6PmI49d7UmzXb70uLzUNEwIIgqvV3CkXurud+S+dLnTmIs+vwzeeqvC4p+AFZHA8liY28a3wLjq0y1pvcOxWh7mIGfa6rpWw40BurrWWfe+WPYdc+eW8jLxmP/1dC83x6ByW7pQay0Ds8xn3+BbkM+ci29S1Mx+pfmbcv7jc6XmG3ys0ZUpcTbKz227PrtGxfjo/shusZ+TrgolpKvh8Js3fKpzaJH0fhTMrei23OpZRj88XZDnzq9r6K5a4J49XR+Y928MBXcz6q/XvhO0KXezGRjZBVKgV/fqkTQCj4zzNd+JEoH7N+XW+F7tkyByHX7xyNT6fidRDDOacXPB/97zzod8/+3uaqBjbc/MjNMnrRbI456v971m6/11nKpJGb/0NeHw3FPC4XWCdMaHOwwRKOr/qvq7Av9l6LnUctZOVdsvWvDJH/cHCw98iW7DujOUy3ypNChTY7kfVt0DOzP1ulww9Nv/7m+Pyj98Nei5X/je4f+4wG395vZmSP8VOrHI1rock6q8W4tdfPLG350+IltoqF8z5zD6y7+HdcLCvUzHrPSlOy7fd75YtS7ON1YoguFoLE3J6zM4nm9LxZLt8CUEOmOe5i/DTRbJf+i8gg+OxNLHJm74LCHPRcd97bXDs1pC5eEvrGDD3+r3OcoGEzkGbTZpijseZw3JqNPmxcLHEPZ9VHJ9OYWK73AYS8zgPOz2P+XPSra46/6mzvey+eq3V2mU2OgOtp/zP59LwWoXH/a0O1qQz7Yt3Pk2Q5Tu+7HywlXbFfPpLtjU4r1tsnPqr8e+E2xXa/NtczvzJ4S7RZl81cZT3nTjU7d9Xc371e6GfmfD8rXHL1fJ8JlQP5cvdpNFs1LnkUd75MJ9N73ckEfG3590U0e+Q/5z4H8N5NzeMmv+e/U7rb4Q7n7vjQotbI9vezrVQzfw0LsMlyxiZRzIYzqDs+fF+cJqksCRaIItuY17Gix2D+bfDHVpTnP49EKzHLFfLekik/mqhmvqLI+72AomxCvFuOBwNzPkbp96XRi22sXoQBCdA51HUJCsDzsWVewHimTEX4Do2a6DURbhzAanj0aLK/xIMUOxrLzsX/h47bmvknnxRRgtG3Mm1KyqnF0dj5sIqsJvmIky725kLzESnOqpG0fP5i/zLTSCdr4rj08BNxx/qNgMXcqb+vXpMdgqsRRm9r5/R4P7OZHQqoJult1XJ53OpPJ6WTwtc+F6/ezO/Lswx6zy/ei4r37/cTY50e36QH6f+avc74WWFDk+NFJZrWc7LEq3b+c5NGhV5TnXe2qjPTMxytTyfidRDBfTYon4nvDG714O7ULXY21uYla8Dv4H50vbmxqXQMIFa/p7NXP2e1t9I7rjQ0zqExFyMB4K3jLnwt/OlBqbL0Z42pozOneqUCUUAcyZ4Gtb5Sj8uNo7xuVz52LxGA8a88rrd3+SJfR6fu41gkGH296Ee0xX59FrxYNW9iWrK6zjZwD7qezyQQT0vgSmQXPHK1bAeEqm/Wqiu/ioXd3vmGiMw93FxwbHiMeo9IUXHMaOol/66u/dPu1y1F//Jr9yNG9Py5En4pwVYKZptl2FtLS0jWFx2Vvr+V66j03ZH12Q94Xl+AUSwvxPmIrDwDYBm2d+zyxk3rD1dlvu8vgBQkdYeuXhWu0vPRybAcsYMH9dkfPapCaoH6tnCHrZ9rwwd3iQ6n3I42NZu2ZX48083NPyfQ1+YSNFZDIlcmZjsu1e5GXsYBREEA0URBK886+WSnZtUWx9PR2W1BZDT3CnDu9tESgS33g0mguDi0v0Hg/OKFqXZZOvdUlcbnJflgXqItuP40ew4as0ofemqv5Vfk1ttlmO+McVRwWY9ufUqkQE8QXA0ukMDK4BefPrH5hV/JJ1Ua6V5Jse0O6hZcsZ9Zs/Lnppn5AZWEh1HfGmDL7mcpQnDcgn/MkWS6AHAyteyz58ILZfcKpdUS7NOL58AWFuxj+mNjYfjZQ9vBEEwgNXo6b2Icd4AIi1MyNfOmLIm2dntSy5nH5owTBP+OWOLSyTRA4CVSHPelDUeWBONnVkureNrJd2/1+3GXe8EaCsQ3aGBougODaAxdGzolCPtKWltagpkvNWEYaNTvzhzDzO0AMCq1bpWdry9TQ5s3SQt3nRJDk2s9Ujuj/0qV5ZVYr42OfVNr6QejsiliORuHrpDRyMIBgAAAIBViCA4Gt2hAQAAAADy0ksvOQ+NITWQzH/8uaSP//Me/1fdI+q9/Q9aggEAAAAADYOWYAAAAABAwyAIBgAAAAA0DIJgAAAAAEDDIAgGAAAAADQMgmAAAAAAQMMgCAYAAAAANAyCYMTQLCd6D8jP7x2Q4c71dt1qstqPDwAAAGhczBOcoI4NnXKkPSU7m5rsmkW5PTUlX0w8k0m7Jkp+OZGZxYx8ff+eXF+wKyJpsLZLDsm0DIxMFN1Gopo7ZXh3m6SdJxn55Duzn85yvdnz0bQol2/dlM+KnrsianZ8daq/crT2yMWzW6XFPg2by8xL5sG4XL06Lcvm2719rwwd3uQuPxyRgc+n3WUAAADAh5bghOzv2SND3W2BQFakSXa2d8tQ7zuy364J6+iMKieSbkrJud0HZLhnvXTYdcvGwqyMLrqLM1OzyyQATtBqP74EtKTWSNe+XrnwzV7Z0WpXAgAAACsAQXACNJA9l9IgVlt+R2Xgu2vylj5ujcltDaY0oO3tzA9mN7wjQ+223NioW8Y+BsamnbLpVLv8rdl9+fKxIJ+NuPvZN/HMrltNVvvxJWmTHP2ox7aa11e65VW7BAAAABRGEFy19XLECWTFBLI35djEQq5b68IzOTZiAmFdbmqTIxuctVn716Wc/89Mjcmxp8G+u5NPJ0xZE1AX7dbbJK8HG5Cxoqyc+hv/alAGPrCPMyMynLF/UKlN8v+WQWvwxpY1dqmGWnvk1PmjMvTNUbnYv9auBAAAwHLGmOBqbXhHfu42wexikXGd3msyY/LW3VzL4v6eA3LOrJ6ZGpU+EzyXxbzXcHtK0uUET6HtKaf7dbvkxsw2r5cTHe2yK9WUbc2bMeVOm3LusXjjbJ0neQrve3i8a7M53m75MLCdabOdwmNhO8yxXihxrMHtxxkTHPf4POa4Ot+UD1v8+7lojm1KTk+acxguWmX9VcQ3rnfuxrdy8qfNuecPR+SSjpnt3yvH9m3KrjvpjaMNjQnWIPjTH+0TFfq78/5Xg9//9Hbz3n837+3e6zHmzTbG5dK1aZl5bFflWSs7+rfJga3+cjoG+ZHc/9/7cuVH/zbWysHj70rfljKD38wDOf3x3dAY5kq2l2/H8aNydIt9Yo5v+MwVuVLw2AAAALAc0BJcpY6ml53/z8zNFgzm5A8TFOn/U+sCY4Ovz7rNaen2N2V/BV2eywqgyqAB8c+7u+WQLzBVulzwWCrV1CSbTaB9yQSa2mU8sJ1UmwxFdRM33DHWZQaLdWOPKy+oNceZ6pah3XvkUmd+xdbjmFpatskpX9DasqVX+o/vlQs2APbWndpun5Ty+IX4G4OD2pzW0QuHg4GlyBpnGxfOHjTbiWg11cD6m/flqO5ToJyOQd4kfYffl6Hze+Wgv9X5tSpaf+NsDwAAACseQXCVNr/iRjSPF4u0Fi78IW7j0Mvyhj8menpPPnEiCTcJ1s+978iJDSWiYVMmN3bYdrXWVujsOt+jYCtik7zeYccjL2bkk1v+8cijMjDpL5cbH+t/DEzZzFEl6bF1y05tnfWNex4YsyFURDdxbS31xlgHy3iZiDVjs7uu7Bb0guIfX0dnuzkus+CcQ395cw7N8c0sNkle/JRI/cWwZZN02UVPl1kX1tXdZpdKaP2LqdmczJzXYrpWDp7vla5QUBm0RroOvxsKLk25j3JBekGppMb9JrO9O9ceyLj9KM/d+IFWYAAAgBWAILgqzfKG0xC8KP/6w1lRgPl7gZjq+l0NuEzApE+aUnKoe5f8/J62IC5tVuidqZTT1fetEZ2GyR9ILuR34a2WBonf3ZTPfOOeJ7M3AEw81RQM/L3WdR1jHSwzIX1O8JySd8OBcx3NzP0SmsrKnENzfH0muK4+SE+QTht05oHM2adu991BGXxon6rX/hJorY/U2ianAgHkvDzz4vXt26TPHwCbbZ62Y4lPf/XIt+010hdIqPUXWe8rp12zs2OQP/jWlHWDzWCg+VyufJx7TWCccqC8fQS6QsfZXoTHd+VTuw/h7uAAAABYngiCl4HJCRMwfee2dDrZpL2plTQYLtUyHFdmrEYB2qJc1vmO7TO/X/8otzU5XzhwrofJWffmRdrUlXPTov67VNS4+XwFujFnHsk/TYD3ZG7eriis67Cb/Ml5nA219D4czwaKO7r9rcuPZPDz3DzCMz9+L9f8AXcgodYLeeYLYrXb9MXze+VUf5szBdPMj26wmVygWevtAQAAYLkgCK7Kgvz2X/1/k7z+irOigPKyALsZoa85UytdzmiAaILh7l0mEHb/nqSZKgLQpTa56JxUc+zvBMdK69hiTTBmFO1+XisLE9J3S29c2JsW2qX9Pe3Wblvyl1VQ7Gut9fz7ha9lNCZNNuUl05K1su41u6gy8/LELnrujD2yS2HP5cqX/lZqd1yuzkV89Oz7bvBtgtQdrUllYK719gAAALBcEARXyWvNLNoy2fyKHRv6X/mtnNht4Zl8dvdmdlzqzvbo5FGrVnistAaW+tCxxbo6MyZfPNWFZcAEwu6Ni1H5ZCpjAuJFmWnKBcXDPUvbrb1eNHvy8FffhroYV+nxXTl55lsZfDgfCE6zTJCqAWpkUq04ar09AAAALAsEwVXyWi3TLesKBjsd61Lu2MfMbGS34EK87rYlaQZmu7h6uDcAgse/KLenxmQgO33TMrKwINcn7pmA+KbTtV1b87Vru2aJvhCRITpgBdRfYJ5gHf/68fcR0wc9l9l/20WVWiMb7aIn2F06pHWtpB8/lzufX5GT2bG5IzJ4wz+WWKTr75tLj1sua2xzgtsDAADAikEQXK2ns26G36gsx471ckSzMBu3Z4P9UXUaoKJjfl8JTilUWCjr9ErnZIfWuYyvuQFl9nFTjk0snwC4Y0ORVt6FZ3Jsyh10mrYZxAtbPfUX7O68SY4eb8t+hnXe4APZOXUNOybZpdma35cL3xyUi8d7bDfk5zLz47TcuXo/NJY4P7jOD8C3Sn+gBdcEvIGuzdVuz+NOB6Xdpy+aYwUAAMDyRxBctWfyhddtududFzYbGDnz49ouvIvTwS68zZ3yYcod8zvcq2Nfg1FQhwkEh+3419tTEwUCv2fygxNnNcmhbZ2h8bPNsn+pkmotMTc7dJO8vm4Z77+pvwvdbvIyp8tzuP5845cLj79ehfX34/1glmadF9gm1HLmDbarnczUX+a6Uqf737VZpXUu4a25cbnO43056g+eH/4md+yiX3i8cZfO8+t7jwsf5Vp0k9ieSvd3ZZOEtWzpYk5hAACAFYAgOAGTEzflEy+RVfsuExj5xrB688iOhALZbFIlcyHdpGNfdWqk3PjXIRNA6QX7TGZMjhUZ/3p90mbfbWoLjZ/dJee635T9zqtWFq8buJ5L/znxP/TGQeE5lU1Q6T8XeY93qj8vpv5OO9m8m5wuz0Ph+vPGLy9Oy+kiWbhXX/3ptEUj2blzo83L+FfBqYdmfhqX4Yels1Rr67FmnI4UDsDDfC26iWwvzxrZ9jbjhwEAAJY7guCEXNdEVmMmeAs0+i06QeyAzsVr1wQ4SZVGI8qZi3QNnG+NSt/dcErfECeY1vGnwTfQ8pfHfqloDPKysTArXzs3FQrTGwc6p/JSZM4ul5fN253aKur8m7oN3/wIW431J9PO9ELOvMCBoHTemY/39Jkr8ml4PPHjabny+RUZODPiBKfBcrlEXKc//r5gq6wbgOu43vB2tbwJvG/8lstWncj2TD1dHS8R8AMAAGC5eemvu3v/tMtVe/Gf/Dk1N25My5MnwfRGq11H5x4Z0nHAJgB+q1QQi5BmOdG7Sw6ZQKpwANks+3t2OeOGZ6ZGazTfMVDE9r0ydHiTzN34lrmFAQAAljlagpfA5MSUmywr1b1qp8hZMs3rZFeTCW7nZou0oC5kp6YCloN0y6vmv/Ny/ycCYAAAgOWOIHhJPJNj2sXZLDnjRbNjRffIiRWY66ge0u3dTubs8A0ETTh1ose2tEtGvqYVGPXW2iPH9q0ReTgeGOcMAACA5Ynu0EtJA7aOdjmU8qbIWZTLt27KZ8RtRe3vOeB0dS5Kx8zev8e5RB2tlXT/NhMAb5IWTaBVYvwwAAAAlgeCYCxLHRs65Uh7SlqbgnMla8Ko0alf5B9PF4onnAKWXJuc+qZXUg9H5NLnNss3AAAAlj2CYAAAAABAw2BMMAAAAACgYRAEAwAAAAAaBkEwAAAAAKBhEAQDAAAAABoGQTAAAAAAoGEQBAMAAAAAGgZBMAAAAACgYRAEAwAa1/a9cvGbozJkHheP90jargYAAKvXS3/d3funXa7ai/88t0s5Gzem5cmTGfsMddPcKcO72/Iv8BanZWBkQibt0xUr0eNrlhO9u+RQk8jM1Jj0TTyz61eL1X58tcb5XLna5NQ3vdJln6m5G9/Kyav5/5YBAIDVgyA4QR0bOuVIe0p2NpmrYcei3J6aki/MRXGxICxuuYokFST63mdmatRc8C+46+stySA48F4Z+eS7e3LdWV4ubNAlMW9gLNfj2/CO/Nydsk8KW1afO7XsPy+1sFYOnn9f+kpX3zILMgmCAQBoRHSHTsj+nj0y1N3mC2RVk+xs75ah3ndkv10TFrdcxRYmpO+7a/JW9jEmt+2fKtGxLpUNNNMt66TDLtddQsfnWJiV0UV3cWZqdvUFNKv9+GqN87mCTcvVrx7JnH0mmQdyiQAYAIBVj5bgBHR0mkC2XYNYbcEdky8mFtzWueb1cmlbtwlw9U/5rXZxyyXDbOM9s42K3j/XAnl5LiWH2kUu37opny2jRrmcOMe3UlTZErxceS3Bq7LOVruV2hIMAAAaES3BVVsvR5xAVuT22E055gWyauGZHBuxLZJNbXJkg7PWiluujprXyS6zyzNzs/LZbEZmpEl2rWu2f0TtNMnr7kcHWJ4yD+T0B4MyEPEgAI6htUdOnbfJu/rX2pUAACAuWoKrVU7rlfeazJi8ddcmzYlZbn/PATmX0nGHv8gbPd1yKOU0F7uB9NNmOZG3zikWIUZLqd2f22PXzPuWKh9srdTW7SPb2nPdvhfd1u9jT8PNyHHLhZV7fHZ7BYLK8safNkvHhjflQvvLkvaN657JTMlpU28Ft22O7URHu+wy9eV1MZ9ZzMjo1C/yWfj4zLkfbk+Z97fPi/F/zhI4PnfMunbZtyuKHluw/ibN8/3mM/mh/xgz06ZsRJ2U853IU8X2rA6z3Qslzm3uPMU9n9XvZ6HPy9f378n1Uh/RcphA6+LZrdJiFp3W2p82554/HJFLn0+L9O+VY/s2Zded1HWOUEuwBsEf35WSv/zb98rQ4U3usnm/AfN+6e090v/3rdKVfa9HMvzl93LlsX3u17pWdhx4Vw5sWePsU0H2vf3HGG1ehs9cyd9WtftppFvbpP+jLvP6NXaNOYemzP3/vS9Xfix+Y2DH8aNydIt9UmgfAQBA2WgJrlJH08vO/7V1tODF6x8maND/p9Zlx/jGLed6WT7UC2pzMezSMcSdJgAOretOcEyxsX+dXu1l5AcnsH4mP2TM/5pS8rdijcEmKDyi4553m4DUP+7ZLO/s3iU/96y3K0Lilqs17bpu6mLIBG+5AFiZQCXVLUPv7ZETeefHBETm2H42x6b15QU0Km3O5yFzfJciWv/LCoATpYHbATtm3a5yFDs2y5yLzfbcnAsfY6pNhno7kx1PHnN77pj8Mm8uJCHmfurQiUKfl3O7D8hwZ7I9MlpatskpX7DYsqVX+o/vlQs2APbWndpunyThtTfk4PGDcuGwL7BUqU3Sd/agHGy1zz1OQPu+CQ5LBMBJq3Q/xQTq+vqzvYEAWLVomcPvy8XjbXYNAACoBYLgKm1+xb16frxYpClm4Q9xb9q/LG/Ya9W45VzmQrhpUS7f0gRQo3JZk/I0tZkL5NA6Scm7iXWlXi/vOjFwLvHP9VknCi7RJTolO82Fu7ZyfeLsm7t/n0zZTEImmIoK+OKXq9SCfDbivX/uMeBtpygTzDhBullczMjlsVHfe+i+ul3GX3/FfXXWhjedYEZb8T65FS7jbjfvBsbTe77X2a7y2mKaXed7ZFuBVfzj6+g0QZfzMdVeBb79vDVmP19Ncmh3oRstGpzpuTGfSV/ZgTH9zBjFuvmbvw29d0B+jngUrvMY29vwjhOI6vEFy0zbFkztceGuy7XuVvN5UfH20587wF/nWk73Nd3eXfiGRBxbNgUyJqsusy6sq7tA8JbaKhfs3Lv+R9GuvBoQmoA22hrpO+Df1lo5+FGxFt0lVNF+aiuuG6gXU+qGwp1rD2TcfkTmbvxAKzAAAFUiCK5Ks7zhNOguyr/+cFYUYP4euEaOWy5H5yN1E1ItyD/m3Bf51/32X2dVcjask53mf7dnfQHW01knGCuVJdrpInp3wtdlc0GuT9zMBg4710W36sYtVysdne3OOXG7794LdWHWfb0nfSbIzeuSbgLaARPY95ky1xfCZW7KJ87FbvjGR401d8oFG3hp8rNA9/OFZyYQzN1o+bBQK6QG+d/dDJyXSXPs7vGJtDYlfIAVbs/rjaHDBoJlJqTPCUqTvInkU9F+NsuJdre50c0dEOyCruXcfV2C8fna7ffMg1zmZKcb7qAMPrRP1Wt/CbRMJ2H8q2/d8cNnRmTcrnP4t9W6Wbb5WmGzZT74NrB/2q3bWe912358V07ascnZx1eP3L9VqLz97JED2W7Mbhn/WOnTvm13/b2n8Lk0+/3px24ZxlQDAFA9guAVKqoF2b/u1z8KRM8xBbtCe8rpEr0oo7P5+6omneRaxsuvRATRccvVSrP8rcUGifeLjOMMBLk5k97q5mbZv6FTLvXskeHePU5r5znn4j6iBbmWXrHdbjNTBbJ/L8hnU27UFn0TRM9L9Hy5JT+bhVq4zaPwGPcqtldE4oF6pftpk9HpOfmi0LGXeTOqUuNjJnB8/MJ8663MI/nnY5Enc/N2RfI0aP3UGx/7eFru+QPu1BrZaBeD5uXZMy8wfB7Yv5atmxMP0lW5+5l+O9d9XHUdfj/QQn7BG2esCh4fAABIGkFwVbwW11IBSzibb9xy9WK7QmtXzlD3VC9gq6oVSsdJ2sWKxC2XCK9u/iu/Rce5RWmyqUu95hzu3iXndMytjvU0x7NcZMesFwsgzd+cmxF1rYf4Jhfd7hJO1/NA4+t6uaQJuoyiwxVqwbsZUaSL+M+aAM55cZI0sLSLnn+/sN3Ey1AgO3SpVszMXPDvBQNuf3CuXZDPHpWL5w+ahwks9/m6HleyzxUodz83thTvBh30qqzLG08MAACWAkFwlbzWm6ItRs2viHttkwuY4parC9sVupikW6FWNR3j6SWbWsw44zx1bPCAHR/sdYvFEst2QXaTS2WDSh2zq6szY4VbX1Fn03L1RjDwbEmtMQ/7xDEvw9e87NUrwe8yy1hfAABqgiC4Sl5rUrEgsGNdynYtzSWViluuHtyu0Do2NKqLqpeYq0SW6CheK9fiovzqrChT3HJLotKxu14rozmfmhhp5J4zzlPHBk8W6DpdUA1aYNM2gVukZVUPcbk3o4KthTYBVbHprWrFa23Xaa/yvnuhR9nTSq0OM1fHs8mi8uh0RctgGqFgC/EjGYxoHc89vpc79pUAAGBpEQRXy47HK5ztdr0ccRIMRSeVqrhc0koGUrYr9GJG/hEZo3mJuQp3iY7u8p1L+FNomqi45QKWLFC046HNcR/aVmS6n+bm6L/p+fQnm8pqljfsUmlLlzwrO+461V4g63CF9bAcOdmhxbm50xcIKPMTUNXNwqyM6terYD00Kp2XWKccMova9frMt7mHBpQfF56vt5ZmfnrkSyy2SY6e3ys7Wv0Zstc68w2f6i81RVKbnDpvM2wznRIAAFUjCK7aM/kiO63NHrnU6Qt6nPlAbdfKvMQ2ccslxcs8rdl91we2HRgfabtCFwt0vIApulVb5/XV4wtu44TOc+zE+Bn5Ojv9jF/ccp4yj68K1yftVDo6XrP3HTmxwf/Gpj5NkDW8e5cMRc1pbMpc8O+X93o9Pje2LCIYgAfHs2qirQQOcGFCvva2sdvUg/89K6qH5csd99wkryedVTlRXgIyWw/6mQnsrqnvTvO5eS/ZOcGrVmCKJOdxvkgW5HL5s0Prts6+n3tkt3XQBIw9Jui0r6uHx3flWiBplgmEzT7mzofZX51veF9XxPzCOen+ruycxC1bir8WAACURhCcgElnWhuNuEzg1m6CHv/YQg0UdEqUiK6KccslIze1ks4x6t/2uY5c0OZ2hS6RIMibz7hAl+iZRT2+4Da8+Wcv34rOlKvilnOVd3xVMYFi3y0vEE7Joe5d7jach6nPbu3ObvZ10t+Sn7v5Ediv7OtNndusy8X4A/DgeFZNtPVmIgHR9bveNEh6Q8J3bBXVQwx6U8HbVtQj6qZCDN7NG/3uRW7HPIbzbm7UwdN7dlow+33w17f53JxrN58b8+e6TqlVa4HEWIWsMQHjVhN0Hi06B+9Su/O5TttUIMFX1hrZ9naROZQDKnktAACIQhCckOt3b8rAmLmoduMba1FmMmPOHLKFAoW45ZKgQfiACbicYMpjAu/Ls97OeFmhw1MjheVaJvO7RC/K6P1recc4k5mWT27dLDD9jopbLqf08SVAA+HvRp3ANbIOdT7Y0L46+xWuc90vO0b4ejm75wTgY3J7MfjiGed9fknoc7Mgn41oHUyb7dhVjsLHtqIszMrXzk2owtL25salpZgvuAL6mXnL1Pdls7/Bz7Mdv2w+Nyu6Lio2LZ8G5jAurqu7nl2In5tA+IqcPjMiwyYYDuxzZl7Gb4yYvxXPnF10/DMAAKjYS3/d3funXa7ai//k/yO+cWNanjwJXLateh2de2RIx/NqMpu75Y/njVtueWq2XWa1tbCSYCluOaAS9nNmgqmBgr0tmmV/zy5n3PDM1Kj0rdBu36tSa49cPLtVWjQDdGQCrLVy8Pj70rfFPn04IgOfr6RM0QVs3ytDhzc58xSXmm4KAAAURkvwEpicmHKTXqW6ZbjHP+6zuLjlAFSoeZ3sajLBbdGkXgvZqcywvOw4oAGw0q7BbaExxppsarNs8wJgY27uhV1a2dItr5r/zsv9nwiAAQCoBkHwkngmx7S7q1lKm4A2N75xT4kMr3HLAYhDx2Vr0q/wDacOTf7VY3tmrODkX42gZV9vKAmXm2zKDZLVI7m2GlpNW3vk2L41Ig/Hl0XmawAAVjKC4KXy9J4zZlPH8FUkbjkA5fNlv9akX+FEXEOa/CtlAmAdY70Uyb9QlTvXyhwPnHkkg2dW+vy7ayXdv9ft/q3Hsxq6dQMAUGeMCcYSYUwwlr+ODZ1ypD0lrU1NgS61mmBsdOoXZy7npcnOjqq1rpUdb2+TA1s3SYs3XZJjXuYePpL7Y7/KlR9XQ7fhNjn1Ta+kHo7IJRMA868pAADVIwgGAAAAADQMukMDAAAAABoGQTAAAAAAoGEseRBMV2gAAAAAwHJBSzAAAAAAoGEQBAMAAAAAGgZBMAAAAACgYRAEAwAAAAAaBkEwAAAAAKBhvPTX3b1/2uWqvfjPc7sUtOP4UTm6xT6ReZnL/C7Xvvxe7jy2qwAAAAAAqIE6tASvkZbUJjl6dq/ssGsAAAAAAKiFmrQEB7S2ycGPeqUvNS/DZ67IFVqDAQAAAAA1UvuW4MfT8s8H8/YJAAAAAAC1U5fEWDNzv9ulCrT2yKnzR2Xom6NysX+tXQkAAAAAQPnqEgSnW161S+XbcWCrdKXc5ZZ978rBVncZAAAAAIBy1XGKpN9llvHAAAAAAIAaqmMQXJk71x7IeMZdnrvxAwm1AAAAAAAVq312aCPdf1Au7Fsjknkgg1/eZb5gAAAAAEBN1CUIFlkrO46/Kwe2rJEWu2buxrdy8mq55QEAAAAAqFxdu0N7ATAAAAAAALVQn5bg7Xtl6PAmkcwjGfzyvtx5TAswAAAAAGDp1XGKpHkZ/vJ7AmAAAAAAQM2soCmS2uTU+aMy9M1RuXi8za4DAAAAAKB8dQyCX5V1rXaxDOn+LulKucstW7rkYAVlAQAAAABQK2ae4KA1su3ttXYZAAAAAIDy1CUInpn73S6Vb+bquIxn7BMAAAAAAGKoY2KsSk3Lpx8PysBXj+xzAAAAAAAqU/sguLVN+vetsU8q52WWvv8TWaUBAAAAAJWpSRC847ib1dl5nO2VLl2ZeST/rCg7tNHaI8c0gH44LlcqLQsAAAAAaHh16A49L3MPH8jgl3dlxq4pba2k+/fKxbNbpcUEz4OfT9v1AAAAAACU76W/7u790y5X7cV/lqqLcpuc+qZXUg9H5JIJgMsPngEAAAAAyFkhQTAAAAAAANWrS3ZoAAAAAADqgSAYAAAAANAwCIIBAAAAAA2DIBgAAAAA0DAIggEAAAAADYMgGAAAAADQMAiCAQAAAAANgyAYAAAAANAwCIIBAAAAAA2DIBgAAAAA0DAIggEAAAAADYMgGAAAAADQMAiCAQAAAAANgyAYAAAAANAwCIIBAAAAAA2DIBgAAAAA0DAIggEAAAAADYMgGAAAAADQMAiCAQAAAAANgyAYAAAAANAwCIIBAAAAAA2DIBgAAAAA0DAIggEAAAAADYMgGAAAAADQMAiCAQAAAAANgyAYAAAAANAwCIIBAAAAAA2DIBgAAAAA0DAIggEAAAAADYMgGAAAAADQMAiCAQAAAAANgyAYAAAAANAwCIIBAAAAAA2DIBgAAAAA0CBE/j9+60ThWjjzuAAAAABJRU5ErkJggg==;" vertex="1" parent="1">
          <mxGeometry x="1110" y="820" width="961" height="622" as="geometry" />
        </mxCell>
        <mxCell id="2kqwf_G8itHwDUa_p3W8-2" value="" style="shape=image;verticalLabelPosition=bottom;labelBackgroundColor=default;verticalAlign=top;aspect=fixed;imageAspect=0;image=data:image/png,iVBORw0KGgoAAAANSUhEUgAABosAAAMtCAYAAABHAUjSAAAAAXNSR0IArs4c6QAAAARnQU1BAACxjwv8YQUAAAAJcEhZcwAADsMAAA7DAcdvqGQAAP+lSURBVHhe7P19lBTVvej/fzzx/uJVcURGhhmemmiGBwEPDCgJOjw4JhefZvQ4nJmc+4cuDyfCNz80JHjR5VriWv4CNxgS+eaiOZz89Pu9v5yZAx4zY2I8iQhCQFEYOBoeJxoGhBnBGUYczcNa5utv76pdPdXdVd1V1T09D/1+rdVQXdO7q2rvql3V9am99wXzF1Z9LiGd6+o0UwAAAAAAAAAAABjM/sb8DwAAAAAAAAAAgAJEsAgAAAAAAAAAAKCAESwCAAAAAAAAAAAoYASLAAAAAAAAAAAAChjBIgAAAAAAAAAAgAJGsAgAAAAAAAAAAKCAESwCAAAAAAAAAAAoYASLAAAAAAAAAAAAChjBIgAAAAAAAAAAgAJGsAgAAAAAAAAAAKCAESwCAAAAAAAAAAAoYASLAAAAAAAAAAAAChjBIgAAAAAAAAAAgAJGsAgAAAAAAAAAAKCAESwCAAAAAAAAAAAoYASLAAAAAAAAAAAAChjBIgAAAAAAAAAAgAJGsAgAAAAAAAAAAKCAESwCAAAAAAAAAAAoYASLAAAAAAAAAAAAChjBIgAAAAAAAAAAgAJGsAgAAAAAAAAAAKCAESwCAOTG+Dmyfs0iqTRvk8Vq62X9A+XmHQAAAAAAAICB4oL5C6s+N9OBnevqNFMDzUip/8a9Uj1cpL3ll7JizyEzPwznO85J879tkoaBuqlAH4rNXSTLb7tcykrVwWS0d3RLx/4W2bKlVdrMvAFPbUfjkgnmjUjLpo2ybrd5g9xSeb1e5XVZx3HZ+MzLsvOEme+ig0Vrb1X71IGtUvdUq5kLAAAAAAAAoL8NrZZFxZNltrm3XVYx0ffp9n5VNEWa76yRt9WreUqRmdm/bp8TZn3GyAZr/W+SBwfG6iOniqXygWWyVt/0dwWKNP2+YuYV5l0O6EDOc8vs10BrbaJbyDjr5vFav6ZeVtaWS8x8fEDoz/zU+aX3GTkuGx/2DhRpbVsaZNVL3SIzqmR9bbGZCwAAAAAAAKC/Da1gUecR2dttT7a3HJOd9uSAMnl0afwGc6xstEw20/3p3Y97rP9jlw2z/k+r6DIZb018Iu+dtyYwhMRqb5ZlM8wbLx+cGzytivqQFTi7tUrWPrdIKu0DooAVS/39M6VMuqX5sZcz1rs6YLTxgMrDW2+W+oLPOwAAAAAAAGBgGGJjFp2Vhn/9n1L3v/5nxC7o+lqRfL1smEhPqzx7rEdkWKl8fQC0zjnS84k9cellmYNXlw2zg109PfKuNQNDR7F8Zaa7NdFxaX5so9TdY16PbZZVTbnrOixWdrmZGswmyLL75wyIFkb9lZ86wFhdKtL+0ivS4NOiKNnOp7ZKiwyX6gGSdwAAAAAAAEChG2LBogGuaLQsGCbS1n5afnS6Q9pkmCwYPQCiRR/3hG8t8snHcsRMog+NnyMr15iuz8J02xU1nduB9xJv/p/olLaAwYAgxpUldnPX97rl1CkzGZIe66g3aLZVmjvMH7TSCfKVAdBCJv/5qZVLrR6DqGO/bNgSZoC3Vtmiu6MrnSm1c80sAAAAAAAAAP3mgvkLqz4304Gd60q9KRibs0TWVlwhLa/8T1nn2/hgpNR/416pHv572fi/XkjprihWPk9qZ82Rivg9z3PSfvx12fCrQx7BDOe7zNsk7S3Pyoo9Z807LyPV8m6Q5bO+LM491vbje6TprR0i1/0PWTbhnDT/2yZpCHP/M5Ox18vbs0plx74mWf6+HvtnlszraZW6rYc9Ai9F8mDVArlX7L9L0RhZOnuizBtmuorr6ZEdx/ap70nuCy5COj2O0kI9/kqHPPrzN+UX9ky5fc4s+cdLRU4ce1V93popk6fcJI0Th0nbse1Sfbj3O+z5Is9ue1V+pGer5T44eaIsKDUtkZS2jn2yas+p1G31+mxPh2w/dlR+lIvts0RN5+Kznv+yV+WZT7Ks8kXR4wf1dgunu/lqCNR6I3i6clm5pkIqksYn8tSxX1Y9vCflWIyNL5fa+xO/o73juOz95V5p2O0+gIql/oGbpXpGgGVpPsvT3xObO1uW33Z5wrhKnsvU4/gsmWDe2Pnwxpg5UnvbTLW+ZrZK1/zMy4n5o8fgeVx3rWbTwaJ1u80bLenv7S9tlhVJwZKYWvby2/TYT2aGWn77gRbZ0NSaJuhWLJW1s6VmpjtdX+ZnmOV5MPnrtf0ZOXl4YKvUPZW7FmsAAAAAAAAAwvubSy65xExmp+3dVmlX/1fMmhe/CZ6i/AYruNPesispUKQDP/9D1t7sDhRpV0jZhNtk7f+xROpzOha6HWhae3NvoEgrmzBHlv39Eqnpo96cbh+t78Z2yCtW4OWUvKJbJ2Tqim7YMFk65yZpXDirN7Chqel5sxbI23PGmBlJwqQ7/7HY964vlavi6zJMbtYBDf350b2fvdqMa3Sixz+oogMkb6vl3usKiGh6OjEgUiQPqnX0/KzKl3vVem4Ya2YkC7N9bhHT+W6TWs8nFtZI85TMLcSC50ueBQkUeSqWygfqZe3jVSnBprLSCVK9ZLGsf6DczDFGRV2WoQMMzy2WtUt0cMN/me78dRtTo9Z3iStQpOl0j9eHGz/nxDl1JPvRAbhlZh3NLMtwKZtRpfKrXlbO9ajQzLYtuzU5Xe+2Na5ZlLie2eRnlOUlqZylA3HdsvetkIEi7cS7sldn4oyrpNKeAwAAAAAAAKCf/M2nn35qJrPUeUT2dqv/h5fLV3wCO5VXf1n9e072vpvY4ic2p9q0EDonLa88a405ZL3+7ZfSrL9TrpDqv78r6YZi7/hE7teqlnPm7/4qb3FaJCUub5VaXkv3FQkBpNwZIzdbsaLTpuWOyC9OW9GiDF3Rlcq80mHS1tEqj25rkmt/rl/b5VE95pH151k+AZUw6XrkD2Z23NjRMs9Mpo5lpD7/sZlMMEy+NPl6q+WR9HSo5W43y7WXXXckqQ+wsZOswIlunZP8WWc95826Xm63ppLlI1+MsWab1Hbr1kd18fVskrp9ujtBtQ9PnCUP+hZjyHxx2dm0X1pMVCLUmDAR04VR+cBiWZahVYsOjqzMVTdjSa15/HTsa/VojaQNlwrf9R0u1TVJga10xl+h9qReHe1OsKRY6tfo4Jl560mtx5Kbk4IwKt39mbdNSnMVyc7F8opl9Cj9/0dyOtL+1Slv7NcV/OUyegB04wcAAAAAAAAUshyOWXRWGvb9Xv1/hVRfd409y614ntRYD6G3yhsJPSnNk+UVV6gJu9u3da2uQFLnIWn412dNwOjLUjNnpDU7K856eCyvTS1vXXx5OWaCLztOuwID75+WHeq/WNnopGBMIqvLtz2HXV2dnZdfHH5V6pyAiqvlj1vwdOflvU/0/8PkS5dZM2TysEvVvx2yw4pnOa2fiuQqPVs+kfd8GhbNKy21lnvtVt01m/tD5+VIcpr335S6bU1S7fFZvZ6PWsEOd2unRH2fL1qRPDjRvvO/Y9+rsvxwYndxR9Q2VO/LHPQLlS9uJ/bIuoftsXJCdfMVOF2rrHPG4rlnc+JYPLp7sPjf1Mvdhdn4OVIT7+ZOd9O2WVa5Prtq03HzF5GK2+aYlj6d0mDWKeOy9Cuhy7TU4Ea7StO7TLV8tUw9L6G7OA96Xa00j22VFjPPMuoK3xZJCcaXy8qEdXGNhTR3tlS7A0WudbTWz8y2glP3O/miXSFjXOn0dsTzwdo2O/iXGPjLJj+jLC+Z+Y6Objlpz4houIzxPlQBAAAAAAAA5EkOg0VK6zH75uuEiSndCsWuLrdurrbs25H41P8VI+ybrsdf9xkfyAlCiZR9aXKwm7npZFxe30jsgs4RpCu6Htl+2juacOS03aolteWPFi7dux/bgZLxw/SKFMnXy3QrmB55xZrvBJHU/66e2zx17EsYyyiTeKCkqEhuHztFNsy5SZqrbpK376yRJ6yb2b0BrET5yRcpGi0LrEZFrfJ0Qtm5BAn6hcyXgS523YSEwE3FksWy9rll0mheugu2uNLhMs5MRjb+apntCm7oYMiKp9wtiDqlbffL1rx09Ng665xxeE60ypsH7ElLmvWsWNK7bY1Wt3vmD9qBlnhAxe6WzXFcNrrWUa9fU8LyJshX4i1qzskpV7BHt8hav2aRrKwtl0r1mbbddvAv9LhAvvK9PG9t7R+ZKQAAAAAAAAD9KbfBIjkkW6xu4L4s1yf06DRSvvIl3Xro9/Jm0r3c2BUjrP/bz31o/e/pXJf9RP7wEVnfdA60vJwzXdBJqTxxZ40VCHFeTkAkfVd0GQwbJlebyVBc6Y70WE2LDBMU+uRjq6s8fbM7obVNT4+8ayaTtZmgU1CTdYCoSuXFwgXyxKxyq4s4PU5STuQgX+QyM77QsHJpTCq73tes3i77fITNl4FuXKi+GnPQzdiY4QnBqZZ96YNCfnq7i7OdbM+yGWHHflkVD1A53bIZHi1udu7rbXGVqFMantnvanlkjxtUcWuVLHt8sR2kWrNIKsfnavC2fC8PAAAAAAAAwECW42CRSNu7rdYNyIpZ83pbAZXfYI0R1N6yS3aaWQXFPf6Pj0xd0fW5j3usoFDssmGJXead/1isRhO6tU3RZWLd8//k44Su2CLTYwHpAJHVcqfDGg9Ij+dTZ8b0sbuhw+AXdUybgau947g06+7sErp2y9KJPbLisc2y8UB3QhAnrnSCFchZOTdHAZx8L89DrCxXYzABAAAAAAAAyEbOg0XSuUOa9MPzw8vlK+YeY+XVX1b/npO977rGI0pSdsWVZsqD03Vcd1eWY2P0Sru8HLO7oOuRZ7c1WUGQxNd2edbq6S1dV3Q+nFYvaVr6ePJK5woK3W6NV9Qjf/hYz3C6yuttbZObVjJjZMMsky/77LF89HhAejyfIwlj+kSQy3wxQTTdjVxq2SW9th7OTRBtEEhskXNcNrrHxkl5vZw5SJxpvKBTiQGNilkJTRf7XMumxG1a8fDL0uB0ZxfXKac/MJOaR7d2id3UJRlfLLETnbLzqQZZYS1Hjx20VTa+5B7rSI8BdXX6vNKCjL+U9fJMV3ZZdzPoGvMJAAAAAAAAQL/IfbBI2fmuHmPoCpl99Uj1/zVyvb4/2t0qb3gMf+G0RJIJX5V6zwfYR0r9LB1sEmn/w5Gsn+LvXV7quEqW4it1j1c5ZLqg6+mQX3vGQM7Lr9vtcYH8uqLzHrOnSB6caPVhJ23tpz2DFOHS9cgfTAzoKt26SD6R98z62uMZlcrNk+1gyomeHI69o/Plfa/vK5KrzJSfvOTL+dOy3dr8ifJgFj0FRjZ+jqxcY4+Vs742RAuPqOkCanvLHVCYIMtSuiwrlthctQ61fkGd5MDKTKlNaMGi0ru/78S7stfd0kyPsfNAuSuIoZe3SNY/Vy/12XZ5l4XEbuZUvrjWUa9fzQzzRus4Lm/EW1wVS/39etynerVdc0xe6nGYWmXnlr1JYx15BWdC5mfWy9OcZUbtZrBYvjJTV7ZDr+UZAAAAAAAAMNj0SbBIWndJc7dI2ZcmS2X5RKlQs1r27fAO9DgtkeQKqf77JbKyXAeYjOJrpP4b91pd2Onxjpr2+LdMCqzziOy1GkV8WZZ94y6pdN0/jZXfJev//jZrfXPGdOnmF7jQjphxgby7ohsm82bdJBumjOn9W9EYebBqgdxrDe3TIf9y2CvYEjbdeXlPD1s0rFzu1TGTjtPyC2t+7/qNv9Td4ihH1PLWutdRimTy2OulWa+nHbvxkb98+dExq2mV3LvQpEsIGhXJ7VPU+t55vdxu5uRSZc1MqTD5UHbrzYEDIVHTBXZiT1JAwe6yzBrrxnotlrVL1DrcWuG77OTxeyqWJKW/392ipVMafpn4+bIZVbI2YXkTpEyGS3VNflsdJdi9V5qTglrOOtrr5+iW5md6u7CL1d4s1VZ5DVfbNTMlL5e5g0wH3vNsqRUmP3OxPM1e5nCZfZ07EBXQ+Ktltl6HNN8PAAAAAAAAID/6JlgkZ+WNP5wTGT5Hlt2sWwX9Xt5MMx79zl89awWXdMCo4uZ7pfH/+B/26+9vM4Gic9L8by/k6IbiWWn4zR67VcTwL8uyvzfLUq+1al3Lun8vLYn3XLNid0GXoTWO0wWcT1d0bT3DZN7EWdJ4Z428rV8LZ5nAhu7a7s14UCdZ1HRaQldzZv1iw3Ti3hZH2TklTx+zlxFzr+OdC6RxVqnEpEMetYI0/vKWL++/KXXWupp0C00667VAnpio1lf9+ar+aHnUj3Y+ZY93k16aQEJyYCVZcouW3S/Lqk2JXaR50X/vDTLlW6c0PLxVWtLuut3SsukVaXC1pml7q0WaM+al0nFcNj7lU5mGyM+cLE/b/Z60qP/KZgboGi9J7Do7eNayL833AwAAAAAAAMiLPgoWibTted26iai1t+zKEOg5Kw3/+j9l1St7pCXh/uU5aT/+S1n1vzZJg0cXdpF17pAV//ZLaT5+zszQzklLi1rWv74gW86552fDdEEnHfLK+9YMH2ZcIPHqiq5Htu9tkrp9HdLmit+0dbTKo9telR/5Bm7Cp7O7m9NU2tPuD/R2UZdLRw6/mrJ+uls6ZwyjX6RdZv7yRdPreu22ffJshxnDyNHTIzuO7ZM6tb7+y4xuZ9P+eOCh/aXEAEM6UdOFY493s+qxrVbgISGI09EtLS9tVX/bKCu2+B28OrCix8k5Lu1JQY52K/17KWOUte1+WVY8ttkeVychjVr+gf2yUS/vqVbvVox50yrrHt7osV16HXWeNMi65PGOTrRKg8rLOicvU/LjuDRvUnn1cLrxn0LkZ06Wp7XKlpdUpV06U5aH6u6wXGpvHa72k/2yZbeZBQAAAAAAAKDfXDB/YdXnZjqwc125jNzAW5HpGk23dkkX/EgWNd1gQb4AA0ux1K9ZLNWl3dL8WEOgwGTlA8tk2YzgnwcAAAAAAADQt/qsZREAoBB0SsMz+6Vdjxf1+CKpNHP9xGrrrTGR+q7FGwAAAAAAAICwCBYBALJzYo+ssMaTmiDL1vgHjHSgaK3ufu7A1jTdEwIAAAAAAADIN4JFAIDsWeNJ6RZGynhrjic9blPdU63mHQAAAAAAAICBgGARACA3dAujh1+WnT7dy7VtaZAVBIoAAAAAAACAAeeC+QurPjfTgZ3rovsgAAAAAAAAAACAoYCWRQAAAAAAAAAAAAWMYBEAAAAAAAAAAEABI1gEAAAAAAAAAABQwAgWAQAAAAAAAAAAFDCCRQAAAAAAAAAAAAWMYBEAAAAAAAAAAEABI1gEAAAAAAAAAABQwAgWAQAAAAAAAAAAFLAL5i+s+txMB3auq9NMZVIslbWzpWbmBCkrNbPkuGy852XZad4BAAAAAAAAAACg//Rpy6LKBxbLslvdgSIAAAAAAAAAAAAMJH3YsqhY6tcslupSkZZNm2Xd7qCtkQAAAAAAAAAAAJAvfT9mUcd+2UKgCAAAAAAAAAAAYEDq+2ARAAAAAAAAAAAABqw+DBZ1yukPzCQAAAAAAAAAAAAGpL5vWVQ6XMaZSQAAAAAAAAAAAAwsdEMHAAAAAAAAAABQwPooWFQssdpFUjNDTXZ0y0l7JgAAAAAAAAAAAAaYC+YvrPrcTAd2rqvTTCUZP0fWPz5Tysxb6Tguzc+8LA0nzHsAAAAAAAAAAAAMKH3aDV27ep22JwEAAAAAAAAAADAA5bZlUVyxVNbeLMtuHS7SsV9WPbxH2sxfAAAAAAAAAAAAMHD0UcuiTtm5pUE2HlCTpcNlnD0TAAAAAAAAAAAAA0yfdkMHAAAAAAAAAACAgY1gEQAAAAAAAAAAQAHrw2BRsYwepf7r6JaT9gwAAAAAAAAAAAAMMLQsAgAAAAAAAAAAKGAEiwAAAAAAAAAAAApY3weLSmdK7dxi8wYAAAAAAAAAAAADyQXzF1Z9bqYDO9fVaabSi9XWy9pbh5t3juOy8Z6XZad5BwAAAAAAAAAAgP7Tpy2L2rY0yKqXjkt7h5kBAAAAAAAAAACAAaVPWxYBAAAAAAAAAABgYOv7MYsAAAAAAAAAAAAwYBEsAgAAAAAAAAAAKGA5CxaNGxczUwAAAAAAAAAAABgsaFkEAAAAAAAAAABQwAgWAQAAAAAAAAAAFDCCRQAAAAAAAAAAAAWMYBEAAAAAAAAAAEABI1gEAAAAAAAAAABQwAgWAQAAAAAAAAAAFDCCRTk3Xe5+dLU8srRKSsycYKKmAwAAAAAAAAAAiO6C+QurPjfTgZ3r6jRTvcaNi8nJk23mXeEqWfAtuW+uyOubfiyvnTEzA8iUrmRaldx4wyQpH1Fsz1Bl0LrreXn+dx/Y7/uAvU6d8uITjXLQzEP+lZRMl8nzKmViebGMMPO6Wl+Qps3viNcuZpeb2U98dcb3tWCfd+naJT99eqvnstH/OG4BAAAAAAAAhEXLolwqqZIafdO9dWeoQFGmdNbN3+obegNFmpour76/D1sijZLJk9TyujrlQzMH+TZKpi5WZb/kLvmqK1CkjSi/S+7zKfsrrwwS+OmUzqjRnq6zBIoGLI5bAAAAAAAAAOHRsiiHpi5eLXeUHw39RH/adCVV8s0lN8gI6ZTWZldLopLpMv+uu+SrOoLQ+oJ8b/M79vyc0d3i3SXlffLdyGyUzF96v12+pux/q8reDtLoINLdap8plq7dz8hPtrtblznpwu+Hbk5ro9bm1WqfMzMxCHDcAgAAAAAAAAiPlkW5Mq1O7igX6dr9Wrgb9BnSlUyZZLUo6dqd1OXcmXfktadXy4u7d8mLO/rgpvC0KaJWS1qPcMO5P0xdbAJFusu3J35slX1va54P5ODm51XZvyBNCYEipWSqTLQCiIcjB4o0u3VSp3Setd9jkOC4BQAAAAAAABABLYtywrTmkLBjuWROl20Lj5JpdVJzwyQZYbVQ0TqldfdO+e325PFupsvdSysTu7rzlV2rlTin1ZRvKwi/VjJmfpedzh7PSXfTZ/+1q+uo7H5BfT54QQRkt+iZmzB20C7ZvWOrHBxZJ49UF4ceq8qTKrNHqiepiQj5bNKmtjgKw7ROyVU5+7D3bdc4XSVquXe59kFVji/6lGPw/dotZPlF3j97RVnPlPHJVJquVrVP6/VMSdQPxy0AAAAAAACAIYeWRbkwbb7VCqR1V8hB/wOkO9NpB+bKbwg7NpG+ibxa7qt236jWiqV8rsd4NyUj1eeC3HBWcjUeykj7pn3Xh37NV0ZKsfWBpOWZ1jNd6u/z9Zg+1nhO5m/KiBGT5I4l35L5uRzMSQcOHr3f6vrNnZ0jym+wlnX3ZB3cyWIcIJep1nep/aI5/I39kmJdhp1y7HDUQJGi9wX9f5atkzKJt15SeaYDR48suSsx6KFXwjM4EmK/dkQpv6j7pyXiek6rSx2fTKWJr+e0UWae0R/HLQAAAAAAAIAhh5ZFWZtut8LQ3YWFalUUNJ3TekFNdh2V13e9Jq+5u6PzZL5bTCuGw+/IGWcBrrGO/FsrRd2mcDK2mvJr2RFveaMljedjtU7RQQc1nbNxW5z8VFSevPhCbwsPq+WIDgjoNznJL2dZ0VqB2ONfmTceArU4MvmbXeukTFyt6nYVW0GVLlVeTTucfXWUTJ0mcjBhX4+6X0crv8j7Z+T1dI51e5/u7XZylFrP+WY9O9O0XjPL7ePjFgAAAAAAAMDQQ8uiLJUsqLRuCr/+Qribs8HTfSCvPf2MvNjaKTJikny1+n55ZGmdTE3TambqYhNs2PRjeV53d+VegB7r6IVd0qUmRxQntVJwOC1Lus726Q3njOPi+LTssFvPKPqmePJ4Pmr7njfbJyNGhmyN5c3OT0UHBZ5O7ArszO8a5SfNR+03ucgvM+ZMtFY9o+yWLlly8rers68CRZpplSOTpKZaB2SekZ9sdu+rHyQFiqLv11HLL+r+mfXx13XUCn72Uvu3Xs8nVD3gGyhS8nTcAgAAAAAAABh6vhCb8KXVZjqwP/3pj2aqV1HR5XL+/EfmXYEoqZL/XjNJLm79D/nfb4W4PRs63Sdy9tBb8ttj56QkNtnqdmpixVQp6X5LDqfcyJ4ulXeqz4j+zHy5sdLjVTFOLlaf/NP7+6Sl7RM7mduXrpOvTyqW1l3/5vH9uTJKplTOkrF/2i+/ee0P8qmZ6zZ1/t1Wd3OnDvwyYT0mXHeLmt8pr/+sUQ55Jfz0UplQqfLgTyflwD7v7w5MldWdX1P5pQNT/9cb3t9VMlVuzFF+lVwzX2aOu1i6ju5IKhvdamSp1CSU5Sjp3nlQehf5JZn139R2W0GRf5Pf7nwt5eVZ3kmc/D3227ekLavMS6Nkmr0fXnyxnGr+vjz/u0zrFXG/jlx+UffPbI6/T+TSL82XiWPHyfhR5+RU5xn5NGHBqh5IVx55OW4BAAAAAAAADEW0LMrC1Hk3yAjdgiBkV2dR01mtZp5eLT9tPipdeuyTao9xeZyWKVmwx8xJ06IiF8y4Q/6tIJxWMsnr4Zqfh+YTJVPsLsq6jh70ba3hjBOUy/xKadXjtBpxS259ZMref4ydIKbLJGsH6uP8dVrl7H7Gu4u3ZBH368jlF3X/zPL4O7jZbkU4ovwuuW/Jannk0W/J3QumB2ohl5fjFgAAAAAAAMCQRLAoqml11tgwXbtfC9ddWNR0LrpLqqbdetyoYpk4JbErK6cLMT0eyveeSP/yHo8mT8EYny68epluyrqOypGE9TDz03XTlsPuuJyuyI4d9uuSbZRMnmSCDTnMr5Quys5slZ84ZbfJ7sbMr3u+rLqPc/IuUjd4wTmBDf98TRR1v45cfhH3z+yPvw/k4OYfqzJ+Rl7cbYLCc++S+6ygkU+3dZb8BlEBAAAAAAAADC0EiyIZJfNvmCR6zJwmzxu+fqKmS3WmUweLREZcOdL6P5nveCgZBQjG5ECmwEaJ00IjOeAToPWM3XJLbcKRkC23InGCBp3yoT0jK5nK1eIEMpLyLuMYO0FkDJLkQvTARvT92o93+UXeP42s1/PMB3Jwux6naLV8b9ML0tqlg0Z3p7YkjMvPcQsAAAAAAABgaCJYFEHJgrvlqyNEWndtDdVyJXi6UTJ/6Wp5ZGmVb/dT8ZvZSTf148GGSVP9004b5d+tlVd3Z30gXWCjZMG35L5q3fIkdfsy3cR3Wm6JHJWjQbo3C6RYij1jN6Nk6uK70gYNQjvbabUakvJK38CA3SoneftMACalJVY4GfM3J8IH2LLbr8OXX9T9M/p6Tpe7F/t0N6e7n9x1VE34bYeSp+MWAAAAAAAAwNBEsCi06XLj3GKR1heCjbUSFybdB9KpIwYjbpD7ltbJ1BJ3KwV9g/tbcp/+LvHoXut3h6VV/2+lrVJprbmWkpLpMl+nrb5fbpxmZvrRwYppvcu106rvM+9zo1i+Os91g1wt4+6lq61ta221b7p7t55Rq1e9Wr6ZMJaLnS+PmJv4rc2NOWlh8eGH9nqUV+tysCYtJdOq1LrebwJTqUGDyM5sld1WAaq8WfItudtVBnobS6bVyVy9zJRAixOAyS5olZPWSZlE6SYw4n4dtPy8W6GF3z+jrmfJgkop1+MULbXL3JXMXq5ukRhEXo5bAAAAAAAAAEPNBfMXVn1upgM712XfKHUbNy4mJ0+2mXdDl9WqYK7I65t+LK+FuCsfJZ0OftxRbgdHUnVKa/OPvQNP0+riQRMvXa0vSNPmd3xu1OtWTfdbLaC86LFYwgXJfPiuY6eVR0emeOWXWTf1GT2Wywifdeza/YzPeDBRTJe7HzWtT5J1HZUXjxbLHRH2h/TSl4GWso0ZytyRPm+cbVXb9URugm2ezLqGLqdI+3X68ntdld9Xvcov0v5pRFpPp47wO94Vle6n/X3cAgAAAAAAABiSvhCb8KXVZjqwP/3pj2aqV1HR5XL+/Efm3RBVUiX/vWaSXNz6H/K/3/K+ZespYrqzh96S1u4L5dIrL5YRF19s5nZKV+t+2fpCo7z2BzMr2dmD8ttj56QkdqUrnb5JvUul+//Ky2odPjXzUn0ibfuOyhdGxWTsCFfarqOy9Wc/9l9mWGodu0dNlYnxZXRK6+7/kKb/+xdySK3chOtuUX87KQdePii9jVy+JLP+22QZceo/5Ef/1w6VPibFKr3zDfHtO/iJmZMLZ+SwyssvDLuyNz+61Lq+8n9L00t75I8TrpOZ4zqT1jNbdhm0dl8q468slt4idMo+dRtLrpmv1qO3vPz86f190tLmkz8l0+TGinFqP90p/34oxP4dkrOupw78Ug6HybRI+3W68muTKxdVytiLk/czJdL+aUQ8/j5te8tKp9f1Yvd+rdb3lF7f7e/5BIq0PB23AAAAAAAAAIYkWhaFMHXxarmjPHyri6jpkKSkSr655AaRnLYcQuEyrY66dslPnw43/hgAAAAAAAAADCWMWRTUtDprfJOu3a+FC/hETYcUJVMmWWPdpIwTA0QRZewkAAAAAAAAABiCCBYFMkrm6wHmu3ZJU6gWLVHTwcuVV+rxXDqlM3f9vaGQjSy2g48fskMBAAAAAAAAKGwEiwIoWXC3NXB8665wXVVFTQcvo6TYagbSKZ1kJnKgpNgOPh47TCAXAAAAAAAAQGEjWBTAme0/lu89sVqe/52ZEVDUdPAy0g4WdXXKh/YMIAujZPIk01KN4CMAAAAAAACAAnfB/IVVn5vpwM51dZqpXuPGxeTkyTbzDgAAAAAAAAAAAIMBLYsAAAAAAAAAAAAKGMEiAAAAAAAAAACAAkawCAAAAAAAAAAAoIARLAIAAAAAAAAAAChgBIsAAAAAAAAAAAAKGMEiAAAAAAAAAACAAkawCAAAAAAAAAAAoIARLAIAFJbxc2T9mkVSad4CAPoY9e6QFqutl/UPlJt3ADxRDwJDDuc/AEPRBfMXVn1upgM719VppnqNGxeTkyfbzDsAAAaguYtk/ZIJUtZxXDY+87LsPGHmDyCxuXOk9rYJUlE63MwRaVfru/eXe6Vhd+r5FwAGtH6pd78oK//pMqn46I+yavOnwi+UvqVvlq29VZ2zDmyVuqdazdyBKCaXrv6eXFLSIueX/kD+bOaGdZFKWzS9VD5752npevq3Zu7gV/nAMlk2w7xJoI7de9Sxa95lb+CXQ87zYhBcfyKioinSvLBc7dVJelqlbuthOWLeoi8VS/1Di6V6pHmbpH3bZlnxq775DdW/579iqaydLTUzVd1SamblvL4GUIhoWYQcUifpNcukcc2c1IslAMhKDuoX/USn/qGuL6IfHqA/1OcukrVLZiYEirSy0glSPesK864/Uc8jjPzsL/qmXuNz3q/1a+pl5dxi9tdI8lXvXij1i6+Uxn9Sr8WX9C7ry5fZ89Rr5ZfNvKC+/EWpUP+1t/1lCASKTP6486ZPRC+Hti0NsuqlbpEZVbK+ttjMzY8La34gJU9/Ry4y79MbK18oUf+dOS2f2TPCG1snl0y378pdWDJa5Ro0yiGNENefk8dOkQ1VN8nbd9aY102yYcoYmWz+nuz2Oc7nUl/N6ns2jC3yTds/iuTBKrV+VVMCrdfg277BIXbLIln/pDq/69dDi6R+tPkDQuvP81/lA4tl2a3uQBEA5AbBIgAoQPpHwsqK/F7Q9q9iqb9/pvqh3i3Njw3Up63KZeWSCdZU+0tbZdU9G6XOeT22WTY2nbP+hoGj8I6jwaesdLhULFksawlw9oMI9e5Hn3kEd/4qp0JWf5UTvqj+/avsfS/yrejCFqEc9A2zjQfUMXfrzVI/3szsczG56G9LgwcdxpqgQjZBivf3yF/O6IkO+fN/7on+PQOWfirddf1hvTIdv0OvHHY+lZwHG+0bwqEFrwdvn3OTNM4ql3nDhpk52jCZN3GWNFZdL7ebOUHF1PfMm7VApQ0WmBlsBsz2nT8s1T9vkmvjr32yw/xpIIrdUi9rF+rgpTFyglR/m+4Rs9E/579iGT3KnmrZtNlVVw3U37kABhOCRQBQkC6XivrFsv7ewriBGqu9WapLdRDmFWkYqF1/jL9CrAfDOvbLhi2tiTfqTnTKTvXCQFNYx9FA17Ip8cZe3T2bZdWm/dKu/1g6U5bn+YnPQtd/9e4X5Xp9QLZ9Kg1d9hzkx86ntkqLDJfq+/NVJ4ZroXJhxWwrSPHn/dl0WdYmn6z+hpxZ+h0530QHhzbKwU/QenDylJvkiVIdJOqRHce2S50TeNi2T3b0qNnDSuWJNEGRHfvcwQr9Ut+xz1xLDiuXtVOKrM8NVkN9+/KnXGoX6t4LuqX5h+o66bsbZdU2HQSdINfr5riDVqc0fN/eHvulz0X5lf/zn6F+N26hm3IAOUawCDl0hYyx7nQCGOjafvWKbDzULWXXzJS1T9YPgtYR2dQv6oeR7kvaCsJwMZ0d6nm3wXcc5Vt/7y+d0rZ7j6zYdNx6V1Y2ELpyHEzyVe9+Jqc/MpNu5/5qB/pCil13idUFXcvxv9gzBr0vyJjLzWSfykU5tMoW3fqidKbUzjWz+tL111ndngUNOlxYqnfoDvlrlB0L/igHH0HrwTGydKLdmmjHvldl+eHzvePcnD8ly7ealirDymXpWGtuAOo73j8s1fs6rHexy9ytlfrTMPlSTlZloG7fADfaPJh2qEUaTltzpO3t45HOtUiW5/MfAPShC+YvrPrcTAd2riv1YmfcuJicPDl0n66yB7nUzfL3yugHbpbqGfYTGS2bGmTd7mKpT5lnJcuaPWCeSPNjDfbTSOPLpb6mQmarZTlNh9sPbJUNTyU9ha55fbbjuDSlHVTTa5C8brWMFtnQpJaRnE4P1nlbwH5Scz3on8/2ZR4Evlhic2fL8tsut7qnsZlt9MrHuIjp8lEOcVHThZOT4yFU+anvXLNYqmW/rHp4j8prtZ1qGTXutAfUD7Gn9N98RNxfYmofX55hH29/abOsSP4RGKHcszreI4pVzJHl9bp7DPXdh1QePpsmD13yki+5ql/U9zQumeC9Pi79Uc/HalU+6r6mzXtfftsXcb8OVZ/loBxic+dI7W16LCYzw29ZLmGPB2cwat26xL9sTF1SqstZ7XNmbraiHkehysHI/3WBEmY/y8VxG3I9M5a9Hi/icVU+Hc45JEmkfHHKrndb9XmoqWmPnLwuqYy0TOsQ3zd1V0WudG4R17NfrusC1ruOyq9dKctianv+s1tWvGXaJoy4RNb/3cVqW/8iG//544DHqx53Z7hUX+6Xxvxd/iirNn+qlvFFqb3pEqm4/Av2nz/6q7Qc+FjW/d6/fUTsy5dI7YyLVRozQ/4q7W2fyobfpBsf6UKpvO5iqYl9UcqS07WodMktoL58mayf4f5sGm0fS51adqKQyzNyUg7Ovp5u/4jsRilaXSMXlQTZQVvk/NIfyJ/NO1Vycunq78klJc78mFxU83dyydcrrFYu2mfvPC3nn/5tYuuY678jJfd4PHJ/5kXpWt2YsSXNhdfXySWLZrvWuUMtZ698+stG+fP7ZtYA0XsdlOn8WJjlYJ9/Pwp+/RC0Hhx7vbw9S61XT6vUbT3cGyhycz7TsU+u3XPKzLTH9HlCzdYtb5Z7bUfRFGleWC4xv+8uGiMPTp4oC0qHxVtDtPV0yL/sfVN+cd7MSFEkt0+ZJP+oThSxeIymR9o6jsmqI6fkSHI6te7NE92fTaNft0+Pp7RA7hX7u3TapbMn9nYL2KNbfe1T6+GbMcYY2XDnLJmXrjyVjNtmMes0rEMe/blaZzM3unJZ+WSVVBxS9fOzdv1sd0unrll+qK49TAApxWhVr3/bvs6VeFp1fXGLur5wd2l3VtUfP1PHR9L3xEaXS+0/VEjFSOdaV51n1Gf3vqquI1uSjo0KddzU291y28s6J5X3qt/91zjXPuoa5pC6hlHr4H/ONdtp3rVvU8fgr7yOwSCfU9dnD6nrs5H2O//vUvr0/JfKqrNH+V1XAkB0f3PJJZeYSWR2udToH/LqR7ptuFTcNkfqH0iat6Rv+nzVF6iNj1dZy4qfkBU9nXxy8P1s6QRZ9vgyn8H31MlSbV/qIHnqO2ZUydrH62WlR7pANxRySt+09d++6iWLZaXf0xzj7W1cqwcZjd+Y08w2Plfv3c9sxHT5LIfo6aKKejxkUX4q78eZsliWnHbGTJ8xKaIvr1Kls8vczAgoWrknCnO8Z6OtZY+s+O5maQ7ROiKf+ZKL+qVylv7B0S1730rzQz0u3/X85Ql5EVx+68Ho5aDWc80ytSx3oEjzX5aXIMfDzia7uzFdXqn1gDH+apmt1+PAewFvPAcT5TiKfD5yCVNPRKuXou1n2Ry30dYzvdh1Ko/1xAfncpcv8bIzsxR9HlqmzrXLZ5oZORRtPaNdF+S/3hU5+dFfrf87ul23fLs+E+uZcfW3k9aMAEZ8UWbr4EjbX9If45d/QWq/doWs/bvLegNFmpquWDBcGr+mxzxKpgNNV8raBe5AkfYFKYtdJmv/6QqpH2FmJfiirFw8XJb9bXLwx6T7uytk5XXObfJegQJFnqItT8tJOZx4V/bqBDOuyv3vIT3WTaAAhZLSJZqrq7SxdTLi6e9JkStAoV04fakU1SSeQS4sdR9xvT4LMk7O9d+REffckRRUKVXLuUOKHvmBFFn9JQ5ClEMgQevBycMutf5vaz/tG1iQj3vs81fp6FBjF00eXWpfE33yccp3667v3l44S+51BVK0mO7ybmGNNHt27TZGNlQtkCdSgj/qO0pnSePCm2SDR7pAgaIIcr99yrBhslSPH6XSJowfZcZIenvOGDMjO784Ygc75k1MM+ZS0WhZoFeh43QOAkXaOTl1Vv13jV0/24EidQ169ri84RcoSnblFVbwZ+VD6vrCHSiydMvJhO8plsp71TK+XZUQKNLK9FhJVlfO5WaOh2sqZP2TajnxQJGmpq9R1zAP5eK3WKu8echMKmVTr079DTFa/XYwgSLreH47zfHcl+c/P/r+iJkEgFyhZVFAzlOr+gRhP/Fp3yjQfRB7zUv/ZHNw+ubA2luHS8uB41IxQ11wdhyXjc/sld6xK4olNr4z8clQ8xSTXq+Wl1pki2vsC6s1gL65EV9n8wfFWZa9DPdTqr1Pz8r+dE9GqYuG59SFgO9TszniPKVlPU2bmBeVtTfLMr0N1uCsyU99mfXTkyptc8IT0ebJ21snSEdK2UVMl+dyyL78gsvqeIhUfu7v19QyNr0SLwedn/qmnZZy7EXdX1zll7isOars9JNVXvuY4koXpty1SMd7DsUq1PrV2xf9vq0j+iFfbFHrF2ff8Vkvl/6q5+MytjxwMfmZv3rQEa4c4vWSLne1v6xzljW+XOrvrzJ56102UY4Hpwz9ysb+e7r9LHuBjqMsyiFSPRH1+Iu8nzlCHrcR19O/3HvzUpeH3/kh6vKS9+uYOoZr73cCo0npsmlZFHE9s78u6Pt6N+7Ll0njgi9Ky/YPZd3vzTwrONPbCijI8mPXXSFr/1ak+d/P+YxX5LQ8st+1t/1Rmlo+lZ3WZ3VrnMtk2d/awaPEdXG+W//tr+pvrtZHI74o9TddZr4ztfVNPN1H6m+vqr/F1+tCiX35Ylk+44siba6WPCm+KCv/6TKp+ChYPmS1vFyVg7XvJbWuy7kbpejppXJRwJYlogMTj9whcqZDpKRULjzTIud/+gPTqiQmFy39nhRNV5PvPC1nnk7TnZpp4fLn574h59808zw5LWg61Gf/T/XZ+FErF17/d1KkvuNC6ZBPv/cd+SRgy5a+ZtdtIY5bS+GUg71fB21ZFLweDNbCxLRWkR55dtur8iPTuMU/rWn9o4M66l3K352WStYYScfk6cOn4sGWyepva9XfYknL0nQAplF3mdfTIY8mtM4pUukmyVq1PGnfLtWH/VrfBGt148jv9jmteOx3bR2t8i9HDptt1MubJU/EuwsMUFYBtjFT2dt/Ty2HbMQDRHFqH/1uhn3a3bJIXW+0nx0uZfEAiourxZJWea+qU64xb9JoaVDXZ84gQ+6WRRlk12LISNq25BZWCfl1Vl0PfT/99VB+zn+2aHU2AGTGmEUh9Q5O2Slv7NeDASbOO/2BNSvn9A0h3YS97mF1IojfrNGSbxyrC1P941+xukly3VDQ2na/bPruHy6zr/N+Ord9v74hZN5Y1DJ0uoc35iTQkDW1LqseU+vikRc7tzTIxgN6+nIZnfREdqy2wtyY0zc9XnbdmNN0WrWNj232uDEXJV3/lUM+yy/S8RCx/OL0Ta971MWXqxz09tnpRErLkvIz4vJi5nFcXX6Jy3LGv5gg16c8UZ99uWvBj3d9IbxMGgO8VjpXy2m0taj1++FWaT4rVuuI5bekrmN/5ks0ZsyNju7AT6b3Vz0fStT9OmI9GMn4ObLcBIr0D6Z4oEg70SoND2+WZutx9QlSk6a1SPDjwdW6aJbXU4rlcr2+wa/qkDf6+zjKQTnk5bog4n4WTfb1RMUSVU7PuV+mVY36m+6aLyfnabVf17iCyu79uu3EHln38FZpsfbrXMk+X/J/XRe+3rX9VU6dM5NuH32WsM3+vii1Jkjyhk83a25WV2u/cQJF2mey861zsuo/7dY1FRNcrYtGXCLLTaBIB6LigSKt6y/SsFntD9Z4P1+UGp9WOzow1bssTW3X7z+WFZs/TBMoii768rItB8dwGZObB/C96dYt+v+UliveLqyYbX3eahHz60fkzGonQKG1yZ9/+WKw7ynVNUqI8XbO7JVP4wEKrU0+e/MH0rX0ETk/gAJFkVEOPoLWg0VyldWwqEf+8LE1w4f6e4+Z9DBvVo28faf7ZVr/qL+1deiu0+zP2YrkQR3UUewxknoDKdqR9980YwENkwWjvVvftLUfTerGTY8hpNJtbUoTKIou79t3bLtU73ECRdp5+cXhV6XumF0I80bnuHWR5/eNkZv1ZvR0yK9zmaVnPuodo0h3G/dDdY1n3lp08OShelnvcf1qcwJF3dLSsFlWfXej1FkvNf0bV9dr6ntqXIGixM9ulFUN+trFVnFTml4B9PWWSmul+6F9ne8oWzg7+xY8p/dIU7x1kbqWuta93cXylam9gbWWV4M+ONPH5z+1Xrorc+t6NPS1FgBkRrAopI721B/V7nkn2+0bizl3YGuwH/ROFzsd+2WL302m3e+JfnCjbGZiM9u2t+zBDctuvVlW1pZLLCc3f/pG/EbY+GKpnDtHVj6gLmjW1Fs3h+ynfZNP0OpEP9PctHwmzUk+4WaYFjFdP5RDf5Rf1OMhfPk5dDkkXdAa6Y696MtLLyUwlUW5Jwh6vA9QfZYvedJv9XxI+asHIxqjfkzq/w+0mEBbsk5p+KX9QzFnx0O8+4eK1C7c5l5lBWja978b8IdeX8lROeThukDrq/ozRR/VE+3q+zY+tllWJPcdH3V5Gffrc9I72kIOZJEvg+m6Tn7/sdT9c3JroM+kYfOHHuPx+PjyF+1jvC3d2EGOv8re97xvSbe99xf7ZtTlF/bm5xVfsMu97VOfFktqXQ/Y61kW+2JiOZjvK/vby2Tldepvnl3V5U5Wy8tFOSht7VbkrG+V2UGKP+9P0/rE5cJSfSCpzz/3Delq8t9DPutIFzWIyUV/q77nzN4A49y0yWdn1H8ld0jR0hvlwrH23F5tAb5jEKAcBqy2nlZ5dJsOeiSdlZyuzdTfn/bb9vdPyw71X0yVr7uLtCOnO6z6NTZxlmyYMkYm+/Tklg99sX22Htl+2js642y/XHqZf9dxYZw/Ldt1/Kl0ojyYnJdjR8s89V/a7glDslrJmNbv1nWo1/hC16q/jxwuHWfSXWPqIFODrGvptPPDoqbdLXL095hpraJ+sax1PYCl1yNOLc+vK7WWhobecY1O75EN29y/wy6X0aPNZBZ2vtMbuEoIQCV0QXdc3tQXWxn06flPt1JX19/6Yai1+mGojuPpf0sAQEQEiwaJ9navR/w8ODcxSmfKWutE4vXqbZKb4MQeWfHYfmnpGC4Vt+q+7M3n1+g+7QfWTQbd5dXKNWrdHl8sy/RYGLoP/4QxH5KZp7vkIznteXPHT8R0/VEOQ7r8shNlec6FnjU2jTvv9DgjVndAiQEESzbl7hL4eJdWWed6QivdK960Pw3dfdb6b1dZA3ha3Wd5NNfvz3xBovzVg9E4rdDS7s+nuu2bsmn62w5+PGhOACq5lYXTOuO4NKUEWPJ9HOWmHPJyXaDkrb7OQT2hu5mru8d+rXrJvplQ9sG5pFZRRsTlBdqvcymbfBlE1wW5UGm1BPIPAoV2+Rfi9VJsuNV2QtrNmD6ezv3VBJl601m6PpUV//5HafnoC1Lxt3rMoCul8Z/Ua7EeO6gPgkf5Xl4/uWim3uuDtiyJyYV6nBxpkb/4dFnmtHj5rCPdbTfXeDv2jLT+/PQjcv6dDmsMnhGP/KuUPP0DKaq50W6JM0RQDtk6L+99ov8fJl+6zJrhQ/3ddI/mRXdjdu3P7ZfT+iX2ycfyi/MeQY/LzBg+w8qlMaG1jvulu7zzcP6wVG9rlR09w2TeRD1Gkfl8lR6rqO+CR3nbvqCGDZOrzWR2zsuPjnm1cnJaR3XIv+SqpZa6PrXHJ9pvtfDZeGi4VH9b/Z5LCLY4LWnSB0ZaGlKDTMnGlYS5Vgwe9Gk74w7GDJcxo8xkNlr2Wj0C2CbI9eaiKiHgdSi3453mgq52MxQDAERCsAiJrC5UNkrdY5tl40vHpaWjW9pLe28yrH+g3L746k9z9fg0M+0xATrUOr601XpqeJV66RtETndkg1rUcqD8UkVd3m6nazt78PD4TbnHzU25A1v9n/IedIqlXg8+aj1pZncpsMJznBWloPJlACuEejCq3eoHn/rdXXar68lAp3XGgb78oRfiOBosBvF+1ralxWpt49nKrJAMhuuCnPiiWGPU+7b86Wddn8o63Trn37tl43/+RVo++qu0X94bzFn/tcTWSFnL9/KSOEHVvuMEHdrls0CtQjIHF+wWLxmCHtdfJxep/4K2olE7pPz56e/Ime89Iud/3aKWXSoXfX2pjLCCFUPhyKMccuHdj+3gx/hhaSItRZeJfSr7RN7LEDs4cviY1WrGs7VKLpw/LMu3Nsm127bLo8c6ZEdPj7QN6w0eNc8Zk5tWNz76fPvy7f2j8qzaBWITJ8ntZla8dVTHafmFPSdL6hr1Jv3QlG5NZF+b7nx2q7pOUr/nvl0v9U6gpmK2/bDTtr15Dox8JKcjRT265VROugfvlDcO9rZYqpiuu7N2Ameayjd3F3tp9On5Tz8EpK6/6+7R13TdUlaqyu/+dF34AUA0BIuGGucp7QNbrRs5aV/pBis+YY+ZsO7hBvuE9JjdB3/ZjCpZnmZsCUup/xPi2XNaL6gT9qbN1lgNuv9+/dRwW6Cuk6KOrRAyXX+XQzbl16eyLb+wsl2efdGY+HtVDzC+VVY9lThuhCVX5Z5HViuIJxdL9TXDrVYQq75rdymQXj/mS+j65Zyc0g/s9Wm9lG/9VQ+6hMjPsrIrzJQHp9VETvvbdsaa6h0/K3adHcBpbgr2Qy+saMdRDsohiMjHXw7r6yD7S87rz1bZYrUuGi7VXj+ks1xe2v06l3KVL6rM8nddl/96N3bdJdYDCy3Hg3eV5svpcu6jv6bUS2WX63GLfKRJF9elx0X6WNZtPicr/lkHcz6Wlo/U98Yuk+U+Yx3FqWWHzs9slpe1bjmV0z4Z3UzQ4Z235M/2jPQyjqsTLOgRepwcx/tt8ucmPT7ON+TM956WP5/RwYr/t1ya0iXaYEM5+AteDx7psZoW+XSJZps82h6fJ1jw4JQ8bbW+GSb3zp6S+p0f99jnio598dY6vq+th/27QDuvx/F5U5ZvfVWq9We37ZMdOuhROkvWTskQxcmqZU6ets+L02qpp0fetWbkwnn5dbvenlK52eyLdnn3yLNHclWJXiFjrO7U3EGZVln3Qx0w0i2M6mVlRbkJKB2XJo/eJcI6eaY3+GJ1W5fUWj/x5d3NvJfK6Xodc6/tV+YhI+2aq6QynmfK2ePyRqhgVl+e/zTX2KF5vNYCUDgIFg016cZryCA2N83TpSfUxYQztkTGGyR5uAHWoU7YCQOCO4rFuwVzq7xpPQHtc9PIMb446W8R0/VDOeSu/PIgdPllKcry5i6yxuNo1oO7J9yQSx1gPC6Lcs+/YqmM0gqi3/MlbP3SKaetJ87ydGM+n/JWD3rJnJ/OeCn+5d47cH+uxxFyWpVU3Ka304wRpPMr593vRTmOclkOAWR7/OWkvg5w/PVB/dm25RWrlZnuwq3WBA7jIi6vd7/WNxI8jHe6GUxy4pzoxfn9qI/V3izVnumi50v/Xdflu969UL4S00Gcv8ibv7fnBDHGc7MvlPoZujs7VS+5xj6Kj2MUu0TqPbtx806nxb6cphVP119knTPWUbpAlOVCGR2gC7ncLS8qZ1y2j0J0tVlud3f5nN3aLSMn6BCQ07WZf0uUYN2a2a1egrSiudEeH8e8S/D+b+X8y/oMVSpfsKKL6YTMl3wrmHKIIkQ9aMbP0d2mLfUMXI2RpRPtPuh2nA52B/rI4X1WaxXP70w3Tk4Gk8emaTV0/pQst7pUU/XQZWn6zLNcKldl0Sqor7bP4d0loNM1nDonBBlHKERAzGktNW+iDn4VydfLVP71dMivc9QDXS+1P7ov3k73Bowq6u0ulK0u5syfs9H2trleskyQZQ/pLu8Su4iOVcyRlbekr9sqburtKk8/nFVzjT1tCRjEscYhim+3Wq7nBWyrbImPhzRBrr/XHutUaz8Y9HdKlPMfAAw8BIuGnN7xGqof9+qTvlgqaxfJ+ufUSdfMsYyfI8uXVMna5+rtLknGJz5lGnONR+LfT3/iDbDE8Uz0wNg5bNFSOlOW620zb62T/ly1XWsWS7U14HaqnU377QsW3e//mkVSn7A+Jv3ji2Vt0o+xaOnyXA45Kb88ilB+WYmwPLsJ+XAZkzDuSSYRy70fxG65WZaFagVh6798iV6/7NxnLztxDJshII/1YK8Q5XBijzQ5n9Xl7v6bqpPq9Xpav7m9xhHKlmlVUjpBvlJrd0GX64CUFvU4yr4cwsjy+Muqvg5z3PZF/el8pxM4dIu4PCd4o298qLJzb5Ndbn7jKpmnzHU6fZ625ikqH+ofqJe1t/r17R9xPfv5ui6v9e6IL8psfWpq+0uIG1xfkIoFZgwfM0d/T/1ita1WDzJ/kaa3XLeruz4Veyz+L0j136l0X3bdfk6XbsQlsnzBZbL2n66wu34bkXjbOqbSrlxggky+4yH9Rd50ln3TJVLpDhip76tMWJdcLC9LEbr9jNVW2N1dKmVhAqPTa+RSq/9B24Vjb5RLl9ZZXZS5ZezazHRr9tl/7kkTpHBavVTIJa6uyy68/ka5KOlm9YU1NXKRHh9n9Q+kSK1fQimodSxa5F1LJIucL/k2xMshquD1oNNSRmTeLD32T1FvQKZojGyoMuPr9LTK04G6+9OcsXCcAIRb7zg59y70GmuoSG6fcr0033l9b7doWtEUWTtrljTeeZPd1VxRYiRmsl7XWfYO22a61kt1Sl6xVstuFXS7+yvU990+Nmh0pw+2L26YKQdXYExt24NVC+ReKwaWaRyhHvmDtfml8o9J35GwvQnMPjCsVL4+xe6CLlBAKjB1Pj+k/1fnKt3tXEXiPnkqPl5PYnAmK6fV7wBrmcZI3eXdYml8cpl5qevc+plSsVDVbemWZ6Wz09gPZ/VqedXvAS1nex2936GXu/xa72PSHeCquMa+RtKthPa+HfB3Sl66vQaAvnfB/IVVn5vpwM51pVaW48bF5OTJXN+GGTgqH1hmPU2vB09eZ8bjiNXaP+4zzcuG833tL22WFSFupjnpfHUcl+ZnXpYG1xMPehDr2tvM2AR+OvbLqnTdnIyfI+sfn5lwEu91XDbek/2TKmm3TW3Xxv0iy26d4F0GaddP65bmxxoS8sUSMV0+yyEn5RdQNsdDtPIrNjeWfcpHcb43+ViJtjwlY5mLtKv0e3+5VxqSnrpPu0zNo9w1v23oC7FbFkntmb2Bb27H9UO+xEWuX8plpR4APsP+31/1fJyzfQGO07R5mW6/1iLWZ3GhysE5ds3bFOGP6eBMuVvT6faP6CIfR1rEcoiaL2n3Gc3j+MtqP3OEPG6jrKfXsdurdx/0yrMoy0u7TerzLR9MkIoZHuU3d5E0mgBNMr1uTWWL1XakL3dfXuXXr9d1werdXIhdd4Ws/VuR5n8/F2C8ogvjgZ123R2bFeBJ9lef7+pN6807XezLl0jtjIulwjed8tEfZdXmT/3zacQlsv7vLvYph7/Ixn/+OF4OOVleFpx9Ncw5Mnn/zly/xeTS1d+TS6ygQao/P/cNOf+meRP/bIucX/oDz+7SLqz5gYz4emlSulTO55J5pfP7bNw7T0vX079N24ImfL5kx65Lw5wvC6McHHZ5fBQif8LVg7fPuUmeKPVpkdPTIY9ufTOlC7rb59SoNCI79jXJ8pRAUlE8wNF2bLtUJwU4Jk+5SRpNiyVPapnP7n1TfuRKNnnsFFk6sVzmpUmmg1p16bp3K5oizQtdD00kUNv5897tzO/2ub6vR5W3Z9IeeXbbqwl54sV32bprvD1+rcPGyIY7TWAwKR9yQ+2PD6n90elaLYl+8GmvTLC6VLYc2ip1z5rum0era4Fv914LtDSo+j3eZ1s6xVJ5r/1gVTrt21Td5nR9V6Guleq9r5XcEtJ4Utv7pPM7IMlZdUx+3/uYrLxX1YPu1kvufMggyvkvOnN9K31/nQWg8NCyaIhq29Jg9UfffMD0de/oMOOKPJx6Q7Zttz0I8qpN+60BkN30zV89ZkHGE5EedM/qB98rfW4GStTbtmrTcfWdZoZm1k+PqbDT72k1zRoU0B7kOSG9qHw6oPLlHp8bpBHT5bMcclJ+eZBV+UUQeXkn3pUmVW7p6EElq5cslpVJ3RtFKfd8a/vVy9FucPdnvkSuX5xWJrqFRB6ecs+DrI6jqPWgI1Q5dEpDvF4ysywBl5UVp1WE0kdP+EU+jrRsyyGkKMdfVvuZI+Rxm/v6s7d1Udmts1NaJUVantkmnaaX8/m9cmqUmZVs98ue+blRd+u5pVNOtifmkVuk8uvX67p81btflNq//YLIR3+RNzIGitz+Kntf/VBWbf+LFTRytLf9UTb6Bp0+k4bNOs0frXF/ev1VpftYVv2zd7q2338q6+LpElvztKv1bt7enTlw0/WprLDGG/JK/8eEcsjJ8iIrl1od3OjYL1tC3Cizug5NqAczaZNPVj8in76TmOizMy1y/nvJAYPMXZtlbPFifNb0f8r5hGV2yJ9//bR86hHY+KzpO9a4OHod3cv97IxK89wjgQIU4fMl3wqjHKILVw/+Ys+rUrevwwpU9OqRto59UucRKMqst/VNbOKklFY0Rw6/KnqcoWc7zBg/jp4e2XHMXmZyUOTI+4dl+dYmtZ6tskN9zq1NB1/2bU8fKNLOH5Zqa3wjr/RHQ2xn7rfP1iPb9+ptTCyLto5WeTRAoEjTy65T65a4XLV9pxO3OZHT6koJNDZVWK2y7vvquvNQ4nVE+1l1PjfdKDc8q641dLd0Z9VnzuSiN5JO2am+c5X6zuak5YpaRss2df3yQ3UN5Bv06ZbmH2620sY565txXCW7i72EtEq7Xu5B/23b+Y59zehoeSfoeKfRzn8AMBDRsggAUgR5UqdYKh/QT4Gri84+ftJz4BjM+eK0LvBvyYKhx35KmjJHPlHX9MpDXnz5Mmlc8EVp/89uWeHu/s2X0zrIr/UQspF1nWta3xXOdVVAecqX8C2LCkv4lkVatHow3jIlbUsU5JbTsihY66G+YLek6r/lDwgJLYvUcfNDddwEGJcoZxKWr+rD7wY73vP/myPI73IAiIaWRQCQzPQ3nH6Mk/RPgQ9JgzpfOqXhGT1OzHCpfjzMmCcYtMbPkZoZ6v+O4/JGQd+wB/pL39e7lRP0+Dt/lb3v9V3bAASjb6TbD4q8EvlGmT0uYrfsfYtAkRv5MphFqwePHD4mO/RE6Sx7fCBrLoa0oinyj7pxXU+H/LpQA0UphssYv9bafUF3t+fqAq99W7CecXJx/ousdKbUphlDEgCioGVRH3P6LQ2mcJ7kIl8GBsrBR3yMhm5p2fSKbNndmRAc0QODf6WmQqpn6LwjXxyDIl/0APRLJkiZ7vpJd6NlZmeD42jg0WO1LF9i962en37DAQcti1L0Qb1r+6Ks/KfLpKLtY6n7zV/MvExoWdQX4ufBA1ul7qmgXfYkca4xsvmOoSiP+WI/GW/eJCi8a5ec50WUenDs9dI8qzRpbJ8Cb3XSp/qvZZEeC2rtLHscJ+/xmQpI0phFwcdHikpdtz2krttSxnJSx2qAVkU5Of9F5P0btPDqawC5R8siAEh2Yo80WWOdDJeKJYtl7XPLpNH1Wvt4lR0Q0WM2PFZAF2NDIV92vywrHtNPeCrjrTkYKvQNNWdfNIEiPfYPgSKgn/VRvRu77hJr4OqW40EDRehLur6NdqOsWGK1i+yAiL6RTqDIIF+GlCj14PtvWmP76DF3MAQVTZHmO2vkbfVqNIEiPT5VQQeK+sPoq2V2SqBId38X/Lds9PNfdqyxRVPGPgWA7NGyCAB86NYJtbdNkNLS4daNZ4ce2HvvL/fKG0ktawoF+YIByYzpYNGD/v/yFVmn9kUgv2hZNLDRsmjgKZeVz1VJ6YGtsuGpVq4f4sgXIL/y3LJo7PXy9izd75zS0yM7julAEU3G8t6yKGl57Yf2S9Nv9sjOfI6TBAADDMEiAAAAAAAAAACAAkY3dAAAAAAAAAAAAAWMYFFAuuUUAAAAAAAAAADAUEOwCAAAAAAAAAAAoIARLAIAAAAAAAAAAChgBIsAAAAAAAAAAAAKGMEiAAAAAAAAAACAAkawCAAAAAAAAAAAoIARLMLANH6OrF+zSCrNWwB5lOH4i9XWy/oHys274KKmAwAAAAAAANC3Lpi/sOpzMx3Yua5OM9Vr3LiYnDzZZt4NPUN9+/xctPQHUjS9VD5752npevq3Zm5AY2+US2+rkS+q9BeaWZ+986Kcf7pRPjPvPc1dJOuXTJCyjuOy8ZmXZecJM38wGT1H1n97ppSZt3Fn98uq7++Rgb0nFUv9msVSXSrS/tJWWbGl1cxHQQhw/Omgz9pbh4sc2Cp1TwXfP6KmS1QslbWzpWamWke1j9rUut6j1tW8AwAAAAAAABAOLYvgb2ydXDLdvht7YcnoeMAnEJV2xCNLrfTudBdOv0NGrP6OXGTep9AtGvSNan3z9+FBGiga7MZfLbPNTfiyW6/qs9ZdsblzZOWaeml8bln8ZbVmGW8+gPwLePy1bWmQVS91i8yokvW1xWZuZlHTuVU+sFiW3eoOFAEAAAAAAADIFsEi+Ht/j/zljJ7okD//5570rYESxOTS++6wgkRWi6Sl35Az5tX1XIv6rn+XP9sfTFIs9ffr1jjd0vzYIG8lcHqPrPjuRqmLv7ZKi/nTgHfiXdnbYU+2v/Ren5SD1cJkyUypKB1u5tjKSifIsseXWV2Vxcw85Eu4408HfjYe0AHFm6U+RIAvajpbsYweZU+1bNosdfeoY8t60aoIAAAAAAAAyAbBIqTRJp+s1kGe78j5phAdp42dI18sUf+bruvcQabP3vyB73fFam82XZ+9Ig20KOpHndLwsH0Tvk+6oJu7yO6KTLqTbvhvlFWb9ktLh0jZjAr5Ci2M8irK8bfzKR0EHS7V988JFdyLmi6uY79s2Z3aHSoAAAAAAACAaAgWIecurJhttSr68/4wYxyVS60OIHTslw1buAk8lFXOmmD9r4MS65Ju+Lft3iPrHt4sqx5rIGCYV1GPv1bZoruVK50ptXPNrECipgMAAAAAAADQFy6Yv7DqczMd2Lmu1JuJ48bF5OTJgT1sfzaG+vZZrv+OlNxTYd64nHlRulY3pumG7kYpWl0jF5VkGkSkRc4v/YF3F3RzF0njkgnS/tJmWRHgZnXslnpZu1Ck+YcN0nBazRhdLvVfq5DZ1wyXMvsj0n5oq2x4tlVSSs3rs2ePS9PPXpad+rsSFEv9Q4ulWvbLqu/vsdLW/kOFVIw03aed7ZaWV1+RdS2Z1rlcVj5ZJRVn7e/x25Mq710my65ROdWwUX2nmZnCrNPI47Lxu9l2v6W+a436Lp+iy1wexVJZO1tqZrrHkOmW9gMtsqFJ5b1HwKfyAbWNM4J8t4seS+fxmVLWofLvYa/8c7ZDd6HmF2gqltjc2bL8tsvVujrd35l1fcpjP4mLmG682s9q1H42w7Wfdaj97BlVZr6BsPD5aYuazgh5/CVwyubAVqlT+RFYxHTW/jPKbz8AAAAAAAAAEMXfXHLJJWYShe7CUueWdqLPMo1XNHa0XJgxUJSe3dqkW/a+FfJGtaIDR43frpJqV/BH09PJN5N9Pztygiz79jJZf4vPoPsjh0vtvfWyVqWNB4o0NV1Rv1ga7y03M7Kz8zf7pV39X3FTmu65Rl8ts0eq/w/1zXhCwZXLyjWLZdmt7gCFpvJ2RpWsfbxeVtam5ufOfcet/8tunS2V+epqbry9rmuX6HV1lZ+zrs/Ve4+fEzGdHpOp8XG1n7kCRVp8TCaPfIman9HT9crm+IuPcTXjKqm05wQTNZ2mymKcmQQAAAAAAACQvb/59NNPzSQK3WdN35EzS/UYReb1nN205bOODM/vv98oXfF0T9sth3RrJPd3WS+fVkXiDFr/kZzO1AIiwXAZ87VFsnbhcJGzx2XjDzdL3Xc3mtdmWfWbpNYKFeaz0i0t27bKqvhnN8qqhuNWkKZs4c1SP9r6dJIJUnHNcGk/tF8tp3cZG7d123++pkpWejTKCu30Hmk6pP4fOVNqfb6v8mszpUxtQ3Py9kXSOz5RwthBuouwDGJqBSt0cKJD5f1j7vQq7zep/OwYLp4hxN0vy8YDesIOnDSuWST1c9MHM7JTLisfr4qva3PCOEmqDF/SZa/2pTH2p3tFTOcek+kltZ/F0+gxmcx+dqvaz5KCTFHzM3I5xEU9/hyd8sZ+vb9cLqNDBf+ipgMAAAAAAACQa4xZBF92S6MO+au+ux2UbmWk/z9zOn1rpARXyBjrZne3nLRnBFZxzQRp37ZZ6r6vu5Bzt4rolLaELuWKpf4me6ycloYGWferxO7D2lpelhUNusXLcJl9rXfgQi9nxbN7XF3VdcrOXzXIKhMwqpie49ZFnt9XLtdfo/47e1zeSOkyr3+079+b1K2ayvvdKj8f3ujbpdnOp3RAyg6cSOkEqV6yWBqf0y1gyv1bVEVkBVP0hNWF3cvSkDBOkirDLWpdH9ss63abWUa0dGo/u83sZ5vUfrYlaT/T+bLJ7GfX+exnEfJTi5oum+MvkVfALYig6YpVmSySmhlqMut1BQAAAAAAAOBGsAg+YnLR35aKnNkrf37fzAqizA4WfdYRJlEWDm2VFb9KdyPccLpuO7tftviNBdTynug/lU292iNg0S173/ZeTtvbJuhx5RW5CXScflf2nlX/X1OR2sqp4iorgNF+8N1+H6+l7a3eVjJWkCdk65A2HWyxWtvslxbdHZkMl4pb7a7dVuaspVGxfGWm3cqn+Zk0Y9ycSC7biOnGq/3MCryo/Swp+BS32+xnMxP3s6j5mW055EJb+0dmKpxA6fTYRs8tk8bnFsta3dWebuWVrkwAAAAAAAAAhEawCD7GyhdK1H+hWgiJXDRThzI65C8t+bmV237mnJnKYNRwe+yYkTNl7ZPLpNHzVWW3JIlqZK7GUemUhle9Wjk5raOOS1OQAFlfO7FHVjymAz0myKO7lNM39deYFkJBgx2798g63RXeY1ul+YBupaW+b8liWTnX/nt2TKuZ0F2sRUw3xuxnpWo/swIcXi+f/SxqfuaoHAYLHRgbII3qAAAAAAAAgCGDYBG8XX+dXKT++/P+39rvA4nJhTrAJO3yWZ4aFg1ZLXul+axI2cLZvYP/O62jDr0nO+05/e+EE+ixx/Bp6eiW9tLeoMX6B8qDt7Y60SoNTzXEx0uquG1OblpqDSZR8zOX5RBBrOxyMxVOoHQ6GGbGYNqo9o2y0gmy7P4C3DcAAAAAAACAPkSwCJ4ijVcUsTWSyDk5pbshK81VyxwPH3RbLRJ0t3V1392Y/vX9kF1cOa2WzuZyHJVOeeOgDppMkOtNM5TYtRPUcrql+Tet9oyB5IQ9hs+6hxvsG/uPbRXdtVzZjCpZXhuuSzmnW7XculxGR2phEzLdKbOfHVD7mRXgSPN6OH33dpHyM1K6XB1/3XLqlJkMJWg6vW0NsvGAmuzLugIAAAAAAAAoQASL4OnCUt0HV8gWQmPt8YrCB4s65fQH+v+oN/QDSDcOUEBjRpmJBE7XcAHHEQrRVV3br1qssW0qbtKtKIrlK1OHi5w9Lm8E6YNr9BxZ+dAyq3u99bfkavyfRLG5aVqrnGiVdb/UXemJlJVdYf3vqHwgw5hETldubifOiY5n+AUJYrU3S7XVbVyyVnlTBxdkuFSna40yvjjpbxHTnVD7mV7RGWo/C7kvR83PqOl6ZXv8OeM7he3qL2o6AAAAAAAAALlGsAgenO7kKuSSmt7b0Bdef6NcNNa88XBhxWwrWBSu6zrbzn1mjJ7r+iaw4R4HqPrb9bLylnKJJQSNiqXylkWy/slFvd2+JRguFfUmnZkjo8ul/qHFUq27hss4jtA5OaWDVTJBapK+o9I3eNUqW7Z1i4ycIF+5xe6CLlBASqn82kypsNZLpGzhzZEDZL7Gz5HlS6pk7XP1dhdn4xPLLTa+XFYuMUG0dte4UipdzQyVl0sWy/o1Kq+T081VZWDStfzS3fLGtH5R+bfM3aWaSl//QL2svVUHHbztbNpvt/bR4wipZdYnBKqK7WU+vljWqu91i5ZO7WdWcEbtZ497jRmk9rNale65pP0si/yMlC5JVsffeLVv6kDdgZDdI0ZNBwAAAAAAACDnLpi/sOpzMx3Yua7Um+LjxsXk5MlQnXcNKkN9+5JdWPMDGfH11KYaf37uG3L+TfMmyUVL/1WKpnfIp9/7jnwSesyiclmpB/7v2C+r0nXPZcRuqZe1C4dL+7bNsiJtkCaRk87X2ePS/LOXpSHeeqc4HhBq12MImQBMom5p/mGDK40332XrrvGe9etaTuXLkypfrOnjsvG7Lwe6sV557zJZdo15E3D93GK1dgCm/SWVv1u88zc2d47U3jZTKjxb9Bhe5Tl+jqy8P3269gNbZcVTSXkyd5E0msBHMr2eTWWLZdkMta2PqW1Nbqmilrn+8ZmpLZbicpvOyT9fHWo/e0btZ650UfMzcjkkCHf8uTnb2rJpo6zbbWYGEC2dOh7XqONRwq8nAAAAAAAAAH9fiE340mozHdif/vRHM9WrqOhyOX/+I/Nu6Bnq25fs/znaKn8dN0UuKhlm5nTIn3/9/5NPXz0p/4+ZkygmF912k/y/Lm2VP/3rGyG7odO6pP2/XC1VM78kU/7Lcfn14dR9zO3yL0+Tqgn/VXqOH5Jf/z79Z90++v1Bef7Qefkvlw2Xy0b+V3G2To831PLmbtnw3Juyq8fMs1ws0+ZeI5Mu6ZZt//ysPNdWLFNKhsuwS+y/th/aL//7Z/8hLwUIxOhl77tQpZ+g0pt5VnBqz3tysMNvG7rkwtGzrVZFcqhFfvCfXfbsDE58+AWZcFWplKn1bN/2C/nB/uB5pF1+jcrfcpW/v1f561MWH71/Sl5/da/sU8saXnaRlA37r+Yvapkdx2Vb4yvy3LOtqTf0z+t0x1W6i2VKmcqLeGbY6f73k6/IP//aI9r4/rsqjco/dxr1+Y1PNsg/v/5HuWCc2n/KRY69dlAOnjd/d6hl/rrpuJz9LxfL6GHuZXZL+4Hd8v95eIfsSk6jRUz30WG1nx1Q+9nlaj8rde1nHWo/26n2sw1qP0tKFzU/I5dDgnDHX69yWfLQNVLWsV82PHtKgteQUdOp47FKHY+qPtr6aph0AAAAAAAAANKhZVFAhdayqH+YVgOlPq08+oXTsih865xcsVsJ9d/yUSjCH3+VD6h90681VxpR09GyCAAAAAAAAOgbjFmEAaRTGp7R48To8V78xg4qMKPnSI3uTu7scXmDQBH6VLjjT3cjt2yGSPtLr4QK+ERNl6B0ptQmjCEFAAAAAAAAIBsEizCwnNgjKzYdl3aZIMvWFHbAKFYxR9Z/2x4vp+VVWlEgDwIef/ExmfTYUj5jWnmJmq5Xp7yxv9uaqliyWBqfW2ZeBJcBAAAAAACAbBAswsCz+2VZ8Zhu4aCMt+YUjtFzZP2Ty6RRvdbW24Gi9kNbZV2L/WegzwU8/toPbJW6p1rNu+CipnO0bWmQVS8dl/YOMwMAAAAAAABA1hizKCDGLCpUeR6zqGKRNNZPsKfPdkvLq6/IupYoLTAAAAAAAAAAAAiGYFFABIsAAAAAAAAAAMBQRDd0AAAAAAAAAAAABYxgESy65RQAAAAAAAAAACg8BIsAAAAAAAAAAAAKGMEiAAAAAAAAAACAAkawCAAAAAAAAAAAoIARLAIAAAAAAAAAAChgBIsAAAAAAAAAAAAKGMEiAAAAAAAAAACAAvaF2IQvrTbTgf3pT380U72Kii6X8+c/Mu+GHravUEyXux9dKjXXXCit+/4gn5q5mUVNh3BGyfyl35Vv/LdR0r3zoJw1cwejkgXfkgf++y1S0v2aHB7MG5KFqYu/Jf945y0yZdQ5aTl0xsxF/3COralqnzyp9slPzHy4cdwCAAAAAIChimBRQGxfYShZUCs3j/ujvP6zRjkUIuLjlc65qXhj5fxgrwINNNn59KWAwZ8vyaz/NllGdB2VXYM6r0bJ7EWVMvbiTjn227ekLYcbEi4/+1FJldz5tUlysZq8WLr6fN8fNPnSX6bdJt+YUawmLpYRf3NSfkvwzkPfHbfwxnELAAAAAED+0A0d4Cipkpq5xSKtO+W1MPdJo6ZL1nVWCu/27CiZPEnlXVenfGjmpFUyUkbo/wd9Xo2UYr0hXUflSE43JGR+9qczB+VYl57olNajB/u4PAdRvvSXs51iFYcqj9d3vGNNIVlfHbfwxnELAAAAAEA+ESwCjKnzbpARclRe3BzuRqlfujPbfyzfe2J1wuunuzutv7U2J863XiGXOzQ4N1+DBX9KpkyygkWtRwZ5XvVZ0CtcfvavD+S1p/W+/2N5fvsHZl5fGUz50k/ObJWfWHXRj7MLeg9lQyZYPVhw3AIAAAAAkE8EiwBtWp3cUS7Stfs1OWhmBRIy3ZVXFqt/O6WT/nRs06aIyr7AwZ8hk38ji62bzl0f5nhDQuZnwSBfkAt9ddzCG8ctAAAAAAB5dcH8hVWfm+nAznXZrSPcxo2LycmTbebd0MP2DWV6YPf75auyS3769NYQTzCHTTdd7n70LinXrZCeaPQPLpVUyTeX3CAjWl/waW1kljvC+3v0GA/3zRV5fZNpIVCilntXpZSP0IEWpUule0Gli6+w+b4uZ3mjZOqC+TJ3rt2KR+tS69Kk/pb9091qXZa61iWt5O1L3u7w61kyrU5qblCfdxLoLtB275Tfbs/FtiVT67f4bplbbt9g1rpad8nuHVvlwym6jIqtFmbP/878Mc4/3cGRdfJIdXFv2WaVn44wy8uCyvtHqieZNy5dmY6fKPtnDvKlRC1nXmK+6GPn9V2vyWu/64uWUHkqB2Xq4tVWkNtL1+5n5CdpWnqVTKuSG9Ux1Ju3nWo9j9rrmW7dQudnPuslN/9ySHvcZrG/lKg6evK8SpmYtMymzR7HRaTzgysvd4jMV8v6qlqWtX7qXPCaOl5S5nlkarj6s5+OWwAAAAAAEBkti4Bp8+WrI0Rad4UJFClh0zldGLUeTn+DK+PT607XPN7jOMRb36iV0oGjR5bclXjzTad1r3DJVJmo5lnL0zciH71f7nDd0NNGlN8lNQtGmXdZ0HkQ6EagkrJ9ru0OvZ76JuRqua/afaNTK5byuXfJfUurpMTMyQln/dw3jpUR5TfIHUvq5EY9DocclaMpN5zTpfuW3D1ZB1vssrVklZ9K2OVloaTYez27Mo1XFGX/zDJf9E3xby5JzRcZMUm+Wn2/fDMXx4JbHstB37S3jiMfXZ1pAhsqX+6rviHpZr5aZ2c9p3nnS6T8zGe95EhbDv7HbfT9RQemviX3qTpaB2qSl3nfo9+S+ckVU6Tzg5knU+RusyyLWr+J8/S6J8776rzp9nRchPqzH45bAAAAAACQHVoWBcT2DVXT7dY+GVs3JIuQbprdsiLjk/tWyyC/VieKvvHm+2S5eZpbt3baVWzd3LOe3t7xjpyxVnKUTJ0mctD9pLuzXvq4HlEsI7qOyosvvCYHz+jP6JuZ+iaomvR9kj2qkHlotlvfJOxdz0bTmiHdeprlOE/BH3byQimZLvPvussO+vnld2jO8hS1bS++0NviwnoyX99w1W9StjtqOkfYfTLb5WXJ7HcZ8z3r/TNkvpjlaYktH0apY3O+OjbtwE2uWvn0ezkYdmujdNvltFhRx1Hz86rMnDpE5cu0+WY9PdJHzc+syz2siOUQeX9x8lNP23n6W5WnTtp4K5yk5UU6Pzjz9LSa/1O9jq71TpmXkKdOvoSsP7Muv5DHLQAAAAAAyBoti1DQShZUWjfBXn8h3M2oKOmclhVpn9xXMo7Lk/bJcucJ8klSU61vKD4jP9E3AeMr+UFioEhx1st6onv3M/K9p3UAxvmM+vyOXdJl3uWU09Iq4ODlJVPsm7WJ62n/Ld16Tl2sb3QelRc3/Vie190luRd25h157QU73Yji3LRQsJen6JugT/fecNbO/K5RftJ81F7PpO0Oks7il18h8zPr5WXJ3u/S7OdG1vtnqHyZLnebG+j65rd17FjvtA/kzPZG+enuTjVdLBOn5G9/sfRROdic1kYBWi91HbWCGr1Uvuj1fOIZ6xhLDIhEz89810vRjtsstm/B3XagSAdDnlB1UzxQpKntU2l/sukFK2jlWpVo5wczz1qWs45nO832uOYZ7rR2voSvP/N73AIAAAAAgFwgWITCVVIlNXOLRVp3+jxJ7yNiuow3+Szmpm3XUTni891TrS6p1Ee8gk7ODbYRxdLVbN+AzMReL32zM32LJ/9ujyIyNzCDDl7eu56rQ6zndJlk3QGeJHcsWS2PPOrxcp64zwW1b8zVyzM3YP1YRexez4DpNN/8CpOfuVheVkbJZN2lV5r93JH1/hkiX+wgsPqu3c94t9pQzhy2gwYjrhxpz8hGv5eDI33XlrYPpNPa8BukZvF0KUnpd+yDhACLlk1+5rVeinjcRt++6XKjPofoIMzTaR44OPNOUp5GOz84gZuELlOd48I1z/lcb9ro9Wc+j1sAAAAAAJAbBItQsKbO0ze5jsqLGW7SJouWzrnpluHJfTPOg//T1K4WAF732MwNtnQ3LxM536fH4fC+oee06MnUIios+6ZmpuCZw72e1owUnus5bYrdWiBP4uuQZhye1BuyYdL551eY/MzF8rLjBCcytRrIfv8Mky/2De5OOXY4t/u6n/4vB8MEmTONH3Vw8zPyYmunNdbMfVbw4Fty94LpvuN9Rc/P/NZLwcshcXmRt88J6mcavy5ZxPODs57ueV7Hhf05Vx0buf7M73ELAAAAAAByg2ARCtO0Omu8hK7dr4W7WRc1XdCbg06wx/dpeecmu/eT5c4NtuA3LzO3KPC60Zg9103NdHen46Ktp3ODV7dG+t4T6V/pnn4PKvPNY9OiJinoFTydX36Fy8/sl5clcxM6c6uBbPfPMPkS8LMZj9Hg+r0cjOCBlw/k4OYfy/c2PSMv7tYtZoqlfO5dcp8VNEruli+b/MxvvRS8HNzHbRbbF3UfinR+8HpQwWvdzedceR69/szncQsAAAAAAHKFYBEK0CiZf8Mk0V0ONYUKEERNpwS8Oej19LpbifOkt+eT5RFusKX9Pq2vbtqZm4lBn6zPOH5F+vXM1XhE2ct8E9VbpnQh8zOjqOsZTODWMlnvn7nOF1MHKLlo0ZJZ35aDI3Tg5YwZU0cHCja9IK1dOmh0t8z3a2Lkyyc/+61e8hO1HHK7v0Q6P3g+qOBxXKSpY0PXnwPuuAUAAAAAAEEQLELBcQYWTxi/IYCo6bRMN/kc6W7aliz4ltxnBlP3DjqFv6EZf3Lct4VHH92sdm5MBuS0fAi7nmc69eDyIiMmTfXtKqtk2ijfv0VTLMWew9mM6h1E3/MmatR0Ssj8tGWxvCzF9/MMX571/hkqX8yYPDJJJk2zZqRw6gAdMP5toG4eg+i/crAFCbxMl7v1OEXmXYIz78jzu46qieTtiJ6f/VMvhS2HLPaXs532OEZz58tUe06qktT8jnR+8HpQwQRzMn0uav2Z3+MWAAAAAADkCsEiFBgzsHjrCwHH9HFETWcL9+R+sXx1nutGYcl0uXvparlPLb+11b555xl0SvNkuJ+M6+XcVMwwlklk5ZUyf1rvU+slalvnL65KuYEaeT1/d1ha9f8jbpD7lqrvdd3VtJelb7DeLzf63OwN68MP7fIpr65LXNa0KlWG91tdGGrJwb6o6VIEzM+cLS8SJzgxSea6ui4rmTY9YV20nO2fAfPl4BEd9ND58i252/V5fQxa+4quA9T6vP5C+ICxl/4tByM+Do5/4KVkQaWU63GKltr5klBMKm/uNq1nkkXNz3zXS1HLIfL+cuagHDOBpjuW6mW60+rg1LfkkSV3SU1K135auPOD14MKQedFrT/zfdwCAAAAAIDcuGD+wqrPzXRg57rsGxJu48bF5OTJNvNu6GH7hgbr6eu5Iq9v+rG8FuIuY9R0tuly96P6yfSj8uITjem71ZlWJ4+Yp8MTdVrLPjIlzXqYtF27nwk4/s4omb/0fvnqCP/1sre72BqzIkqQzJ+zbPM2SeLyslxP3zy1dbW+IE2b38nJTefesvbQpdb/aLHc4Vl+UdM5wuSnlu3ysuOUV7KclrslbL6ITF28Oh4cSGUfh7nLk/4tB0vAesOvzOLUcfRTj+MofH7motzDil4OkfeXkir55pIbfFvQdLXuUvVSUpApwvnBXr/E9bDnufM3TZ6Hrj/757gFAAAAAADZo2URCkdJldTom52tO71v3vmJms7htPgJMv7C7xrlRfN0uK1TWne/ID99wr7RF39i22M9PJ8MTytzV04ZnxCP7AN57eln5PWEbVWrom/Mbkq+EZjleqo8tcdVSVpW6y5rWT/JWaBIe0eeV8tK2C613NbmZ+SnTzea9fcqv6jpHGHyU8t2edk5s/15z/08sWu3XOyfYfNF5ODm1fLT5qPqM2aGpvPGdRzmTv+Wgxa03jiz/cfWcaTXNSFrnPX1OY7C52d/1EvRyyHy/nJmq/zkiWes48CdVAenXlfL/UlyoEgLfX7w6mLQzEvI3zR5Hrr+7J/jFgAAAAAAZI+WRQGxfYNf6tPUwURNBwADm9OCI9ctpgAAAAAAADDY0LIIhWFandVVUNfu18IFfKKmA4CBLj5e0VE5QqAIAAAAAACgoBEsQgEYJfP1AOxdu6Qp0Fg+jqjpAGAgUXXZ4jqZWmLeKiXTesfM6Tp6MIddMQIAAAAAAGAwIliEIa9kwd3WQNmtuzzGgEgjajoAGFCmzZevlk+SO5aslkcetV/3VduBIoLhAAAAAAAA0BizKCC2DwAwWOmWRDfecIOUWxEiRZ3HW4/ulN9uf4dgOAAAAAAAAAgWBcX2AQAAAAAAAACAoYhu6AAAAAAAAAAAAAoYwSIUBN1yCgAAAAAAAAAApCJYBAAAAAAAAAAAUMAIFgEAAAAAAAAAABQwgkUAAAAAAAAAAAAFjGARAAAAAAAAAABAASNYBAAAAAAAAAAAUMAIFgEAgMFj/BxZv2aRVJq3yWK19bL+gXLzDgAAAAAAAEEQLAKQY8VS/9AyaXzSvO7lpu2QMXqOrHfK1f16aI7EzEeQS+pYWqPy97l6qR9vZhW6uYtk/eMzpUxPp8mTshlV0kjACAAAAAAAIDCCRcCAVSQPVtXI21VTZLKZAwA2J5CU5rVmiAXxdIuiJROkTI7Lxodflp0nzPwkbVsaZNVL3SIzqmR9bbGZCwAAAAAAgHQIFgEAgjm9R1Z8d6PUxV9bpcX8CehbxVJ/v25R1C3Nj70sO81cPzpgtPGASNmtN9MqCwAAAAAAIACCRQAADDqd0vDwRqm7x+P12H5pN58aKmK1N0t1qUj7S69Ig0+LomQ7n9LBzOFSfT/dJAIAAAAAAGRCsAgYsIbJl4aZSQAoWOVSe+twkY79smFLp5kXRKts0d3Rlc6U2rlmVhDj58hK08Uf3dgBAAAAAIBCccH8hVWfm+nAznWl3qwZNy4mJ0+2mXdDD9s3uOVk+4rGyIOTJ8qC0mHxp9Tbejpk+7Gj8qP3z5s5RtEUaV5YLrGeVqnbeliOmNm99HhEC+TeYT3y7LZX5UdO8rHXS/PEUokFCRJ17JNr95wyb3pNHjtFlk4sl3nx7+iRto5jskp9NnU9sjS6XOq/ViHV1wy335/tlpZXX5FTNy2W6pH2LDm0VeqebTVvesUqFsnymyZImfM56Zb2Qy2y4Tet0nbazPJUrNLOVmkvV2nNcpX2s8dl76t7paElzM1kP+Wy8skqqTDv0mlp2CjrctQXW+yWelm7UKT5hw3SoPPA5O9slb/WgP5Ku8rPDSo/U/Zmr8+qPGn62cuyMyU/i6X+IVVGsl9WfX+Plbb2HyqkwslPU47rMualyaez9vf4HWGV9y6TZddkyiuzTiOPy8bvZu5mLIhYrcrPW1V+PqbyU7dGGa/yqEbl0QxXHh1Q+fmUR356fbZD5ecz/mPlWHzS7f2l2jd3++Wn2qfnqn36NnU8lNpz2g/sl6YmVTY1Ku9m6K7XzDYEocf2eXymlHWocnnYq1yKpbJ2ttTM7F2edfwdUMdfk8qLNMuJzZ0jtbfNlIrkdF55qMt0jdnPrPVQy33gZqlJyP/9Kq3/vmOZu0gal0yQ9pc2y4pQwSLFyQtVznVqHYOofEDnuXljdXsXIu8BAAAAAAAGKVoWARkVyYNzbpK3F86Se12BIi02rFTunbVANow1M3IgUKDIkw5A1UjjLHegSFPrXDpLGu+8SR4sMrNyYfQcWf/tqt5AkTZyuFTUuwJFnspl5UPLZG29O1CkDZeya6pk7bfrZWWFz9P8eplPLjZpXctVykZOkGq17PX3lg+JLqd04KjR5K9zY13T08k31n0/q/Jk2beXyfpbfPJT5WHtvfUqz6t6A0WaKcdGlZe5sPM3drdoFTel6Q5s9NUyW+8Ph97LSaAomQ4cNT6u8sgVqNA889Pvs6UqPx/3a21SLPUP+KerXrJYVnq2brEDKmuXuAM3Ks2MmWpZ9VIzyszIGXX8qeUtuzVxedbxN0Mdf2qZK/22b406bpe4A0WaSfdcvf/YQKXDZdx4s9zkvFHbuXZN+m7iKmdNUP92y963IgSCT7wrezvU/zOukkp7DgAAAAAAADzQsiggtm9wy2r7xl4vb88qtVoR/cveo/KL804zoCK5fcoseWKijsx0yKM/f1N+Yf8hesuiBGNkw52zZJ7vdySaPOUmabTWpUd27Nsny53WTrpF1OxZaln6TdJ6Rha85U1iyyKn9Yh566u7t3WNwwpO6QHu08tlS598s1sWDZeWQ8el4poJImePy8af7ZWdp506t1hiozsTW15VLJLGevtmesu2Ftnyq94WHlbrLR1YS8nPxHJoP7Rfmn6zx7RAKpbKW26WZWo9tPT5GaxlkZapdZH9d49yz4Ldskjl5wGVnzNUHnWo/HxG5ecJV36OV/npbjViWrFY+fmSys8trvxUf1uugzo6P5NbmzitX6zWR4nLqKxV+am7URO1/HsSW031tmJRy9v0iqwzrY9i48ul9n6Vt1ZgJmTrljQti5w8sfPC3Uqqt3WT7E9twRNPl7SeVksqtZ56PKHU7bMDYfbfNLUdKq3Twkrnpw6SaS2b1H6x25pM4nxHat4FZa+7q4VZJrobuvvtoFik1kwAAAAAAACDEC2LgEzef1PqtjVJ9dY3XYEi7bz84vCr8qh+al0ulaty2WonrKIpstYEinTwKR4o0s6fkh9t3S7P9ug3pfKPU7Jf0dgtFYmBokNbZdV3N0rddzfLxm3dZqaHitmJgaJ4uo2yquG4a1D+4VL9D+7WBsVS/w+JgSLdHZuTVi/XSq/mDdZAkZsOFLVv2yx133/ZFSjSkgJFOl9uMjfbGxpknStQpLW1vCwrVL7o/Jx9rXfrIr2cFc86gSKtU3b+qkFWmXKsmJ7j1kWe31cu11+j/jt7XN7IUaDITQeK9E3/uod1cCQpPxOCByo/dbBEadmk8tMVKNLadqv83GTy87qk/FR/W/XYRlnhsYydWxpk4wE9fbmMdre+GT9HakygSAcy4gEYpe1Eq6x7eLM0W/VL7rXv1wEt88ai8kJv38NqG5KDI2o9l5tAUfJ6ilrPhvh6TpAavzF+dHDqnoaErvj08ux8UTVTmU86uULG6GBTR7ectGdENFzGjDGTmZzYo/Je1Sv3eOQFAAAAAADAEEWwCAjgSLwxUZHcPnaKbJhzkzRX3SRv31kjT1hPzQ+TL11mfaJ/XGa6x+s45tNK6bz86Jh91zlWNlomW1PRjSuxW53YjsvG+Bg6OtDwijSftd6kqJxu34i3udPZgY2mQ+aNNnKCfGW0mXa6KHMc2iorEsbt6bQDI/EWTIOc3r5fBbhJ7eTL2f2yxS9I1vKe6D+VTb3ao6uvbtn7tvdy2t42wbsrr0jbRVhgp9+VvXq/uKZC6p1ydVRcZQUf2w++mxCcyZkDKj+D3PQfr/LTCkyo/PRs5aLsNvk5MzU/44Gn8cVSOXeOrHygXtavqZfG55zWQ0kBizGmS7YDLXkbE6ftLbtcy269WVbWlkvMr+s4t4zr2SkNv9RBNO98sYJMuhWTeed2sj1NcDlH2to/MlMAAAAAAADwQ7AICGCyDhBV1cjbCxfIE3pMID120bCEgYH61eRhl1r/t31sNR/ypv5m3YhX6321NSOqYhl9pZnUzgZ94j9zup3v2DecU4xKHOek5Z0hEhTy0X7mnJnKwMmXkTNl7ZPLpNHzFbC7QD8jh8s4M5mdTml41auVk9M66rg0BQmQRdDeHjA/naBIqcrP51Teeb788zOmA0Rr1GceXyzL9Ng+enyeUndgNVGs7HLr/8Drlwsn9siKx/ZLS8dwqbhVj1FktmuNHqvIO3gUaD1PddvBRT0+kTUDAAAAAAAAgwnBIiCTsddLow4QWb28dciOY/vk0W3bpU69rv15k+mGDkOLHotnmUfgJfW1MqtITIFp2Wu1OitbOFsqzax466hD70Uaj2bAsMbfsce50V2utby0VTY+tllWqZfuzszpbm1AcLpZU+u28SW1rh3d0l7aGzxa/0B5blqTDRBOsAsAAAAAAAD+CBYBaY2RDbP03d8eeXbfdrl265uy/PApa+yiIwnjF/WhEC2BYpelae3kdFXX0yPvWjNyJHDLk045/aGZ1DzSJXZT5/KBabVg5GocnUHPyZdDW83YTWle398Tros3p9VS4JZjQXTKGwd1t2MT5HoTZItdO0Etp1uafzMAWos5rWMOqPy8R+VZutfD7vwsl5VL9L6rtmOTPTaSHu9Ij13UljB+kbeysivMVJ6pddu5Ra3rww2yQm/TY1ulpUOtz4wqWe4x9lDa9XRaZWU9tlCyc3JKB+SzbrHULadOmUkAAAAAAACkIFgEBNHTIb9+3ys4VCRXmakE5z8Wa2gPn0DP5Cmz5N7AvdhdKlcVmUkfR0532DeuSyfKg56fLZIHJ1qDK0lb+2k5Yk1F5dzwd0yQmluclgjFUnnvzVLtHl/IJbGbuQmy7N7eFgyxikVSc415o509Lm+cNtPOeDeOa6pkvSutXq5Ov/7J+tTxcCJplXVeAReP1zq/sYLyId04QAGNGWUmEjhdwwUcRyhEV3Vtv2qxxvypuGmOKr9i+crU4Yllnc7oObLyIbtF1/pbUoMZWTuh8lMHJmao/Awylk+yDrUdu72CQ8XiVTzO+EEy46rellZu46+QMfZhmyI2V+3vD3gHTWPX6QCc8sG5lLKLzU3TauiE2u+dsYdcgaHe9fTLF7W/3Gb2l/25HneqU05/oP+/XEZHKRO9j83UXQF+JKcDjwtVbncn+JzdygoAAAAAAKAQECwCghhWLmunjJHJ5q0Ovkwee700Vy2Qez1v5vbIH6zhg0rliTmudEVF8uCcm6RxYpBI0Sl5xeribpjcO3uK3O4OAqnvuX2sa8b5w/IvzmcX3iQb3H8rGiMP6vW0Ftkh/3I4+xZRbW+bm8dG2cIqM2bOYll2jf8YLU43ZHHXOOmWydp6c4Pb0i3NP3O33HDGu+lV5kqrl2unHy7VXyukm7u94wBVf7teVuqgXUJUolgqb9FBtEXewQiVrqLepDNzZHS51D+02AT8Mo0jdE5OWeXpDhgq6jsqfYNXrbJlW7fIyAnylVvsLugCBaSUyq/NlAoTiCxbeHOOAoNuKj+tYInKz8e9xvBR+Vmr8vM5n/wsnSnLdRrzVn/eCuqsUfk5w8xyc4JTOnC6Rn2na1lWusf9xkcqlq/cpvb3GVWy/oE5KemW32ofgy37klprjZ8jy5eo4+a5erurufGJAbfYeKeFVNL4RCf2SJPVjZ7Jl7mudCpNvd4+qx5U+8uW3I87tXOfXSazr4sQIByv9jG9bgeCd3MYq62wuxNUyqIGDgEAAAAAAAaZC+YvrPrcTAd2riv1ZtC4cTE5eTK3zxMPJGzf4JbN9k2ekia409Mhj7aLPDGxVHbsa5Ll75v52tjr5W2rC7tUbce2y79ctkCeKO2RZ7e9Kj/yi98UTZHmhe6bz25q2T9/U35h3ukAVm9QyEuGZYVVsUga6727jWvX49I4rYt0F2nPum9al8vKh6riN/1TdUtLwyuyriW1ntGth5YnBJVStavlbVDLG4x7c+yWelm7cLi0b9ssK9IGaRI56XydPS7NP3tZGuKtd4rjAaGEskrQLc0/bHCl8ea77JRyd9NjQjmBkOOy8bsvB7qRX3nvMlkWb32Wef1itWrdblX5+ZLKzxBBDCedrw6Vn8+o/HS1VEmbRn1+436RZbdOkJZNG2XdbjNfGz9H1j8+03uf1mMffTBBKmaobX1MbWtCyxjd+kXloXcVI+0HtsqKp1LzPzZ3jtTeZsZW8tOxX1YldLOnqX0mHhTy4rWOThqvv9mClZHa1ufUtnquV3rO96fkexrJZRl2/wEAAAAAABiMaFkEZHDk8KtSt69D2qyWQkZPR3wMo1+457u9/6Znuke3NUn14fPy7sd+CV3OH5bqbftkR0/iZ9us5R91BYq08/KjrU1qma3q82aWpUfaOvZJ3c9zGCjSWl6Wuh/ul5azri7pdFCiYbOsSGoFlKhV1n1/o6xqOG4FKnp1W4GeVT9s8AwUaW1qmSt+uFk2bvNKu182/nCjrBikgaJstP2qQZXFVmk+lDi2kx5vqGWbytPvuwNFbt2y92epZWHnZeZAkaaXvUqXh3lv0fvBO66WKSla5c1DZvJQ8BYfO3+j9zd7un3bK4HWL4q2LSo/H1P5eSApPztUfr6k8vPhxECRptOs2qTywWopZOigkhnDaGfCF7mc2CMrzLJ69S5nS7t7vps6jh5Wx8JLSXmv11Et0ytQpLXt3qPSqTLfpPJSfdat3ayvd0CmUxri6cwsi8qjA2pd7/EOBuVGq2x5Sa2r1XIrTOuicqnVQZ+O/bIlYKBIa9vSkrSNAAAAAAAAQx8tiwJi+wa3ob59QDhOy6JgrYf6gt1KqP+Wj8EmcyulZJUPqH3Ms1VWQHMXSeOSCbQsAgAAAAAABYGWRQCA/Bo9R2p0d3Jnj8sbBIoQSKc0PLNf2q1xk/zG4Oqlu5JbNkN3IfdK5BZPsbLL1b/dsvctAkUAAAAAAGDoI1gEAMibWMUcWf9te4yellfDjT+DAqe77NNd/ckEWbbGP2AUH3NIj9sUtUXQ+Dmy3PqOlj7sXg8AAAAAAGDgIFgEAOhbo+fI+ieXSaN6ra23A0V6fKp1LfafgcB2vywrHtMtjJTx1hxPehylOp9xm9IrlljtIln/uNpPO47LxkjfAQAAAAAAMPgQLAIA9K1Rw60AkeVst7Q0bJYVz3ITHhHpFkYPvyw7fVr8tG1pkBWRgzxXSO2tE6xWSav0MsxcAAAAAACAoe6C+QurPjfTgZ3rSu3WZdy4mJw8OXQ7FGL7Brehvn0AAAAAAAAAAERFyyIAAAAAAAAAAIACRrAIAAAAAAAAAACggBEsQkGgCzoAAAAAAAAAALwRLAIAAAAAAAAAAChgBIsAAAAAAAAAAAAKGMEiAAAAAAAAAACAAkawCAAAAAAAAAAAoIARLAIAAAAAAAAAAChgBIsAAAAAAAAAAAAKGMEiAAAAAAAAAACAAkawCAAAAAAAAAAAoIARLAIAAAAAAAAAAChgBIsAAAAAAAAAAAAKGMEiAAAAAAAAAACAAkawCAAAAAAAAAAAoIARLAIAAAAAAAAAAChgBIsAAAAAAAAAAAAKGMEiAAAAAAAAAACAAkawCAAAAAAAAAAAoIARLAIAAAAAAAAAAChgBIsAAAAAAAAAAAAKGMEiAAAAAAAAAACAAkawCAAAAAAAAAAAoIARLAIAAAAAAAAAAChgBIsAAAAAAAAAAAAKGMEiAAAAAAAAAACAAkawCAAAAAAAAAAAoIARLAIAAAAAAAAAAChgBIsAAAAAAAAAAAAKGMEiAAAAAAAAAACAAkawCAAAAAAAAAAAoIARLAIAAAAAAAAAAChgBIsAAAAAAAAAAAAKGMEiAAAAAAAAAACAAkawCAAAAAAAAAAAoIARLAIAAAAAAAAAAChgBIsAAAAAAAAAAAAKGMEiAAAAAAAAAACAAkawCAAAAAAAAAAAoIBdMH9h1edmOrBzXZ1mqte4cTE5ebLNvBt62L5CMV3ufvQuKe/aJT99equcMXMzi5oOfkoWfEvum1ssrc2r5fnfmZkYUqYu/pbcUV4sXa0vyE82v2PmwjZK5i+9X746olMdA8+rY+ADMx8ACtPAuC5w6uaj8uITjXLQzC140+rkkepJ5k2vIX0NVzJd5s+rlInqOmaEmdXVukuaNvM7AJnxOye6Iff7YdDUn7k8//E7B4NHn9fXXE8Ewnkzv2hZBLiULKiUcumU118IVzF7pdOV2SOPrg7+WlolJSYtRsnkScXq/07pPGvPQd+y99c6mWre97mSKpmrLoi0ESNG9vm+n/fty9a0+eoHlJ4olvLJI61ZQH9wzmV3TzMzUugf/Po8NoiOrxwbdPXLoNR31wXhym+kFOu6uatTPrRnQCkpts/niY7K0SEbKKqSby65S77qurGjjSi/Qe5bSl0wFOW2nud3TuT8zPPvh3wYPPVnDs9/A/x3zlC/ruO6NYw+rq+5ngiI82a+ESwCHKqirpmrKqDWnfJaqEhRxHTJus7y5ECcczF6VI6QKXlgTr75vPl15qAc69ITndJ69GAf7/v9sH3ZOtspVvao/Hl9B62u0H+uvDLDhXnJVJmYq5sHg9IgrF8Gpb66LghZfiUj7R/zXLMlOLP9x/K9J1ab1zPyuj6BDdljYpTMv+sGaz/QLRt+Gt/u1fLT5qPqmuY1WpwNObmu5wv9d04W+ZnX3w/5MWjqz1ye/wb075yhfl3HdWs4fVlfcz0RHPcH841gEWBMnacr6qPyYsjm7H7pEi/8TKW/2+7CUTedTP7b9+iGqxc3Y/LMOfnmM78/kNee1vv+j+X57X3d9UB/bF+WzmyVn1h1w4+zC0IDWRmV+cJ8pHkSrmDr60FYvwxGfXZdEK78SqZMstaj9QjXbP6G+DHhBMhNF1jubTzzu8Y8XNMg/3K8Txf875xs8jOfvx/6w8CtP3N6/hvQv3OG+DlsyG9fjvVlfc31RHDcH8w7gkWANq1O7ihXdc/ukNH7kOkyPqENm7n52PUhGZUX06aI2o2H7s2vob59KFy66wKrK9Nvyfy+6Isl3mrI/8Lc6T6lYOtr6pf86KvrgpDlx3VcAEP8mCBgWIByvU8Hqc+int/7+rogFzhv+hvAeVMw57+hvn9y/IXTh/eluJ4IgfuDeXfB/IVVn5vpwM512a0j3MaNi8nJk23m3dDD9g1lZoBF2SU/fTrMWEVh002Xux+9S52cMwwKqS/yl9wgI1pf8GltZJbrM7ik7oP2vrkir28yT+qUqOXeVSnlI+wbevoJ8RdfUOniK2y+r8tZ3iiZumC+zJ1rn7w03Sy2Kelph+yp5Sy+2+p3unc5u2T3jq3y4ZQ0g9eVqHTzEtPpbXp912vyWobBMUtUXkwOOnhgpHJw5eUOsQYq1P3PWuun8vw1tQ+kzPPI1JJpdVJzg8r/+AZ2SuvunfLb7V5lEKX81D6x1LVPpJVhfw3KZ/BW6cp0/PTT9mWxn4U1dfFqK+jspWv3M/KTNE8VlUyrkhvVvtK7rZ0qP45ax1HvMe4h9PYNvHri4Ei9TxX31nUu4etBW9R04dbTq+7wkLEOUutmnVNsmfaVSMxx6//dzrZ0epZDf+RLuPozisFVv2jR9+uo+RntuE2XLu11QSjZlF/yPqrWN2Q92Pf7Zy6Oo6jlZ0vZ3/xkeb2r9X1+akH3Ge/1jHz8haonTF5lef0ZTdj9xbWuVrmHP46iCHe9lIN6Pk2+ZK7P1PIjnd8jpMvyetDO1xtUXtl/7VJpd6fsz1nkp7kOSZHx94OR9+td/3LPaf2Zraj5YurjDwOVuy2b3zla1Ho++O/+XBzv0UQ+PyjB8yWL7cvyPB1++7I/P+T6ujV3159a0LLIVX4aQ+B6YkDcHywwtCwCzACLrbtCVghh0zlNJ1sPp7/AyBg1d5oOe/czG3/qR62UPqE8skT9aHCfkHRa9wqbJ8et5ekLgkfvlztcJ2RtRPldUrNglHmXA85y3BW6ogfyu2NJndyo+9FVJ8nkgT31yf+bS1LTyYhJ8tXq++WbvuuoTzzqBOM3eKDX03eRysHMkylyt1mWRa3fxHl63RPnfXXedHs6Tl9ArJb71I+i3gscrVjK594l9y2tSh3INUr56X0x0AWjkqP+jL0Hb1Vfn6m/8X7Yvuj7WRSmmy8fXZ1pLnDUet5XrX+oubdVrbN1HH1L7p7mvZ6Rtm/A1RNq+ybrmwd2XZcsdD1oREoXej0/kCNH9UM3xVLs+9SvulC3+rBWF/2eP84U55zSh+zjtlOOHfbbD506z6Mc+jRfvPq4j1B/RjGo6hdbtOMhYn5GPW7TpvO/Lggtq/Jznfed9Q1cD+Zp/8z2OIpafi7u/S2trK5385WfSph9xkOU4y98PZHt9WdEUfaX/rieCHu9lGU9n3V9FvX8HjJdVteDap+br39bWflq/qaMUGl1nib8rsoiPyP/flDyfr2bz/ozC9GuQ0wd09opxVbdG6DcLVn8zolcz4f83Z/t8Z6FvFyfZbN9g+q+VF9ct+bw+lMLUxYeCvd6YoDcHywwtCwKiO0bqtRJRT+BFfTppLgI6VRFlv4JbZuu+NM+vaAr0jRPg1pPAujWTruKrZOl9fTFjnfkjLWSqlKcJnLQHWF31ksf1+pkM8J6IuE1OXhGf0ZXorryVZO+T5SEZfJOT6r8e/GF3if6dGVfo0/w+k1y3pr11BKfKBml8my+yjP7Ajz1SSyTJ9aXdqp8fV5+q7bfSRt/WiVpeZHKwZmnp9X8n+p1dK13yryEPHXyxTz9ctgpM6Vkusy/S53I1BenrE/W5Rf1GMiSWe+MT+nke/tc5RVuP8st+ym8dMtx9mt7n34+fkyr9Zw23xxHHumjbl/W5RBWxHrCEqEetERJl1195ns+yPR3Q1/k6ovjxLLMnXRPgyZIKYd854uzvJD1Z9YGQ/2SzX4dNj8jlnvkdNkKWX7mHK9vivTWg84TnOnqwaj5GVHWx5ESuRzMd6TkQaro17t5zs8EIfeZKMefKR8tcD2R1fVnVBH3F7MO+bueiHi9FBe2zCPmS5Ko5/fA6Vz7R+D9THOl039P+F2ljr+71fFnBRF8yy9sfiYxy894fGe5feH3z1yUu/kO37zLgaj54q5jIpV7osy/c5z8DFvPO8e7nk5aT11+ahu9fvf3ynL/DCWf12eOcNs3eO5LRc0XJ50S+biNKuy+xvVESjlE2T5LtvVEYaBlEQpayYJK66TyuqqQwlQCUdLFx3VI+wSN64kB3wc41IlT/ef9hIfzJMAkVanqE/sz9mB58ZX8IOmCo3e9rKccdj8j33ta3/hwPqM+v2OXdJl3uTB1sTkR6BOLqnydE4GmB/L7SfNRe3kJY2SoE4g5EeiTfOIAgKpi394oP92tLiqkWCZOSXx6oGTB3faJQFf2ejDU+IlAU9un0v5k0wvWScm1KtHKwcyzluWs49lOsz2ueYY7rZ0v6oJIncye182k3R8884689oJdDiOKk7Yv2/JznkLM82CBTosF3/w18rt90fez3HKewrOfHEpLXUTri5teaj31cfTEM9a+lHhhlMVxNADrCYtnuYavB23h00Vez98dllb134grR9rvE5hyUnVGU5pAkXZw84/le08kl2WupH8aNEHS9kXOF1NfeueLurC/wTtfotafWRsU9UvU/Tp8fkYt9yDprPolUD6HEPL85/Qtn1gP2n9LVw/mff/M6jhSItW7hslT/6eQe0W93s17frqFvmYKe/xFrCeyuP6MKur+ku/ribhQ10suIcs8V/VZ1PN7sHTZXw9a+1Xy7yp1/D1vjj8ZMdLnKf6wx1CiYL8f8n+9m+/6M5os8sWc/yKXe4LMv3Oi1vNRf/fHZbl/hpO/67O4kNs3WO5LRc2XXNXXkYTe1wr7eiK1HLKoz7KtJwoEwSIUrpIqqZmrTkStO/1/IHiJmC7jydZiLp7UD5ojPt891WrCrj7iFXRyTjrqBNvVbFd8mdjrpStZdcJJc2MyJxeuKu/m6jOBOdH4sbLAtTw7OKfmqYsGv6fIzhy2TyKJN0emy426rPTFgzrx+BaXuohwn5SiloNzgZPQNaE54brnOZ/rTTtdJllnSN2EXw9K6/GKP82VKOvyc9YvrwMrjpLJuilxmvx15HP7ou9nuWYuBrvSdXXwgXRaK3KD1CyeLiUpv8zUhU5S3mazfQOxntA8yzVCPWgJmy6r9Txryi/1R7VTTqG7Rs010xWEdeH+xGrPl30RnlTu2eTLmYNyzDdf7Av71HyJXn9mbTDUL6GPh4j5GbXcI14X5ETI819vPah+lAauB/th/4xyHGVb7zpMnmZ6MCr69W4/Hu+as31B98WQx1/UeiL69WdEWewveb2esIS/XkoQpp7oz/oshOyvB9M8MHnmrJXOV8h6N1Gw3w95v97Ne/0ZTb+We4JMv3Oi1vNRf/e7ZLV/hpSv6zO3UNs3WO5L9e11q5UFfVFfO8d70O8u8OuJ5LyKXp/loJ4oEASLULCmztMnDVVJZLioSxYtnXMS83+CxuLcnPN9wsD1JI7XecU56aSpNBM536f7//Su6J0niXJx4Rr/rjT9THudeJwLVP9xM3w4J9VM40Qli1gOznq659kXUV6fc/W5Om2KdbILL/vy81q/vuf8SMj0JE1+ty/yfpZrZr/N1B/7wc3PyIutnVbfzfdZF8ffkrsXTPd9oi/69g3UesKnXEPXg0bIdNmtp3PzapJMdheYumC2H0Z4Idy694UAP2K89qnc5EuxXGnPMMyFvVe+RK4/szco6pewx0PE/Ixa7sHTqc/koH5xC3f+c9eD1owU8W1xr2e/7J/hj6Psjttedp7651Fc1OvdfjzeNWefCXwchzz+otYTTjp3Xnnt3/bnApRPBtH3l/xeTzjCXi+5hakn+rM+CyP6+ch1XPptYAbh6t1kwX4/ZL994fbPvNefEfVnuSfI9Dsnaj0f9Xe/S3b7Z0h5uj5zC7V9g+W+VJ9ftyYtL0ecsuB6Ilo5RK7PclBPFAqCRShM0+qs/k67dr8WrpKImi5opeScBHxvzjkXyd5PeIQ+6QRoweB1wogqc6VunhhLOPEEvED1yruM+ekjUjl4BQS91t18zpXnzglQP63s9fS++5X4lE225Zfji/+gzEVd5qea8rl9WexnOeZ5IezpA7u7kU3PyIu79ZMzZgBP6yZIcvcD2WzfQK0nvLclfD1oC5su2/U8eER3SVIsxfGHnUaJPeh8+IcY+kLmH0je+1S2+fLhh7q10iSZNM1+r9ndE3SmDsavRK8/szU46pew+3XU/Ixa7sHT5foGWpjy06LVg/21f4Y9jrI9bm0mT9PkUVyk66z+PN61sPtM2OMvaj0R/fozquj7S36vJ3qFuV5yC1fm/VefhRF1P9NM+aX7Pev85vW8wRz+GEoQ6PdDDrYv5P6Z9/ozkv4s90SZfudErucznlcyyXL/DClf12e9Qm5fxvz0Pk87wv8ei3b89f11a1/U1+H3Na4n+vn+YAEiWIQC5N9fe3pR0ykBKyXnZOd78eQ8OZGrC/C036dF+M6sZL5I8GbKRsl8gz2zSOXgGRD0uLhOczEdun/9rMsvwMV/H7DzV61TpnP0gNu+3O5nfrwuhNM6Y/rW1RfCm16Q1i59E+RumR/kkdkEPts3qOqJqOvSF9uQoT5zxhVxjvtp863uoUI/jNBHMu+HGbbPV/p0Zzrtru3i+WK6J+ja/Xzarl9D159ZGwz1S/T9Ovf52Tf7S3Qhyy/jjbD0eZ3v/TPqceQvSDk4n/HLo17ZXe/2x/Guhd0X++K84lFP5OD6M/d88qq/rydCXy955GNWwu5D/SX99WC637N2DxwqyzwDOtnlZ+DfDxnl+3o3SLk7n8nH8enHJ19M3RG93BMF/Z0z+K/r0umP67Nw2zfY7kvlfn8JctxGFfa7++LcOMivJzLyqc8QGMEiFBz/cQ/Si5pOy3SydaS7eCpZ8C25zwzi5n2xFr4iddbL/8KuL06S7ifp3Ub1Dm6XcOIx3akkPSHr5h6k7rfuJz+cm7Fz58tUe06qktRuKCKVg1dA0OtHlcfn4jd1Jk317RKjZNqo1LEHsi0/50SfZ/H8zXAg5Xf7stjPcirIxeB0uVv3u2/eJTjzjjy/K7nFihZ9+wZHPeGIui5R00VdT8WMK2If9+aCNvDDCGofWGr3w/3NtE9FRxVgP0z7QyGLfPndYWlV/9n9S6t8Ma2tdvvkS9T6M2uDon4Jv19nl59Ryz2L/SWqkOc/50nosPVgv+2fIY8jW5blEOBGsiPq9W6/5aeWts7zEvb4i1hPZHH9mZ3w+0v+ryeiXC+5hKwnbNnWZ1HP70HTZX896Pt71vTA4fskfqT87BXs90N/Xe/mr/6MJot8Mec/PyWZyj1B5uvLyPV8xN/9cVnun+Hk+/pMCbl9g+W+VP9ct2aJ64kkYcshen2WdT1h6evf4QMDwSIUmDTjHqQVNZ0t3ck2VbF8dZ6rglKVla6M7lPLb221T4aeF+mhTzoB1ss5OaTpQzQMu1sUkfLqOpnqqoFLplWpbbzfXGiq5SWdeOzumnS6b8nd6mQfp/Jm/mJ1saLLRm1HyqCbziDP6kRyx1K9THdaffL5ljyy5C6p8azkw5WD1w+ooPOcmzp68N37llYl5o2zjdX3y41JJ8OclV95pcx35au9TLUe5n1uOT8SJslcV76XTJuesN1avrcv8n6WS/H+of0vBq0BHXW/+0vt9UzINr2fmqdokkXdvsFST1gi1IOWCOmyWk+LudAdUSyTzQVt0IcRrAtna4XT/ziKLvOPkng3Iknbl32+nDX5MlKlsVtbtTY3+j8FGbH+zJmBXL9EOR4i5mfUcs9+f8lSwPKLXA/22/4Z7jjKZTnoOin+Hfpay72/J4hwvduPx3vmgGGSCMdflHoiq+vPiKLuL/m+noh6vZQiYD2Ri+Mo6vk9TLrsrgd1On2DzH0zzfymMjeP056ztUi/O4L/fsj39W7/1J/hZVvuI+be71nuTtAgY7lrAX7nRK7ns/rd7xJp/wwpj9dnKUJt3yC4L5Xn69Zc4HqiV9RyiFqf5aKe6Pvf4QPDBfMXVn1upgM7pyr3ZOPGxeTkyTbzbuhh+4aGEv0UxFyR1zf9OFQ3HFHT2dRJ9VEdET8qLz6R4SJqWl38QjuRqujUso9MSbMeJq0e9C5YP+2jZL6qgL86wn+97O1WFwPNqyMFyVI5eeGhS63H0WK5w2f7pi5eHT9ZpLLzx7NsSqrkm0vspvFeulp3SdPmpJNIhHKw1y9xPex57vxNk+e+y7R1tb6g1vMd13rmovyc7zBvk+Su3BM565UscXn9s32R97NcCXgc++VhnNpffpqwv9jCb18uyiGs6PVE+HrQiJQui/U0EspRldn3Ao1VlLRfB04XQoD8cPal1HLPPl+c+rSrSz+5tkt++nRSHZ0sdP2ZC4OgfsnyePDjnZ9Ryz37/SWaMOWXZT3YL/tn2OMoF+Xg8x1dHsv2zRP/66y4fs7PwPtixOMvbD3htV72PPf+mnkfDifK/pLlcRRR1OslW9h6PtvjKGl5at366rog7H4WX4b6mx7zaYRPnqTf38PmZyK/svRKF3n7Iu2fea4/sxC93I9Kq0yK3yBN1Kny5HmVJwHquaD1YtR6Psrv/rjs9s9QIp4fsjv/hdw+32XZ+8mAui8VKV9ycdxG43XeTivi/hL2ePdaL3ueu1wyl1U40cshfH1m5LKeCHyeHnxoWYTCoSqFGn2B2bozWKXsiJrO4TwJEKR/2N81yovmKQ2buvjarX7EPGFXdPEnLjzWI3yEP/OT4xmf8AjtHXl+0wvyunsb1fJbm59RF8KNZj28t+/g5tXy0+aj0mU9CWDotK788XRmq/zkiWesfHUn1Sef19Vyf+J1IghdDl5N6s28hPxNk+dqmXb/6YnBeH2yenHTarWeyRc4uSi/D+S1p59JLA+lS5+Y1TJzdkGc5Mz25z3zN6GJcD9tX+T9LEeCHsdntuuBmu1jKWFV9brq48nnh0L47Rtc9UTUJ52ipYu+no4zh/VA25raJwNfaKr9epdJp/dlj8Hqs5U5P5w6z6vLkezzxX5aTN+MUhf6yU+EeQldf+bCwK9foh4P0fIzarlnv79EE6b8sqwH+2X/DHsc5aIc9HfsUttp3io6P1/f5dFKJPR1lku/5KfXdV56UY+/cPVEDq4/I4myv/TH9UT06yVb2Ho+2+Mo6vk9fLro14M75ScqT5J/V8WPv7Q3MsOfN92C/X6w5fd6N8/1Zxai5kvX0dfk+ZRyV9NWuf9YlV2wei5wvRi1no/yuz8uu/0zjPxenzlCbl8W5+nw25fl+SFSvuTiuI2C64lE0cshfH1mZFtP9PHv8IGClkUBsX2DX2pUPJio6QAgHOdJlTRPwmBoMU82SdgnCwEAAPKF6xVkjd85ADBY0LIIhWGaPfBi1+7XwgV8oqYDgLDi/XgflSP8gBr6dL/fugl81y5p4sYLAAAYoOLjFIZtCQE4+J0DAIMGwSIUgFEyXw9gGvqGXNR0AJCOqlsWpw7i6PSdm6uBnTHAuAbQtMtb988csJs1AACAftIXXQRiqOJ3DgAMdnRDFxDbN3ilHQwvjajpACCtdINw5nggWwwUTtcb5q3B+QUAAAxszjUM3bIjAH7nAMCg94XYhC+tNtOB/elPfzRTvYqKLpfz5z8y74Yetm/w+rTtLfntztfkcMgnoaKmA4C0zh6U1u4L5dIrx8mIi808PRjjgf+Qpi1v8ANqSLpUYrNnyVhT3now2a0/+7G89gf7PQAAwMD0JZn13ybLCHXtsmvfH+RTMxfwxO8cABj0aFkUENsHAAAAAAAAAACGIsYsAgAAAAAAAAAAKGAEi1AQdMspAAAAAAAAAACQimARAAAAAAAAAABAASNYBAAAAAAAAAAAUMAIFgEAAAAAAAAAABQwgkUAAAAAAAAAAAAFjGARAAAAAAAAAABAASNYBAAAkGvj58j6NYuk0rxNFqutl/UPlJt3GHAoPwAAAABAgSFYBABAnyqW+oeWSeOT9VI/2syCP32T/jmVX8mvNXMkZj4y4M1dJOsfnyllenq8NcdT2YwqaSTgMPBQfgAAAACAAkSwCAho8tgpsqHqJnn7zhrzukk2TBkjk83fUxXJg1XOZ31eVVPSpB9EiqZIs9mm5ilFZiYAFCAd7FoyQcrkuGx8+GXZecLMT9K2pUFWvdQtMqNK1tcWm7nod5QfAAAAAKBAESwCArh9zk3SOKtc5g0bZuZow2TexFnSWHW93G7mFKrJo0vjT/zHykYPjQAYgP5xYo+suGej1MVfW6XF/GngK5b6+3WLlG5pfuxl2Wnm+tEBh40HRMpuvVnq07RgQb5QfgAAAACAwkWwCMhg8pSb5IlSHSTqkR3Htkvdz5vkWv3atk929KjZw0rlCc8WQuflR1vNZ5Nf21qlzXxq8CuSr5ep/OlplWePqQxR+fF1GhcBKECx2pululSk/aVXpMGnRUqynU/pYNhwqb5/EHWzN0RRfgAAAACAQkawCEhrjCydaLcm2rHvVVl++Lwcsd4p50/J8q37ZIeeHlYuS8dacwtP0WhZoLKorf20/Oh0h7TJMFkwmmgRgEJTLrW3Dhfp2C8btnSaeUG0yhbdnVnpTKmda2ahH+S5/MbPkZVr7PG46MYOAAAAADAQXDB/YdXnZjqwc12pP6LHjYvJyZNDp61EMrZvcIu8fWOvl7dnlVqtZuq2Hu4NFLk5n+nYJ9fuOWVmZqDH+FlYLjHf7y2S26dMkn8sK5VYvOe7HmnrOCarjpySI+fNLA96bKWlE3WXeWaGk06tm9dyHqxaIPeKsx5quXNmyT+WDos/Id3W0arS+my7ZrZ/x74mWf7+GNlw5yyZly6/FN1aq3GiyLPbXpUf6W0pGiMPTp4oCxKWuy9lnaOms3h9tqdDth87Kj96PzFDb59TI0+oIrW3ycxMYfJuWIc8+vM35RdmbnaKpfKW2VIz9XIpGznczBNpP3tc9r66VxpaPG5gjp4j679tBmI/tFXqnm1VE+Z7FupxNwz1HRt/9rLsPG3eR01nCbOe5bLyySqpMO/at22WFb9K3o5iqX9osVSPtN95fyaMxGWm09KwUdblrI+zYolVzJblN6n8c7bl0H5p+s0eka8tk2XXdEvzDxukISEvbbGKOVJ700ypMOlEulXaFtmgyiV9zeUs010WQdMGE6utl7W3DpeWTSqvdpuZKVQZrlFlWKr2l3s8uu8aXy71NRUye8bw+L7V3qH2l1+q/WV3prJW5fmcKs+O/bLq4T3+26THmnlc7dO+n3PWUXcxpsrBq+WIz3o2PaO2KVNLk7mLpHHJBGl/Se2/oYINirPuB9Sx+JQ+FvtIhHKwy19688zrO9R6b1Dr7c7zqOksIdaz8gF1bM1Qx3I2+6eW5/Jz1tuWZp8EAAAAACBPaFkEpDF52KXW/7rVjG+w5OMe+0ZX6egcjV00RjZULZAnJroDRdowiZXOksaFN8mGKV4td3TwosaMrWRmWUy6O2+SB/0a/AwbJlcXmeW6gilarLRcGj272bPdPrpU/dshr1hBlVPySof6L0RXdDoA9PbCWXJv8nLVyzfPleDpVL7M8fmsWs97Zy2QDUmtwn5xxL55OW+i/3Y7Laqk43QOAkXFUnlvvTQ+uViW6UCNKwCjlY2cINX1i2X9veVmjo8rr5DY6HJZ+ZD5HjPb1i0nPYIUlsDpoqxnq7x5yEwqZVOvTigDy+irZbYrSLL37ZA3agcEO+C1tr43UKSVXTNTln27XmquNDNS6HTLVDp3oEgbrtJWydon66V+tJmVzJSZvUx3WQRIG0LbW8elXf1fcVuabrbmzjbdd+1NuhGvtu8Btc88XiXVrhv/Wlmp2l+WLJaVA6Q1jQ5u+K3nssczt/6onDVB/av237ci7L8n3pW9uu6ccZVU2nNyLDfl4JtH6pUanOsVPF349dzZtD/z/jle1TH6VHXgPd9xiAZ2+QEAAAAA0PcIFgFpXH2ZHXU50ZOmKc/5j8V+GPhSuSoHva9NnjLRDvb0dMij29xjHW2Xun0d0tYzTLzG0Z48ZZbca61uj+zYt901PtI+eVaPrSTD5N6F1/sEtErliYWz1HJ75FlXWr08i283e2PkZitW1Bsw+cVpK1oUoCu6YfKlyddLo+7mz9pW1zrrbT3i10orZLqxk6wgkW5FlPzZR/UYS8q8WUn5cv6w/Iu1Gf7dC94+uVxiKq+f9V3PMPTNycTAixcdAFiZrrnMyAmy/B+qkoIOxofn/G/mBk4XbT13/sa+mWtRy/pKUgAjdq0rQHX2uLzhF9QKrFXWfXej1AV45apVUeW9Tsuobmlp2Bz//lU/3CotZ4cnBJDcYrfc7JmuTqVrPqvnD5fqby/yuAFdLiu/bcpM5VmzO+13N8vGbTrAM1zGjLI/nRXnRnipKjufQfx9b7TrINKM4VarkI2PqXW8R62f9VLrqLvuUiqWeG1fns1dZLWessrhpa2yKr6eqgw32cGysltvlnqf7ddBjtFWXn8kpyO1DumUN/br/LhcRvsuIwtZl4Pal2pMHnl8x6omv9Y0IdNFWc8Te6TpgPo/TTdwlTW6FWW3NPuuZ/7LTwe5WswpNswYSQAAAAAA9BWCRYCvIrnKaljUI3/42JrhQ/3djjnkVFv7UflFQozqvBx5/02p3tok1YeTgldFU2StNbZSj9VF23J3t2rnT8mPtm43AaNS+UfPVkmKDqb8/NWELtn08h41N7PGD/NIN3a0zFP/7TjtCpi8f9oaxylWNtq/VY4xr7RU2o5tl2u3vqm21b1NaluTNtEtVDq1DXXbVJ55fPYXh18125ca6Iu3Lho9xp6RwATJVJ79Os16hmEHVLqlZdtWWfXDjQlBA3c8o2J6utZFTlDCDjyscgUPVv0mXddIwdNFWs/Te6Qp3rpouMy+1t1Co1i+MrU3ANXyappuxgaq0XOk5ho9YXczt87VDV/b6VZZ9/3NJvCTRKVbvtAOUCSnE5WuIZ5ugtTcktiqJXZLhd3N3tn9sur7Lyd1/dcpO3/1sqz44eYcBcM6peGXx9X/w6W6xmP/G6+2X3en1XFc3ki+4b37ZVn12EZZ8bDuxi1pHbc0yEZ9k7+vAiSBFUv9bTrYpbsyU+WwJbFbtDa1DSs22ds/+zq/1kVXyBgrcN4tJ+0ZEQ2XMV5VTrZyUA4VM+wu2uo8vqMtTaAjVLqI6xlvXTTLq34sl+v99s+4fii/E3tk3cOq7rxHbW/Ybu8AAAAAAOgDBIuAAebI6Q7rRmVs4izZMGWMTA7SWuky071axzF7LJ8U5+VHx+yoj3cQp0ee3es97s67H/tHwhK7oHOE6IquY19q4CuIkOniAaSiIrl97BTZMOcmaa66Sd6+0x6byGqtdJn1iV7nT8t2vemlE1O77zNBsrTdE4Z1eo+s+G6DrHtbZNy1i2TlQ/Wy/qFl0qhbj5iPWHSXcWbS23HZaAIP7hZBbRlb6wRMF3E9d76jb7bbyhbO7m0ZkNAF3XF5M2fjB+XRKNNd1qEWz/GIfGVM1ykNr9r5lth9nxNg65bmn6UJrp3O4Q3o3e/ZwUCPbrZi19ktw1p+6b0u8YDA+GKpnDtHVj6g9pk19dbA/vaYLX0UIAnK6aKsY79s8Rvzxmx/2UyPbhRzpK39IzPVN7IuhwNbowU1QqaLtJ7xbuAqUlt/zb3Kqpva97/rf6zkQF+XHwAAAAAAfY1gEeDrvLz3if7fI5CQQP3d6v4tR84fluptrbKjZ5jMm6jHKKqxghpvV+mxiryDR/GxldIEduJjK+nxiawZ2TKta3QXdnr9XC8nAJOpK7q065tG2HSTdYCoSq3bwgXyhB7TSY9dpPIhPSfAlrwdRfLgRDtI9i9RAl1+rPFn7KCLHg+oYqR/12XptDS8LDsjdOMWOF3U9WzZ62pdM0GuN5GlhC7oDvmPJzKQxUout/5vP3PO+j+oQOk+6LZaTIjK53HWDO0KGWPl+UdyOkJZR9MqW6xuwFTZJXT1VSxfmakDV8flTZ9AS0zf8F+j9pnHF8uyJTOlQo9FU9rbmqzfjTFBu9KZsvY5tZ6er6Rg6CCUbTm0t4fbvx1h00Vbz97Wb4mtv5xWY8elidY7AAAAAACkRbAISMNpVePZBZuj6DIzhtAn8l6uYgfnD8vyrU1y7TY9rk6H7OjpkbZhvcGj5jljMnbx1udM65p0gnRF1+fGXi+NOkBk9dKn8vLYPmvsojozfpHTzZ6n949a3ffFJk7qHdOoaLQs0N/lGqcpe67xZwa0bNazU944aI85otnd1Lm7oOuW5rRd5YWh1vPJZdIY4JV2DCgkaHvLHrun4rY5va1r9BgzpSLtL+31DvTpsYD0DX8rvnrcGg9Ij0WzyoxHY3crBi1WZgcP+8RgKYds1nP3XmlW9XnZra6Wi06rsQN9H4ju0/IDAAAAACAPCBYBaRzpsZoWpQ16TB5dat84zWnwwDivx9V5U5ZvfVWqf66DR/tkhw5elM6StR5jD8UuS9NaxumqrqdH3rVmZMfugk6PkaTWS69bwsuMkRSkK7o+NUY2zDLruc8e42j54VPW2EVHEsYv8nNeft2uN6RUbh5rz7HLW33fEdc4TVmKjz9jtG/bKht/2Dt20Mb4eD/9K9v1bPtVS++4Rtfo7sycFjLK2ePyRt5ayfSNspIrzFQ4adM5XdWd9RpL5XIZPdpM5sOJPdKkb9aXTpCvmK6+KmfpVhvdsvctr1Yb5bJyif335k32mDV6PCA9Fk1bwng0/eyUab11YKsVkEj7etiv279zckoHnkvdLcCi6JZTuatajEFSDlmvZ6e8sT+x9ZvdRaL6vqZMgeiBXH4AAAAAAOQHwSIgnfdPyw79/7ByWWqCBYnGyNKJdoBmx+nEO0STx15vtQDyEg8wffJxypg3k8emaTV0/pQsd8YecgWGnHGOPMfXsThdp0mOxtkxXdD1dMivPWMuTpAlc1d0eaHX832vFS2Sq8yUnyOHj1n7wLyJU1S5FMnXy1S++253Dpw9Lk2/apWdp/XYQcUSq5gjNdeYvw0kkdazVbZsc1oXTZDr77XHEtHaD+ZyPJFWWWcCWJle63IwRlLb23aLGzsA5mG0Kyjm0puuQuo9gz7FUn+TvnmenD+t8qYVmBsu1f/gauWTbLQqFzPpafQcu0vBJ5fJ+lvcXXf527nP3dVXuVyvx5DpOC5vOOPMeNF/3+11s79YQsW6Mt3IP3FOrNrR53Ox2putVlAp0o13E1innP5A/3+5jI70HU53fh/J6XR56Ra2/HJVDn0ti/Vs22IHpO3WbyZPM+2fln4oPx0c093tPafK7wHd0hIAAAAAgP5FsAhI65Q8fUwHPUTmzdJjBhX1BnKKxsiGqll2V2w9rfL0+9Zco0i+PrHUagH0/2fvf4CjOu98z//j2POzZxIZZCvYagFqxR45wEx8pQZbKX4jxyBnSsYeyM4VS89M1c/UHaZs3VqwmcgXplLFUJUdtMaRY7ZWdl1my9Tu5EqL7t2gsTGbWOBFc7kGQ0txxuCgsUcCo26bAAKTzDi3nPj3POeclrpb/V8tIXW/X1VtnT7q0+c5zzndJOej7/P0NizV4zF5iQ2R2lMETJq3VO3Ll6v7W6vdoebmxQctS+w+nUoZxc/bc+2M/ta5S1qmjatMOxfFbGe2ebrpYW10dlmgeXa8IejSBU/RAGtWDEVXVqt2O9+T99SeHyfMs/2S7OZxHO8asFVSS90h6AoTuE0Y+ThmYvQFNWodHyZtvdqD9RNz+txghWjneEBiBJa5QYj9a/yT78ymCoccjb6vk858TKZPnm1WY8wdbX+gWR126D7veZzR4zoQDX2eCaotEHPDv6pWwWfXa60TMtlgLr5/+n884Pbjgnq1m30GY7eVDe/sfs152Zj6JnTjN+vHhxT0rXokRWCVIDrUV/29alzphn2h11JV23gq67W5pTYmuDLtW2nat8scnw2bMvKqPkz/rot9n+paNcbd2J94XeuW2NdVKLglqPY1qea9mZjvZu1Ocx7sPuLet0KNLaa9+8y59dYkEx+k5SiP4dJyPn9TPg8zZErt9ObWstVvLW6fhgeyC6Jn+vz5WwLucHuGb0pBJQAAAAAAhUFYBGTw3pnD+k7ErZJ56L6H1f2tdXrHPlYtH58H5zt9ZxLCg2v6fl90yLhafXeVt415dC93q4pGIqe0OS5gMq6d0bZTQ2a7Mido6l718Ph2zrZ2n/Z114e0LSH0efW4N/SbbefymO3MNm5QZIeMO1GQofLcIeikc9fTBE/XPpHzB9Y3dCi6ibDPb+d7Gu9Lcx6d82DOnVeplY5bXVSmjffZG5gFCtxihU6q1wkbkhlT6PTEXD83VCHaOR6QxDgdUtecHoLukrp+EA1vatT6TDREa1V7sEa+i8Omb5wXTtL/yn6vT8sVCK4f3677mSYvKBpT7wuHJt+ANv249YWJfa6N3dYJ77zhtwo2D1SUN9RXZb1anSHDhnXimPubybwb94ZvTZPa95m2OQ/TPrOtz2zbedDeoM8kOrxYwvvsbFLrutgwLBr6GHWxr7MhQ7nCB/ennvPm2CFtc9pqzoPdx05vW+exXq1rTHvNV0XaqpNjHzhVLTZImwg6suMOl2Y+Yub7v/AKdR6mW2Ha6VYXlWvtGhtgD+tAT5ZB9A09f3mGVAAAAAAAFBBhEZCFV48f1oZTEY24uYPnuhP4bOhLFcBc0Oa+N50wIu6vmq9f19FTb2rt8eQTG7z34Rmz3QGzPxsaxe3Q7D/izL2zYVI4ZdmAKrqdt8rhtfOHh/X9gmQc3hB0iuiNxLArzgW94eQwN3YoOhv2TTp3Xj/aOYxeje/iFKLHYkzH3FT2Jvdz+9UZF7aMKXy6T9te6NLuH09U49xYhWln/0/jb/iGfjodN8hnmBPe9Kk3oW9CR0zfPHdIPR/Hro9l+7RT27oGFIoL4rx+/XZX6iDN7vPb5nwcMf2e67aGrU6K7jN85I2sA7voUF9W+ODJtJUUIz1d2rbXtC82k40Mj89J05/lhe28z8GE68u+z6kr3hOPDX2S7K9zR6e29lzS+XCq8+DuY8MOcw4HvTmMoiLmPB40/Wna25V2iLFoVYutjMnlxn+tWmzVU2RAPSmDt8lyOX+FOg/TrTDtHNKJaCiYQ6XPTJ8/53MUe5wAAAAAANxgN31jVdPn3nLWrlye/Feaixf7df58NgN9zE0c39xWyONbsnS1uu0wcpFTuj9F4IPi83jDOn230lZnFSp0K2GBZnUHo0PQDavz20kqZ4A5qUJBO1xa5Zh6d3RlCJdcjVta1VqX/euRWf59egPO30rzfbipxql8s4EmAAAAAAA3CpVFQI7cIckMZz6i2HlwULTmLdWf22qq6xH9iKBoaqoa1DEeFNmKiPSVKcDcckldL9vhAe38R+nnOLL8LUG11tkKrTcIigqlukHr7NxGkWG9lXOfzvz58/vmm/+O6eTbBEUAAAAAgBuLsAjI2QVttsOamSVnXqHxeXBW6+kbN9oapsmSRUvVu8qdbP3o2WTD/yGzCgWfbfXm4rHziEQN68Dr3CBFkTl3XFvtUGqqUeuu1IGDDRra7fBlg31UlBSIf2WDOna63zGh147HDwGbrZk8f9UN2uy8R4iwEAAAAABwwxEWAfn48ITWHjmlVyJZTXiDuWbeUvV6IWD3cjcosvM+bU47RxNSqrpXKxZ4y+PG1PsCw8+hSB07pK07bIWKUe2sSSo82KcNLxbBnF03UnWDOva1qts82je5QZHt1905zB80ybSfvwr5W5rdYMvOqcU1AAAAAACYBZizKEsc39xW7MeHAlv0oN5ZbsedM65f19GzNihi/Lm8xc1RJIVPD+jAj4+rP82E/ACQFW/OH0dkTKHX3tDuY7O9UqtWbfuaVDnYpz0vDuVXAQUAAAAAQIERFmWJ45vbCIsAAAAAAAAAAEiOYegAAAAAAAAAAABKGGERAAAAAAAAAABACSMsQklgCDoAAAAAAAAAAJIjLAIAAAAAAAAAAChhhEUAAAAAAAAAAAAljLAIAAAAAAAAAACghBEWAQAAAAAAAAAAlDDCIgAAAAAAAAAAgBJGWAQAAAAAAAAAAFDCCIsAAAAAAAAAAABKGGERAAAAAAAAAABACSMsAgAAAAAAAAAAKGGERQAAAAAAAAAAACWMsAgAAAAAAAAAAKCEERYBAAAAAAAAAACUMMIiAAAAAAAAAACAEkZYBAAAAAAAAAAAUMIIiwAAAAAAAAAAAEoYYREAAAAAAAAAAEAJIywCAAAAAAAAAAAoYYRFAAAAAAAAAAAAJYywCAAAAAAAAAAAoIQRFgEAAAAAAAAAAJQwwiIAAAAAAAAAAIASRlgEAAAAAAAAAABQwgiLAAAAAAAAAAAAShhhEQAAAAAAAAAAQAkjLAIAAAAAAAAAAChhhEUAAAAAAAAAAAAljLAIAAAAAAAAAACghBEWAQAAAAAAAAAAlDDCIgAAAAAAAAAAgBJGWAQAAAAAAAAAAFDCCIsAAAAAAAAAAABKGGERAAAAAAAAAABACSMsAgAAAAAAAAAAKGGERQAAAAAAAAAAACWMsAgAAAAAAAAAAKCEERYBpaC6QR27mtXoPUUeAs3qeL5V3ebRsbFBfm81AMwKGb7n/S1BdWyp9Z5hquhPAAAAAECxISwCFv2BvvTU93TnS/9Jd3mPO5/aoFu8X895K5vVsbNePrtc7ayZJgsU/JP/oO5//x/U0bDMW1csatUWrHH70PAtq9fmRyu8Z5hZFQo+64V2j3KjFtPFXGe7zHW2z1xnLXPgOsvye95X16TuORVwzO7P+9zrTwAAAAAAUiMsQmlbtEF3/tVT+uLXKuPCoVu+9ke686//Urd5z+cs+5fmm2zIMazO7YfUf85bPx0qlmhFubvoC9w3jVVMXij1Jw9R3VOKqu7VigXuom/VPVTLYXpUm+us0l30rZnl11mW3/MjPV3adnBMqmtSR8scCbtn8ed9TvYnAAAAAABpEBahhPn1pX/3R05I9NlPX9Llp/5EH3uPy/tC+vQn/0Wfui+coyoUfNL+pfmYenccUr+3dtpcek8nx9zFcOjs9O9vRg2pp2tYYe+ZLg5oz+uXvCdzW3n5b/TQks/0Z3XRx6/1UOXn8nK/2Wf0fZ286C6Gj3ww89dZVa3aGIaw+J0z11nEXQwfvAHXWdZy+563AUfnoA3AHlFwWitNC+RGf94zmHP9CQAAAABAGjd9Y1XT595y1q5cnnyTdPFiv86fH/GeFR+Orwg5VUV/pFt++pI+fukfvJXFw86n0L6mXOGD+7W1pziCDZetLNqotTqubf/pqErsqi2o8spfa83dKf4J+PQLOvjeF+TlfzD8gWZttsMRXhzQtueOc+3hhsvve75WbfuaFIiY63h7cV7H/keb1XLXmHpeye348tuu+PsTAAAAAFAaqCxCybolsMKpKvp0oPiCInvzqmVNuRQZ0J6iCoqsL2vhrC17mUN++zf6AycoukkffnSzDg7eor+zj5/drA9tSd1tv9Gamgx/S1DdoLbxeV2KeBimqlpn3pR2JygaVu8PuCGM2SDf7/kh9djh0yrr1bLSW5WNOfR5X3xXjQLLyrXYe56t/LbLsz8BAAAAAJhlqCzKEsdXDP5A8/56nW67y5uIIqWQrj31vclD0C3y67bH/qf4+Y0+DumXh/6LfnEidd/dsu57uvMPpV/+zV/qFx+aFYtMO/5dTDvMe1z7383+7O8KZWWzujfVTGNVkVfdkyK0CYde0dbj3thBcRKrghao8dG1WldzhzsxuxEePq49rydUDNX+D+pY/rvyZRMSDb+mDa+f9p7kqapBHc94k8UnNabeF7rUNeo9nbJatT3fpID3LJ1QV6d2h7wnU1BT85lWzpc++ehm/X3kJm9t1Od6qO7XWqSb9O7PbtZP/tVbnaBxS6ta67wnzjBYpk8KOi+Wndx+vdZ6c5YkCh8x1/c0Dwc4Xk1klsOn+7TnlaHpCYpsIPXNgFYsK5/4LFwc1snDJ9UVSn6M/keDal+liWsx2XskaXO+2zlyaGfjRnN9LMt0zUbP8bA6v12o4TIr1NiyQuvqzXkb/7ofU3gwpD0HzDFNukZNG3aZNqT4pyHt96j3XZtJyveoNv25zvRnXUx/RoZ14OUs5pibyve8nedop/mOG+zThheHvJXpzaXPu3vt5X5N5btdPv0JAAAAAMBs84UvfvGL3iJQ5BZV6ZaMQVFytzz4l7rzr/5G82KDIuuugL74xN/oznWpZzC5pdLuM6zPPnSDo7v+6qn4wOou8yhkUGQ0Lrc3L8d08u0cbyDOlPI7tbhimdr+ZKNaY4Iiy1fToPY/eWjSnDBZBUXI0udaPN/+vEn/OCkosm7STz+y6z/XvNvcNSUntprI3hjv2q+t0xIUVSi4MajuZ5q0NiaAsXwLarQ2uF5tWaSINgBK+h7mka7N2W+Xezv7fzzgzPMVWJ1mjqeqe7XChgOnCzUfTa3adq1X65rYoMgyba5rUvvOoNpmSVWMHUKue6fpz5igyPJV1qh1Z+bqnSl9z0fnZKq7R43uGkwF/QkAAAAAKAJUFmWJ4ys2f6B5Lz2l2z7+e13+62595q1N6sG/1F1PuHdBP/vpS7r20j94r/frlnV/rDv/0P4uMlE5FMevL/313+iLMvs5VKU7zfs47/GaeQ/ntX7d9qD0aZrKpNxF/0p+WJ1PFOov9bPjb9ik9sAdmSuLxoOfK+p9o1ddQ+5r/bX/g9of+V1nOfTG/6LdSf9Ae5na/v1jCoxN45xFM15ZNMN++zf6o6/+RrdfvVl/NzwRFtnTMj5HUfmv9Wf+z1NUHnnssFRP1itQmaH6osDcypjyaassmrFqIsvsq9vsy1bnHPjBSfWPRo+nQo2PPqJWc5xS8kqHaD+ETg8rsKxGMu/RmfAe/qpLGkm4TvPaLs92Zqoucn9fuM9TdA4fRUxb4qpzzDGtXKHNj5njHcjuWp3avG8T1UpJtx+vSBpT6GBIPT0T15jf/G6z+Z0TUqas3pn697x7fMq+QmgOfd5nvLLIyLk/AQAAAACYZZizCKXJVhnZnx+Ppg+KbKjkBUWf7vsTXR4PiqwRfXbge7r8I/vnxJW6NZDsb+cX6WZbOaQV5n185j3+yn2P8VBppMBBkXWHFtq/qI+M6by7YnYa+yd1/m97x4Mia2To/1bnsLtceUeKsYhmwuhxbf12pzbEPrq8hhWD2z7X7ebHJ+NjLdph5z7TGvP4o0rv7wc+vUmfmB+3p6ssOndcu7ebvnmic8ZuHE+7qgYvKBpTaNqqiWKEDmnbC6b/njsUE8BYl9T/epc6nREV56uqylmZlA187I30DUneIzEoipXTdnm2c7y66Gu17oo4tXpwmflxcVhvFSAoihUeOJkwjJs5pmOHtNVcrzNxrTZu8YKiwb4k+6tQ0IZWRmhvl3bHBEWW08699vumXCseSFVdVKjv+XItXOgtZjJrP+92GM9Wdcc8bEAp1ag1YX189Vu+26WTQ38CAAAAADDLEBahNPncsOizSPrx325Zt072XvlnP/orXTvhrkv0WeikEyDdUrnIXRErGkrdVanP9v2leY9pve08h1xR74//76R/uX3+yhVvCTOm/DeKXr1pw6ESc8H7Od3Gg5mqCjUGGtS2MaiOZ4MxN6/LtfBu5xXJne7Lr8Iqx+3yaufo+zpp8+BlAQUTA6/APc48XeF33y9YIDfy9rATTvnWPKK2llr5q931M2l8bh8bFCWbv6b6Xq1wgp4B9RxzV01y7APZQixf/b2ph/CbopHwVW8JhUB/AgAAAADmOsIilKTb6t2h434VSn+L0p1vKPPrUoqGUmnCJuBGGQ+Gxr6gd50qo5v04dUUQ86VitHj2tNlA4dyZx6ejo2103azPspvg5dnW9X9zHq1BusVsHMCLRgfqzGj8Mf5Bay5bpdfOy+p67BXJXN/bJVMhYKrbXXNsA4UcijBc8e1dceAQpFyBdbYOYpMe/eZxy47V9H0h0d2KLJoULQtWVBkLfTmKKqsV7ttW9JHkxOkIRtD2p1QCepWutnh5OLXxw+FmO92AAAAAAAUJ8IilCC/bnGGhgvHDAeXTJavS1OllG0ohVI3eTikVI/sh0NKwxtibsJN+sl7t+jvBm/W0eikRZOGqisdI6FD2vpCn3ovmo/3sia1Px9UMJBqOLApCjSr3QYvdtTFi8MKHelT5wv7tc08Jm5ezwJTaWfopNuXq1ZMTP5fda9W2Pc6/UFe8+2kFR0ubcd+dR40bY2MKVw5ER51bJmeANCds8bOlzTgBEWz/Vvf75vvLaEQ6E8AAAAAwFxHWIQS5M0jlHG+omz49aVm9+79Z5HEW4PZhlKFdkUXnGmUyrXYXVGcyu8s7uObTv96k67Zn/N/I3fmlMnKvaqja5+WaKXR6JC6nuvUtmmtMqpVW9CegTH1drlzB+1+fciZE2gkbl6gG22q7bykt961KWSNHvTCTv/97rxQvT9OUX1TCOcuqb/HtHV7l7Y+YcOjPoXMd6OvrkmbWwob/sUFRduPpw+KLoyZa8oY7HPm/0n7SPlehfqeH9OFmRpvsSTQnwAAAACAuYuwCKUnOo9QxrBoRJ99bH8GdOuDzopJbln3P+mLTvD09/rlpGHmChlK5eKSRj+yP+er6gbM1zFz7rRTpxSJycMhpXoUZjikm3TemV7jc/1+5efOmnif62t32/XmddFKo6Rq1bar1Rk2y1ZrFKNJVUbPNk+ee2eqLg7rrVCy0KVChd7VlEyhnSOvh5w5eAKrG+Q3r//675W77xedBymdKm/4u+fNdfZo+g+9f2WaQO+c+Zy9ZofEM+fSd4fzsxD8K5u9oGhYnZmCIuvc+zppg566gIJ5f0dP9XvenIN6O4TgVY2ec9dkVvyf9/zl058AAAAAAMwuhEUoObcEVjhh0acD/+CuSOPTAffO/G1PfE/zHoy5BbnoD/Slp76nO//QndPol/979+RAKOtQqvD6T3lzhDxQNGlKjNM64dzvvUNrv/mQGmMPsWKBGmvt2FbIZPijLzhD0d1+96/1R5Wfm6vF89uf66Elv9Yiu3z1C3JvrSfnbwkoYD8Chm9KN75nudgqowU1WvunNvAooAX12vxobMhRIX+gWR3PrtfaZd6q2WBK7RxSz5Ex8x41+vqj7hB04Xffz2qotsZvesPfGb5Vj6QO66obtHlTk9r3Bd2h5qrjv//81bVq2+TW0oXD+c3zNIkNipz3tEHRoSyH1LukLie0KtfancnmUqpQY4vp133NE8P2JTGl7/lqcw7sZ3cw+2EA59Ln/fzHwwqdHtN573m28t0un/4EAAAAAGC2ISxCybml0g14fu2MA5TBie/p2k/tQqVue+JvdNdL/8l9/NVT+uLX3Pf55d/8pX6RbJi5NHMZTbtjHzh/xe+rv7ewN7Vnif63j7vDOJU3qPV//A/q/vfe43/cqNZH/r9pb7DC869f0D985A4xZwOjNXWf6c/s46u/1iI7BN2nX9DB4VyGoCvWcHJCtMoo9HNvxZR5AYrhW2XnRorOTbVe7UE7TNuwOo+ki+tmSmHa6VYXlWvtqnpnmwOvF3iovXPHtWfvgEKRcmeoufad650qmOijfWeTnFHwIgPa01OAfVc3qMMLn+wQe60x+5r02JUQMB47pG0HbZ9OzKU08fr1al1j+jWi9FVDU/ie9z9gz5sUOpXvMICz+/M+8voh7X4liyqvBPluN/X+BAAAAADgxiMsQonJfR6hT1/6E13eF/KGpPN8HNGnP3pJl59KERQZt1TaW0fJ5jKaCUPqsTciK+sLPjfHrHDpqLb+X68pNBZfHRAe+yf1vvFf+cvuLI1FbtbBkS/ow7h5iW7Shx+Z9e99QW48kNpIT8iZA6akjA7ldTM5lZHXu9yKpYveCuvi8PjcQP2x3zs3UGHaOaQTp73F09lXYPT/eEAhb7/hI2+oK83QdSPHjmv39k5tc0Kj+Cs4HDHt3bs/85xC2VpY7gQE+Rrp6XLmUeod9OYwijLtDh3sM+08pK60Q5rl+z1fqxZvfqWeY96qLJTk5z0r+fUnAAAAAACzzU3fWNWUbMKKtK5cnvwXuYsX+3X+/I24KT4zOD7MPRUK7lqvtZVj6t3RleGmIzAFK5vVvalG4YP7tbUQFRsoWo0bW9W6zHwnvWC+k7KZrwgZ5P4937jFnIO6Kfy7wOc9zpT7EwAAAACAWYLKIqBoXVLXywMK22Gfdqaf+wKYCr9vvvnvmE6+zY1jpFHVoHV2bqOLw3qLoKhAcvue97cE1VonhQ++kXewwed9QiH6EwAAAACA2YKwCChm545r695hhe18GrsIjDANqhu02Q7BNBjiZilS8gca1PGMnatICh0u3DB+MLL8nrfBRrvzWe3LvyKIz/u4gvQnAAAAAACzCGERUOyOHdLWHfYvz410k6UDOamQv6VZHTvr5YsMq/NFJnZHgqoGdTzfqm7zaA+6QVH4dJ92h9xfo4Cy/J4PD/ZpQ16fVT7vyeTfnwAAAAAAzD7MWZQljg8AYtWqbV+TKgf7tOfFISpFMFmgWd3BGnf54phCh9/Q7hAVGHMTn3cAAAAAAIodYVGWOD4AAAAAAAAAAFCMGIYOAAAAAAAAAACghBEWAQAAAAAAAAAAlDDCIgAAAAAAAAAAgBJGWAQAAAAAAAAAAFDCCIsAAAAAAAAAAABKGGERAAAAAAAAAABACSMsAgAAAAAAAAAAKGGERQAAAAAAAAAAACWMsAglrEKNLc3q2NWq7n3RR7Mavd8CAAAAAAAAAFAKCItQshq3rFfrmhr5Kr0VAAAAAAAAAACUIMIilKgKVd3tLoX27teGJzq9xyH1u6sBAAAAAAAAACgJhEUobZEB9Ry75D0BAAAAAAAAAKD0EBYBAAAAAAAAAACUMMIilKhLGv3IWwQAAAAAAAAAoIQRFqG0VZZrsbcIAAAAAAAAAEApIiwCAAAAAAAAAAAoYYRFKEEV8rc0a12dWYyM6by7EgAAAAAAAACAkkRYhNJR3aCOfa3q3rde7Wtq5IsMq/fl4xrxfg0AAAAAAAAAQCkiLELJCpvHqLsIAAAAAAAAAEDJIixC6Th3XFuf6NSGJ/ar8+CYfJU1an2yQX7v1wAAAAAAAAAAlCLCIpSgS+rv6VLnoFmsLNdidyUAAAAAAAAAACWJsAgAAAAAAAAAAKCEERYBAAAAAAAAAACUMMIilKgKVd1tfkTGdN5dAQAAAAAAAABASSIsAgAAAAAAAAAAKGGERQAAAAAAAAAAACWMsAilrbJeLSsrvCcAAAAAAAAAAJQewiKUqEt6a2DMWQpsWq/ufa3eo1mNzloAAAAAAAAAAEoDYRFK1khPl7YdHFY44q0AAAAAAAAAAKAE3fSNVU2fe8tZu3L5krc0YfFiv86fH/GeFR+ODwAAAAAAAAAAFCMqiwAAAAAAAAAAAEoYYREAAAAAAAAAAEAJIyxCSbDD7AEAAAAAAAAAgMkIiwAAAAAAAAAAAEoYYREAAAAAAAAAAEAJIywCAAAAAAAAAAAoYYRFAAAAAAAAAAAAJYywCAAAAAAAAAAAoIQRFgEAil+gWR3Pt6rbPDo2NsjvrQaQp+oGdexqVqP3tFD8LUF1bKn1ngF5ynB9cp0BAAAAwGSERQAwyTw93bRO73xrtZ6e563KW/S91ql36UJvHbISaHbCneijLeCtz1mt2oI18nnPfMvqtfnRCu8ZgJytbFbHznr3M1XtrMmgQsFnvbD20cw36H11TermRr7H9N0u03f7ggpm1dfpRN/LnIeWIu7fLK9PrjMAAAAAiEdYBBSZJYuWak/TaieccB+rtWfpQi3xfj/ZRJiR8tG0NM32c0Pu/VIg86r0cJm76L+vSo+7i7OId/6L4BzPabHB2EZuXmK6eGHBrilU19mKjU02fB1W5/ZD6j/nrU+n6l6tWOAu+lbdk7YaaaSnS9sOjkl1TepomalQtwD9kgP/yga17Qo6oY37CKqtpXb6911tzkOlu+hbk/483Bgzd33emOsMAAAAAGY3wiKgiDzesFrdy2v1UJmXTjjK9NB9y9Xd9OAsDCpmxg3tl2ujevO6uzhydlSvuouYUUPq6RpW2HumiwPa8/ol7wmA7FUo+KSt2BhT745D6vfWZjT6vk5edBfDRz7IuJ29kd85aAONRwpQTTO7NG4Jqn1TvQKV5d4aq1yBNU1qn4Zh/eKcM+ch4i6GD2Y+D3NPbtdnMV9nAAAAAJAPwiKgSCxZulrfrbRhyHUdPfumNvzwgO63jyOndNSGFWWV+m7S6pFr+n6f99rEx5EhjXivmqvy75dCmejftWcueOsw00ZCh7T1253aYB/PHZ9117X/rvneEjB7+Vse0dpKGzS8oa5sKorGXVLXc+7nb+vrQ9669Ppf7FNI5Vr7ZPHMMWbnyWmtsyHRmEIH92vbE6ZP7GOHOVYb4lTWqHVaq5vMedju7nNrT3bnYS7J5/osxusMAAAAAPJFWAQUhYV66j63auboqcPafOaa3nOeGdcuaHPfKR21y2W1emqRs7ZE0C+ZlekrsQVXs9aYLnzkLRahxXfFVhkA0+UOLfSGIctdrVrWmOs0MqA9PTNRmTekHjtMWGW9WlZ6q6bNVPolW17/GaG9Xdpt+nA8tD43pN3bbWhhzMjxzlY34vrM8zqrtkMJusMIMowdAAAAgGJx0zdWNX3uLWftyuXJ/yds8WK/zp+f6zUIqXF8c1uxH58WPah3lldK14e0oe/MRCASK/qayCndfzzLCpd5S9W7qlb+lO87T48v/ar+3Fcp/3jgcF0jkbPa9t4FvXfNW5WEnUPoqfvs0HDeiuh2pm3J9vN008PaqGg7zH4bluvPK8vG/xJ4JDJktk1oYy79Evcab39l1/XKkcP6kQ2dVtw3MYzddVuldEqbP0w8wOh23tMEI2ff1NozaTrFmrdQTy+5Tw/HHtv1iP725Am9mnbTeaZPv6r2+75kzkW0ASn61Bxz732x5yyNXK6XLPgDzdq8ukY+b/4SGwKFT4e058dDGhn1VkXZeXyCNd6TMfW+8IZGv/mI1i0rdycuj277SkIFXFWDOp7xJjdPyr5Xl7oS9xfDX1Wrlj8NKLBgIsQJXxzWycMn1RVKdyOywhzjCnOM880xptu2QsGNj2itOZasXBzQtilXRNWq7fkmBbxn6YS6OrXbuXNdIKY/g98MaMX4ucvcn/5Hg2pfpYlzlew9TvdNOv/5bufIoZ2NG1vVuixTX5nz/Ox6rV0wrM5v5zBsWybVpp3rTDvrYtoZMe18zbTzWEJ/2sn+HzOfuWxuwg/2acOLKSpOzPt0b6pR+OB+bU17Mz56zN7TBOEjZvtsh4G088/sNJ/ldO3KVwH6xc491PKYHVLOW2G/kwbNd5J57aRry+s/G2Zs257is5z0NaY/d5n+rLRDq3XpLRuKPGm+m6LD2EXGFHrtDe1OPO/j23lPE2Q+j0aK6+zAy+ZaTlu5Y74HV5rvwcfM9+D4cHsp+mbGr88k8rjOGreYz3+d98T+m2LOTW7VdgAAAAAw+1BZBBSBJWVfcn6OhEeTByLWJ9fdGzSVVQWao2eh9jQ9rO9OCh3K5K9cru5Vq7Vn6TxvXSwbqKzz5hDyVjm87b61Wk8n28wqK9O987z9xoQplr+yVt0Jw8k9XuXefcqqX+x7OyvifWXJanMsy+PnOzLLDy1/WO80LPRWFIYdMu8ds6+Nicdmh8pbtU69SfvT8Pqke7k9F7GdmrpPswqKCqpWbc+2qj0YGxRZ5fIta1L7M0G1BdL9dXa51j6zXq0xN/HHt322kMMHVahxY9C0pykuKLJ8C2q0NrheHRtrvTUJbEj1/HrvGFNvO97WL2cZFM1pNhQLqtv0pw3GJs7dRJ+0ZZFe2QAo6XuYR9Kb7p7st8u9nf0/HnDmwQqsTnP9Vd2rFfZ6P12o+WFMO7eYdu407Yy5gW/5Kk07N5l2JqmOyOpGfAaNy21wO6aTb+d4I34qonPs1N0zLXP55N8vNogx32fO3EPeKoc5J3XmO2lfcNIcOG7/SeGB91NfsxfG3LnVKsu12FkRb+E6891kzn3cfEdmOWDOe/eWFN9LebJD5qW6zlp3pqmmqTbf9bvM9+AmGwDFfsel7psbfn1O83UGAAAAAHMFlUVZ4vjmtmI/vscb1um7lXaotQPa/KG3cpKF2vOt5XpIbrXM9zMUuDjSVBbZYKPbDvF2PaLvxFW9RCtcTIPCkytpxrezcwidiqnOsRU1K5Z7VTnmPX9o3tP5hZVYsWOOwWz7fW/bJYsedIISa6IPJrZJ3y/xVURuv8Tvz1Yt/e17Z7xjtNVUy/Xd8eHt0r23K3rMaSuLohVOtl/OntVLZyaqgezxtdsgKOm5i55Xw5yLV87+bLxf3LZ+VX9uzsW5lO30tk9XfTVlFWkrDSYkVPzEVRalF1etMIXKomi1SCaTqkky7tM1sV22feIpSGXRDeCdQ1udc+AHJ9U/Gv3fDxVqfPQRta6yN5OTV924FULlCp0eVmCZuQ7Me3QmvIe/6tKkirS8tsuznZmqi9zfZ65ky1q0esKp7jDtPBfTzhbTTmeYM9POJ1JVMdWqbV+TAumqW5Ky4YitUkn33ulFz0tOlUWGDS3a12iaKzdy6xe3TbavxxTaG1PVYytxnmzyqnli+yraf+Za2WuulWPOyiSir4utVJnY1goPDujAgeNeZU/sec/03q5o29NW4EQrnOzxHQypp2eiGshvfrfZBkH2e3TSOfH60S6aa7Q3rtLNtnWF1q2pUSRlO2/g9ZnrdWaHoXvSDQvzqmYCAAAAgFmIyiJgzpune5zCouv650+cFSmY31/3FgtoJPyzhOHRrum9D09obd+BycHIvKVq94IiG3rEDeN27YK+3/emXnHaWKk/T1VFY8OpHx6OCUTk7O879q+CjeqyxO0y9Ut6TsBzPBoUWdf06pnD2nDW7cyHqgpRXTRPT9twzXDnVoofNs7pz1P2AMv0cFX88S1Zep8XFNmw50Rcv7htNdseeTNjoDWtAiviQ5HTfdr2bXey+21dw+5f0jvKtfZP01UJ2Zvu7nYbXnCrOqJ8q1ZM/EX46HFt9d5//GH2k1FVg9bFBEWhrv3j7bQP29ao+GqSCgX/ND4ossOcTWxr3scep1k3EShMTPhvf9970VttmddF9zn+mItBkRU6pG3mnG197lBMAGNdUv/rXeo8bZfnq6rKWZmUDXxswLAhyXtMGrowRk7b5dnO8eqiryWr6qjVg/Z6ujistwoRFFnHTDt3mHZuN+0cD4os084e085Bu2zamVC5MXXeXDKRMZ13V8ywci0sbCFn/qobtNkLimywEDf827khdW03n2fn36MarZtUfTOmC1MY1dMJJV6MBkWWe9632Tl3jMDyQlQXme+zx9yQ3p1bKX7YuBFzDW7da78Ly7Xigfjj87cEvKDIhj2HEoZEtG012+7YnzHQyl2hrs8crrNzx7V7u/lufsJ8HgmKAAAAABQJwiIAeXlvNOLcQPLft1x7li7UkhTZTpzbveHVImdTVDZd0/fPuqmP31cVN6Sc67pesVVM3rNY738yDUmY2d+bo0kbOn78+tLtSdqZo3lVetjJ0Ib0UqpQ58NRHTU/4vtlnv7Q54VvJ9NUBV1LfgwzpfFrsdVBw+qMmStmJHRIB5wb8Z4FNfp6iuAg1BVTnTF6XHuOuDdIXekDh2z477d/LT8hEFyv9udb1e092mOrnBbEDBMVHWos6nSftsbNh3PJOU67rhSNBzNVFWoMNKhtY1AdzwadPnWruMq18G7nFcnZ/syhEmVcjtvl1c7R93XSBn3LAgomXn+Be5wb5+F30ww7loeRaFBQbdq50rRzi2nnLtPOfaadzhwqsyhYKYCR8FVvaZZY6A3LNhhKUYFySV2vucGyr/7eNOF3rlIPsTbythe6333H1PdXbb7PnOBlQD2pQp1jH8jm3vHHV6Gv13sh2stpwu24kHP2mHXXGQAAAADcAIRFwJx3TR/8wv4s01dud1akYH7vDatWENfOaO2RIR29XqaH7rNzFK3TO98yjyY7V1Hy8Gh8bqV0wU6GOYRyl6lfpqgQ7YyGaGW16rZ9mPThDTUXJ3pOf6EPbmwelEaFqr7sLVoXJ//ld/9Ps6j6SWLk49ibexkChywsvssdyik7MeHU3fFzeoR+WpqhUCp+G7w826puO+dUsF4BOydQwpxO6YQ/vuIt5SbX7fJr5yV1HfaqLO6PrbKoUHC1DReHdSCfoCsNvw2Idpl27jTttHPm2Dll4uaGwXTy++Y7P8PhNNdXyrmHpjnIm7S/PETDsMp6te8z11nShzfUXByvukdXNZrNMG4AAAAAgFmHsAgoAtGqmslDsMWYd7vckYkKGCxcO6PNfQd0/5E39Z2zER29fl0jZRPhUW/DwqlX3eQtGqJl6hevqmdWBy7IbEwXPvIWZ8RVjRZqaLEZU6u2mEqpdI+2yXeC8xNoVrsNXmzl1cVhhY70qfOF/dpmHnZ4PXd4t1lgKu0MnXSGEYwbCjFabXb6g7zmT0lppWmnDYicyg/TzoOmnTtMO83DDoflDkNXXKLhzNx2SaPe91OlL3FouhjRqh4ClxlXHNcZAAAAAEwNYRFQBN677qYiyYducy2pqvSGgBtNOozblFxz58bZ3HdYa39ow6NTOnrdtKdyudqTzD3kvz1NiVO0yub6db3vrMjfq6PphrRzjfdLrvsrYDvHq6kip3S/7b90j75kw819SfdkMwxgOgWr5Ep0SaM/9xat2OHbPPHD1GUv3+1SOf9x7LB2w+qMnTNo0uPQRAjwkVdF4Ek+f00OvlyAoaRmhVq1OUP3jam3y507aPfrQ86cQCNx8wLdaFNt5yW99a69dmr0oBeyuUMamvf7cSGrzEw7N3nt3Gvaud20s8e085xpZ65De+VcgXJFF+zXaSEqV/Iytbl+spbD8fl8d3hLSUSrc2Lm0Ok/lXloOv8D3lCYuc69k2R/eYtWRQ32OQFk2sf2ZMPNFWDOrBt2fc7QdQYAAAAAsxRhEVAMvPls7DBmTy1y1iRYqKfucwOao6Pxd0KWLHrQqQBKZjxI+cUnkwKKJYvSVA1du6DN0bmHYoKh8Xl+Ku/T00nDjXl6+j7nz6o1Eh5NPQdPtnLpl7PJQphUQ9gVuJ3XRvWmLQ5L2S+pXNAbTjeXaeOKpanPx7x5WVR4FSBwSiF+mLkatW6sHb9Z6g80a50zH4zn4rDeSlGxEwgGx+eFyWW7bI2848374TDtfLZZjVXxQ4s5Q5U9mhAGReetiVrWpI6YY3S3a1bH8xPtj5cYqNWrJZCw37h25GtIu5MGX5Mfu+2EJIViz00oWZhRoSlOM1VYU2jnyOshZw6XwOoGc94r9PXfK8/+mqzyhr97vlUdj2ZxniPmfY9NtT9zvaEfrYwpQBCQk+g8ODlU2uTan3EyH9/4/EB1AQWTvrZCwcfcIDs8EDNflTfPjx3erWWlsyZBrVrWuMMJhl5LFsKkGsIuxf7ydc58n9l/V1IeXypDOuFUtpVr7ZP2c5BCtfk+8xZTm+nrM4/rzIa3djjIfeY62zLFPxAAAAAAgFmCsAgoChf00ll3KLqHlts5g2LCgXkLtafJm+/m+pBe+tBZ65mnP7yv0qkA6m1YqsdjwgIbIrWnCJg0b6naly9X97dWu0PNzYtPGZbYfS73wpTY+YmundHfRsONVaadi2K2M9s83fSwNjq7jOhvzxRiTLgL2nzKDa1y65cJDy1fp147B5P3fHraeU3fd8I1r18mzfk0T48vfVC933pQj3trol59b8i9OWjnO2p6UE/H9qnZzgkDVz2s7hSBYGLgFHsN2JDp8bj3y5M3TNe4ZU1q94Y7aw96f0nvGFPvD9JMjG5vQj6TbDuzi8PptsvS6HEdiB1ubEGNWp9Z7+zPfax3hypbFUgIfaLz1kzwxRyju51tr2n/N5PfVEyctykQTNjvnxZyovwZtqBemx9NEp49u15rYwO/G21K7RxSz5Ex55r5+qPuEHThd7O7cd/4TW/4O8O36pEUgWKMStPOloR2rjTt3GXaWeetSin+hn5j7I316go1rkwdrriVMeVa8UAhgsssRYdlG8x+OL+c+9ORQ7+cM98T0dfuDKot9nfVtQra8+D88zesAz2xod6Qdu91P+eBTWa7lpjQxGzXtsubBygyoJ5jztpJApta1RF77tPuL1/m++w191w7x2f3FxfAmP5oMdfbvuaJYRc9/QcGvLma6tW+q1nBuOvJu053mu+zlOHKDbo+87jO/C0BdzhIw5dzsAYAAAAAs9NN31jV9Lm3nLUrlyf/n9HFi/06f37Kt+pmLY5vbiv244t6vGG1vls5UckT53pE3+k7kWQIOi80SbHZSOSU1h6fPC7LkkVL9dR9tSm3c1wf0oZJw6bNiwlbkrmuV44c1vfjMpjoNsl+51qydLW67yvTyNk3tTYhwMm9Xyb2N3K9TP6km6ZuS6J0bYsVfV1Kpq2vnDwxeZ/zlqp3VezN40QZ2pp2e9M/P0x23eSqVm3PNo3fxJ1sTKGuN7Q7trIj0KxuZ3gw4+KYwgu8oZYShI/s19bXM9wkjX0vG0q90KWupFUfFWrc+Ihal7l/4Z9Ksn3aYGFzQoiVKHy6T3te8QK+OBUK2lAiZf/YYfFihr6bI/yPBtW+KkVfXjTH9K7UuqrGnPvJ1UzRbbM6vzHy2W4q7ZxgrvHnoxP/Z3++Gje2muvNe5L22jTtbDHt9KpPJomYfQ6Ydq4x7dxr2pkicFB1gzp21qe4Ts17PJGq3eb49pnjiwxoW9Lhx9LL67x4x5v2eBLk0p9xcuoX83kdD2mSMfvdYfabpEqlcUtQrXVpzuH2xP6P7st8B0bMd2DSfabeX6Jon4YPmvOQJlxKe61Zpq29Lx+avM+0/WhlaOsNuD7zuc4S+ydTfwIAAADAXHCzv+Yrf+0tZ+1f//VfvKUJ8+bN17VrV71nxYfjm9uK/fiihi4M6+gv52l5WZnm3+qt1HWNRP5RT/a/p+T3QD7RoX+OaPQLt+krFWY7b62di+foP/43/f/OxI6PNeHSJz832/3M7O8L+nLZ/0f+W8d3qJHrEf3wH0/pf/nJhSRDtP1Kx8e3u9Ns562OtrPvHb32K2/VuNvU8JUa1d363/WT4WEdn/R76ctf/or+bcWtunp5RN0/j3+B2y+J7TTHd/Yfte1Esn7x9vffz5n2/IP+c0KfjkSG9PzJt/V/ZBEUWenaFuvSz4f1cuQXuu22MpWX3Rp/Lkbctk7uG+NXP1f3z7xzeGuSc5+0T2PY7c1+l5rzP/k8/kz/xyfpNs7WZf23Yyd16nKFlt5VrrIveqs1pvDpY/qff3BUr59N+LfF97v6t7/v3owLn3hVW/+30/qtKp++uuC3nXX2Jn7v37+h7/VncYMu5r2kT3X2+Lt6N6bobcK/6NxP3tWp09f0y9vLdbvZ13h8d3FMoRPHtOfA/6P/a2Dyv4NXI+/rR6eHdfFff0dVX0w8xvf0f/7gh/qP/ZeV/JvoX/TusWHTP7+T0D/m2M1+h06c1lv/lGrb2evqP5m+TDzn3nn76//8U5273T0vkXdP6r+5RYDj5v/u76up5rd1ffi0fvRPk/s7lXy2m0o7J1zWLVUrnKoinQ7pez+57K7O4NzPb1bNPZXymf2Gj7yq7yW5tqKunjHt/Llpp8+0M3ph2pv23aadr5h2lpt2Bkw7B0w7U1RL2mFCfzR4TTVfLZevzPssGWHzPke6T+rgh6n2f1nh37pXTfVf0dLfGtaPzmR/Tqzcz0utNj27TL7IgPa8ciHraz+X/oyTU7+Yz+th831m9lXuM/sa/5Iwn/VB8322/aj+a4p/H86dsOfQbndbzH7Md8tB892y54Te8dZM+B39ftMyffUX75n3/aH6Es5/eHBA/+fL/48OZjl82vxl5jzUmvPwT+Y8pDmH9lr7z6Y/fmu++R6sjPkejJi29rttTXqMth8PmO/B3zLfg2Ux12kWfeOY8eszv+vs6pn/rpoHvzJ+7jP1JwAAAADMBVQWZYnjm9tKpbIo1niVSuSU7k9SGYSZk21lEaZPfOVIDtUGQA7cqpZivr4mqlyyrWTJV+MW05d107+fUpNtZdHclPv1OeXrbGWzujfVUFkEAAAAoCgwZxFQpN47c1ZH7YIzH1HMnDuYcffePv6n1ZgRFWoMxMwHUlWrr/9e7HBKVzVKUIRCq2rQOjv82cVhvVW019cldb1s56Wx89lMnrOmUGyg0VonhQ++QVBUYIt9sd+FxSa367MQ15nfZ2uAx3TybYIiAAAAAHMfYRFQtC5o86mIM26/v3K5ur+1Tu84j9V6ep77ChTYvIV6etG8uGBuyaIH9V1njonrenOUqqIZEVih1uB6tT/fqm77eKYpfi6g09lPYg5kwx9oUMcz7jwrocO5z+czp5w7rq17hxVWjVp3FT4wGp8LZrCPSo2pqK5VcGVMaG74VzY74UhRhxtZXp8Fuc6qG7TZeY8QoSYAAACAokBYBBSzD09o7ZFTeiWSdHIWFNiSqvu0cfnDMcHcOnUvd2cjH4mc1ffJimZE49dqvKUkLg5o2ytD3hNgCqoa1OEFku1BNygKn+7T7pD766J27JC27rAVHEa1s6agwoN92vAin9Op8D8Q0NpN69W+z1yj3qN9k/vdGC72cCPL6zP/66xC/pZmdew0n/vIsDq5VgEAAAAUCeYsyhLHN7eV4pxFuAHmzdPjS5brzyvLJv6a+/p1HT17Sps/JCmaKbbKo2V1jQILYoZbujim0Lsh9bw+VNxVH5g5gWZ1B71g0l5fh9/Q7hCVMJglqivUuO4Rrasrd4JMR8Rcp6+Z6/QY1+nU1KptX5MqB/u050X+TQEAAABQPAiLssTxzW2ERQAAAAAAAAAAJMcwdAAAAAAAAAAAACWMsAgAAAAAAAAAAKCEERYBAAAAAAAAAACUMMIiAAAAAAAAAACAEkZYBAAAAAAAAAAAUMIIiwAAAAAAAAAAAEoYYREAAAAAAAAAAEAJIywCAAAASkl1gzp2NavRe5rI3xJUx5Za7xkAAAAAoBQQFgGYo+bp6aZ1eudb69S7dKG3DkBqFQo+26ru54MKVnmr8hZ9r1Z1PMoNZWRirpdd5nrZZ66XFq6XG25lszp21stnl6udNUn56prUTWAEAAAAACWDsAgoMksWLdWeptVOiOI+VmvP0oVa4v1+wkTYsmeRtyqp6OtW6+l53qrZYF6VHi5zF/33Velxd3EW8fqtaWmSvk+w6MHx85X8XCzUnuj5bCAYwyxQda9WLHAXfavuSVmdcON4YdazDfJ7a6aXF4bsmq79TYQtbSu9VUlFXxdUME0IMOOqzfVS6S761szS6yXb87ey2TkPqc9Frdq838/KoMVWFG2qkU/D6tx+SP3nvPUJRnq6tO3gmFTXpI6WCm8tAAAAAKCYERYBReTxhtXqXl6rh8q8FMVRpofuW67upgcTApVr+lH4urNUXZYmBYqGMtcj+tE1d9WscG1Ub7rN18jZUb3qLs55D1UlCYMWVekhbxGYFUbf18mL7mL4yAfqdxcxbS7prYExZ6nSl+bGfTSUiQzrrRQhwA1xzlwvEXcxfLB4rpeA+fd2kpX3KOAtzj4VCj5pK4rG1LvjUMbzYAOjzkEb8D0yu8JHAAAAAMC0ICwCisSSpav13Uon1dHRs29qww8P6H77OHJKR22oUlap7yZUubw3GtGI+en3VaWufrm9zP1L6198ovecFbPFNX2/zz3GtWcueOuKQOXkKqnHq7w/yQdmjUvqeq5TG77dqa2vD3nrMJ1G3h5W2Pz01d+buvplYbk7tNhHV5zv9tnDXC/bzfXyhLleeoroeqmbXCXVuLzGW5p9/C2PaK355yR88A11ZRkm9r/Yp5DKtfbJmarSAwAAAADcKIRFQFFYqKfuc6uJjp46rM1nrk0EO9cuaHPfKR21y2W1eip2mLNodU5Zpf4wRXFRNKg4OlpEgcyMKNNXYgu8snA0Yv/0vlKPxA1Ft1CPOJUCEfccAsjCHVroDZM3M8z+pjvTjVbnVNbo6ymqPKJBRegUAV5ucj9/ocFh898aPRg3FF2tHqwzP8zvQu6KWaRWLWvKzb8lA9rTc8lbl40h9djh6Crr1ZJ2CMQE1Q1qG5+nimHsAAAAAGAuuOkbq5o+95azduXy5P+TuXixX+fPz66/Yy0kjm9uK/bjc+a8WV4pXR/Shr4zySuAoq+JnNL9xyeCH1uR1H1fmUbOvqm1ZxLHmbNz5SzXQ4roOz88kXyot3kL9fSS+/RwpVeBZIxcj+jNsz/T9z9MPm6du0/plSOH9X37kmTvYdq5zbTTPRY7/8/D2pgifEne9gQ5tdPbn6L9OU+PNyzXn8e1b8i0L6GvTR/33lcpfzYhUex58M7NyNkhnbuvVg8l+d1R8zsl/i7WFI7PbvvUivsmhi+8bqvTTmlzivOXk6oGdTzjTqQePrJfW9+5d+L56T7tecUc16PN2rzKzqHhrttq18WpUOOjK7Tu9+bLt6DcW2dee3FYJw+fVFco4d+kQLO6g95f95v32/DKFTVufETrlnlVFxoz+wk5+y7Mt0Kt2p5vymroqVBXp3YX8C6yP9CgltX1CowHI+mOrULBZ9dr7YIx9b7QpbfszeM/DZhtvT69OKbQ4TdM+xL/jY9u5z1N4JzX1zPcfK6qVfCbAa0YPwfu+Tvwg0PqH/VWJFVhjnGFNq+OPfcpjtGc947V5jrKJiRyrospBiorzf4eM/vLJmQYNPt7cfL+/CvN+XvMnL/x9zDHNmiOzbw22bXpbwmqfU25wgdNn0+64W/nyrHX4bA6n0gxxFi1OQ/rzHmoizkPEfM5es18jo4lP4fuPqXeHV1uNUqy9zDHN9FmO/+PuV5S9EvytifIqZ3e/jSgbduPmzaY74st5vMe174B0z77uxj5nj87Z9GmGnMcA4qsMecuye9C5ndK/F2sKRyf3bblSfO5rfQ+DxHzuX3NfG5TnL9x4+3Oov8T2XmOdprv7VTHk0Tjlla12uDMYYe9864fAAAAAMCsRWURUASWlH3J+TkSHk0eFFmfXHdvlCUMc5Z2KLroXDmRZHMCzdPTDav1zqrl2hgTUFj+skptXP6w9sRVyCRng6Ok72EeKY8lJ1NoZ1mZ7p23UHuaHnaG+IvbtrJW3QnD+llZBUUpfaJ/tpVeMefIPbfXnfXJiwmmdnxP2XmuzLZx81yZ5YfMdu80JJk/aQp8d61QmxcUOc+XNallY7PavaAouq5tPHWpUOPGoLqfX69W+5qYoMjyLajR2uB6dWxMM4n8soA67PYxIYVkls1+2p9tnoUT7WfLBjitag/WxwRFlndszwcVrPJWJbHwm0G1P9M0ERRZZjlg+rM7XX/mwf+oOYdmX2vjzoF7/lqfaVXHoymqDqpq1fbsenOMiec+9TFmFRQVUFZBQ1I2ADDnb5M5f3HvYY6tzhzbPnNsST7waYeii86VM5hsTiCzvy3mPOw05yEmoLB8leZztGm92rKoGrHBUdL3MI9k4VbuptDOynItrjbXzC7zeU/ctq5e7bsmD6OW//mzruiCrfSKGYrO75tv/jumC+YkJX/rqR1fi9m23Ww7HhRZZjlgtuvekv5z61adjenk2zkGRVa0qi3JsHsAAAAAgOJBZVGWOL65rdiP7/GGdfpupR2C7oA2f+itnCRaJXR9oqLHkbp6KFp1lPR9o9Uw1yP625M/06vXom84T48vXa7vOsPiJa9IGn/fSEQPVZqGm/f4TsJ7LJl3Te9lKGxJXxXlyaudXuXNeH5i+uzUqfEKnSXmPbttlZaRus+9fk1X7RU1Xln0prZpeUyfx1QAnZTaV9XKn1hZVIDjs1VSf/veGbOtfRa7XaZrKgsxlUVZi6n6aNzYqtZlzmJacRU7sZVFGWRVFTML2QCmfZW9YTxmjj2mGshW8Pxpk1cFNKzOb8dWmNiAaaJCKHx6QAd+fNyr7LHVW4+o1XnP7Cqgom1I24fj58K080hIPa9PVMz4ze822yDIVh280KWuuAqjmGqti8Pqjasg8yrNVtUokrKd3vYXB7TtuYSKkmnhVfVEotUt6UUrhJx+2RtTFWIrTp4058/5eklWIeTtJ8nvou8Z2mv65Ji3MipaVRIZ1oGXT6r/XExftpjz7rQleUXS+PsODitQZ86leY/OhPfwV1/SSIaqkej7pK1syaudNniLrWQy15Pp02iFjt+8Z7t5Tytp3zhyOH8xFTp79EhMn3vtsBVAL0ubk1XiFOD4bJXUgQPmc+v0d+x26Y4v+h7Jz3E23PMXU2GWiR2G7kk3DM2rmgkAAAAAMOOoLALmvHm6xyksuq5//sRZkYJbnTLZBb1h/2J40lw58/SHPjdoeCNZWPDhCW04ckBr+07EBBTWNb165rC+47znl3RPirmQLBsU2YDk/iTvkSkoytpU22mDrB8ejhvK7T3znu52UnVZmgPMkf/2Mr135qwzN9FDVQvNKajSw+YUHD2bJmya4vE5QdvxaFBkudttOOteLE47CskGQS8MONURLhsUdKrztPfU+vId4xUA/T+2r7VBQ5+2mddt+Lb3eMFOuj4h8LV0f1Vv9tG139sudt+Sb9WKufeX8lUN2uwFRTZkiRs2bnRIXc/tV+9F+6RG61JU7TgBzyvRoMi6pP7Xu7TtyJjzLH1/ZqtCwdXeTfou086YoMgaCR3S1i4770u5Vtwf307/owEvKLJhz6GEoQZtW822L+zPGGjNStXm/Dk3983522H6JXb4sHPm/G0358/53JrzN2mulyGdGLQ/E+fKqdDX692g4USysODYIW3b0amt2w/FBBSW6cueLnU67zlfVSnmQrJsUGRv+m9I8h6ZgqKsTbWdNsh6oituKLcR857uduZfOV/h5s7x+e7QSE/I+R4KLDefl+p7taLSXOuvpQmbpnh8TujyYjQostztttk5hQynHUl5czJFxnTeXZGnci3M9p+Ec8e1e7v5zn3CHC9BEQAAAADMCYRFAPTqqJt8xAUDXlCRfAg613igM2+eHl+0VHsaVqu3abXe+ZZb6SSV6Su3O69ILnIq81xDBZB/O6/rlZOxFTkT3v8kafJWAF5496Xb9XhVpfzRsO72+CHmYk3l+N4cTd7/0eEJbTsmDU84BaGfDkmjV8xReS4O661R6fzH7s3OSUaPa+u3u7T7HWnx/c1qezaojmdbnWHN4uYIigmYEtmgYjxsMO+3xwtEXPNVlWa4tlnpbm/4qtOhhGqcqEvqOmxDGMn3e0mGK9OYTr6T/ObtyDvuMGfp+jNrVfdqha1iujignlShTugD52Z7fDsr9PXf88KUH6S58T46R29AL/TO36A5f0lDFnP+XvPOX5Lh5vpPub+LCwa8oCL5EHSu8UCnukKNKxvUtsV8lnYF1b0vOrdMhiBgsG9Gbvrn305zvbycvGrmfDjF98uUeeHd3Xeo8QFbJeeFddFznMRUji/VEHLR4QltO6b8uU1hJHzVWwIAAAAAFCvCImDOu6YPfmF/Zghm7O+9Yccm+XDUqWaJmyvHCSqko6MxQ54lWGKDiaZ1emfVw/ru8lo9ZOfMiZ37JoORaQtc4k21nTPNCe/Kat2h4NKEdVHTenzmfe71FqduTBc+8hajfn4l/ZBPzrw1bjhk5y2yc+xMdV6akY9jb3qWa+Hd3uIc4b/LzosihT++4vxM6qMx9+ax6a/Fzooc5btdrGiotaBe7c+bc5j0kRD6Oe7QQuccX9Vo0jBsbnPntTHnL5zm/F3wzp+dh8dZEeOYG7DFzZXjBBVS6FTMkGcJ/DaY2GX6fOd6tdq5kuycObFz32SQtr0FNNV2zjQnvKusd4eCSxPWRU3r8SW7XgAAAAAAyBJhEVAEolUuaYdEm3e73JFtfqEPJhWTRIeimxiu7N7bbdiQZmg7Z96eWj3kvCyio2dP6TtH3tQG87j/hwfGh2m74eZKO2NFwzsjXVjnmIvHl7VatdkKoimGQ+klCbByZtqZNAiZ/GibnIwAOYoORTcxXNlin1uJdSHV14Uzb487f4wdqi10sE+dO/Zrm3nYYcKiw7TdcHOlnbGi4Z2RLqxzzMXj80RDTgAAAABA8SIsAorAe9ed0iL5fVUphwyLVgqlqlRxh6Ir08NVNi1aqEfszazrEf0o6ShlC7VnufMCvXLKnXNo85kLzpw578XNm3OjzYJ25lWZc0FvnL2uketDyeeLGjeNxxcd9u76db3vrJh54/PWeMJH+tT5wn5t8+YtipvnKAeNX3Pn0ZnrfHfd4S0lEa3quZjjHCX5bpdMtLrJzlMVnWsq1eO5ZMPNFWCIwEJUSOUih8oOO+dNStFhzFLMMeMORVeuFQ/YOXhq9aAdviwyrLeSDmtXq7ZN9pofU+9ed86h3T1Dzpw5I3Hz5txos6CdeVXmDOnEQXOtRwaSzxc1bhqPL8P1Il3RBftP/JQrj9IEkgAAAACAOY+wCCgG0UqUslo9tchZk2ChnrJDmhkpK1W893ACp0VVesgsj4RH9Z7zyxRsmPRhslBinu7xlmaFG9rOiWqtXLx65rDW9p3JOASdYwrHl3zownl6+j4bQmVxDcyUi8M68PqQ+kcvaUQV8gcatG6Z97sMAqub1eiFDv5Ac/x23pxJUzOk3ckCkCSP3anm7snB+LxCywIKJg1TKhRc7QZi4XffTxLCpBp6L9N2ORp9Xycvmp8p25nKkE44QWC51v5pQ+o5WKrMdeAtppZH4FTV4A59+HyrOh61YUwuJqp9UhmfX6bO9EvS15rz8Jh3HgZSnAevmsWZ02jlPU6omvK1UTZMOpYslKjQVDO5grqh7cx8/pLp7+nS1u3HMw5B55jC8SWfyyiL60WXNOpUUOZ3fHYfX6+31WtXNZo0kEym1h1ub5/5HG2JmV8LAAAAADBrERYBReGCXjrrDkX30PLV2rN03kSF0byF2tO03Al/dH1IL6WsVPGGoisr01NVXzIL1/XmaIbqlLJatS9dGFPNZPa76EH1Nj2sjW7WMDvckHZGh/Yr08YVS/V4bGA0b54eX5RHgpRK3sdX5l0vMdua6+Vpu52TLUb0t2emWKE0BXFzCy2oUev4cG7r1R6sd/+SPht222fcbduD7twuUaHDySpaZrnR4zoQDVOeCaotEBNoVNUq+Ox6rXWG7rMBW/KKhUDQBiG1E2FLltvl5pK6DrsVME477f7i7oZXqPHRZnU83zw+905U/48HvDmX6tX+bLOCscdotrOhX8cz5jrYmOomdHzgFA0LHVVmv3HvF6/xm/XjQx/6Vj2SZdAVHRrO7O9Js7/YG/LVZn8rY/Z3zpy/6Gt3mn6J/V21OQ+7zHlwPrfmPPSkOg/e/irL1bLcDg82ppNvZzhnlfXa3BJzzm0/rjT9aPdnK5NmixvSzhzO31TlfXzlCmwy10vstllfL4nVaDmqvlcr7D6ymJMpyt8ScIfbM3wpg1EAAAAAwGxCWAQUiffOHNZ3IjYwKtND9z2s7m+t0zv2sWr5+Hw23+k7k7ZKxJ37qFIPVZoNUg5BZ02EU/77lk/s61tmv8vtcHdmX2dnw2Q5N7adr7435AYRZbX67qrovs1j1cP67vKv6nHnVVMx9eMbuW6vl5htzfXiBkXX9cqRE9lVNk2X0En12sqUpMYUOj3mLecnfGR/QSp9boT+V/Z7fVOuQHC9F6KZxzNNXuAzpt4XDqW4sTumsNnWt6pJ7Tltl4fQIW07Ys+TaafdnxfauY/1al1VI59py6Tqn9Hj2vpCNDCq0drYY3TCQhv6mbb+OPUcMbGBUzQsdB7PmP0GV0wKqKaq/4C3v0qzv51mP/u8x06zv03x++t/0Zw/56NpAwBzbOOvNefBucFujm1H+vNwPmz7tUaBunK3WiVlxceQeg66nxXfGnMOovvaZ/pxk+3HYXUetEHCjXZj25nL+cvP1I8vHDHXS+y2OVwvcdVo7pqs+R+w7ctiTqaU8gypAAAAAAAzirAIKCKvHj+sDaciGnHzA891jUROaUNf5hv/742abb3lTMOP2XBq0r6uR8bnznk1rg03zg1t57UzWnvklI5ej9/JiLP/nxUkiJna8V3XmycPTNp+JDKk7xw5rO/fuKIizyV1PbdfnXGh0JjCp/u07YUu7f6xN5xXWjb82K/e2Pe4OKzerv3aWpDqmRvF9k2ntnUNKBQXqHn98+0udaUaXs8c/x5nW9N/MduGTw+o0/Rryu3yNPJ6lza80Oecg7jzdXFMoSOmrc8dSr5PGxh925z/I/HtzOoYLSdw6jP9E3v9mON0zv/JlDfWbcgU7dPwkTey749zZn87zP4iCfuLmP3tTdyfOX/bzTnYa/YVl+eaYxs0x/aEObYMw32ND2dnZBqCbqSny+zLvD52X0673Llz+jN/kGbEDW1nTucvP1M7vjGdfNleM/HbhwfN53ZH5utlPKxyKptyCW5q1bLGBpID6kk7J1O8kZ5QwrUNAAAAAJjtbvrGqqbPveWsXbk8+Qbb4sV+nT8/5wbzyRrHN7cV+/Els2TpanXbeYoip3T/cWakRqx53lBztnpoNoRCBRZoVnfQncPDDYsKH4BA8j8aVPuqcqdCa24Hb8BsVuENNWerh7IJhdLJ/b0at7SqtW4K+15pvo831Sh80HxPpBkmDwAAAABw41FZBBSp986c1VG7ULlcvQ2x89kApaRcC+/2FlFQi++yE94DmDsuqetlO9yenS9r8lxhifwtQbXWSeGDb+QdUvl9Wc6pBQAAAAC44QiLgKJ1QZvt8GJmyV8ZO5/Naj09z30FAGRUVatgoCJunhN/oFmty+zSmE6+w01gYM6ww+3ZoexUo9ZdqQMjGxS12+HnBvvyrwiqbtBm5z1CU6yIAgAAAADMBMIioJh9eMKZM+eVyHROzAOgmPnvD2htcL3an29Vt/do94b5C58OMcQfMNccO6StO2yFkVHtrEnKzp+14cUh71kuKuRvaVbHznr5IsPqzOs9AAAAAAAzjbAIKHbXLuj7xw/r/h8e8B5FOEcNgGkz8s4b6jw95t5Yjro4plDXfm19hZvAwJxkK4y2H1J/ioqfkZ4ubc075LlDLWtqnKqkbXYf3loAAAAAwOx20zdWNX3uLWftyuXJw1EsXuzX+fN2wKvixPHNbcV+fAAAAAAAAAAA5IvKIgAAAAAAAAAAgBJGWAQAAAAAAAAAAFDCCIsAAAAAAAAAAABKGGERAAAAAAAAAABACSMsAgAAAAAAAAAAKGGERQAAAAAAAAAAACWMsAgAAAAAAAAAAKCEERYBQDEJNKvj+VZ1m0fHxgb5vdUAAIyrblDHrmY1ek8T+VuC6thS6z0DAAAAAJSCm76xqulzbzlrVy5f8pYmLF7s1/nzI96z4sPxzW3FfhaXefgAAE1qSURBVHylaZ6ebnpYG8ukkbOntPbMBW99KatV2/NNCnjPrPCR/dr6+uTv7NxVKPjseq1d4D1NULj9YKY0bmxV6zLvSZxhdX77kPq9Z7PDLQquL9fa+eZa+8kn2vr2r7z1BXDnF9Xxx78jn/d03NV/0bb9v9Rs+pdjbp2zUmK+H3eZ78dKc30e7NPWniFv/Sy1slkdm2rki5jr5mVz3Zzz1sewYVH7mnJpsE8bXpzlxwMAAAAAKAgqi4Ais2TRUu1pWq13vrXOe6zWnqULtcT7fSqTt1un3qYH9fg87wUp2dDGvL5pacZ9FNS8Kj1c5i7676vS4+7i3BdodqqCnMfGGfir7pneH+YoG9Z8Wd1/YR7rvzhRsfa7t7vrzKPtd711SXnbx26biztv1Yr57qLv39yashpiwhT3N+2m2p8zzYYh5jti18xUK/pXNqhtV1Dd+8w+vYdTBVPtvSClmW3nuOp7taLSXfStuSeL6/MGshVFNiiyAeP25EGRNdLTpW0Hx6S6JnW0VHhrAQAAAADFjLAIKCKPN6xW9/JaPVTmpSiOMj1033J12+DHW5NoydJk20n+skp9d9U69TZkDptm3LVRvXndXRw5O6pX3cUSN6SermGFvWe6OKA9VPsgLVuR0qkNcY8MFSpXP0tSbfNrXbjiLU6Hy7/SyavuYvgnvypsBc3lX2rrf/y5Now/PlHI+9WMyKE/+19JPFed2nZkzPttcXAqWjbVK1BZ7q1x+Spr1Lqz1RkabdYFgOfe18mIuxg++MEsrvCqUPDJevk0pt4dmSvRbGDUOWgDsEcUzBjUAQAAAADmOsIioEjYwOe7lTbsua6jZ9/Uhh8e0P32ceSUjtpQxQY/yap/Fj2o7vu87U696W7jPTacGnK29Vfepz/MWGE0067p+31uO4tpCDr/XV75RJ5GQoe0NXoj+bnjGYfQyn5/l9T1XOxN6r6ZvaGOEveZuva7YU5Bh6DD7LKy2R36TGMK7d2vDU+Y7xrvsW3vgEIRyVcX0NdnXXBhvh+3u+2czUPQ+Vse8YbKe0NdKSqKEvW/aL/ry7X2SebAAwAAAIBiR1gEFIWFesoJfKSjpw5r85lres95Zly7oM19p3TULpfV6qlFztpxj1e5Y+fYeX82f3jNWY5678MzZts3teHIYX0//lcxyvSV+IIkTMHiu+L/mn66zfT+MFd9plGvsifOlV9PVLKldbMWTi0HzdFM7y9XU+3PmXaHFnrDrE2nxuU1zk8bZuw+Fl8VOXLsuHZv369tO7rSBB0z0865qVYtNoiLDGhPTy4Vp0PqscPRVdarZaW3KhvVdihBbwhBhrEDAAAAgDnhpm+savrcW87alcuT/0/m4sV+nT8/m6aBLiyOb24r9uOz1UHvLK+Urg9pQ9+ZiaAoVvQ1kVO6//hEJc7jDev0XbN65OybWnsmZSIUz7xX732V8mcTEiXsz3KGvbtPeiUaQs1bqKeX3KeHK8vG/3J5xGy3zWznHoudF+lhbUyxv9Rt97ZTtF/mmeNdrj+P28+Q2U+KPjOWmGNtz3CsOfXdJBUKbnxEa5dlGdpcHNC2aMVQVYM6nrFDCqUypt4XutQ16j11TGF/cWrV9nyTAt6z8JH92prFkHf+qlq1/GlAgQUT+w9fHNbJwyfVFSrUkHnxbUsn1NWp3VMskWrc2KrWZXY4t5OqGu/bMfPeXea9Y/s7us7ZLJ7pl+A3A1phXhc9n6n7xbzns+u1Vu65sdvG9elFs5/Db5j9pO/PiXZnHo7Kavzml9VqPjjhn4xp69ufuSvv/KI6/vh3TJt/pc7/+En8+/zu7eqou1W+bEKbkU+04cfRiiE7n0+51qbYLm7/sfLeX6Jb1fYXtytw9V+0bf8vM1bnOe68VcHAF7XCf/PE+bv6Kx04bPrksrciQc79mYL/0aDaV13N+jxmbWWzOh6rkS+b8GWwTxtenFxRY+ceannMDinnrTCfgfBgSHvMa5P1a+MWc03WmT45aL5Psg00pthOZ9i7NVJvNISqNp/FdeazWBfzWTTbTbTZfP52mc9fiv2lbru3nf3cbrffqRXmeB/Rurj9DJj9pK4I9Ztj3ZzhWFPu32zbvakmt76NsvMc7TT/1qQ4z8lEz6XLDnuXLuQDAAAAAMwGVBYBRWBJ2ZecnyPh0ZShhz657t6AqqyKm7vo1VF3ogX/fV/V4zkMNZdVUJQFGxy9s2q5NsYEOJZdTnksuSor073zFmpP08POUH1x+6msVXey4fkMdw6oLEOxqfhylsFNocz0/hwVatwYVPszTXFBkeVbUKO1wfXq2FjrrZmL5mudDXDGQ7hyBVY3KLgxYV2wOWHyexsmBdVt+sW+Ljb4i/ZLW6rUy/RjS7I+NcsBs113gfvz/NVfOz8jYzFBzeXP5HyDmN+dd1bEyyq4KaCZ3p/lf+AOdf/x7VobExRZvvm3qvWPv6yOB27x1sTLpz9nWlYBTFI2GGn15h7yVjnMNV7XpPZ9waRz4PSfGnZ++tasUGMOQ83l3854Njjq3mk+izEBjmWXswoNs1FZrsXVtWrbtV6tifupq1f7ruTDvTVusXM5ZRmKJeFWbY3p5Ns5BkVWdE6munsSvr8AAAAAAMWEyqIscXxzW7EfX7Q66OipA9r8obdykoXa863lekjXJyp6PNHtHdcjeuXsz/T9hCHpUvPeN11VUwK3sqhMRyMRPVRpdmz2+Z2TP9Or16L7nKcl867pvQxNiL5Pxsqi8bDHHPupU+PHZquGbBhkTeq7aCXWpG2Wqn25nWDdtPmHJ/Sqs3YqvCqRBd7TTApRWZTv/uLkVlnkVrF4T9IoRKXPTJs4tmh/x/bx5HVxxxhoVnewxqkiOvCDk+ofjfZhhRoffUStq2wIlFj9E38Ow6cHdODHx8229lnsdun7M9fKIlu50/3wrQq9+XPt/idvXbQKSJmqcPKo1klgQ5n2f3Nz6sqiOFPZXw7ben0i/Vqhn/xSPW//avz1fvO7zeZ3PvO73v9yRV2JFUZT6s8J01ZZFMd83veZz3skWhWTnlutY69BO/dQzJBytmrnySavKsdce09MbnNcRUpkWL2vnVRXwpB0qeXWTiva1tDgsAJ1Nc4+O182n8VzE59Ff/UljWSoiom+T8bKoui/tfa7wfRN9Nhs1ZANg6zQXvO5PeYsuryqoMnbNGjzJvtvQPK+nBDdd6bXpTapAisTOwzdk25YmFc1EwAAAABgxlFZBMx583SPU1h0Xf/8ibMiBfP7695iglePH9CGsxH3xlpZpTYuf1jvfGu19ixdmLTiplBsUGSDnvv7TsQERVbmoChnNpD64eG4EOy9D0/oO25hlarL4suqotVadg6o+G3OaO0pu1GlHkmY/yk/l9T1XKc2fNs+9qv3orfaOt3nrY95xAY3o8e1NfH3Xe5f5qc2hf3lq6pB62KColDXfm2L2ce2mDbbapxkf1U/F4SPvOEFc5f01rtjk9aN/txZFS90SNte6NTW5w7FBEXWJfW/3qXO03Z5vqqqnJWTOCHdK9GgyHK323bE3X/ga4Wu1vq1LlzxFmNd/Wzq18mcc4uCdTYoMqfxzSvaHRMUWSP/9Im2vmmHurtZK+5JXl1UlP1Z3aDNXlBkg4W4uYfODalru/necb53a7QuyVw2/S+a74SDw+7cTZU1Wrtpvbr3BdXWYkP66WODIhtqbNhuPovjQZGVOSjKmQ2knuiKC8FGjh1S56C7XOmL7xe/VzIX2pu4jfk3YK/9/qzRg2nnE/LmcoqMTbFirVwLF3qLmZyzc0yZ7/gnzPcbQREAAAAAzAmERQAc7505obU/PKANp4Z01AmVyvTQfcvVbUOjRTmMT5eLyKkpzPWTi+t65WTyKqD3P0mRoGUhMWBCcv77a+Kqn+wQae3Pt6rbe7QH3b+mdywo12Jvca6JfDz5hmjsuvMfuwFOopFo0FNVocZAg9o2BtXxbNDpG7diqVwL73ZekWBMJ99JfhN25B3vZvuX7yjcDfZ/+kQb/mNihcxn6tr/8zTz/xSxO2/VCnsP/+q/qGe8MijBP/1KtrDL57918nko1v5c6A2tNhhKUYFySV2vecPN1d+b9Poc6TmkrU90atveAYWcYKlcgTXu8HVtKycHTAUx2DdDocaYel9OXt1zPpz8OyIbiQFToY2Er3pLAAAAAIBiRVgEzHnX9MEv7M8yfeV2Z0UK5vdZzL1jK2c29x3Q/UdO6ZWIDVLK9NDyh7WnIFU08UamENRMt/euO51qjv3B+Lmc7NxH3tB1567PRNA19y2+K2Y+nYxSV9EUK78NiJ5tVfcz69UarFfAzl2UMK9T3uZw+Dbr3eHNUTT/d9T+F19Wd9LH7eNDNZaKaBVMOJysZMpzYcyrHEp/fdrKGac6ZUefegdtkFKuwKb1aktbRZOftO29waJBTWBTc/xcTnbuI2/oukiY6h0AAAAAwNQQFgFFIFodk7bSZd7tcu8x/UIfZJNxXLug7x8/rA1n3fd+6L6l0zok3awzPkRdpb67ap3e+Zb3WGXnfTIip/RSyvmhkL+rGh0fUi1fdj6licqldI+2G30nP9CsdhsQ2fmHLg4rdKRPnS/s1zbzsEP0ucPQASXODl/3Ype2HfSGV3xs7g5XmZfxIepq1LrTfHft8x47vXnjBvvUEzvH0TSIhoAAAAAAgOJFWAQUgWgVjN9XlTLQWVJV6d5ci4wmHY4tlfdGvbmMMikr073eYvFwg7L447+uo2dPacPxC3rPWzNtCjmEWDamaX/xw68NqzNmvqLJj/wmX5+batXmDME3pt6u/drw3CHtfn3ImbtoJG7+ojzc7Q0FdnGqc5QU2PybZ7bSaTr3d+XXbnXMiB1O7ufpH/t/WRxzOmWoBIrl893hLSURHaouxzl0Rt72hlfMJId2zh3u92j88Y8pdLBP214cynB9XdEFZ6q9qfbLmC5c8BYBAAAAAEWHsAgoBh+O6qj9WVarp5IOF7dQT93njkF3dDT+Ts/jDRnmJLq9LMsA4Uu6p5im8Fn0oL5bKb1y5IAzl9P944/D2nxmuoKiSxr9ubdoLahXSyB2HooK+asKOS9F4fbnW7VCjePDx9ntvEVjfP4cR41an202r03Yjx2K7dFa7/lUDWl30iBq8mO3nVDmRrs4rLdCycKhCmUakS/5XEYVCq52h6YKv/v+LAspblHVnd7ijJjC/jIFTZd/pZN2dDD/FxWc0WOaoipv2MPnW9XxaK7fJ/NVFTsMWhLjgU5dQMGkrzXX52Pe9TkQf302bskwJ1E0ZMooczvnlJXNaq2Tend0OnM5bRh/dGl3T6agyDLf9R/Zn/n2S4W+Xm+Hxryq0aTzUCVTq7ZdbgVUx5ZCfbcDAAAAAKYTYRFQFC7opehwcctXa8/SeRMVRnaOnSZv6LTrQ/FDp81bqj+vdOck6m2yc/PEpz1LFj2oXm9+nqNnz6QISC7oDWe4tjJtXLE0YX6feXo8XRA1iy0p+5L5b5m+UjWz7e//qTvxe1QguD5m2LT1av/T5BPC5yv//Q3pRNwQaTVqfWZiu833x9zwHT2uA7GvXWBfm7AfOxTbqoCCJTZfkWNBvTY/WhvTzzY8a1bHs+u1dpm3Kqlyc76CTsg2vm1VrYJ2OzusnYZ14PXZMo/Jr3TCuaN9s9au/qIaY8OVO29R4+/e4j0plKns79e64EwRc6vWPXDrRN/eeWv8++gzdQ3+yvw0+/jjO9RmXxv3e7OfB25Xx1/crkZvzWzQ+E1v2EPDt+qRLD9z5vPuDINWrrVPNiTMm1OhxtiA55z5vEdfuzMh/Kk21+cuc306/6yY67Mn5vqsbtC6OndOoo5ddm6e+NDIv9J8Jrz5eUKvHU8RkOTQzjnEHQKuXAsfyL/9/afsd325VuTzHtX3aoU9Z4MfZF356W8JKOD+zwf5UgaHAAAAAIDZhLAIKBLvnTms70RsYFSmh+57WN2xc+zYoqLrEX2nLyHwuXZGa48M6ajZzF9m5+Z5eGJuHvPoXu4OXTcSOaXNaebnefU97y+by2oT5vd5WN9d/lU97rxqbokOv2f7MrZPYh82YHu60GFY6KR6L3rLySwo8PBKU9hf/yt9SlWY4/u9+JCp/5X96jwdOxxdMuVaERsyFb0h9Rxx+8S3qkntceFZjXx2yL4j8WFeovDFcgVit32myQuKxtT7wuwa0q8/9C9uxcn831HrH39Z3X/hPf64XK0P/07BA5X89/eZ3hr5tbPk+ze3q318u9vVGrjVWT/unz7Rtp/Y196sgH1t7H7+wuzn39wq31XNcDXV9Og/MOD2Z2V9wrw569W6aUVcf/a/uF+9zh8RuOFP7Bw7blBkrs8dCdfnuePaumNAIbOdr9LOzROznXm0b7KfCXPND/Zpd5r5eXJp51wRrdYKrInvk9iHDdiC6cKwYx8439e++tz/4MD/gNv3oVND7oqc5RlSAQAAAABmFGERUERePX5YG05FNOIWGXmuO2HPhr4TyecqunZGm/veTLKdzPOIvnPkTa09nmGSAid0OqWj1+PfwG7/yqmf5TRH0qxxbVR/64RvqdmAbePyh7Un6dB/+bqkruf2a1vXsMIJIU744phCRz4o8Bw0U9nfkHa/0KfehBDI2e7dK96zqEvqf6VL27zXOzdzo5z99JnfdWrrrKmEmRkjr5s+Sez7i8Pjcxj1f+ytS2pMJ3/QOWn78OkBdb7Qpa5Rb8VscfmX2vpfPlHoqhvERIWv/kq9b/5L4YOtKexv5O0r2vaTX8Vfp3a74fj3suxrN5j99I54cxhFmf2GfvKJtu3/RF2XvXWzQP+PBxTyrpfwkTeyv06cMKdPoUjC5z1irte9JxP603yvbDfX5l43/JlgPvuD5rP+hLk+kw1nZvaxe7v5Ptprrum47dz9dO7Yr60vZggscmrnHHHufR0YTB+224Bt7ab1alvprZhkSD0HzXtU1mtzSy7BTa1a1pRLkQH1pAnpEo30hBLOPQAAAABgtrvpG6uaPveWs3bl8uSbeYsX+3X+fPJBQYoBxze3FfvxJbNk6Wp123mKIqd0f6awBwnm6emmh7VRQ9qQWI01bp4eb3jYmddo5OybWnvmmrcemG4V3lBztnoo/1CocWOrWpcNq/Pbs6sCCbnxPxpU+6qrnMeiZT7vdug+DWjb9lTD71Wocct6Z16j8MH92ho7vF8c770qbWVXisAuQeMW8z1Rl/3rJ1nZrO5NNRnaBQAAAACYDagsAorUe2fO6qhdqFyu3oaFE3MYIbN5VXq4TBoJj6YIiqxrev+T9JVHAABMiTdfUHjg/RRBkXVJ58PpK49cl9T1sh2mz84n1ZxxSD5/S9ALoN7ILygy3PmWxnTybYIiAAAAAJjtCIuAonVBm+3QcmbJX7l8Yg6jb63W0wWeZqdY+e9brj2L5k0K2pbMW6inG7zKLUX0t1QVYc6qUev4XEnRR+abyLgxbDVY/LlqVfuqcu+3KGa+NY+obWXFpPmG/NW1Cm4Jqt0OFadhHchUvWOH6bPD/NnP/q7Un3UbFDnvOdiXf0VQdYM2O+8RyjtsAgAAAADMHMIioJh9eMKZS+iVDHPvIMG1M/pbZ66FMj20/OGYoM19dK9aro2VZZKdk+lIirmgAACYqnPHdWDQLpQrsGm92ve1qjvm0b6zSWvr7JxCw+rdkeVQhMcOaesOW2FkVDtrkrLzS23INEdUUhXytzSrY2e9fHauqbzeAwAAAAAw05izKEsc39xWinMWYeqWLFqqp+6rVHVZWdxfc49cj+jNsz/Tjz68lmaYOmC6FGbOIgBzh39lg1oeq1FlZbl83jorHBnWyddO6q1jl9IMUzfTatW2r0mVg33a8+LQLGoXAAAAACAdwqIscXxzG2ERAAAAAAAAAADJMQwdAAAAAAAAAABACSMsAgAAAAAAAAAAKGGERQAAAAAAAAAAACWMsAgAAAAAAAAAAKCEERYBAAAAAAAAAACUMMIiAAAAAAAAAACAEkZYBAAAAAAAAAAAUMIIiwAAc1N1gzp2NavRe4rs+FuC6thS6z0DAAAAAAAACIsAADdchYK7WtW9L6hgtbcqk5XN6thZL59dznabvJi2PWva9nyrOh4tcMBS1aAO8772veMezzbI771kuvjqmtRNYAQAAAAAAAAPYRFQ4myVQfe+1qSPjl1Bta2smPYb17nxgoVd039DHbOUrSjaVCOfhtW5/ZD6z3nrk/LCnnwDmKp7tWKBu+hbdU8WVUxT3N8MGOnp0raDY1JdkzpaKry1AAAAAAAAKGWERQBS8lWWK7BpvdoJZjBrVCj4pK0oGlPvjkPq99ZOm9H3dfKiuxg+8kFh9zd6XFu/3akN448+hbxfTTcbGHUOms/4mkeyr+YCAAAAAABA0SIsAuAIH9yvDU90xjz2a9veAYXtLyvrtZkKBMwC/pZHtLbSXq9vqCttRVGhXFLXc26Ys/X1IW9dceh/0YZT5Vr7JGEwAAAAAABAqSMsApDCJY0cO66tO9zAyFd/7yy5oXyHFlZ6iygxtWpZUy5FBrSn55K3LhNzvXjDyM2Mmd7fVAypxw5HV1mvlpXeqmxUN6jNmWOqlWHsAAAAAAAAisRN31jV9Lm3nLUrlyffpFu82K/z50e8Z8WH45vbiv34Gre0qrVuWJ1PnFTVlke0tq7crB1TaG+Xdh+rUHDSOmczh52zqH1NuVNZtDXpDfhate1rUsDOD/PE5GG//Csb1PJYvQLjAc6YwoMh7XlxSKl7vEKNLSu0rr5GvsTtDpjtEitGVjar47HY16Yx2KcNZt/xctxfIVTXKrguoBWm333eqnBkWCdfO6muY4n9bOdhWq+1GtC27cedbVueDJg+tefMiJjz9tob5rwVarsYKdp54OVkcwHF72/E9qu5ttbFbjs4YM69/V0yFeZ6WaHNMefSvv7AAdP2dfYatkPLdaWuGDLXQfemmjTXqidgrpfVZh/ZhDanzfXySvR6Mcf3rDm+FNuFj5j9vp5kv3nvL5H5rD1vPmsXTf8+l6oPE1SZ8/dNc/6WxZyDi+b8/cCcv1FvRTp2/qed9fIl/dwk537feE/M5yjtOQMAAAAAAMCcQGURUDTma529ke+EQla5Ao81KLglYd2m5iwm6c+GDQ5a1b4pNiiyyuWra1L7vmCKuVBq1Wba2bomMfzxttsZVFuSaoWsgqKk8ttf/ky/bAmqe2eT0+/RG/iWr7JGazetV1uqKo7KcrWYbdvNtuOBj+XNHdW9pdZbkSDP7WxQmKqdrTvTVI2Y911c7fVr4rZ19SnmuHKDpvZN8efBvr7VnIN1d3sr0mhcXmP+O6aTb6cJijxZBTcFNNP7s/yPmvP3jDl/MUGR5Vtgzt8z5vw9msV1fe59nYyYn3X3FOh7AQAAAAAAAHMRlUVZ4vjmttKoLLJL0b/y9ypAnJvyk9eF9naOVxdlrCzyqjns0F9uNYkrup19/9DemOoVW6nyZJO378nVSOPbRczv4qpXJqpONJCucsSrdEpoTypT31+OotUvTnXOSbO/6Pva6qZH1Or0WWK/xJ6viWobt62x28Wfu/y3M6Ln1Z6/gyH19AxNnFvzu8021Bm/drxfJOzPubbMuY9WStntbBhkJe4v9hqNvV78TjWUDbnc36WuUonuO3mFW2p5VOsksKFM+yrzGUlVWRRnKvvLYduAOX9B7/wdMefv9ZjzZ3632fzOOX8vmP7MUGHkfkaUfYWQHYbuSTckzljlBQAAAAAAgDmByiKgiExM+n9Jbw2MTVo3+pGzKks2TGlWh3fzPzzw/sTN6+oGbXZCCPfmftwwZ+eG1LV9v3pttYJqtC5FdUp4wAYp3hOHnSPpkLZu75yWm88ztj/zntt2mPfcboOp2Pe9pP6eLnUO2uX5qkpadWXP135tfTEa+Fjudtvs3DJGYHnyKqHctqtQ0IZkhjMsYUxQZDn9snfYLJVrxQMpqlNs+PZEV9yQenY79/ikSl/MduZ6WRcTZsZeLyPmetk9fr2k481VFRnTeXdFCTPnb7V3/rpMf8YERdZIyJy/Lu/83Z9FdZGjXAsXeouZnDtuzlmnNjwxPZ9VAAAAAAAAzDzCIqCIRMKTb9zGrjsfdoODZHxr1jsT1k88vCHDzO/Cg33xN4UXesNeDYZSVCJcUtdr9ma1ed/6e+OGJBt5e1hh89O35hG1tdTKnyI0KZSZ3p81PgdSdYUaVzaobUtQHbuCTr+61TWpbsynHmItehy6+44kQ7zluF31vVrhBC8D6omtNop17AOFzI/E8+caU6+t0vKexUp6jWW8XpCTKnP+7LB3F835sycpmZB3/n4v2fmLNxK+6i0BAAAAAACgVBEWAUjJDqXWu9dWrMRPfO/3zXd+hsNXnJ9JXRhzQwo7v42zwnPuuLbuGFAoUq7AGjtnkBdO7bJzB01DmDPT+zP8NiDaZfaxc71a7ZxOdl6f2LmEpiKxP7MVu100vKmsV/t4OJj4aFLAefHUZXW9IHt3e+dvgTl/z5tzlfRRuPMHAAAAAACA4kdYBMBhhzGzw0rFPuxQarHDjBVMdBirHfvVeXBYociYwpUTYU7HltqM1RA5mcn9OfP2uPO52KHaQgf71Gn2u808bJ9Gh2kDZotomAcAAAAAAIDSRVgEIG8+3x3eUhLR6pV0c8ycs/PqHNLu7V3aagOqHX0KRcz71jVpc4q5jsblU2Ezlf1lpVZtzhxPY05F1obtZl89Q87cRSNx8xflIZv+TCbZdtGqr8G+SQHhpMf243Hz4UxF2usloyu6YOc1yreyakGe2+VrOvf3kXf+Tpvz921zjtI9nsv2/I3pwgVvEQAAAAAAACWHsAhAzsbnwakLKJh0GLcKBR9zJ+APD7wfd7PavzJNFc+5Ie2OznWUMViYr6oshpAryP6qGtT2rDu8V8ejWYRKkWG9lbQiq0JV3lIqyecySt2fUTltd+59nbTBS8rzV1gT18s9anTWJKi+QwttJVZalzT6kf2Z3XmfzGyXqfMLagr7yxQ0jZrzd9H8XGbO35SPqUJfr7dDJF7VaNbzSdW6wyzuc6vyAAAAAAAAMPcRFgHI3bnjOuAMp1autTuDalsZE6BU1yq4a73WOjf/h3WgJyY0qW7Q5k1Nat8XdId+q44PXvxmW7cyJ938NkM6Ed33kw1qjA0OzPs1xrWlEPuTGr9Zr8ACd9m36pHMN+gr67XZzofkPbU35P0rm9Vh+6XOW5VUuQKbvLmUvDVp+3NcrttdUpcTknnnb9LcTaYfW0x79zUnD3dyFQ2nVKPWXeY9Y/bl9MvO7ObX6T/ltnnFA1kEduPM9XLa/jTH+qfmeok9d1XmOAO5vFc2prK/K7pgQyDTT+sejTmXVbXx72PP32Hv/D1jzp99bdzvzX4eNf36fBbnr/perbDXyOAH6nfXZORvCbjDLBq+GQocAQAAAAAAML1u+saqps+95axduTz5ZuXixX6dP1+owYpmH45vbiv242vc0qrWOim0t1O7j7nr/C1Bta8pz3qdnbNoa9IgIpWKmDAimTH17uhSV0K1gn9lg1oe8+b0SSUyoG3phj+rblDHznp3eLVJhtX5xKHxG9+F2F/jRtO/y7wn9rheMMc16j1NEO3PpCKmbQNS65qauHMQ25dhOyxe0rYm6898t3Olbatl2tv78qGYbaP7y/yek66ndOfMzu30UY0Cdanf11Wrtn1NCmS6PhJVmX0/k+Z6+fbE9ZKM/1FzTKvMMR0xx/R6Fp+RKewvuq9J7JBzrwx5T1wpXxt10Zy/H5jzl+JatZJ9J2SSeN3k/t0BAAAAAACA2YbKIgB5uqSu7Z3atnfAmfdnwpjCg33a9kTym/4jx45r9/h2Y95aV9iGE3v3Zw4Czh3XVme+oWTbn4y7EV+I/fX/2GzrVHyYbY68kfbm+0hPl9nXsBPejPP2Y+cw6nfGY0tlTCdftm2N3z48OKDOtCFKftvZttp5m3oHvTlwokw/hQ6ac2jam3qfOfLOmd3XhIn99ITjz01yQ+o5aF7nVG7lUBE0avb9grleLiacfxumdMVfLwUxhf2NvG6unyPesH1RdrufTq58s6/dYPbTezrh/Jn9ho6Yfn0ufVBkw7cWG/pEBtSTZVBkjfSEEj7zAAAAAAAAmOuoLMoSxze3FfvxYa7LXLGTXL7bzWWleMzTw61InEI/rmxW96YaKosAAAAAAACKAJVFAIA55JK6Xh5Q2JlvqUBzKpUgO5ScHboyfPCNvAM3v2+++e+YTr5NUAQAAAAAADDXERYBAOYWO6SdHXJPNWrdRWCUq/E5hwb78q8Iqm7QZuc9QlR3AQAAAAAAFAHCIgDA3HPskLbusBVGRrWzBjmw84pteHHIe5aLCvlbmtWxs16+yLA683oPAAAAAAAAzDaERQCAuclWGG0/pH4qW3Iy0tOlrXmHPHeoZU2NU5W0zfa9txYAAAAAAABz203fWNX0ubectSuXJw9bs3ixX+fPj3jPig/HN7cV+/EBAAAAAAAAAJAvKosAAAAAAAAAAABKGGERAAAAAAAAAABACSMsQklgCDoAAAAAAAAAAJIjLAIAAAAAAAAAAChhhEUAAAAAAAAAAAAljLAIAAAAAAAAAACghBEWAQAAAAAAAAAAlDDCIgAAAAAAAAAAgBJGWISS0bilVd37oo+gOnY1q7Ha+yUAAAAAAAAAACWKsAglqly+yhq17mxWo7cGAAAAAAAAAIBSRFiEktH/Yqc2POE9dvSpN2LXzlcV1UUAAAAAAAAAgBJGWITSdG5Ibw2MeU8AAAAAAAAAAChdhEUoWSPhq94SAAAAAAAAAACli7AIJcvvm+8tAQAAAAAAAABQugiLUOKuavSctwgAAAAAAAAAQAkiLAIAAAAAAAAAAChhhEUocTVq3dWgxmrvKQAAAAAAAAAAJYawCCVrpOcNdQ6OKVxZr9adrere16qOlgrvtwAAAAAAAAAAlAbCIpQ8n/cTAAAAAAAAAIBSRFiE0rVyhVrryqXIsDp37NeGJzq1teeS90sAAAAAAAAAAEoDYRFKlt833/x3TL0vH1L/OUIiAAAAAAAAAEBpIixCibuq0XPeIgAAAAAAAAAAJYiwCCVuvqqqvUUAAAAAAAAAAEoQYREAAAAAAAAAAEAJIyxCyRoJX/WWAAAAAAAAAAAoXYRFKFl+33xvCQAAAAAAAACA0kVYhNJUXauWNeXeEwAAAAAAAAAAShdhEUpG45ZWde/zHjubFLArI8N665zzawAAAAAAAAAAShJhEUrUmMKDA+p8+bhGvDUAAAAAAAAAAJSim76xqulzbzlrVy5f8pYmLF7s1/nzxXvbneMDAAAAAAAAAADFiMoiAAAAAAAAAACAEkZYBAAAAAAAAAAAUMIIiwAAAAAAAAAAAEoYYREAAAAAAAAAAEAJIywCAAAAAAAAAAAoYYRFAAAAAAAAAAAAJYywCAAAAAAAAAAAoIQRFgEAAAAAAAAAAJQwwiIAAAAAAAAAAIASRlgEAAAAAAAAAABQwgiLAAAAAAAAAAAAShhhEQAAAAAAAAAAQAkjLAIAAAAAAAAAAChhhEUAAAAAAAAAAAAljLAIAAAAAAAAAACghBEWAQAAAAAAAAAAlDDCIgAAAAAAAAAAgBJGWAQAAAAAAAAAAFDCCIsAAAAAAAAAAABKGGERAAAAAAAAAABACSMsAgAAAAAAAAAAKGGERQAAAAAAAAAAACWMsAgAAAAAAAAAAKCEERYBAAAAAAAAAACUMMIiAAAAAAAAAACAEkZYBAAAAAAAAAAAUMIIiwAAAAAAAAAAAEoYYREAAAAAAAAAAEAJIywCAAAAAAAAAAAoYYRFAAAAAAAAAAAAJYywCAAAAAAAAAAAoIQRFgEAAAAAAAAAAJQwwiIAAAAAAAAAAIASRlgEAAAAAAAAAABQwgiLAAAAAAAAAAAAShhhEQAAAAAAAAAAQAkjLAIAAAAAAAAAAChhhEUAAAAAAAAAAAAljLAIAAAAAAAAAACghBEWATdCdYM6djWr0XsKTIsM15m/JaiOLbXeM0TRLwAAAAAAACg1hEUoabc99T3d9dJ/0p1P/YG3JgeL/kBfMtvfaba37+G+zwbd4v06pZXN6thZL59drnbWYE6oUHBXq7r3taqjZQ4ECVleZ766JnUTjEwy9X6pUGOLOQfeNeM+CIgBAAAAAAAwOxEWoXQt2qAvfq3SWbzlrqrMIU8ss+2df/WUs33sdrd87Y9051//pW7znk9iKz021cinYXVuP6T+c956zH7V92qFe7nIt+ae2X3TP8vrbKSnS9sOjkl1TepoqfDWzoQKBZ9tVffzQQWrvFWzSCH6pXHLerWuMefAu2YAAAAAAACA2YywCKXrw+P61cd2IaJPf3Jcnzkrs+HXl/7dHzkh0Wc/fUmXn/oTfew9Lu8Lmff6L/rUfWGCCgWftJUeY+rdcUj93lrMEefe18mIuxg++MEsPn+5XWc2GOkctAHYIwrOWKXbJY3+3FucZuXlv9FDSz7Tn9VFH7/WQ5Wfq9z7fSpT65cKVd3tLoX27teGJzq9B597AAAAAAAAzE6ERShhI/rFX9uQ5y917cCIty4Lixp0613mpw2KXvqHuJDpsxPfS/le/pZHtLbSBg1vqIuKojnokrq2uzf9t/YMeetmn3yus/4X+xRSudY+2SC/t64YlFf+Wmv8v9GiuFK/z7XobrN+yW8yBkZT7pfIgHqOXfKeAAAAAAAAALMXYRGQo1sCK5yqok8H/sFdkZVatawpd24e7+nh5jGmS77X2ZB67LBrlfVqWemtmhFXNTrqLRbab/9Gf3D352bhJn340c06OHiL/s4+fnazPrSlf7f9Rmtq7O/TuVH9AgAAAAAAAMysm76xqinT3bJJrlyefBNy8WK/zp/PoTpjjuH4isCDf6m7ngh4T2J8/Pe6/NfdaYah+wPN++t1uu2uTJOPhHTtqe8lH4JuZbO6N9UofHC/tmZ7E7+qVsFvBrRiWbl83qrwxWGdPHxSXaHk7+F/NKj2VVLvC13qsjfhk73H6T7teWVIsWc73+0cObSzcWOrWpeZnurq1O6Qt3ISO5/Neq1dMKzObxdq2K4KNbas0Lr62DlkxhQeDGnPAXNMkypwTBt2mTakOOVpz6N3rjNJ+R7Vpj/Xmf6si+nPyLAOvJx67qFx+VxnUXaeo5318g32acOL01855V4Lmc5xrdqeb1KST+0kiddUTc1nWjlf+uSjm/X3kZu8tVGf66G6X2uRbtK7P7tZP/lXb3UyefZL4xZzfHcPaNv245M/MwAAAAAAAMAs84UvfvGL3iJQ3G6pjN56j/dZpvmKFlXploxBUXqNy214MKaTb2dzA79CwY1BdT/TpLUxAYzlW1CjtcH1asvi7rkNgJK+h3mku3md/Xa5t7P/xwMKm5+B1WmG9aq6VysWmJ+nCzUvUK3adq1X65rYoMgyba5rUvvOoNpaKrx1N5a/xfTnTtOfMUGR5ausUevOVnVkaGdu11mC6JxMdfeo0V0zh32uxfPtz5v0j5OCIusm/fQju/5zzYsboi6JqfRLZbkWe4sAAAAAAADAbEZlUZY4viLkVRp9uu9PdO2Ety6jP9C8l57SbRmrkWJFq1SG1ZnNBPeBZnUHa5zqnAM/OKn+0ejnrUKNjz6i1lV2ppXkFRluhVC5QqeHFVhWI5n36Ex4D3/VJY0kDP2V13Z5tjNTdZH7+7GJKqcpsgFMuzM0m2lLXHWOOaaVK7T5MXO8A9lV4kTfK6/KHbO/aLVS0u3HK5LGFDoYUk/PRBWX3/xus/mdz/yud4fpl6QVRjleZ0m4x6c0+ygc95q7WsDqsRi//Rv90Vd/o9uv3qy/G54Ii+wVOeYumie/1p/5P09ReRQvn35xKovq8j8XAAAAAAAAwExiziKULLfSKKJf21KXbNkqI/vz49EsgyLrDi20FS2RMZ13V6QXOqRtL3Rq63OHYgIY65L6X+9S52m7PF9VVc7KpGzgEz6yXxuSvEdiUBQrp+3ybOd4ddHXat0VcWr14DLz4+Kw3ipAUBQrPHAyYRg3c0zHDmnrdnMMOQc/uWvc4gVFg31J9lehoA2tjNDeLu2OCYosp517h81SuVY8kKq6KMfrLKVyLVzoLc5Vt32u282PT8bHhLTDzn2mNebxR5Xe30d8epM+MT9uz1RZNC7bfqmQv6VZ6+rM4pTPBQAAAAAAADAzCItQovy67d9USh+f1Kcfequy4XPDos8iuWyUu/FgpqpCjYEGtW0MquPZoLqfd6tynBvXdzuvSO50n7a+nkcAkuN2ebVz9H2dvGh+LgsomBh4Be5x5qcJv/t+weZ5GXl72AmnfGseUVtLrfzV7vqZ5FaZmAUbFCWb96b6Xq1wgp4B9RxzV01y7APZQixf/b2ph/CbopHwVW+pyJT/Rou8xezDoQlZ9Yud22hfq7r3rVe7HfIwMqzel5mvCAAAAAAAAHMDYRFK1CLdfJf5kVOFkHRbvY0yIvpVaHpvAftt8PJsq7qfWa/WYL0Cdk6gBXYQreyEP77iLeUm1+3ya+cldR32qmTuj62SqVBwta2uGdaBfIKuVM4d19YdAwpFyhVYY+cosjf0zWOXnato+sMjO4RZNCjaliwoshZ6cxRV1qvdCRySPZqcIK2oXJzeypvxYGjsC3rXqTK6SR9eTT/kXKHYgLLAxXEAAAAAAADAtCEsQml68AHZ+8ifDvyD+zwrft1iAyaF9dl0FhYFmtVug5cFZvnisEJH+tT5wn5tM48N3+70hnebBabSztBJ9V6UfKtWqNFbpap7tcK+1+kPCj/Hy7nj2r29Uxt27FfnQdPWyJjClRPhUceW2mmp1onOcWQrhmxQNNurTPy++d7S9Bt5vUsbnstUeVOrtudbnUq1TI+22CTNG2Juwk36yXu36O8Gb9bR6KRFk4aqSy2rfrGh5BPmGnvCXmNj8lXWqPXJhmmrAgMAAAAAAAAKibAIJSmv+YryrEaSruhCxPyoLNdid0UatWoL2uqaMfV2uXMH7X59yJkTaCRuXqAbbartvKS33rV37Wv0oHeT339/jXz2/X6covqmEM5dUn+Paev2LvfG/o4+hcy58dU1aXNLqrmA8hMXFG3PEIpcGHMqUWz10QYncEjzSPleuVxn6YzpwgVvca7615t0zf6c/xtzhSVX7lUdXfs020qjbPvFXmNd6hw0i1M+FwAAAAAAAMDMICxCSbql0k4Qk2OF0CJ3vqLcw6JLGv3I/pyvqmyHPLs4rLdCyUKXCiVO83NDTaGdI6+HnDl4Aqtt9UWFvv575e77ZTN2V5U3/N3zrep4NH3I41+Zpmro3JB2v2aHxJN8vjucn4XgX9nsBUXD6swUFFnn3tdJG/TUBRTMe1i8PK6zOOYc1NshBK9q9Jy7ZvrUeucvGF8RNIk5P9/udCrVMj1224tp3E0670wz9Ll+v/JzZ028z/W1u+1687popVFKM9kvAAAAAAAAwI1BWIQSFB1OLqAvrpuIEW558A90W3QW/CRuCaxwwqLchq5z9Z/y5uh5IMvqlQX12vxobMhRIX+gWR3PrtfaZd6q2WBK7RxSz5Ex8x41+vqj7hB04Xffz2qotsZvesPfGb5VjyiYKpmqbtDmTU1q3xd0h5qrju9/f3Wt2ja5tSfhcH7zPE1igyLnPW1QdCjLIfUuqcsJrcq1dmeyuZQq1Nhi+nVf88SwfUnkfJ3FqjbnwGaog9MwDGAC/6MB7/yVe2Fh4Q1/9AVnKLrb7/61/qjyc7Mnz29/roeW/FrOR/3qF8xZymAG+wUAAAAAAAC4UQiLUIJG9OlPbBmHdMsf/o3ueuk/OY87n3hKt9rR6VJwq5FyHbrOc+wDp4rGV39vhhvjXoBi+FY1qX18Tpb1ag/aYdqG1Xkk4+3tGVCYdrrVReVau6re2ebA6wUeau/cce3ZO6BQpNwZaq5953p17zPt9B7tO5vkFLZEBrSnpwD7rm5Qhxc+2SH2WmP2NemxKyEkOXZI2w7aPp2YS2ni9evVusb0q7ls01YNZX2dTeZ/wJ43KXRqGocBnEn/+gX9w0fuEHM2MFpT95n+zD6++mstciYs+4IODmcegi6/fqlQ1d3mR2RM590VAAAAAAAAwKxGWISS9NmB/1XXfuoGRq6IPv3RS/rlCe/pJNFqpByHrhs3pB4bBFTWZ5wbx078v61rWOGL3grr4vD43ED9H3vrbrDCtHNIJ057i6ezr9zo//GAQt5+w0feUFeaoetGjh3X7u2d2uaERm7AFRWOmPbu3Z95TqFsLSx3goV8jfR0OfMo9Q56cxhFmXaHDvaZdh5SV9qh0LK/zuLVqsWbX6nnmLdqGjkhoXP+zHEdLlDfJzEWuVkHR76gD+PmJbpJH35k1r/3BbP3TGa2XwAAAAAAAIAb5aZvrGpKNqFDWlcuT/4L/MWL/Tp/frpu+d14HB+mrkLBXeu1tnJMvTu6Mtz0Lx2NG1vVusz0yQumT7KZrwgZ5H6dNW4x56CO6zJR/v3inQMNFC6IBAAAAAAAAKYRlUXAjLmkrpcHFLbDru1MP/dMyahq0Do7t9HFYb1FUFQguV1n/pagWuuk8ME3CIpiFKRfKuvVsjKP+aMAAAAAAACAGUZYBMykc8e1de+wwnY+m12lHRj5Aw3qeMbOVaRpHYqsJGV5ndlApN0OszbYp62FmLOpSEy9Xy7prQF3kLvApth5sgiJAQAAAAAAMDsRFgEz7dghbd1hKz+MamdN6ahqUMfzreo2j/agGxSFT/dpd8j9NQooy+ssPNinDS8Oec8QNdV+sfNPbTs4rHDs1GgAAAAAAADALMWcRVni+IACCDSrO1jjLl8cU+jwG9odoqIFAAAAAAAAAG4kwqIscXwAAAAAAAAAAKAYMQwdAAAAAAAAAABACSMsQkmwlVMAAAAAAAAAAGAywiIAAAAAAAAAAIASRlgEAAAAAAAAAABQwgiLAAAAAAAAAAAAShhhEQAAAAAAAAAAQAkjLAIAAAAAAAAAAChhhEUAgHjVDerY1axG72kif0tQHVtqvWcAAAAAAAAA5jrCIgCYMRUK7mpV976ggtXeqqmwoc4++34Jj10N8nsvydnKZnXsrJfPLqdpo6+uSd0ERgAAAAAAAEBRICwCMMd4gUs2gcjK5vEApW2lty5OrdqiAQvBhxs+baqRT8Pq3H5I/ee89QlGerq07eCYVNekjpYKby0AAAAAAACAuYqwCEBJCCxPEgatvEcBb3FOOndcW5/o1IbxR59C3q9yV6Hgk7aiaEy9Ow6p31ubig2MOgcl35pHClMlBQAAAAAAAOCGISwCUBrq7pk0B0/j8hpvCf6WR7S2UgoffENdKSqKEvW/aMOpcq19cgrD3gEAAAAAAAC44QiLAMwxd2hhpbeYpdDgsPlvjR6MG4quVg/WmR/md/lX4xSLWrWsKZciA9rTc8lbl40h9djh6Crr1ZJ0mL8UqhvU5szd1MowdgAAAAAAAMAscNM3VjV97i1n7crlyTcTFy/26/z5Ee9Z8eH45rZiP74of0tQ7Wuk3h1dbnVIda2C6wJaUVcun/sShQf7tOfFIU3qjWSvjQzrwMup566xQ5c1tqzQuvoa+cYDnDGzj5D2HDD7SFehksv+Vjar47HYfaRhjm+DOT6HnbNoU43CBwcUWVOvQJLfhczvlPi7GP6VDWp5zPw+8fiS9eG4CrPdCm2OaXN4cEAHDhyX1rWqtc4O9eado0R5nYcoOwdTkwKRAW3bfjxN+xKM99N+bc0pLDLsPEc76+VL0X/JNG6xfeA9cYa9S9EXAAAAAAAAAGYElUVAkbLBUffOJq2NCR0su5wYIqR8bWWNWnemqv6oVduu9WpdkxjimPeoa1L7zqDaUlSN5LO/rIKilK7oQsT8iBmKzu+bb/47pgthKflbVyi4q1Xtm2KDIss7vn3BFHP12O3Wm+3i+8VXV2+OLah1d3srksjvPEydOxzfmE6+nWNQZJ17XycT+hYAAAAAAADA3EJYBBSdci1c16x2Z1ixYXXu2K8NT3R6j/3adiCh+mOl91qNKXSwT9vGX9upbXuHFTa/8a15ZFIw4m8JuCGKs4+JbZx92O0i5clDmHz2d+xQzPvbeXIMWz0Ts+34I2l1yxW9NTBmfkaHoqvQ1+vd/nnrgn0+WXQOH6ede2P6cEefem04Yufq2dk8eR6kLeuTbrfNbBcyfZIy9MrzPExdhaqcAOuqRvOq7rnk9e18VWXZtv4DA6Yv3OVc5kgCAAAAAAAAMD0Ii4AiFKhzhxTbsN0OXRZbLXIpYWi4CgUfs1UlUmhvl3b3xA+tNnLskLbutfP9lGvFA8mrWsIDJxOGRzP7sNtt70wypNnU95cPn+8OjfSEnJApsLxWqr5XKypNG15LMVRbdYM2e8GNHSJt97GY4zg3pK7t+73AqEbrYqt9zHbrnOHVJm83YrbbPb5dohvTLy5vDqjImM67K/JUroULvcVMzh03feEGYTkPewcAAAAAAACg4AiLgGI02JfdTXgvNLFVOj3H3FWTHPvACVl89ffK765xjLw9Ue3S1lIrfzZVJVPY39QN6cSg+XH3HWp8oEY+DeuEbcPC+CHfHNF1g6EUVS+X1PWaDW8S2plxuxRuaL9M3Uj4qrcEAAAAAAAAYC4iLAKKUDh8xVvKIBpuVNarfV+rupM+mhRwXpzg3HFt3WGHEytXYI2do8h7/S47V1GK8Ggq+yuA/lPDzr5bbdXQ4Afq99YncuczytCPF8acsEyV5VrsrMhyu2RucL8AAAAAAAAAKG2ERQDyFx1ObMd+dR4cVigypnDlRHjUsaV2dlXBeNU5VuhUsrmNkI9oSAYAAAAAAABgbiIsAkpZtDpmsM+ZPybtY3uK+X2sc5fU33NIu7d3aat97Y4+hSKSr65Jm2Pn9CnU/qyYip7sDenEQdOGyIA7BF0Gdq6jlKLVQEnm+km7XTKF7JecXdEFO49SXv0Za0wXLniLAAAAAAAAAOYUwiKglJ17XydtUFAXUDCbOYdi+FemqRo6N6Td0Tl9YoOTKexvsvmqyuM9+nu6tHX78ZRD0FnR+ZhSt7NCwcdqnKXwwPvj4c3Edveo0VmToPoOLbRzEyUqaL8YOQU/lzT6kf2ZX3/avvh6fbn5eVWjWc/TVKu2Xe7werb6DAAAAAAAAMCNRVgElLRL6nJCnXKt3ZlsrqEKNbY0q2Nfc3z4Ud2gzZua1L4v6A41Vx1TPWT4q2vVtskLU+Lm78lzf3GGdGLQ/jTv8WSDGmO3N+1oXBnflrycO64D0X3Ydsa+pzm24K71WuuEPsM60HPJWe2Ihj6qUesucwwxbfOvNMe1M9W8Q4XoF8urEjL7X2ffw1lnmDbH9VMCZy4ns+8VD+TRd9X3aoXtizRzQCXytwQU8EIzX6ECMgAAAAAAAAB5u+kbq5o+95azduVyzM1Rz+LFfp0/X9jBkWYTjm9uK/bji/K3BNW+plzhg/u1NTbEyCC6XUqRYfW+fEhdMZUj/pUNanmsfvymf1KRAW1LMmxaPvuLU92gjp317jBwkwyr84lDbnCxslndNrSyw7u9mGKOopSvqYgJhZIZU++OrsltTNc2c1yhj2oUqEu+7ZT7xUj5Hun6wFb67GtSIMX5Sie6v9DeTu3OYmg/K7GNuV6vAAAAAAAAAArrZn/NV/7aW87av/7rv3hLE+bNm69r1656z4oPxze3FfvxRc1f9vtqqv1tXf+n0/rRmcmf01SunnlX/3nwmn5rfrlur/xtlXnr7Xw8of5j2rPnhP7rNW+d5+qHF/TfDp/UqZ/frHLfbfKV/bb3GykcGdaR7je075WhpMFDPvuLc+2CfmS2r/lqeZL9ntTBD71jX/y7+reBcumjf9Z/PnHZXZco5Wv+Re+OH1+l2Y+3WmMKDx7T/7z9aPI2em2zx/ZVc2wuc1wH3eM6s/hec46ks//vu3o3sU+n2i+GfY9Tv1WhpbXlMdsPq/f//UDvRvtlkssK/5ZpV/1XtPS3hnO4dmq16dll8kUGtOeVC8r2E3b1zH9XzYNfGe/TXK9XAAAAAAAAAIVFZVGWOL65rVQqi4D8RSupUlRMJdG4pVWtKaqksuJVdVFZBAAAAAAAANxYzFkEADAuqevlAYWdeZMyzY3kDiXXWmeHkHsjv6DI8Pvmm/+O6eTbBEUAAAAAAADAjURYBABwnTuurXuHFVaNWnelDozG5xwa7Mu/Iqi6QZud9wjlHTYBAAAAAAAAKAzCIgDAhGOHtHWHrTAyqp01SYUH+7ThxSHvWS4q5G9pVsfOevkiw+rM6z0AAAAAAAAAFBJhEQAgnq0w2n5I/SkqfkZ6urQ175DnDrWsqXGqkrbZfXhrAQAAAAAAANw4hEUAgBk0pN1PdDph04i3BgAAAAAAAMCNRVgEAAAAAAAAAABQwgiLAAAAAAAAAAAAShhhEUrC+fMMeAUAAAAAAAAAQDKERQAAAAAAAAAAACWMsAgAAAAAAAAAAKCEERYBAAAAAAAAAACUMMIiAAAAAAAAAACAEkZYBAAAAAAAAAAAUMIIi1AyGre0qntf9BFUx65mNVZ7vwQAAAAAAAAAoEQRFqFElctXWaPWnc1q9NYAAAAAAAAAAFCKCItQMvpf7NSGJ7zHjj71Ruza+aqiuggAAAAAAAAAUMIIi1Cazg3prYEx7wkAAAAAAAAAAKWLsAglayR81VsCAAAAAAAAAKB0ERahZPl9870lAAAAAAAAAABKF2ERStxVjZ7zFgEAAAAAAAAAKEGERQAAAAAAAAAAACWMsAglrkatuxrUWO09BQAAAAAAAACgxBAWoWSN9LyhzsExhSvr1bqzVd37WtXRUuH9FgAAAAAAAACA0kBYhJLn834CAAAAAAAAAFCKCItQulauUGtduRQZVueO/drwRKe29lzyfgkAAAAAAAAAQGkgLELJ8vvmm/+OqfflQ+o/R0gEAAAAAAAAAChNhEUocVc1es5bBAAAAAAAAACgBBEWocTNV1W1twgAAAAAAAAAQAkiLAIAAAAAAAAAAChhhEUoWSPhq94SAAAAAAAAAACli7AIJcvvm+8tAQAAAAAAAABQugiLUJqqa9Wyptx7AgAAAAAAAABA6SIsQslo3NKq7n3eY2eTAnZlZFhvnXN+DQAAAAAAAABASSIsQokaU3hwQJ0vH9eItwYAAAAAAAAAgFJ00zdWNX3uLWftyuVL3tKExYv9On++eG+7c3wAAAAAAAAAAKAYUVkEAAAAAAAAAABQwgiLAAAAAAAAAAAAShhhEQAAAAAAAAAAQAkjLIKD+YoAAAAAAAAAAChNhEUAAAAAAAAAAAAljLAIAAAAAAAAAACghBEWAQAAAAAAAAAAlDDCIgAAAAAAAAAAgBJGWAQAAAAAAAAAAFDCbvrGqqbPveWsXbl8yVuasHixX+fPj3jPik+xH5/VuKVVrXXeE40pHLmqAy8fUv85bxUAAAAAAAAAACg6VBYhhXL5KmvUuvP/394dg0aZpgEcf+TY8tgJpMm4OJO9I2yb5FxyCINItggWu01AO5uDZYoLCMJaealysCB4xRDYJp3BXKGFWGgVOPTWS9LIFeGOzMhmAkd0xua29BLzunuyxsxknGSc7/eDyfe875eJWP95v28qSmkHAAAAAADoP2IRP1m+UYkLl9Ln2oO4s7W7m4uThVe3AQAAAACAPiQW8Xa19Xi42kgLAAAAAACgX4lF7Ktab6YJAAAAAADoV2IR+yrmc2kCAAAAAAD6lVjEAZqxWUsjAAAAAADQd8QiAAAAAACADBOLOMBwlOcmolRISwAAAAAAoK+IReyrunQ/KmuNqA+NRXm2HIsL5bg+PZjuAgAAAAAA/UAs4kD5dAUAAAAAAPqPWMT+zpyO8uhAxNZGVK7diguXKnF5aTvdBAAAAAAA+oFYxL6K+dzOz0bcmb8XyzWRCAAAAAAA+pFYxAGasVlLIwAAAAAA0HfEIg6Qi5OFNAIAAAAAAH1HLAIAAAAAAMgwsYh9VevNNAEAAAAAAP1KLGJfxXwuTQAAAAAAQL8Si3i7wkhMnx9ICwAAAAAAoF+JRfykNFOOxYX0mZ2M8d3NrY14WHt1GwAAAAAA6ENiEftoRH1tNSrzj6KadgAAAAAAgP5z4uy5yZdpbtnzZ9tp+tmpU8V4+rR/s0K///8AAAAAAIBscrIIAAAAAAAgw8QiAAAAAACADBOLAAAAAAAAMkwsapH3FQEAAAAAAP1ILAIAAAAAAMgwsQgAAAAAACDDxCIAAAAAAIAME4sAAAAAAAAyTCw6IsXpi3F9ZiStAAAAAAAAeoNY1IbSTDkWF15/Lsb1uakoFdLNFuRHJ2NRMAIAAAAAAHqIWHRoA5EfGo7y7FSU0s67VJduxjd3GxGjk3F9ejDtAgAAAAAAHK9fFYc//VOaW/bjj/9N088+/jgXL14006o/1f7+OP56O33WXsRHn30an/06or72JJ68SL/0Ds1/Pon/FE7HuVI+PmrxOwAAAAAAAN3kZNFh1dbj4WojLVq3fONBrMRAfPn1RBTTHgAAAAAAwHERizpQrR/mJNV6LO0+jm5oLKbPpK1WFCbiytze+5I8xg4AAAAAAHhfxKIOFPO5NLWn+v1G1Heu478b2dtoQemrsRgf2pvz57+Ii4W9GQAAAAAAoBNiUceasVlLY6tq/4rHWzvX0d9EaW8HAAAAAADgWIhFx2I7ve8oFydbPCG0fHs1VnYD04763ftxs91ABQAAAAAA8BZiUceGozw3EaVDPRZuID75JI0HqT2Kb69W4sKlSlxe2k6bAAAAAAAAnRGLOlBduh+VtUbUh8aiPFuOxYVyXJ8eTHffrVpvpgkAAAAAAOD4iEXvQT5dAQAAAAAAPjRiUSfOnI7y6EDE1kZUrt1q6xFxxXwuTQAAAAAAAMdHLOrAXvBpxJ35e7FcO8x7hBrxww9pBAAAAAAAOAZiUceasVlLY8sG4/djAzvXdr47Elfm0nuRZkbSHgAAAAAAQGfEoo7l4mQhja0q/DZOD+1c1/4dy3s7BypOj8f47nd25EfH42K7/yYAAAAAAMBbiEXHoPj5cOR3riv/WN/baNtAnP58MM0AAAAAAACHJxZ1oFpvpqkdIzF9fiBiazWW/pa2WlBdWomVrbQAAAAAAAB4T8SiDhTzuTS1rjQzGePRiDvzj6Ka9lqzHt9ercSF7zbSGgAAAAAAoHNi0WEV0gmhNhSnL0Z5NKJ+937crKXNNu0FqkY8/n57bwMAAAAAAKADYlEbSjPlWFxIn9ndE0I7tjbiYQvhZzcU/Xk3Lq09iMtLhww9hYn446u/sXLo2AQAAAAAAPD/xKJDa0R9bTUqbTxOrr72IC7cWE+rdgxGcXoqrs+ORX5rIyqH+hsAAAAAAAC/dOLsucmXaW7Z82e/PBlz6lQxnj5t7y08tGokrixMxtDag/jLjfU233UEAAAAAACwP7EIAAAAAAAgwzyGDgAAAAAAIMPEIgAAAAAAgAx7b7HII+gAAAAAAAA+PE4WAQAAAAAAZJhYBAAAAAAAkGFiEQAAAAAAQIaJRQAAAAAAABkmFgEAAAAAAGTYibPnJl+muWXPn22n6U2lmXKUR9MiGlHfasbt+XuxXEtbAAAAAAAA9JQuniwaiPzQcJRnp6KUdgAAAAAAAOgt7/Vk0RsKI3Hx68n4cqgRd67djJtOFwEAAAAAAPSc7p0sqq3Hw9VGWgAAAAAAANCLuvgYuohqvZkmAAAAAAAAelFXY1Exn0sTAAAAAAAAvairsWhPMza9rwgAAAAAAKAnHUEsAgAAAAAAoFcdQSwajvLcRJQKaQkAAAAAAEDPOHH23OTLNLfs+bPtNB1kMEozX8RXowORTzv1u7fi8lKr3wcAAAAAAKCbjuQxdK9DEQAAAAAAAL2luyeLzkzF4h+GI7Y2ojL/OJZrThQBAAAAAAD0kq6eLCrmczs/G3Fn/p5QBAAAAAAA0IOO4DF0zdispREAAAAAAICecgSxKBcnC2kEAAAAAACgpxxBLAIAAAAAAKBXdTUWVevNNAEAAAAAANCLuhqLivlcmgAAAAAAAOhF3YtFhZGYPj+QFgAAAAAAAPSiE2fPTb5Mc8ueP9tO05tKM+Uoj6bFa1ur8c3VR1FNSwAAAAAAAHpHFx9D14j62mpU5oUiAAAAAACAXvVeTxYBAAAAAADwYeniySIAAAAAAAB6nVgEAAAAAACQYWIRAAAAAABAholFAAAAAAAAGSYWAQAAAAAAZJhYBAAAAAAAkGFiEQAAAAAAQIaJRQAAAAAAABkmFgEAAAAAAGSYWAQAAAAAAJBhYhEAAAAAAECGiUUAAAAAAAAZJhYBAAAAAABkmFgEAAAAAACQYWIRAAAAAABAholFAAAAAAAAGSYWAQAAAAAAZJhYBAAAAAAAkGFiEQAAAAAAQIaJRQAAAAAAABkmFgEAAAAAAGSYWAQAAAAAAJBhYhEAAAAAAEBmRfwPGWJ03vMLSHsAAAAASUVORK5CYII=;" vertex="1" parent="1">
          <mxGeometry x="842.5" y="1528" width="1675" height="813" as="geometry" />
        </mxCell>
      </root>
    </mxGraphModel>
  </diagram>
</mxfile>
